<svg width="24" height="24" viewBox="0 0 24 24" fill="none" xmlns="http://www.w3.org/2000/svg">
<path d="M2.21761 0H21.716C22.0521 0.15609 22.3907 0.308435 22.7192 0.489499C23.2484 0.790441 23.6096 1.32114 23.8202 1.88057C24.0598 2.51617 23.987 3.20671 23.997 3.87103C23.997 9.61513 23.997 15.3592 23.997 21.1033C23.997 22.1273 23.4955 23.2262 22.5224 23.6682C21.8389 24.0253 21.0489 23.9504 20.3053 23.9554C15.2467 23.9504 10.1889 23.9504 5.1319 23.9554C4.1124 23.9679 3.08162 24.0803 2.07089 23.8917C0.90342 23.5833 -0.0320647 22.4595 0.00806328 21.2345C-0.0032227 15.1157 0.00806482 8.98828 0.00179482 2.86581C-0.0187922 2.31843 0.138174 1.779 0.449466 1.32739C0.877079 0.703029 1.55424 0.319673 2.22388 0.00124994L2.21761 0ZM2.06838 1.06391C1.17804 1.51719 0.638821 2.50743 0.662647 3.49267C0.672679 6.65942 0.662647 9.82742 0.662647 12.9942C1.00123 12.5346 1.24325 12.0177 1.54045 11.5332C2.21635 10.4543 3.00637 9.42658 4.01709 8.63614C5.34006 7.56099 7.12074 7.02529 8.81615 7.32998C10.1792 7.66838 11.4082 8.36642 12.6496 8.99077C14.3538 9.89734 16.0354 10.8788 17.8474 11.5494C18.8745 11.8778 20.0244 12.185 21.0727 11.7667C22.0195 11.4158 22.6039 10.4892 22.8785 9.56269C23.0929 8.766 23.291 7.95184 23.281 7.12019C23.281 5.82652 23.281 4.53243 23.281 3.23793C23.291 1.94176 22.1136 0.76047 20.8081 0.772957C15.2462 0.781282 9.68392 0.781282 4.12118 0.772957C3.43022 0.781698 2.68284 0.685547 2.06086 1.05766L2.06838 1.06391ZM22.2264 12.8993C21.474 14.0743 20.5134 15.137 19.3209 15.8775C18.0945 16.6142 16.5997 16.9726 15.1827 16.7041C13.6528 16.3495 12.2872 15.5503 10.9003 14.8485C8.96286 13.8358 7.04299 12.6795 4.8811 12.2337C3.85157 11.9977 2.64146 12.215 1.92793 13.0404C1.09653 13.9569 0.903417 15.2369 0.696507 16.4119C0.626283 17.7668 0.696505 19.1254 0.662647 20.4827C0.640123 21.0108 0.773192 21.5339 1.04547 21.9877C1.31774 22.4414 1.71734 22.8059 2.19504 23.0364C2.79445 23.3348 3.48289 23.2461 4.12996 23.2536C9.39675 23.2536 14.6635 23.2536 19.9303 23.2536C20.4871 23.2436 21.0589 23.3023 21.6007 23.1213C22.6177 22.7467 23.3563 21.6927 23.2936 20.6064C23.2785 17.4758 23.3149 14.3453 23.276 11.2147C22.8797 11.7454 22.6164 12.3598 22.2352 12.9005L22.2264 12.8993Z" fill="#CF9D2A"/>
<path d="M2.06235 1.06268C2.68935 0.688067 3.43172 0.786716 4.12267 0.777974C9.68541 0.777974 15.2477 0.777974 20.8096 0.777974C22.115 0.765487 23.2925 1.94677 23.2825 3.24294C23.2725 4.53911 23.2825 5.83154 23.2825 7.12521C23.2925 7.95686 23.0944 8.77102 22.88 9.5677C22.6054 10.4943 22.021 11.4208 21.0742 11.7717C20.0259 12.19 18.876 11.8828 17.8489 11.5544C16.0319 10.8839 14.3553 9.90236 12.6511 8.99579C11.4097 8.37143 10.1782 7.67215 8.81639 7.3325C7.12098 7.02781 5.3403 7.56351 4.01733 8.63866C3.00661 9.42909 2.21659 10.4568 1.54069 11.5357C1.24223 12.0202 1.00021 12.5347 0.662887 12.9967C0.662887 9.82993 0.662887 6.66193 0.662887 3.49518C0.639061 2.50994 1.17828 1.51971 2.06862 1.06643L2.06235 1.06268ZM22.2342 12.908C22.6104 12.3673 22.8787 11.753 23.275 11.2223C23.3139 14.3528 23.275 17.4833 23.2925 20.6139C23.3552 21.7003 22.6166 22.7592 21.5996 23.1288C21.0617 23.3098 20.4861 23.2537 19.9293 23.2612C14.6625 23.2612 9.39574 23.2612 4.12894 23.2612C3.48188 23.2537 2.79343 23.3423 2.19402 23.0439C1.71632 22.8134 1.31673 22.4489 1.04445 21.9952C0.772177 21.5415 0.639108 21.0183 0.661631 20.4902C0.691727 19.1329 0.625268 17.7743 0.695492 16.4194C0.902401 15.2469 1.09552 13.9669 1.92692 13.0479C2.64044 12.2225 3.85055 12.0052 4.88008 12.2412C7.04825 12.687 8.96812 13.8433 10.8993 14.856C12.2862 15.5578 13.6581 16.3545 15.1817 16.7116C16.6012 16.9801 18.096 16.6217 19.3199 15.885C20.5124 15.1445 21.4755 14.0818 22.2254 12.9068" fill="#522D1D"/>
</svg>
