<svg width="24" height="24" viewBox="0 0 24 24" fill="none" xmlns="http://www.w3.org/2000/svg">
<path fill-rule="evenodd" clip-rule="evenodd" d="M12.282 15.1941C14.2165 16.9785 16.7745 18.9745 19.4725 18.9873H19.5191C20.4854 18.9841 21.4248 18.6569 22.1974 18.0543C22.3791 17.911 22.5506 17.7542 22.7105 17.5852C23.3306 16.9299 23.7508 16.0992 23.9185 15.1972C24.0862 14.2951 23.9939 13.3618 23.6532 12.5139C23.3126 11.666 22.7387 10.9413 22.0033 10.4304C21.268 9.9196 20.4038 9.64533 19.5191 9.64196H18.5911V13.2388C19.0926 13.2574 19.5675 13.4773 19.916 13.8522C20.2644 14.2271 20.4591 14.7278 20.4591 15.2489C20.4591 15.7699 20.2644 16.2706 19.916 16.6455C19.5675 17.0205 19.0926 17.2404 18.5911 17.2589H18.5641C18.4463 17.2589 18.3186 17.2589 18.2106 17.2411C16.6149 16.925 14.6976 15.2196 13.4137 14.075L13.3769 14.0418L12.282 15.1941Z" fill="#008AA0"/>
<path fill-rule="evenodd" clip-rule="evenodd" d="M1.96885 12.808C2.22206 12.34 2.59165 11.9511 3.03904 11.6821C3.48642 11.413 3.99517 11.2737 4.51215 11.2785C6.1324 11.2785 7.72074 12.1656 8.9973 13.1292L9.8467 11.8546L9.5251 11.6278C9.46373 11.5844 9.40727 11.5538 9.36554 11.5233L9.29925 11.4748C8.85193 11.1478 8.3845 10.8514 7.89995 10.5877C6.85534 9.99729 5.689 9.67723 4.49988 9.6547C3.30644 9.6547 2.16188 10.147 1.31799 11.0233C0.474095 11.8996 0 13.0881 0 14.3274C0 15.5666 0.474095 16.7551 1.31799 17.6314C2.16188 18.5077 3.30644 19 4.49988 19C5.60336 18.9752 6.6818 18.6538 7.6299 18.067C7.8754 17.9242 8.12089 17.7662 8.35165 17.5979C8.67325 17.3711 8.98747 17.1213 9.29925 16.8587C11.2264 15.2221 12.7828 13.1828 14.6854 11.5233C15.0688 11.1845 15.4731 10.872 15.8956 10.5877C16.6908 10.0138 17.6283 9.68986 18.596 9.6547V6.00173H18.5641C16.8026 5.96135 15.0943 6.63 13.7967 7.86773C13.4748 8.17009 13.1738 8.49548 12.8957 8.84151C12.687 9.09643 12.4882 9.36919 12.2992 9.64705C10.4604 12.3109 8.29027 17.264 4.47287 17.264C3.97372 17.2769 3.47997 17.1544 3.04039 16.9085C2.60082 16.6626 2.23063 16.3019 1.9664 15.862C1.70743 15.3979 1.57126 14.871 1.5717 14.3347C1.57213 13.7983 1.70915 13.2716 1.96885 12.808Z" fill="#008AA0"/>
</svg>
