<svg width="24" height="24" viewBox="0 0 24 24" fill="none" xmlns="http://www.w3.org/2000/svg">
<g clip-path="url(#clip0)">
<path fill-rule="evenodd" clip-rule="evenodd" d="M4.16325 8.65474C4.98628 8.6544 5.79072 8.40032 6.47488 7.92462C7.15905 7.44892 7.69221 6.77296 8.00694 5.98221C8.32168 5.19146 8.40386 4.32142 8.24309 3.4821C8.08233 2.64278 7.68586 1.87188 7.10378 1.26685C6.5217 0.661825 5.78016 0.249849 4.97293 0.0830127C4.16569 -0.0838234 3.32901 0.00197154 2.56866 0.32955C1.80832 0.657128 1.15846 1.21178 0.701246 1.92338C0.244032 2.63497 6.24011e-08 3.47156 0 4.32736C-4.14466e-08 4.89578 0.107691 5.45863 0.316934 5.98376C0.526177 6.50889 0.83287 6.98602 1.21949 7.38787C1.6061 7.78973 2.06507 8.10845 2.57017 8.32582C3.07527 8.54319 3.6166 8.65496 4.16325 8.65474Z" fill="#5B2281"/>
<path d="M22.0444 23.3411C23.9931 22.0739 24.585 19.4039 23.3663 17.3776C22.1477 15.3512 19.58 14.7358 17.6313 16.003C15.6825 17.2702 15.0907 19.9401 16.3093 21.9665C17.528 23.9928 20.0956 24.6082 22.0444 23.3411Z" fill="#5B2281"/>
<path fill-rule="evenodd" clip-rule="evenodd" d="M11.9809 23.8696H12.2353L23.7122 0.271292H16.7989L11.9809 23.8696Z" fill="#5B2281"/>
<path fill-rule="evenodd" clip-rule="evenodd" d="M7.78361 23.8696H11.2824L16.102 0.271292H12.6291L7.78361 23.8696Z" fill="#5B2281"/>
<path fill-rule="evenodd" clip-rule="evenodd" d="M0.252805 23.8696H7.08514L11.9307 0.271292H11.7297L0.252805 23.8696Z" fill="#5B2281"/>
</g>
<defs>
<clipPath id="clip0">
<rect width="24" height="24" fill="white"/>
</clipPath>
</defs>
</svg>
