<svg width="24" height="24" viewBox="0 0 24 24" fill="none" xmlns="http://www.w3.org/2000/svg">
<path fill-rule="evenodd" clip-rule="evenodd" d="M5.75173 1H13.7609L17.9549 8.28155L16.8005 10.285L14.6759 6.59623H5.6486L1.53038 13.7459L0 11.0891L3.71427 4.64078H13.2116L12.6475 3.66134H4.27149L5.75173 1Z" fill="#A30E06"/>
<path fill-rule="evenodd" clip-rule="evenodd" d="M5.96082 22L1.95655 15.0474L6.14998 7.76585H8.45808L6.33402 11.4546L10.8477 19.2913H19.0841L17.5537 21.948H10.1252L5.37625 13.7036L4.81219 14.683L9.0005 21.9537L5.96082 22Z" fill="#A30E06"/>
<path fill-rule="evenodd" clip-rule="evenodd" d="M24 11.3181L19.9952 18.2707H11.6071L10.4534 16.2673H14.7026L19.2163 8.43061L15.0981 1.28098H18.1582L21.8731 7.7293L17.1241 15.9737H18.2528L22.4406 8.70303L24 11.3181Z" fill="#A30E06"/>
<path d="M14.7053 12.7705C15.4386 11.1818 14.7483 9.29796 13.1633 8.56286C11.5783 7.82777 9.69895 8.51976 8.96558 10.1085C8.23221 11.6972 8.92257 13.581 10.5075 14.3161C12.0925 15.0512 13.9719 14.3592 14.7053 12.7705Z" fill="#1AB4B8"/>
</svg>
