<svg width="24" height="24" viewBox="0 0 24 24" fill="none" xmlns="http://www.w3.org/2000/svg">
<path d="M4.64516 3.7092H18L13.9099 0H1.41746C0.239089 0 0 1.65329 0 1.65329V13.4062C0 13.4062 0.315939 19 8.01803 19C15.7201 19 14.7808 13.8003 14.7808 13.8003C14.7808 13.8003 14.0721 16.9527 9.82827 16.9527C5.58444 16.9527 4.64516 13.3291 4.64516 13.3291V3.7092Z" fill="#007D3D"/>
<path d="M18.3548 20.2908H5L9.09013 24H21.5825C22.7609 24 23 22.3467 23 22.3467V10.6023C23 10.6023 22.6841 5 14.982 5C7.27989 5 8.21916 10.1997 8.21916 10.1997C8.21916 10.1997 8.92789 7.04734 13.1717 7.04734C17.4156 7.04734 18.3548 10.6709 18.3548 10.6709V20.2908Z" fill="#007D3D"/>
<path d="M11.7023 16.4115C14.1516 16.4115 16.1371 14.421 16.1371 11.9655C16.1371 9.51004 14.1516 7.5195 11.7023 7.5195C9.25308 7.5195 7.26758 9.51004 7.26758 11.9655C7.26758 14.421 9.25308 16.4115 11.7023 16.4115Z" fill="#FFF400"/>
</svg>
