<svg width="24" height="24" viewBox="0 0 24 24" fill="none" xmlns="http://www.w3.org/2000/svg">
<path d="M11.7221 0.0381407C12.489 -0.0821729 13.2878 0.0897037 13.9704 0.447371C15.1163 1.06694 15.8995 2.31919 15.9004 3.62872C15.9618 5.16334 14.9256 6.64148 13.4892 7.15711C13.0226 7.32969 12.526 7.40597 12.0291 7.38136C11.5323 7.35674 11.0456 7.23173 10.5984 7.01388C10.1606 6.80221 9.76906 6.50595 9.44636 6.14219C9.12366 5.77843 8.8762 5.35437 8.71823 4.89448C8.56027 4.43458 8.49493 3.94796 8.526 3.46269C8.55708 2.97741 8.68394 2.5031 8.89926 2.0671C9.16744 1.52336 9.56514 1.05387 10.0574 0.699922C10.5496 0.345979 11.1213 0.118439 11.7221 0.0373215V0.0381407ZM5.27021 5.57912C5.78175 5.51037 6.32111 5.52673 6.79991 5.73871C7.22459 5.90953 7.60042 6.18277 7.89388 6.53407C8.18735 6.88537 8.38933 7.30382 8.48184 7.75213C8.75439 8.92989 8.11845 10.2239 7.04463 10.7641C6.54603 11.0229 5.98049 11.124 5.42309 11.0538C4.8657 10.9837 4.34284 10.7456 3.92393 10.3713C3.50502 9.99696 3.20988 9.50406 3.07772 8.95804C2.94555 8.41202 2.9826 7.83871 3.18395 7.31425C3.35664 6.87224 3.63859 6.48123 4.00344 6.17779C4.36829 5.87434 4.80413 5.66837 5.27021 5.57912ZM18.2747 5.56602C18.6882 5.50571 19.1099 5.53929 19.5086 5.66426C19.9073 5.78923 20.2728 6.00238 20.5779 6.2879C21.3685 7.01387 21.6746 8.22274 21.2973 9.23436C21.1683 9.58894 20.9694 9.91401 20.7124 10.1903C20.4554 10.4665 20.1455 10.6884 19.8012 10.8426C19.3662 11.0335 18.8897 11.1098 18.4169 11.0644C17.9441 11.019 17.4909 10.8533 17.1002 10.5832C16.2498 9.99552 15.7686 8.90943 15.9478 7.88226C16.1115 6.7135 17.106 5.72725 18.2723 5.56438L18.2747 5.56602ZM11.8064 9.254C12.2886 9.18407 12.7808 9.24237 13.2333 9.42303C13.6858 9.60368 14.0828 9.90033 14.3843 10.2831C14.6858 10.6659 14.8812 11.1213 14.9507 11.6036C15.0203 12.0859 14.9617 12.578 14.7807 13.0304C14.6037 13.4611 14.3226 13.8413 13.9627 14.1368C13.6027 14.4323 13.1752 14.634 12.7182 14.7238C12.1543 14.7917 11.556 14.7721 11.0404 14.5093C10.6452 14.3218 10.2994 14.0445 10.0307 13.6994C9.7619 13.3543 9.57765 12.9511 9.49265 12.5221C9.42308 12.1546 9.4283 11.7769 9.50801 11.4115C9.58771 11.046 9.74027 10.7004 9.95656 10.3953C10.1728 10.0902 10.4484 9.83175 10.7668 9.63552C11.0852 9.43928 11.4399 9.30925 11.8097 9.25318L11.8064 9.254ZM6.40787 12.9363C6.77377 12.884 7.14695 12.9411 7.48046 13.1004C7.81397 13.2597 8.0929 13.5142 8.28214 13.8316C8.77322 14.6133 8.52768 15.7272 7.78206 16.2559C7.51494 16.4492 7.20175 16.5689 6.87383 16.6031C6.54591 16.6373 6.21475 16.5847 5.91352 16.4507C5.59296 16.3007 5.32203 16.0621 5.13276 15.763C4.94349 15.464 4.84379 15.117 4.84543 14.7631C4.82333 13.8791 5.53621 13.0631 6.40868 12.942L6.40787 12.9363ZM17.286 12.9854C18.1806 12.7243 19.2143 13.2694 19.4959 14.1582C19.811 14.9767 19.414 15.9866 18.6406 16.3926C17.9432 16.7904 17.0037 16.6381 16.4414 16.071C16.2165 15.8401 16.0553 15.555 15.9735 15.2432C15.8917 14.9315 15.8922 14.6039 15.9748 14.2924C16.0579 13.9779 16.2229 13.691 16.4529 13.461C16.683 13.231 16.9699 13.066 17.2844 12.9829L17.286 12.9854ZM11.6468 16.6963C12.7108 16.3108 13.9876 17.1472 14.0466 18.2808C14.1611 19.1999 13.4646 20.1125 12.557 20.2688C12.0958 20.3548 11.6192 20.2621 11.2239 20.0095C10.8286 19.757 10.5442 19.3635 10.4284 18.9089C10.3126 18.4543 10.3741 17.9727 10.6003 17.5618C10.8266 17.1509 11.2008 16.8414 11.6468 16.6963ZM7.22714 20.3793C7.7305 20.1338 8.37954 20.4514 8.50476 20.994C8.675 21.5579 8.17738 22.1611 7.60446 22.1513C7.38797 22.1452 7.17995 22.0658 7.01435 21.9263C6.84876 21.7867 6.73537 21.5951 6.69269 21.3828C6.65934 21.1791 6.69443 20.9702 6.79247 20.7886C6.8905 20.6071 7.04596 20.4631 7.23451 20.3793H7.22714ZM16.551 20.3441C17.0659 20.1526 17.6813 20.5266 17.7509 21.0701C17.89 21.6905 17.241 22.2978 16.6337 22.1202C16.43 22.0758 16.2474 21.9635 16.1159 21.8017C15.9845 21.6399 15.9119 21.4382 15.9102 21.2297C15.9103 21.0347 15.9717 20.8446 16.0857 20.6863C16.1996 20.528 16.3604 20.4095 16.5453 20.3474L16.551 20.3441ZM11.9759 22.1799C12.3851 22.0703 12.8655 22.2618 13.0398 22.6587C13.2854 23.1277 13.0399 23.7776 12.5259 23.9404C11.9947 24.1573 11.3375 23.7538 11.2982 23.1826C11.2699 22.9616 11.3231 22.7379 11.4478 22.5534C11.5726 22.3688 11.7603 22.2361 11.9759 22.1799Z" fill="#015BAA"/>
</svg>
