<svg width="24" height="24" viewBox="0 0 24 24" fill="none" xmlns="http://www.w3.org/2000/svg">
<path d="M7.04739 1.61777C8.36318 0.708966 9.91697 0.123574 11.5204 0.0220265C12.7746 -0.0377073 14.0553 0.00581392 15.2632 0.38299C17.7771 1.05733 19.9931 2.54905 21.5597 4.62153C21.0358 4.31859 20.5538 3.94397 20.0068 3.67858C18.673 3.01383 17.2176 2.56925 15.7263 2.4694C14.8917 2.33202 14.0518 2.48391 13.2223 2.57692C12.0889 2.79538 10.9742 3.17426 9.98888 3.77928C8.84516 4.51912 7.82813 5.47572 7.12529 6.65247C5.84801 8.74401 5.51928 11.3458 6.08601 13.7139C6.23753 14.3735 6.47467 15.0075 6.70838 15.6407C5.85487 14.6501 5.16586 13.5297 4.66748 12.3221C3.97508 10.628 3.72673 8.7861 3.9458 6.96991C4.13585 5.59433 4.6495 4.25203 5.49531 3.14354C5.96359 2.59058 6.45326 2.04359 7.04482 1.61863L7.04739 1.61777ZM3.36623 3.49512C3.70867 3.1828 4.01686 2.82183 4.42093 2.58375C4.22831 2.92509 3.9809 3.23314 3.79941 3.58045C3.37137 4.44488 2.9536 5.32382 2.743 6.26847C2.5481 6.98517 2.43128 7.72073 2.39458 8.4624C2.40143 9.2031 2.36034 9.95404 2.52728 10.6811C2.86971 12.7462 3.92269 14.7046 5.52356 16.0682C6.9712 17.2629 8.77667 18.0445 10.6601 18.164C11.1026 18.2024 11.5495 18.2493 11.9921 18.1717C12.94 18.1117 13.8746 17.9186 14.7684 17.5983C15.0894 17.4899 15.3925 17.3337 15.7204 17.245C14.8917 18.0591 13.8686 18.6436 12.8371 19.1616C11.1246 19.9866 9.21653 20.3236 7.3239 20.1352C6.23803 20.0541 5.18136 19.7465 4.22232 19.2324C3.42274 18.7554 2.64541 18.2084 2.03931 17.4967C1.46145 16.756 0.91527 15.9709 0.608793 15.0758C-0.259274 12.7453 -0.161679 10.1264 0.66444 7.7968C1.23816 6.183 2.16049 4.7145 3.36623 3.49512ZM11.3732 4.73331C13.4278 3.82792 15.788 3.48061 17.9804 4.07283C19.357 4.46536 20.6882 5.14377 21.6616 6.20617C22.6418 7.17557 23.2881 8.43936 23.6682 9.75265C24.6339 13.4288 23.4294 17.4916 20.8637 20.2538C20.4357 20.6805 20.017 21.1362 19.5017 21.4622C21.1873 19.037 21.9843 15.9394 21.397 13.0226C21.0101 11.048 19.9751 9.19542 18.4299 7.89067C16.8033 6.44596 14.6057 5.78121 12.457 5.75305C11.2773 5.83839 10.0933 6.02271 8.98384 6.44852C8.77068 6.52959 8.56094 6.61919 8.34092 6.68319C9.22327 5.85391 10.2503 5.1925 11.3715 4.73161L11.3732 4.73331ZM17.2442 8.27894C17.7578 8.75766 18.1508 9.34561 18.5137 9.94124C19.3056 11.2673 19.8835 12.7342 20.0966 14.2685C20.3201 16.0853 20.1643 18.0036 19.3262 19.6582C18.7757 20.7053 18.0164 21.661 17.0319 22.3334C16.0902 23.0716 14.9567 23.5153 13.8019 23.7909C12.7087 23.9505 11.5915 24.0973 10.4905 23.9172C8.53697 23.767 6.68013 22.9726 5.06128 21.8974C4.37641 21.463 3.79 20.8964 3.22413 20.3195C2.99812 20.0763 2.74814 19.8468 2.58292 19.5515C3.39962 20.0209 4.20948 20.5158 5.10579 20.8316C6.62048 21.4416 8.25679 21.692 9.8853 21.5629C11.5838 21.4357 13.224 20.8051 14.6134 19.8297C15.7332 18.9764 16.6869 17.8799 17.2896 16.6024C17.9205 15.2951 18.2038 13.8333 18.1936 12.3869C18.1491 11.2452 17.9249 10.1176 17.5293 9.04524C17.4436 8.78923 17.3238 8.53921 17.2433 8.27723" fill="#5613A2"/>
<path d="M11.2958 7.56299C13.3333 7.23958 15.5762 8.37196 16.3467 10.3099C16.5783 10.8634 16.6904 11.4594 16.6757 12.0589C16.6609 12.6585 16.5197 13.2483 16.2611 13.7898C16.0188 14.4076 15.5351 14.8787 15.0686 15.3318C13.3675 16.7936 10.6007 16.82 8.90477 15.3412C8.46303 14.9196 8.023 14.4691 7.7696 13.9059C7.20117 12.7692 7.15836 11.3723 7.70625 10.2203C8.33119 8.7918 9.77283 7.8079 11.2949 7.56299H11.2958Z" fill="#FF0087"/>
</svg>
