<svg width="24" height="24" viewBox="0 0 24 24" fill="none" xmlns="http://www.w3.org/2000/svg">
<path d="M11.9997 0.00183825L17.3507 5.35567C17.5644 5.57504 17.7916 5.78461 17.9931 6.01379C16.4834 6.04197 14.9719 6.01808 13.461 6.02604C10.9867 6.02604 8.51303 6.02972 6.03874 6.02298C6.12816 5.85937 6.27637 5.74294 6.40621 5.61181C8.12106 3.89603 9.83592 2.18026 11.5508 0.464484C11.7039 0.311902 11.8607 0.162999 12.0028 0L11.9997 0.00183825ZM5.96647 6.04627C5.97811 6.19394 5.98239 6.34224 5.98117 6.49053C5.97321 10.3228 5.99035 14.1557 5.97198 17.9881C3.9754 16.0027 1.98474 14.0111 0 12.0135C1.99658 10.0326 3.98541 8.04351 5.96647 6.04627ZM18.0011 8.63279C18.0066 7.75469 17.9882 6.87596 18.0109 5.99786C19.8384 7.85824 21.6966 9.68922 23.5352 11.5392C23.6907 11.7071 23.8824 11.8456 24 12.0472C23.7795 12.22 23.597 12.4332 23.3961 12.6263C22.2337 13.7905 21.07 14.9548 19.9052 16.1191C19.2829 16.7558 18.6319 17.3655 18.0286 18.0187C18.0123 17.9327 18.0021 17.8457 17.998 17.7583C17.998 14.7173 17.998 11.6756 17.998 8.63341L18.0011 8.63279ZM6.03813 18.0548C10.0043 18.0395 13.9712 18.0493 17.938 18.0499C17.8338 18.1822 17.7211 18.3075 17.6005 18.425L13.2583 22.7689C12.8583 23.1777 12.4394 23.5655 12.056 23.9945L11.9574 24C9.99454 22.0091 7.99857 20.0507 6.03813 18.0561V18.0548Z" fill="#157215"/>
<path d="M9.77237 7.8172C10.6202 7.36244 11.5853 7.17368 12.5419 7.2755C12.8823 7.33001 13.2184 7.40906 13.5475 7.51204C13.6157 7.5439 13.6843 7.57454 13.7533 7.60395C13.8923 7.64991 14.0221 7.71854 14.163 7.75776L14.1557 7.79943C14.2218 7.82455 14.2886 7.8509 14.3547 7.87725C14.5384 8.00532 14.7283 8.12236 14.9096 8.24982C15.0321 8.36441 15.1644 8.46736 15.2942 8.57398L15.4118 8.70021C15.5741 8.87669 15.718 9.07278 15.884 9.24374C15.884 9.26703 15.876 9.31421 15.8736 9.33811L15.9348 9.33137C15.9833 9.43526 16.0483 9.53064 16.1271 9.61386L16.1173 9.70578L16.1963 9.71313L16.1767 9.83569L16.2723 9.82833L16.2331 9.95089H16.3256C16.3182 9.98153 16.3029 10.044 16.2949 10.0734L16.3562 10.0704C16.3972 10.2389 16.4958 10.3896 16.5038 10.5661H16.5405C16.63 10.9375 16.7518 11.3088 16.7433 11.6955C16.7433 12.0184 16.7598 12.3438 16.7237 12.6661C16.6731 12.9529 16.6015 13.2355 16.5093 13.5117C16.4781 13.6098 16.4481 13.7072 16.4156 13.8059H16.3795C16.3629 13.9676 16.2686 14.1049 16.1957 14.2452C16.1688 14.3065 16.1424 14.3678 16.1161 14.4291L16.0193 14.5198L15.9826 14.6301C15.8714 14.7587 15.7712 14.8964 15.6831 15.0418L15.6549 15.0308C15.464 15.3008 15.2271 15.535 14.9549 15.7226L14.9623 15.7521C14.8085 15.8464 14.6671 15.9604 14.5054 16.0419L14.4245 16.1271L14.22 16.1969L14.2126 16.2441C14.0356 16.3397 13.8274 16.3667 13.6663 16.4892L13.5046 16.5125C12.7991 16.8054 12.0145 16.7975 11.2649 16.73C10.8172 16.6308 10.3683 16.5193 9.95794 16.3066C9.82381 16.2539 9.71725 16.1387 9.5672 16.1277L9.57945 16.0866C9.4474 16.0239 9.31935 15.9531 9.19605 15.8746L9.21198 15.8434C9.12595 15.7994 9.04656 15.7435 8.97619 15.6773C8.91804 15.6389 8.86296 15.5961 8.81144 15.5492C8.7704 15.5076 8.72875 15.4671 8.68588 15.4267C8.64301 15.3862 8.60749 15.3409 8.56952 15.2974C8.54071 15.2823 8.51567 15.2609 8.49627 15.2348C8.47686 15.2087 8.46359 15.1786 8.45744 15.1466L8.42559 15.1577C8.37353 15.0696 8.31056 14.9885 8.23818 14.9162C8.22923 14.8787 8.21061 14.8442 8.18418 14.8161C8.15774 14.7881 8.12442 14.7674 8.08752 14.7563C8.09304 14.7379 8.10406 14.7011 8.11018 14.6828C7.97912 14.6307 7.9485 14.4763 7.85969 14.38L7.86459 14.2924L7.78804 14.2832C7.79355 14.2532 7.80334 14.1944 7.80886 14.165L7.71638 14.1699C7.72373 14.1398 7.73965 14.0798 7.747 14.0473L7.66616 14.0369C7.67167 14.0075 7.68208 13.9493 7.68759 13.9198H7.62635C7.314 13.0987 7.13639 12.2041 7.28215 11.3284C7.3483 11.0049 7.40893 10.6783 7.53203 10.37C7.65237 10.0468 7.80546 9.73676 7.98892 9.44474C8.08029 9.32894 8.16221 9.20599 8.2339 9.07707L8.26207 9.08504C8.35026 8.92816 8.4899 8.81112 8.61361 8.68367C8.76366 8.53905 8.89779 8.3736 9.08153 8.26943L9.07112 8.2394C9.30875 8.10459 9.51942 7.92382 9.76869 7.81046L9.77237 7.8172Z" fill="#AA7346"/>
</svg>
