<svg width="24" height="24" viewBox="0 0 24 24" fill="none" xmlns="http://www.w3.org/2000/svg">
<path d="M14.0476 0.678107C14.8326 0.407239 15.6108 0.0091794 16.453 0.00329096C16.647 -0.0320396 16.6447 0.225874 16.6952 0.356597C16.9374 1.30581 17.2805 2.22559 17.4801 3.18305C17.4162 3.37619 17.1785 3.32319 17.0316 3.36441C15.1903 3.58127 13.4055 4.1661 11.7734 5.08737C9.96126 6.15906 8.4216 7.83491 7.68373 9.89939C7.11182 11.2643 6.93016 12.7753 6.96268 14.2568C6.91782 15.7113 7.29909 17.1339 7.7925 18.48C6.96626 16.8755 6.42694 15.1257 6.20126 13.317C6.1564 12.0734 6.08912 10.805 6.40759 9.59202C6.66888 8.14111 7.3047 6.79148 8.10649 5.58788C9.63231 3.4201 11.6851 1.72309 14.0498 0.674574L14.0476 0.678107ZM13.7134 6.68078C14.1474 6.62307 14.5668 6.78794 14.9895 6.86214C17.8311 7.44038 20.5012 9.17512 22.0655 11.7613C23.6354 14.4182 24.2241 17.6498 23.9247 20.7412C23.835 21.8011 23.539 22.8386 23.2329 23.8538C23.1914 24.074 22.9368 23.9834 22.7933 23.9716C21.8132 23.736 20.851 23.4204 19.8777 23.1472C20.7535 21.2547 21.3882 19.1961 21.4476 17.0774C21.479 15.8361 21.3814 14.5689 20.9542 13.4007C20.1838 10.9923 18.3873 9.08561 16.3431 7.80311C15.8508 7.55815 15.3551 7.31555 14.8494 7.10239C14.4782 6.93869 14.0588 6.91278 13.7157 6.6796L13.7134 6.68078ZM12.4631 9.68035C13.6293 9.42714 14.9301 9.59673 15.899 10.3705C17.0753 11.2278 17.7123 12.7753 17.6248 14.2568C17.5127 15.0247 17.34 15.8184 16.8836 16.4485C16.0784 17.618 14.7171 18.4223 13.3198 18.3081C11.2867 18.3387 9.4286 16.505 9.29404 14.3817C9.22437 13.7039 9.30606 13.0184 9.53264 12.3796C9.75921 11.7407 10.1244 11.1661 10.5993 10.7014C11.1376 10.2233 11.7667 9.83227 12.4631 9.67799V9.68035ZM12.6873 9.95357C11.5895 10.2068 10.5657 10.9393 10.0555 12.0075C9.71904 12.6988 9.50822 13.4784 9.57775 14.258C9.7011 15.2167 10.0633 16.167 10.7496 16.8336C11.8014 17.9454 13.5228 18.3293 14.8987 17.6839C15.8541 17.3212 16.6032 16.4862 16.9979 15.5146C17.8401 13.6362 16.9531 11.1701 15.1611 10.3128C14.4053 9.88964 13.531 9.76233 12.6941 9.95357H12.6873ZM0.645919 17.3118C1.20661 16.7582 1.66526 16.1105 2.21586 15.5546C2.69581 16.1105 3.10512 16.7323 3.6131 17.2588C5.23351 19.1254 7.3417 20.6364 9.73474 21.111C12.3846 21.6409 15.1353 20.7577 17.3075 19.1537C18.1709 18.5142 18.8482 17.6556 19.5603 16.8477C18.8875 18.0502 17.9792 19.0783 17.0237 20.0357C15.3857 21.6409 13.3006 22.6518 11.0748 22.9199C10.0173 22.9305 8.94417 23.0224 7.9024 22.7727C7.01041 22.6114 6.1372 22.3512 5.29742 21.9966C3.61094 21.3715 2.07502 20.3666 0.797303 19.0524C0.500646 18.7835 0.233251 18.481 0 18.1503C0.134566 17.817 0.423883 17.5885 0.644796 17.3259" fill="#940509"/>
<path d="M12.686 9.95709C13.5229 9.76586 14.3973 9.89316 15.1531 10.3163C16.9473 11.1736 17.8321 13.6397 16.9899 15.5181C16.5952 16.4897 15.8461 17.3247 14.8907 17.6874C13.5192 18.3328 11.7979 17.9489 10.7415 16.8371C10.0553 16.1706 9.69304 15.2202 9.56969 14.2615C9.50017 13.4819 9.71547 12.7023 10.0474 12.011C10.5576 10.9428 11.5815 10.2103 12.6793 9.95709" fill="#FECB05"/>
</svg>
