<svg width="24" height="24" viewBox="0 0 24 24" fill="none" xmlns="http://www.w3.org/2000/svg">
<g clip-path="url(#clip0)">
<path d="M11.2443 0.302453C11.4699 0.126696 11.7435 -0.0155651 12.0344 0.00137081C12.3164 0.00137081 12.5838 0.147019 12.7731 0.355142C13.1028 0.707032 13.4585 1.03258 13.7892 1.38259C14.0529 1.61291 14.2789 1.88351 14.5364 2.12061C14.5775 2.16121 14.6159 2.20472 14.6511 2.25083C13.9625 2.27981 13.2717 2.24782 12.5827 2.26664C12.3732 2.2896 12.1622 2.27868 11.9523 2.28019L8.69684 5.62521C8.40711 5.91688 8.13021 6.22211 7.82839 6.50061C7.23392 7.10992 6.64202 7.72149 6.04645 8.32968C6.04645 7.39896 6.04645 6.46862 6.04645 5.5379C6.44276 5.15364 6.81563 4.74756 7.20792 4.35577C7.55588 4.03775 7.86062 3.67307 8.21225 3.35919C8.62175 2.92676 9.05469 2.52143 9.46529 2.08825C9.85904 1.72657 10.2162 1.325 10.5975 0.94978C10.8253 0.746925 11.0227 0.512081 11.245 0.303582L11.2443 0.302453ZM3.19021 3.08859C3.50192 3.08859 3.81289 3.08483 4.12496 3.09085C4.40443 3.11983 4.68573 3.10327 4.9674 3.10741C5.65124 3.11004 6.33508 3.10176 7.01855 3.11193C6.81087 3.38516 6.54239 3.60119 6.30761 3.84807C5.92228 4.2519 5.51132 4.62825 5.13039 5.03584C5.12343 5.73586 5.14944 6.43663 5.11171 7.13589C5.11317 8.29004 5.11317 9.44356 5.11171 10.5965C5.10622 10.948 5.12599 11.2999 5.09486 11.6502C5.09156 12.2803 5.09486 12.9103 5.09486 13.5403C4.44606 12.8769 3.79897 12.212 3.15359 11.5456C3.16128 11.0146 3.13637 10.4828 3.17227 9.95327V6.60636C3.17849 6.19237 3.15652 5.77839 3.18948 5.36741C3.19204 4.60793 3.18948 3.84807 3.18948 3.08859H3.19021ZM12.0486 3.60834C12.2021 3.45779 12.3497 3.2986 12.5017 3.14467C15.2889 3.14467 18.0758 3.14467 20.8624 3.14467C20.8624 4.43882 20.8624 5.73322 20.8624 7.02788C20.473 6.67298 20.1225 6.27517 19.7478 5.90522C19.4727 5.65946 19.2266 5.38171 18.9658 5.12052H12.6219C11.9355 5.11525 11.2491 5.13106 10.5634 5.11262C10.7528 4.88869 10.9663 4.68922 11.1685 4.47696C11.478 4.20485 11.7421 3.88345 12.0476 3.60796L12.0486 3.60834ZM15.7876 6.00909C16.7004 5.9993 17.6135 6.00909 18.5266 6.00457C18.8303 6.32937 19.1585 6.62706 19.4636 6.94997C19.6984 7.18632 19.9214 7.43509 20.1705 7.65639C20.6833 8.18328 21.1961 8.71017 21.7089 9.23707C22.14 9.64579 22.5429 10.085 22.9626 10.5058C23.2051 10.7191 23.4183 10.9649 23.6501 11.1903C23.9237 11.4877 24.0853 11.9351 23.9454 12.3356C23.8479 12.6325 23.6029 12.8342 23.3842 13.0367C22.8414 13.5922 22.3011 14.1511 21.7579 14.7062C21.7579 14.039 21.7598 13.3717 21.7579 12.7044C21.7338 12.4571 21.7422 12.2091 21.74 11.9611C21.4865 11.7424 21.277 11.476 21.0221 11.2585C20.6716 10.8911 20.3009 10.5453 19.9511 10.1772C19.687 9.94837 19.4632 9.67589 19.2035 9.44256C19.0266 9.27244 18.8629 9.08841 18.6863 8.91792C18.4223 8.68797 18.1999 8.41361 17.9373 8.18215C17.5945 7.81859 17.226 7.48364 16.8828 7.12084C16.6081 6.87658 16.3733 6.58943 16.0968 6.34818C15.9898 6.23904 15.8733 6.13743 15.7883 6.00947L15.7876 6.00909ZM11.3564 6.89465C12.7457 6.71927 14.2027 7.1325 15.2891 8.04516C16.3074 8.88141 17.0018 10.135 17.1311 11.4726C17.293 12.9065 16.7945 14.3886 15.8385 15.4409C14.8991 16.4793 13.5971 17.0926 12.2182 17.1461C11.9739 17.1405 11.7289 17.1582 11.4857 17.1296C10.6202 17.0458 9.78833 16.743 9.06458 16.2481C8.039 15.5387 7.2548 14.4462 6.96654 13.2038C6.82406 12.6495 6.80574 12.0695 6.84823 11.5005C6.98046 10.079 7.74451 8.74442 8.86679 7.90817C9.59741 7.35407 10.4558 7.0048 11.3575 6.89465H11.3564ZM0.282333 11.3164C0.933575 10.6514 1.57859 9.97999 2.23203 9.31761C2.24485 10.0078 2.23203 10.6984 2.23862 11.3875C2.25541 11.609 2.26103 11.8312 2.25547 12.0533C2.53421 12.3476 2.83492 12.6178 3.11146 12.9155C3.33379 13.1124 3.53342 13.3333 3.74403 13.5433C4.00555 13.7766 4.23081 14.0499 4.49526 14.2802C4.81429 14.6189 5.15456 14.9309 5.47469 15.2677C5.70508 15.4691 5.90726 15.7017 6.12703 15.9147C6.32995 16.095 6.5076 16.302 6.70319 16.4901C6.94054 16.6937 7.13869 16.9399 7.37165 17.1484C7.54599 17.3113 7.70349 17.492 7.87564 17.6576C7.99287 17.7555 8.10135 17.8639 8.1998 17.9816L8.18661 18.0253C7.2874 18.0343 6.38819 18.0253 5.48898 18.0298C5.37433 17.9124 5.26115 17.7927 5.13845 17.6839C4.84542 17.3975 4.57255 17.0851 4.26634 16.8115C3.86246 16.3983 3.45955 15.9843 3.05762 15.5696C2.4789 15.0235 1.95403 14.4194 1.37274 13.876C1.09071 13.5877 0.815267 13.2923 0.520413 13.0175C0.296984 12.8098 0.10652 12.5527 0.0270378 12.2498C-0.011882 12.0845 -0.00873731 11.9117 0.036168 11.748C0.0810732 11.5844 0.166227 11.4353 0.283432 11.3153L0.282333 11.3164ZM18.7567 10.362C19.2526 10.8776 19.7753 11.3646 20.2716 11.8798C20.4214 12.0266 20.5892 12.1579 20.7148 12.3281C20.7551 12.4481 20.7287 12.5791 20.7357 12.7044C20.7415 13.0939 20.7199 13.4842 20.7521 13.8711C20.7569 14.2475 20.7521 14.6219 20.7521 14.9975C20.7888 15.4736 20.7613 15.9516 20.7712 16.4277C20.8078 16.8906 20.7796 17.3557 20.7891 17.8202C20.8258 18.2835 20.7976 18.7486 20.8078 19.2127C20.8488 19.7328 20.8049 20.2552 20.8349 20.7757C20.6001 20.7757 20.3654 20.7734 20.1309 20.7757C19.642 20.8133 19.1508 20.7828 18.6611 20.7967C18.1241 20.8438 17.5827 20.7787 17.0461 20.8344C17.0388 20.8212 17.0234 20.7967 17.0157 20.7817C17.4271 20.3549 17.8512 19.9405 18.2479 19.4995C18.454 19.2884 18.66 19.0769 18.8658 18.8649C18.8705 18.6805 18.8655 18.4959 18.8508 18.3121C18.8347 17.8228 18.8669 17.3335 18.8288 16.8443C18.8288 16.4811 18.8288 16.1175 18.8288 15.7529C18.7922 15.2768 18.82 14.7984 18.8094 14.3227C18.7647 13.7838 18.82 13.2411 18.7757 12.7021C18.7706 12.3141 18.7757 11.9257 18.7735 11.5373C18.7405 11.1467 18.7622 10.7538 18.7552 10.3624L18.7567 10.362ZM16.5348 17.1405C16.9982 16.6294 17.4904 16.1469 17.9684 15.6501C17.9736 15.9971 17.9542 16.3452 17.9853 16.6915C17.9893 17.2718 17.9853 17.8525 17.9853 18.4329C17.5252 18.9048 17.0656 19.377 16.6062 19.8495C16.2433 20.2292 15.8594 20.5864 15.4997 20.9695C15.2199 21.2706 14.9104 21.5419 14.6294 21.843C14.1947 22.2871 13.7672 22.7395 13.3204 23.1704C13.064 23.409 12.86 23.7146 12.5424 23.8723C12.2593 24.0202 11.9058 24.0499 11.6186 23.896C11.4593 23.8313 11.3516 23.6901 11.2227 23.5814C10.8564 23.2174 10.4953 22.8509 10.1239 22.4945C9.892 22.2438 9.63195 22.0237 9.40485 21.7681C10.2945 21.709 11.1883 21.7579 12.0787 21.7173C13.5636 20.1916 15.0486 18.666 16.5337 17.1405H16.5348ZM3.05982 16.7965C3.27959 17.0152 3.4858 17.2455 3.71509 17.4525C4.13533 17.8823 4.55472 18.3129 4.97326 18.7445C7.0332 18.7445 9.09303 18.7445 11.1527 18.7445C11.3842 18.7445 11.6164 18.7351 11.8487 18.7607C12.3552 18.7723 12.8622 18.7505 13.3683 18.7716C13.1028 19.0659 12.8098 19.3308 12.5347 19.6154C12.345 19.8235 12.1263 20.0004 11.9369 20.2089C11.7736 20.3884 11.5879 20.5435 11.4219 20.7203C10.2831 20.7203 9.14443 20.7203 8.00604 20.7203C7.8837 20.7203 7.76283 20.7 7.63976 20.7008C6.11311 20.7008 4.58695 20.7008 3.06128 20.7008C3.06128 19.3988 3.06128 18.0972 3.06128 16.7957" fill="#2F3394"/>
</g>
<defs>
<clipPath id="clip0">
<rect width="23.9967" height="23.9982" fill="white"/>
</clipPath>
</defs>
</svg>
