<svg width="24" height="24" viewBox="0 0 24 24" fill="none" xmlns="http://www.w3.org/2000/svg">
<path d="M8.47563 2.15494C11.567 1.574 14.8887 2.65572 17.1436 4.91286C15.5712 6.80477 14.2728 8.92339 13.2892 11.2022C13.0931 11.652 12.9504 12.1257 12.7111 12.5557C12.0164 11.1866 11.1026 9.89771 9.85394 9.02109C8.87732 8.31312 7.72709 7.90596 6.53634 7.84672C6.36622 7.85177 6.19737 7.8787 6.03367 7.92688C6.26691 8.42662 6.57254 8.88783 6.76053 9.41047C7.30643 10.8628 7.5467 12.4099 7.97196 13.9008C8.36404 15.3261 8.92502 16.7233 9.7886 17.9153C10.5237 18.9239 11.429 19.7863 12.4608 20.4609C12.6086 20.565 12.878 20.718 12.9634 20.4609C13.0821 19.8747 13.0992 19.2688 13.2238 18.6816C13.8572 15.3073 15.2486 12.1007 17.1657 9.3022C18.7431 7.03777 20.7276 4.99406 23.1867 3.78429C23.4471 3.66977 23.7054 3.49694 24 3.5136C24 3.85508 23.7487 4.11953 23.6341 4.42457C22.8851 6.10806 22.5031 7.92896 22.0617 9.71656C21.4947 12.0362 20.976 14.3964 19.9696 16.565C18.9115 18.872 17.1301 20.7399 14.9158 21.8643C12.7362 22.9585 10.1907 23.2979 7.83121 22.7253C5.54955 22.174 3.52284 20.821 2.09598 18.8965C0.669125 16.972 -0.0697187 14.5949 0.00518311 12.1698C0.0800849 9.74475 0.964105 7.42146 2.50681 5.59533C4.04951 3.7692 6.15556 2.55308 8.46658 2.1539L8.47563 2.15494Z" fill="#289925"/>
</svg>
