<svg width="24" height="24" viewBox="0 0 24 24" fill="none" xmlns="http://www.w3.org/2000/svg">
<path fill-rule="evenodd" clip-rule="evenodd" d="M8.13766 5.28325C7.80281 5.65594 7.70147 5.87622 7.68364 6.26929C7.66326 6.72204 7.68916 6.79168 8.18722 7.62692C8.58347 8.29158 8.66681 8.34797 8.95776 8.14931C9.02786 8.10145 9.18413 7.99439 9.30489 7.91149C9.83596 7.54685 10.5467 7.26907 11.2294 7.15947C11.8205 7.06457 11.8268 7.04704 11.5977 6.12353C11.4018 5.333 11.3581 5.23367 11.085 4.95715C10.7145 4.58233 10.1888 4.43697 9.51943 4.52487C8.9767 4.59613 8.53942 4.83618 8.13766 5.28325ZM12.4237 6.07821C12.1765 7.03425 12.1862 7.06377 12.7822 7.15947C13.5747 7.28676 14.3513 7.61934 14.9738 8.09797C15.2199 8.28733 15.4214 8.28005 15.5555 8.07729C16.3887 6.81757 16.5236 6.22697 16.1204 5.60288C15.595 4.78987 14.7733 4.40748 13.8081 4.52676C13.0201 4.62448 12.7094 4.97246 12.4237 6.07821ZM4.68327 10.7059C4.90191 11.1696 5.19428 11.3511 6.08778 11.5769C7.02424 11.8136 7.08517 11.7975 7.15337 11.2973C7.25867 10.525 7.58118 9.74318 8.06818 9.07991C8.37949 8.6559 8.3563 8.60853 7.62081 8.16872C6.71703 7.62818 6.42546 7.55207 5.91918 7.72451C4.82992 8.09578 4.18568 9.64984 4.68327 10.7059ZM16.3908 8.16872C15.6585 8.60679 15.6315 8.66064 15.9373 9.07439C16.4198 9.72737 16.7419 10.5084 16.8593 11.3118C16.9302 11.7963 16.9882 11.8108 17.9156 11.5783C18.9499 11.319 19.2899 11.0507 19.4388 10.3764C19.7636 8.90747 18.563 7.38735 17.3206 7.69449C17.1181 7.74439 16.9962 7.80662 16.3908 8.16872ZM4.96885 12.9148C3.71303 14.1767 5.20027 16.8369 6.83654 16.2551C7.03513 16.1843 8.11745 15.5506 8.182 15.4671C8.29331 15.3231 8.26252 15.1762 8.06597 14.9122C7.59555 14.2808 7.2525 13.4453 7.15131 12.6846C7.08676 12.1994 7.01067 12.1789 6.12536 12.4069C5.31488 12.6157 5.229 12.6533 4.96885 12.9148ZM16.8614 12.6643C16.7438 13.4836 16.4273 14.2563 15.9336 14.9292C15.6286 15.345 15.6526 15.3905 16.417 15.8461C17.5602 16.5272 18.0326 16.5202 18.7772 15.8112C19.7804 14.8556 19.7296 13.1076 18.6852 12.6418C18.5643 12.5879 17.2417 12.2337 17.1776 12.2381C17.1694 12.2386 17.1261 12.255 17.0816 12.2744C16.9479 12.3327 16.8958 12.4251 16.8614 12.6643ZM7.93259 16.795C7.49861 17.5505 7.58765 18.1619 8.22605 18.808C9.19328 19.7871 10.8788 19.7141 11.3646 18.6722C11.4347 18.5215 11.7559 17.2926 11.7557 17.1754C11.7554 16.9968 11.6244 16.9041 11.2989 16.8522C10.4794 16.7211 9.72214 16.4092 9.09574 15.9445C8.86146 15.7708 8.71148 15.7273 8.57872 15.7946C8.5219 15.8235 8.24027 16.2595 7.93259 16.795ZM12.7557 16.8435C12.1933 16.9267 12.1818 16.9618 12.415 17.8843C12.6128 18.6667 12.6663 18.7871 12.9334 19.0521C14.0029 20.1129 16.3344 19.1458 16.3381 17.6399C16.339 17.2604 16.1949 16.9401 15.5936 15.9855C15.4207 15.7109 15.2529 15.6874 14.9766 15.8991C14.3554 16.3754 13.5213 16.7301 12.7557 16.8435Z" fill="#FF7F31"/>
<path d="M12 0C8.91878 0 6.36643 2.2823 5.94276 5.24717C7.5466 3.79085 9.6711 2.90362 12 2.90362C14.3289 2.90362 16.4534 3.79085 18.0572 5.24717C17.6336 2.2823 15.0812 0 12 0Z" fill="#37389A"/>
<path d="M5.25577 5.94152C3.82548 7.55063 2.95553 9.67394 2.95553 12C2.95553 14.3261 3.82548 16.4494 5.25577 18.0585C2.28672 17.6385 0 15.0842 0 12C0 8.91579 2.28672 6.36146 5.25577 5.94152Z" fill="#37389A"/>
<path d="M24 12C24 8.91579 21.7133 6.36146 18.7442 5.94152C20.1746 7.55063 21.0445 9.67394 21.0445 12C21.0445 14.3261 20.1746 16.4494 18.7442 18.0585C21.7133 17.6385 24 15.0842 24 12Z" fill="#37389A"/>
<path fill-rule="evenodd" clip-rule="evenodd" d="M11.6096 7.51364C8.78886 7.72429 6.86083 10.5889 7.69656 13.3275C8.81678 16.9977 13.7845 17.6534 15.8069 14.3981C17.7658 11.2448 15.3221 7.23629 11.6096 7.51364ZM11.6442 14.4134C11.668 14.4756 11.6619 15.5157 11.6375 15.5308C11.5671 15.5745 10.7328 14.4693 10.7793 14.3938C10.8053 14.3518 11.6278 14.3705 11.6442 14.4134ZM14.8567 14.4001C14.9201 14.5028 14.1096 15.1333 13.5885 15.3867C13.1809 15.5848 13.1621 15.5778 13.3605 15.3016C13.548 15.0404 13.7478 14.7112 13.8368 14.5164L13.9019 14.3741H14.3713C14.671 14.3741 14.8465 14.3835 14.8567 14.4001ZM9.95654 14.3741H9.55175C9.22544 14.3741 9.1468 14.3806 9.1468 14.4081C9.1468 14.5671 10.3628 15.4704 10.5767 15.4704C10.6097 15.4704 10.5748 15.4078 10.3755 15.1088C10.2577 14.932 10.1152 14.6945 10.0589 14.5808L9.95654 14.3741ZM12.7151 14.3741H12.3559V14.884C12.3559 15.2826 12.3627 15.3912 12.387 15.3806C12.4813 15.3398 13.1178 14.4443 13.0875 14.3952C13.0803 14.3835 12.9127 14.3741 12.7151 14.3741ZM11.6472 12.3868C11.6547 12.4176 11.6577 12.7175 11.654 13.0533L11.6469 13.6639L10.4173 13.6772L10.3542 13.4695C10.2392 13.0925 10.118 12.4144 10.1548 12.3549C10.1639 12.3401 10.4551 12.3307 10.9015 12.3307H11.6335L11.6472 12.3868ZM9.15754 13.6763C9.43891 13.6763 9.66905 13.6679 9.66905 13.6576C9.66905 13.6473 9.63593 13.5079 9.59563 13.348C9.52949 13.086 9.45741 12.6626 9.4395 12.4304L9.43278 12.3431L8.8714 12.3365C8.56272 12.3328 8.30241 12.3374 8.293 12.3468C8.22167 12.4185 8.38243 13.1031 8.56288 13.4957L8.64601 13.6763H9.15754ZM13.4441 13.6763L13.5236 13.4037C13.626 13.0525 13.695 12.7094 13.7044 12.5052L13.7117 12.3431L13.0508 12.3365C12.6873 12.3329 12.3822 12.3376 12.3728 12.3468C12.3635 12.3563 12.3559 12.6592 12.3559 13.0201V13.6763H13.4441ZM15.361 13.6763L15.4503 13.4627C15.5881 13.133 15.754 12.456 15.7202 12.3618C15.7076 12.327 14.458 12.3149 14.4374 12.3494C14.4313 12.3597 14.4186 12.4409 14.4092 12.53C14.3795 12.8126 14.2956 13.2928 14.2453 13.4688C14.2186 13.5622 14.1968 13.6471 14.1968 13.6575C14.1968 13.6679 14.4587 13.6763 14.7789 13.6763H15.361ZM11.6442 10.2521C11.6525 10.2737 11.6593 10.5811 11.6593 10.9353C11.6593 11.2894 11.6525 11.5968 11.6442 11.6184C11.6263 11.6652 10.1831 11.6796 10.1545 11.6334C10.0948 11.5365 10.3769 10.2935 10.4725 10.2325C10.5376 10.1911 11.6278 10.2093 11.6442 10.2521ZM9.18516 10.2126H8.69945L8.60272 10.4058C8.43002 10.7505 8.23479 11.4894 8.28316 11.6157C8.29824 11.6552 8.34823 11.6582 8.86543 11.6521L9.43128 11.6455L9.46025 11.3839C9.49473 11.072 9.5513 10.7849 9.63533 10.4944C9.66921 10.3772 9.69114 10.2658 9.68384 10.247C9.6734 10.2195 9.57459 10.2126 9.18516 10.2126ZM13.4308 10.3123C13.5427 10.5417 13.7542 11.5184 13.7145 11.6223C13.7026 11.6533 13.6003 11.6578 13.0345 11.6521L12.3683 11.6455L12.3618 10.9606C12.358 10.5838 12.3606 10.2612 12.3673 10.2437C12.3768 10.2187 12.4912 10.213 12.8839 10.2184L13.3882 10.2252L13.4308 10.3123ZM15.7267 11.6455L15.7187 11.5458C15.6942 11.2457 15.5394 10.7016 15.3961 10.4118L15.3039 10.2252L14.1662 10.2117L14.1798 10.2806C14.1872 10.3186 14.2223 10.4618 14.2575 10.5989C14.3166 10.828 14.3668 11.1147 14.4147 11.496L14.4334 11.6455H15.7267ZM11.6593 8.96613C11.6593 9.23839 11.6525 9.4788 11.6442 9.50047C11.6269 9.54548 10.8544 9.56089 10.827 9.51663C10.7864 9.45099 11.5747 8.41892 11.6362 8.45704C11.6492 8.46497 11.6593 8.6882 11.6593 8.96613ZM14.3225 9.53981C14.6158 9.53981 14.7718 9.53068 14.7828 9.51273C14.8395 9.42079 14.0269 8.79151 13.6112 8.60536L13.5949 8.59803C13.3681 8.49642 13.2592 8.44765 13.24 8.47138C13.2224 8.49327 13.2811 8.57691 13.3939 8.73774L13.4027 8.75024C13.5102 8.90348 13.6614 9.14391 13.7387 9.28444L13.879 9.53981H14.3225ZM9.99191 9.53981L10.0824 9.35919C10.1645 9.19562 10.4715 8.71302 10.5555 8.61597C10.5743 8.5943 10.5896 8.5635 10.5896 8.54736C10.5896 8.50249 10.5719 8.50908 10.2736 8.66531C9.85519 8.88435 9.16262 9.43977 9.21068 9.51767C9.21813 9.52993 9.39696 9.53981 9.60816 9.53981H9.99191ZM12.5383 8.76669C12.7555 9.03102 13.0596 9.49285 13.0336 9.51887C13.0212 9.53127 12.8664 9.53831 12.6897 9.53442L12.3683 9.52739L12.361 9.01675C12.3569 8.74312 12.3552 8.62706 12.3867 8.61719C12.4099 8.60993 12.4511 8.66027 12.5228 8.74768L12.5383 8.76669Z" fill="#37389A"/>
<path d="M18.0572 18.7528C17.6336 21.7177 15.0812 24 12 24C8.91878 24 6.36643 21.7177 5.94276 18.7528C7.5466 20.2092 9.6711 21.0964 12 21.0964C14.3289 21.0964 16.4534 20.2092 18.0572 18.7528Z" fill="#37389A"/>
</svg>
