<svg width="24" height="24" viewBox="0 0 24 24" fill="none" xmlns="http://www.w3.org/2000/svg">
<path fill-rule="evenodd" clip-rule="evenodd" d="M21.0766 3.68854C21.1276 3.71412 21.3236 3.82872 21.3726 3.85634C22.3933 4.40068 22.9915 5.18649 22.9997 6.312V23.9917L14.8121 23.9999L12.7838 23.9928V16.7107C12.7767 14.0872 13.1002 11.8628 13.9067 10.2206C13.9067 10.2206 14.7437 11.0801 15.0826 12.619C15.4079 11.7254 16.0261 11.019 16.9373 10.4999C17.5386 14.0074 16.1299 15.7182 13.8066 16.6156V23.0514L21.9952 23.0432V7.20934C21.9861 6.02346 21.3236 5.21719 20.215 4.6708L21.0766 3.68854Z" fill="#D43E33"/>
<path fill-rule="evenodd" clip-rule="evenodd" d="M3.92313 3.68854C3.8721 3.71412 3.67611 3.82872 3.62609 3.85634C2.61042 4.40068 2.00817 5.18649 2 6.312V23.9917L10.1876 23.9999L12.2159 23.9928V16.7107C12.223 14.0872 11.8994 11.8628 11.093 10.2206C11.093 10.2206 10.256 11.0801 9.91711 12.619C9.59182 11.7254 8.97357 11.019 8.06236 10.4999C7.46113 14.0074 8.8698 15.7182 11.1931 16.6156V23.0514L3.00444 23.0432V7.20934C3.01363 6.02346 3.67611 5.21719 4.78467 4.6708L3.92313 3.68854Z" fill="#D43E33"/>
<path fill-rule="evenodd" clip-rule="evenodd" d="M22.1026 2.16908C19.8252 4.04767 18.3369 6.36417 18.1062 9.54119C18.0154 10.7915 17.7898 11.5262 17.4774 12.1565L17.2988 9.70081C16.8529 9.84891 16.4497 10.1035 16.1239 10.4426C15.8003 9.72127 14.9908 9.56779 13.8496 9.80313C15.7095 5.17318 18.4033 2.49446 22.1026 2.16908Z" fill="#1A1A18"/>
<path fill-rule="evenodd" clip-rule="evenodd" d="M14.8453 6.67012C15.3639 5.80907 16.015 5.03556 16.7745 4.37816C16.4468 3.20558 16.2988 1.96138 16.2509 0.677277C15.7466 2.19262 14.9708 3.45831 13.7959 4.36077C14.0305 5.17809 14.3841 5.95625 14.8453 6.67012Z" fill="#D43E33"/>
<path fill-rule="evenodd" clip-rule="evenodd" d="M17.1742 4.01902C16.8159 3.14317 16.6219 2.21309 16.7883 1.16125C17.0221 -0.0328189 20.5397 0.869637 19.4107 2.26425L17.1742 4.01902Z" fill="#1A1A18"/>
<path fill-rule="evenodd" clip-rule="evenodd" d="M13.6293 3.8952C14.4761 3.13636 15.1286 2.18469 15.532 1.12031C15.9638 -0.0451068 12.9535 -0.561819 12.9413 0.867581C12.9306 1.91691 13.1662 2.95404 13.6293 3.8952Z" fill="#1A1A18"/>
<path fill-rule="evenodd" clip-rule="evenodd" d="M2.71973 2.16908C4.99605 4.04767 6.48536 6.36417 6.71503 9.54119C6.80588 10.7915 7.03147 11.5262 7.34382 12.1565L7.52246 9.70081C7.96861 9.84891 8.37217 10.1035 8.69839 10.4426C9.02197 9.72127 9.83042 9.56779 10.9716 9.80313C9.1118 5.17318 6.41901 2.49446 2.71973 2.16908Z" fill="#1A1A18"/>
<path fill-rule="evenodd" clip-rule="evenodd" d="M9.97521 6.67012C9.45616 5.80904 8.80471 5.03553 8.04492 4.37816C8.37259 3.20558 8.52162 1.96138 8.5696 0.677277C9.07284 2.19262 9.84863 3.45831 11.0195 4.36077C10.7865 5.17782 10.4346 5.95597 9.97521 6.67012Z" fill="#D43E33"/>
<path fill-rule="evenodd" clip-rule="evenodd" d="M7.64824 4.01902C8.00551 3.14317 8.19946 2.21309 8.03307 1.16125C7.80033 -0.0328189 4.28174 0.869637 5.41071 2.26425L7.64824 4.01902Z" fill="#1A1A18"/>
<path fill-rule="evenodd" clip-rule="evenodd" d="M11.1927 3.8952C10.3453 3.13669 9.6923 2.18495 9.28895 1.12031C8.85717 -0.0451068 11.8674 -0.561819 11.8797 0.867581C11.8907 1.91683 11.6554 2.95397 11.1927 3.8952Z" fill="#1A1A18"/>
<path fill-rule="evenodd" clip-rule="evenodd" d="M12.3823 9.52072C12.8202 9.68954 13.0968 9.89623 13.2826 10.1397C13.6019 9.09513 14.0228 8.08448 14.5392 7.12235C13.4521 5.1568 12.8478 3.02958 12.3782 0.857346C11.9097 3.02958 11.3054 5.15475 10.2183 7.12235C10.7362 8.08415 11.1581 9.09485 11.4779 10.1397C11.6708 9.89521 11.9454 9.69057 12.3823 9.52072Z" fill="#1A1A18"/>
</svg>
