<svg width="24" height="24" viewBox="0 0 24 24" fill="none" xmlns="http://www.w3.org/2000/svg">
<path d="M18.2581 13.2758C18.0178 12.9328 18.3556 12.346 18.7962 12.4263C18.72 12.5747 18.5045 12.525 18.4013 12.6494C18.3218 12.7453 18.341 12.8954 18.4064 12.9936C18.4865 13.0689 18.6016 13.0878 18.7014 13.1291C18.5841 13.2407 18.4256 13.3902 18.2552 13.2769L18.2581 13.2758ZM18.5412 12.7286C18.5655 12.6667 18.6422 12.6539 18.6912 12.6171C18.6912 12.7158 18.6912 12.8151 18.6974 12.9138C18.8452 12.9138 18.8954 12.7755 18.9473 12.6634C19.1021 12.6468 19.2585 12.6554 19.4104 12.689C19.2011 12.7944 18.9998 12.9188 18.7804 13.003C18.6523 12.9936 18.4735 12.8731 18.5412 12.7286Z" fill="white"/>
<path d="M2.64978 0.0102916C5.43391 -0.0103468 8.21917 0.00750246 11.0039 0.0013667C12.5093 0.00806025 14.0153 -0.0109041 15.5207 0.01085C15.4959 0.159782 15.4643 0.30704 15.4356 0.457087C11.2003 0.464896 6.96492 0.464896 2.72931 0.457087C2.69829 0.309829 2.67291 0.162013 2.64978 0.01085V0.0102916ZM2.77274 0.694151C3.07169 0.676301 3.37176 0.682436 3.67127 0.682994H14.5574C14.8366 0.682994 15.1163 0.67909 15.3955 0.691919C15.1818 1.99716 14.9793 3.30408 14.7723 4.61044C14.3035 4.59315 13.9634 4.1497 13.9183 3.71796C14.0401 3.53612 14.2189 3.38329 14.2782 3.16686C14.3374 2.95044 14.3487 2.72062 14.4006 2.50141C14.457 2.2465 14.603 2.02115 14.6724 1.76902C14.5823 1.79841 14.4987 1.84441 14.4259 1.90457C14.1805 2.10976 13.9576 2.33991 13.7609 2.59122C13.4721 2.28164 13.1805 1.96816 12.8336 1.72105C12.815 1.93971 12.9786 2.11151 13.0367 2.31343C13.163 2.61632 13.1213 2.95936 13.2572 3.2589C13.3322 3.42624 13.4716 3.55676 13.5629 3.71629C13.5496 3.90822 13.4808 4.09231 13.3647 4.24668C13.2486 4.40104 13.0901 4.51917 12.9081 4.58701C12.5516 4.67291 12.1303 4.63777 11.864 4.36389C11.6666 4.19265 11.6666 3.88642 11.441 3.74139C11.3626 4.1285 11.6283 4.4827 11.9419 4.68128C12.4839 5.01596 13.2956 4.8369 13.5951 4.26349C13.7502 4.06547 13.6938 3.81391 13.7079 3.58298C13.7585 3.62089 13.8035 3.66557 13.8416 3.71573C13.8247 3.88307 13.7711 4.06547 13.8743 4.21775C14.0362 4.55243 14.3752 4.75658 14.7277 4.85141C14.7119 4.96297 14.6967 5.07006 14.6809 5.17883C11.7823 5.19501 8.88305 5.17883 5.98442 5.18608C5.15415 5.17828 4.32387 5.20226 3.49416 5.17381C3.47668 5.06225 3.45975 4.9507 3.4434 4.83635C3.73049 4.70861 4.01816 4.54071 4.16763 4.25456C4.28834 4.08444 4.25788 3.87136 4.20994 3.68227C4.25901 3.65326 4.30808 3.62649 4.35772 3.59581C4.35095 3.79494 4.31315 4.01081 4.42596 4.19042C4.51852 4.38802 4.66694 4.55491 4.85331 4.67091C5.03968 4.78692 5.25602 4.84709 5.47622 4.84416C6.06395 4.88376 6.67763 4.36222 6.62574 3.76092L6.48078 3.81279C6.3832 4.15305 6.16492 4.48995 5.80393 4.59371C5.51401 4.6467 5.17953 4.65952 4.93078 4.47657C4.65553 4.29417 4.50606 3.97455 4.47955 3.6527C4.62443 3.55636 4.73819 3.42081 4.80726 3.26225C4.93699 2.97498 4.90371 2.64867 5.01257 2.35471C5.08082 2.14331 5.20153 1.95254 5.25906 1.73723C5.17475 1.76682 5.09644 1.81102 5.0278 1.86775C4.77168 2.09594 4.52858 2.33803 4.29962 2.59289C4.04467 2.28052 3.76885 1.9637 3.40955 1.76679C3.45637 2.02171 3.59569 2.2465 3.66055 2.49583C3.72429 2.72899 3.72993 2.97386 3.79874 3.20535C3.86304 3.40616 4.03395 3.54337 4.14563 3.71629C4.12422 3.91996 4.04302 4.11299 3.91202 4.27158C3.78102 4.43016 3.60597 4.54738 3.40842 4.60877C3.19578 3.30352 2.97242 1.99939 2.77613 0.691919L2.77274 0.694151ZM4.23475 1.13369C4.18343 1.36295 4.22742 1.59722 4.21952 1.82871C4.14112 1.67476 4.12476 1.48287 4.00575 1.35402L3.81397 1.34175C3.80551 1.60838 4.00913 1.80695 4.16932 1.99716L4.34982 1.90959C4.38986 1.69595 4.46263 1.48399 4.45247 1.26422C4.45247 1.1482 4.31428 1.16437 4.23475 1.13369ZM6.53719 1.25808C6.54283 1.48566 6.60262 1.7099 6.59359 1.93915L6.73291 1.94361C6.72614 1.7138 6.77409 1.48789 6.78142 1.25976C6.78142 1.11361 6.54283 1.11584 6.53437 1.25976L6.53719 1.25808ZM8.91521 1.15099C8.84188 1.40423 8.91915 1.66249 8.97161 1.91126L9.15944 1.98991C9.32865 1.81309 9.52268 1.6134 9.51591 1.35235L9.30553 1.34398C9.23333 1.52192 9.16959 1.7032 9.09852 1.8817C9.10303 1.64408 9.12729 1.40701 9.12221 1.16884C9.05283 1.16437 8.98346 1.15824 8.91464 1.15099H8.91521ZM11.2938 1.1415C11.2064 1.40367 11.3355 1.66918 11.331 1.93469C11.4241 1.93134 11.5459 2.00441 11.6159 1.91461C11.7595 1.76217 11.8635 1.57742 11.9188 1.37634L11.7163 1.32558C11.6034 1.49849 11.5538 1.70097 11.4715 1.88839C11.4574 1.67866 11.5031 1.47283 11.5143 1.26478C11.5025 1.15322 11.3767 1.16716 11.2938 1.1415ZM13.6205 1.17218C13.6047 1.42375 13.6684 1.66862 13.7147 1.91405L13.8957 2.01167C14.0582 1.82648 14.2178 1.6279 14.2782 1.3847L14.0943 1.31275C13.9679 1.4667 13.929 1.66527 13.8433 1.83986C13.8235 1.60782 13.8839 1.3741 13.8331 1.14429L13.6205 1.17218ZM4.42991 1.97374C4.65553 1.85214 4.79203 1.60671 4.82474 1.36016L4.61605 1.33394C4.51734 1.53475 4.42991 1.7456 4.42822 1.97318L4.42991 1.97374ZM6.13502 1.37187C6.21004 1.61117 6.32511 1.87389 6.56313 1.9927C6.53042 1.75898 6.47514 1.52415 6.33752 1.32334L6.13446 1.36908L6.13502 1.37187ZM6.9292 1.4059C6.8396 1.59039 6.77984 1.78765 6.75209 1.99047C6.98617 1.85994 7.13057 1.60615 7.18189 1.35123C7.10067 1.36016 6.96868 1.30103 6.9292 1.40701V1.4059ZM8.49781 1.36072C8.54124 1.60113 8.67041 1.84544 8.88982 1.96983C8.9011 1.74113 8.80465 1.5314 8.70312 1.33227L8.49781 1.36072ZM10.8668 1.35012C10.9232 1.58495 11.0281 1.8962 11.291 1.95923C11.2615 1.76937 11.2045 1.58469 11.1218 1.41092C11.0828 1.3094 10.9486 1.36406 10.8679 1.35012H10.8668ZM13.2273 1.35793C13.2719 1.60113 13.405 1.84712 13.6278 1.9715C13.6198 1.74622 13.5554 1.52641 13.4405 1.33171L13.2273 1.35793ZM3.56974 1.45554C3.53139 1.51913 3.49303 1.58272 3.45411 1.64631C3.62863 1.8506 3.84021 2.02086 4.07795 2.14833C3.96514 1.88393 3.81567 1.62009 3.57031 1.45722L3.56974 1.45554ZM4.93586 1.49738C4.7909 1.70209 4.62112 1.89955 4.55682 2.14721C4.76044 2.01222 4.96858 1.87166 5.12087 1.68145C5.12482 1.61842 5.12594 1.55539 5.12482 1.4918L4.93304 1.49738H4.93586ZM5.82311 1.49013C5.82228 1.59297 5.84687 1.69445 5.89474 1.78576H5.72214C5.81747 2.02561 5.94268 2.25487 6.00417 2.50587C6.05211 2.72899 6.06057 2.95602 6.12882 3.17523C6.18522 3.38161 6.33977 3.53724 6.47627 3.69509C6.58655 3.66973 6.70111 3.66859 6.81188 3.69175C6.92751 3.58298 7.04765 3.47198 7.11759 3.32695C7.2445 3.07371 7.23773 2.78421 7.3026 2.51424C7.36295 2.25542 7.50283 2.02505 7.57785 1.77126C7.19035 1.93859 6.94387 2.30339 6.65282 2.59122C6.4272 2.31232 6.12487 2.09645 5.90997 1.80584C6.06395 1.90419 6.21094 2.01284 6.34993 2.13103C6.34993 2.09812 6.34993 2.0323 6.35331 1.99995C6.25992 1.82211 6.14266 1.65756 6.00473 1.51076C5.94325 1.5024 5.88233 1.49682 5.82085 1.49403L5.82311 1.49013ZM7.29075 1.49961C7.14015 1.68759 6.99181 1.88114 6.90325 2.10705C7.11612 2.023 7.30355 1.88624 7.44756 1.7099C7.51242 1.6491 7.45094 1.56264 7.44192 1.49236L7.29075 1.49961ZM8.19323 1.49236C8.18646 1.53029 8.17236 1.60671 8.16559 1.64464C8.20564 1.70042 8.24681 1.7562 8.28742 1.81532L8.05504 1.76679C8.16785 2.04569 8.31732 2.31678 8.37936 2.6152C8.42167 2.81768 8.40644 3.03299 8.49612 3.22376C8.57509 3.42233 8.74092 3.57238 8.81763 3.77096C8.79275 3.95289 8.71889 4.12488 8.60379 4.26893C8.48869 4.41297 8.33657 4.5238 8.16333 4.5898C7.84747 4.66008 7.47689 4.65506 7.21799 4.43641C6.97376 4.2607 6.90607 3.9567 6.76055 3.71127C6.71373 3.81446 6.66353 3.92714 6.70414 4.04093C6.76495 4.22522 6.87078 4.39183 7.01226 4.526C7.15374 4.66017 7.32651 4.75777 7.51524 4.81013C7.85367 4.8793 8.22481 4.84973 8.50796 4.64279C8.7584 4.49609 8.86726 4.21887 9.0156 3.98738C9.14759 4.23727 9.27845 4.51004 9.53509 4.65674C9.81091 4.84918 10.1651 4.87037 10.4889 4.8185C10.6772 4.77255 10.8511 4.68144 10.9953 4.55321C11.1396 4.42499 11.2496 4.2636 11.3158 4.08332C11.357 3.92881 11.3259 3.76817 11.3226 3.61142C11.4111 3.64266 11.5234 3.74474 11.5984 3.63429C11.8911 3.4056 11.9599 3.0263 12.0011 2.68158C12.0333 2.35862 12.2013 2.07358 12.3164 1.77572L12.1348 1.79636C12.1647 1.72998 12.1957 1.6636 12.2262 1.59722C12.2109 1.57212 12.1805 1.52136 12.1647 1.49626L12.0333 1.4879C11.8759 1.67141 11.7253 1.8672 11.6497 2.10147C11.8189 2.02338 11.9611 1.90568 12.1162 1.8064C12.075 1.9213 11.9763 1.99772 11.8905 2.07693C11.7134 2.23649 11.5472 2.40756 11.3931 2.58898C11.1906 2.35638 10.9492 2.16004 10.7625 1.91405C10.8916 1.98991 11.0152 2.07414 11.1443 2.15056C11.0727 1.90178 10.8967 1.70711 10.7495 1.49905L10.5521 1.49347C10.5598 1.60891 10.5911 1.72161 10.644 1.8248C10.5712 1.7891 10.4979 1.75396 10.4246 1.71994C10.5041 1.96481 10.6412 2.18737 10.7111 2.43615C10.8019 2.71784 10.776 3.02853 10.9102 3.2985C10.9841 3.45859 11.1325 3.57238 11.2058 3.73191C11.1607 4.15305 10.8296 4.57418 10.3834 4.61658C10.1358 4.63944 9.86449 4.63387 9.65016 4.48884C9.38618 4.33656 9.24461 4.04595 9.1758 3.7637C9.15549 3.65214 9.27901 3.59079 9.33655 3.51158C9.54581 3.30129 9.57909 2.99227 9.62195 2.71449C9.65354 2.37981 9.81937 2.08306 9.94459 1.77795L9.76184 1.79803C9.79625 1.72775 9.83065 1.65802 9.8645 1.5883C9.80358 1.5565 9.74661 1.47339 9.66934 1.50463C9.46628 1.67197 9.33373 1.9068 9.24066 2.14777C9.40649 2.04346 9.56273 1.92465 9.7201 1.80863L9.72461 1.89732C9.4525 2.09019 9.2135 2.32504 9.01673 2.59289C8.79112 2.32571 8.51699 2.10147 8.29137 1.83429C8.45777 1.93079 8.60611 2.05239 8.76743 2.15558C8.69748 1.90569 8.51812 1.71213 8.37259 1.5024L8.19323 1.4918V1.49236ZM12.9205 1.4918C12.9171 1.55572 12.9171 1.61976 12.9205 1.68368C13.0875 1.86694 13.2808 2.02499 13.4941 2.15279C13.4377 1.89955 13.2431 1.71324 13.1083 1.49961L12.9188 1.4918H12.9205ZM13.9724 2.14721C14.2026 2.01464 14.4106 1.84754 14.5889 1.65189C14.55 1.5883 14.5117 1.52415 14.4761 1.46001C14.2302 1.62065 14.0886 1.88728 13.9741 2.14721H13.9724ZM4.07174 2.14331C4.1297 2.2635 4.21739 2.36729 4.32669 2.44507C4.39617 2.37321 4.45624 2.29301 4.50549 2.20634C4.48825 2.13499 4.44879 2.0708 4.39269 2.02282C4.2686 1.98935 4.17158 2.08641 4.074 2.14331H4.07174ZM6.53663 2.0033C6.51801 2.08585 6.45427 2.16673 6.47514 2.25375C6.53073 2.32771 6.59142 2.39779 6.65677 2.46348C6.72332 2.36475 6.85249 2.28052 6.8508 2.15279C6.80285 2.01669 6.65733 2.01613 6.53663 2.0033ZM8.77701 2.20076L8.98289 2.43838C9.07088 2.36587 9.1521 2.28833 9.23502 2.20801C9.15944 2.13215 9.10924 1.97652 8.975 2.02115C8.87742 2.02784 8.84132 2.14219 8.77701 2.20076ZM11.2532 2.06466C11.1071 2.18905 11.2718 2.34355 11.3508 2.44786C11.4382 2.37089 11.52 2.29056 11.6046 2.20857C11.5391 2.08306 11.3874 1.92967 11.2532 2.06466ZM13.5934 2.09087C13.4733 2.22307 13.6436 2.34244 13.7203 2.44228C13.8055 2.36419 13.8895 2.28275 13.9702 2.2002C13.8923 2.07916 13.7102 1.91684 13.5934 2.08864V2.09087ZM3.57087 5.43877C3.6786 5.4304 3.7869 5.42315 3.89576 5.42147H13.3153C13.7446 5.4304 14.1755 5.39972 14.603 5.44267C14.6081 5.48228 14.6177 5.56148 14.6222 5.60109C10.9322 5.60555 7.24206 5.60555 3.55169 5.60109L3.56974 5.43821L3.57087 5.43877ZM3.57651 5.74109C7.24958 5.74109 10.9223 5.74109 14.5946 5.74109C14.1512 8.45812 13.7305 11.1785 13.2973 13.8966C13.0829 14.9168 12.9921 16.0068 13.3396 17.0091C13.55 17.6551 14.0429 18.2201 14.6888 18.4672C15.1851 18.6546 15.6544 18.9397 15.9923 19.3508C16.1756 19.5783 16.3183 19.8606 16.2912 20.1596C16.2862 20.4385 16.0594 20.6822 15.7954 20.7581C15.5224 20.8061 15.2314 20.8139 14.9736 20.6967C14.33 20.4641 13.5731 20.3369 12.9431 20.6755C12.5353 20.8713 12.2544 21.3159 12.3226 21.7694C12.4286 22.4694 13.0638 23.0423 13.7649 23.1298C16.8417 23.1298 19.9192 23.1265 22.996 23.1298C22.996 23.3106 22.996 23.4913 22.996 23.672C21.9695 23.7033 20.9418 23.6765 19.9147 23.6854C13.9482 23.6821 7.98171 23.6927 2.01523 23.6804C2.00752 23.4963 2.0094 23.312 2.02087 23.1282C4.60157 23.1282 7.18189 23.1282 9.76184 23.1282C10.0568 23.1243 10.3547 23.1494 10.6463 23.093C10.5939 23.0611 10.5368 23.0374 10.477 23.0227C9.16903 22.866 7.96648 22.1448 7.14128 21.1407C6.22301 20.0307 5.73117 18.6412 5.45422 17.2495C4.81685 13.4153 4.21332 9.57762 3.57764 5.74388L3.57651 5.74109ZM8.41772 8.89208C8.41433 9.39075 8.39459 9.88942 8.407 10.3875C8.64603 10.3395 8.88765 10.305 9.13067 10.2843C9.28635 9.87381 9.42172 9.45602 9.58191 9.04659C9.63549 8.92388 9.66257 8.76435 9.55145 8.66339C9.36588 8.49605 9.09344 8.5284 8.86162 8.53008C8.65349 8.52617 8.39911 8.65446 8.41941 8.89208H8.41772ZM7.12774 9.12803C7.02791 9.25075 7.0657 9.41585 7.13564 9.54303C7.32234 9.91285 7.50058 10.2877 7.68559 10.6586C7.89823 10.585 8.09621 10.4785 8.30039 10.3859C8.27896 9.895 8.30039 9.40247 8.26486 8.91272C8.23271 8.69574 7.96761 8.74538 7.80911 8.76379C7.55868 8.82459 7.29527 8.925 7.12774 9.12803ZM9.94064 8.78331C9.80076 8.84634 9.76353 9.00197 9.71502 9.13082C9.58191 9.51682 9.41382 9.8911 9.29481 10.2827C9.50802 10.3318 9.72123 10.3831 9.93726 10.4232C10.1928 10.1627 10.3885 9.8554 10.6288 9.58096C10.7416 9.44486 10.8865 9.28087 10.8098 9.09066C10.6621 8.79112 10.2492 8.64442 9.9429 8.78331H9.94064ZM10.8634 9.53411C10.5882 9.82695 10.3558 10.1577 10.0997 10.4662C10.2415 10.6008 10.3749 10.7439 10.499 10.8946C10.8183 10.7317 11.137 10.5666 11.4506 10.3926C11.6249 10.2961 11.789 10.1137 11.7642 9.90393C11.6988 9.68683 11.5548 9.50117 11.3598 9.38239C11.181 9.31322 10.9836 9.39633 10.8634 9.53411ZM6.38264 9.6769C6.17733 9.85261 6.11923 10.1231 6.10682 10.3814C6.43848 10.6926 6.80624 10.9643 7.13338 11.2806C7.28173 11.1171 7.42274 10.9459 7.56995 10.783C7.41992 10.3368 7.17061 9.93739 6.97771 9.5118C6.77183 9.52239 6.55185 9.55084 6.38264 9.67913V9.6769ZM5.43955 11.212C5.58508 11.3614 5.7949 11.4262 5.97878 11.5193C6.27886 11.6454 6.55185 11.8339 6.87054 11.9131C6.94274 11.7458 7.00873 11.5784 7.07078 11.4072C6.81583 11.169 6.53832 10.957 6.28111 10.7244C6.15589 10.6279 6.03857 10.4952 5.87274 10.4762C5.49991 10.4204 5.27316 10.9258 5.44181 11.212H5.43955ZM8.23948 10.6765C8.02232 10.778 8.04714 11.0586 8.12667 11.2421C8.25368 11.5503 8.47343 11.8124 8.75615 11.9929C8.93044 11.9734 9.08555 11.8813 9.24969 11.8255C9.23276 11.5321 9.09457 11.2588 9.10416 10.9626C9.10633 10.8191 9.09804 10.6755 9.07934 10.5331C8.79393 10.5415 8.4995 10.5644 8.23327 10.6776L8.23948 10.6765ZM9.28917 10.6062C9.2604 11.0089 9.20908 11.4758 9.48038 11.8138C9.66877 11.8478 9.86111 11.8239 10.0512 11.8194C10.0691 11.5366 10.1519 11.2616 10.2932 11.0151C10.0783 10.6915 9.6637 10.5716 9.28917 10.6062ZM7.18866 11.5985C7.11985 11.7982 7.31726 11.9616 7.46109 12.0687C7.74312 12.2495 8.05504 12.4386 8.40023 12.4341C8.49057 12.3364 8.5737 12.2323 8.64897 12.1228C8.47468 11.941 8.27445 11.7809 8.13344 11.5706C8.00484 11.3799 7.89992 11.1751 7.78317 10.9777C7.48197 11.0535 7.30034 11.3313 7.18866 11.5985ZM5.32731 11.5427C5.1581 11.6465 5.11466 11.8557 5.09323 12.0375C5.07744 12.1613 5.08815 12.3164 5.20886 12.3884C5.54729 12.5206 5.91787 12.5072 6.2687 12.5858C6.44243 12.6249 6.61954 12.65 6.79552 12.6767C6.80003 12.4815 6.81188 12.2863 6.81808 12.0922C6.46894 11.9248 6.11133 11.7742 5.75485 11.6231C5.61948 11.5734 5.47283 11.4981 5.32731 11.5427ZM7.09164 11.9561C6.98391 12.2573 6.99971 12.5858 7.06908 12.8932C7.108 13.0365 7.16892 13.1921 7.30542 13.2708C7.67261 13.3115 8.03529 13.215 8.4008 13.1988C8.3929 12.9908 8.39064 12.7822 8.39572 12.5741C7.91797 12.4776 7.43007 12.3242 7.09164 11.9561ZM8.89659 12.235C8.64334 12.4274 8.56099 12.7766 8.63375 13.0756C8.67662 13.2792 8.82045 13.4398 8.96033 13.5876C9.21697 13.8565 9.44879 14.1454 9.70544 14.4154C10.657 15.3971 11.595 16.4452 12.1212 17.7198C12.4969 18.6719 12.5917 19.7105 12.5764 20.7252C12.7643 20.5991 12.9532 20.4641 13.1788 20.4128C13.4879 20.3163 13.8179 20.3409 14.1349 20.381C13.9234 19.9041 13.8365 19.3876 13.6899 18.8906C13.3678 17.8564 12.9944 16.8267 12.449 15.8869C11.7975 14.87 10.9757 13.9669 10.3812 12.9127C10.2193 12.6338 10.1285 12.3164 10.0557 12.0024C9.66087 11.9594 9.22712 11.994 8.89434 12.235H8.89659ZM5.37864 12.7716C5.20942 12.9316 5.21958 13.1916 5.25624 13.4019C5.31264 13.5809 5.53432 13.5692 5.68717 13.5726C6.16041 13.553 6.63364 13.5558 7.10744 13.5553C6.99463 13.316 6.86433 13.0839 6.7927 12.8301C6.46811 12.7747 6.14064 12.7373 5.81182 12.718C5.67138 12.7135 5.51796 12.6929 5.38992 12.7654L5.37864 12.7716ZM7.50904 13.418C7.30429 13.6663 7.61564 14.0718 7.91402 13.9954C8.23102 13.9641 8.53447 13.8598 8.85034 13.8146C8.7144 13.6473 8.58919 13.4722 8.43972 13.3176C8.12554 13.2864 7.82209 13.4086 7.50904 13.418ZM6.26194 13.7354C6.03632 13.7555 5.79716 13.7466 5.59128 13.8542C5.49088 13.8844 5.50104 13.997 5.51626 14.0774C5.5664 14.2523 5.68115 14.4022 5.83777 14.4974C6.40746 14.455 6.96586 14.2988 7.51073 14.1387C7.38096 13.9776 7.26116 13.8088 7.152 13.6334C6.85136 13.6267 6.56032 13.7153 6.26194 13.7354ZM8.03755 14.1131C7.94956 14.1409 7.8266 14.1906 7.84747 14.3038C7.85706 14.5543 8.12103 14.8019 8.38162 14.716C8.72005 14.6273 9.06581 14.5571 9.39126 14.426C9.26511 14.2545 9.12696 14.092 8.97781 13.9396C8.66026 13.9753 8.3506 14.0511 8.03755 14.1131ZM6.47063 14.5727C6.32398 14.6212 6.1322 14.6223 6.04365 14.7657C6.01206 14.9498 6.12826 15.1383 6.28562 15.2303C6.42156 15.3307 6.58513 15.2303 6.72783 15.2002C7.13338 15.0686 7.54683 14.9631 7.95576 14.841C7.77694 14.7097 7.64641 14.5242 7.58406 14.3128C7.20614 14.3685 6.84459 14.4968 6.47063 14.5727ZM8.70989 14.7668C8.59708 14.8047 8.42167 14.8432 8.42787 14.9927C8.39685 15.1762 8.55196 15.3397 8.71384 15.4021C8.87798 15.4066 9.02971 15.3291 9.18708 15.2939C9.45782 15.2114 9.74266 15.1734 10.0004 15.0513C9.84419 14.899 9.72743 14.6932 9.53114 14.5894C9.24912 14.6039 8.98176 14.701 8.71102 14.7668H8.70989ZM7.08319 15.2644C6.92864 15.3112 6.74476 15.3157 6.63195 15.4507C6.54114 15.6922 6.77691 16.0001 7.03806 15.9242C7.52483 15.7915 8.0116 15.6565 8.49048 15.4975C8.28742 15.3915 8.19661 15.1829 8.1622 14.9693C7.7967 15.0496 7.44135 15.1645 7.08149 15.2644H7.08319ZM9.07145 15.4618C8.89434 15.5912 8.9733 15.8802 9.13801 15.9845C9.29763 16.0469 9.47643 15.9995 9.63324 15.9605C9.9288 15.8694 10.2255 15.7812 10.5233 15.6961C10.402 15.5084 10.2549 15.3383 10.0862 15.1907C9.74774 15.2872 9.40931 15.3681 9.07088 15.4618H9.07145ZM7.34603 15.9861C7.11533 16.0218 7.13 16.3164 7.24619 16.4586C7.35223 16.6148 7.56826 16.5752 7.72394 16.5339C8.1481 16.4129 8.57001 16.2862 8.99474 16.1646C8.85287 16.011 8.74389 15.8305 8.67436 15.6342C8.22312 15.7095 7.78768 15.8668 7.34603 15.9861ZM9.53396 16.1479C9.43469 16.3186 9.4973 16.5908 9.69697 16.6627C9.83686 16.7141 9.9852 16.6538 10.1217 16.6181C10.4257 16.516 10.7422 16.4508 11.0383 16.3264C10.9063 16.152 10.7629 15.9864 10.609 15.8305C10.2424 15.9067 9.88282 16.0129 9.53396 16.1479ZM7.7042 16.6834C7.70081 16.8273 7.64779 17.0008 7.7606 17.119C7.86777 17.2641 8.07309 17.22 8.22538 17.1893C8.65913 17.0705 9.08555 16.9266 9.52269 16.8184C9.35347 16.6689 9.24686 16.4742 9.14759 16.2779C8.66139 16.395 8.1842 16.5451 7.7042 16.6834ZM9.99705 16.7821C9.94459 16.9651 9.94741 17.1854 10.1223 17.3042C10.2966 17.3678 10.4855 17.3198 10.6525 17.2562C10.9232 17.1542 11.2165 17.1112 11.4748 16.9857C11.3777 16.7973 11.2663 16.6164 11.1415 16.4446C10.7585 16.5517 10.3823 16.6817 9.99705 16.7821ZM8.20169 17.3399C8.10411 17.5257 8.16784 17.7789 8.36695 17.8693C8.55704 17.9133 8.74092 17.8196 8.92141 17.7733C9.26435 17.6618 9.62252 17.5915 9.957 17.4531C9.88025 17.3786 9.82063 17.2887 9.78218 17.1893C9.74374 17.09 9.72737 16.9836 9.7342 16.8775C9.22656 17.0448 8.702 17.1564 8.20169 17.3399ZM10.4641 17.4515C10.2475 17.563 10.358 17.8587 10.5154 17.973C10.688 18.0528 10.8809 17.9903 11.0496 17.9312C11.2819 17.8481 11.5234 17.7934 11.7574 17.7175L11.8076 17.6434C11.7597 17.4504 11.6469 17.2825 11.5544 17.1084C11.194 17.2339 10.8211 17.3187 10.4641 17.4515ZM8.81988 17.9362C8.72851 17.9719 8.60837 17.9853 8.56324 18.0851C8.48822 18.2391 8.58975 18.4198 8.71723 18.5141C8.83737 18.5871 8.98402 18.5431 9.11206 18.5141C9.53114 18.3875 9.95305 18.2686 10.375 18.1504C10.2238 17.9831 10.1093 17.7806 10.1234 17.5485C9.69641 17.6997 9.25645 17.8112 8.82157 17.939L8.81988 17.9362ZM10.9508 18.0974C10.838 18.1281 10.6733 18.1738 10.6857 18.3205C10.644 18.5654 10.917 18.8186 11.1573 18.711C11.4615 18.6128 11.7659 18.5159 12.0705 18.4204C12.0418 18.2159 11.9829 18.0166 11.8956 17.8291C11.5736 17.8938 11.2678 18.0154 10.9508 18.098V18.0974ZM9.04494 18.6703C8.79506 18.7322 8.85485 19.1098 9.04099 19.2141C9.19441 19.2855 9.36701 19.2336 9.52212 19.1968C9.92936 19.0719 10.34 18.957 10.7489 18.8382C10.6626 18.7634 10.5639 18.6976 10.5013 18.6005C10.4556 18.5001 10.4539 18.3869 10.4347 18.2798C9.96602 18.3914 9.51084 18.5498 9.04494 18.6703ZM10.9836 18.9174C10.8245 19.1237 11.0073 19.5097 11.2859 19.4551C11.6159 19.4155 11.9199 19.261 12.2448 19.1912C12.2154 18.9798 12.1675 18.7718 12.1235 18.5632C11.7478 18.6931 11.3558 18.7757 10.9841 18.9174H10.9836ZM9.3766 19.3848C9.28296 19.4255 9.14195 19.4328 9.12559 19.5571C9.07991 19.744 9.20343 20.0101 9.42285 20.0034C9.61688 19.9989 9.7985 19.9208 9.98407 19.8729C10.2949 19.7719 10.6181 19.7055 10.9193 19.5772C10.7658 19.4239 10.6802 19.2167 10.6812 19.001C10.2497 19.1399 9.81317 19.2615 9.3766 19.3842V19.3848ZM11.3276 19.5968C11.2408 19.6347 11.1127 19.6626 11.1206 19.7808C11.0608 20.0184 11.3051 20.2828 11.5521 20.202C11.8161 20.1306 12.071 20.0296 12.3333 19.951C12.3119 19.7407 12.2769 19.5321 12.2431 19.3246C11.9424 19.43 11.6328 19.5058 11.3276 19.5968ZM9.60221 20.12C9.4894 20.1596 9.30496 20.1824 9.31455 20.3347C9.28071 20.5138 9.40875 20.6806 9.56386 20.7575C9.6981 20.7765 9.82558 20.7179 9.95192 20.6822C10.3535 20.5528 10.7647 20.4591 11.1646 20.3224C11.0735 20.26 10.9991 20.1767 10.9478 20.0795C10.8965 19.9823 10.8699 19.8743 10.8702 19.7647C10.4409 19.8595 10.0303 20.0201 9.60221 20.1216V20.12ZM11.357 20.4005C11.0236 20.5076 11.256 21.0604 11.569 21.0002C11.8319 20.9416 12.0767 20.825 12.339 20.7547C12.3463 20.5383 12.348 20.3224 12.3435 20.106C12.0141 20.2014 11.6802 20.2856 11.357 20.4005ZM10.0179 20.8044C9.80358 20.8657 9.58078 20.9059 9.38618 21.0191C9.40141 21.1491 9.36813 21.3031 9.46797 21.4096C9.55089 21.4916 9.66821 21.5719 9.79061 21.5256C10.2875 21.3851 10.7828 21.2395 11.278 21.0928C11.1956 21.037 11.1009 20.9918 11.0383 20.9132C10.9768 20.8016 10.9723 20.6705 10.9452 20.5495C10.6305 20.6153 10.3248 20.7235 10.0179 20.8061V20.8044ZM11.3761 21.1965C11.1156 21.3081 11.2633 21.6857 11.4799 21.7644C11.6627 21.8084 11.8409 21.7208 12.0101 21.6651C12.084 21.6327 12.1855 21.6093 12.2019 21.515C12.2406 21.3087 12.2918 21.105 12.3553 20.9048C12.0349 21.0208 11.6931 21.0721 11.3761 21.1965ZM9.58473 21.7236C9.28071 21.8469 9.48658 22.3166 9.76748 22.3149C9.86855 22.3052 9.96791 22.2825 10.063 22.2474C10.4692 22.1135 10.8927 22.0327 11.2893 21.8692C11.0879 21.7577 11.0073 21.5502 10.9954 21.3326C10.5205 21.4442 10.0574 21.6031 9.58529 21.7231L9.58473 21.7236ZM16.1102 11.6582C16.593 11.343 17.1943 11.2633 17.7594 11.3269C17.9695 11.354 18.1698 11.4305 18.3438 11.55C18.178 11.6415 18.068 11.7926 17.9665 11.9466C17.7538 11.9862 17.7273 11.6721 17.5361 11.6348C17.2834 11.5935 17.0284 11.6811 16.8028 11.7854C16.6336 11.8696 16.4571 12.0241 16.487 12.2288C16.5096 12.3663 16.5638 12.4969 16.6453 12.6105C16.7269 12.7241 16.8336 12.8177 16.9574 12.8842C17.0256 12.9155 17.1328 13.0014 17.0301 13.0638C16.7571 13.3132 16.5039 13.6635 16.6161 14.0511C16.6646 14.2302 16.8835 14.2001 17.0279 14.233C17.0211 14.2782 17.0149 14.3233 17.0087 14.3691C16.8866 14.4315 16.7679 14.5004 16.6534 14.5755C16.7098 14.807 16.9083 14.9403 17.1006 15.0574C16.9743 15.0702 16.8479 15.0808 16.7222 15.092C16.7368 15.2175 16.734 15.3608 16.835 15.4568C16.9478 15.6063 17.1441 15.6403 17.3195 15.6676C17.2281 15.7385 17.0724 15.7792 17.0764 15.9175C17.1931 16.1819 17.5321 16.1005 17.7657 16.1228C17.7092 16.2087 17.6528 16.2952 17.5964 16.3833C17.8096 16.4441 18.0319 16.4552 18.2507 16.4859C18.4036 17.7276 18.482 18.9765 18.6275 20.2187C18.6552 20.5896 18.6721 20.9639 18.755 21.3287C18.4118 21.1955 18.0507 21.1126 17.6833 21.0827C17.3048 20.9985 16.9173 20.9935 16.5315 20.9795C16.6539 20.5824 16.7289 20.1529 16.602 19.7462C16.4701 19.3288 16.1858 18.9749 15.8045 18.7534C15.1733 18.3629 14.3701 18.2396 13.8529 17.6751C13.5099 17.3321 13.4073 16.834 13.4016 16.3682C13.4315 15.2895 13.8405 14.2486 14.4412 13.3561C14.8924 12.7002 15.4333 12.0899 16.109 11.6554L16.1102 11.6582ZM18.4628 11.7463C18.6112 11.6621 18.8012 11.7179 18.914 11.8339C19.2102 12.1128 19.6597 12.2511 19.8165 12.6555C19.5695 12.4882 19.3196 12.3315 19.063 12.1831C18.9702 12.1136 18.8614 12.068 18.7463 12.0507C18.6313 12.0334 18.5136 12.0447 18.4042 12.0838C18.1092 12.2556 17.9777 12.5925 17.7239 12.8089C17.5598 12.8982 17.346 12.8853 17.1728 12.8251C17.047 12.7561 16.9394 12.6587 16.8589 12.5409C16.7783 12.423 16.727 12.288 16.7092 12.1468C16.8496 11.9628 17.0724 11.8121 17.3161 11.8451C17.5586 11.8395 17.6985 12.0682 17.839 12.2255C18.0826 12.1139 18.2406 11.8908 18.4594 11.7474L18.4628 11.7463ZM18.0065 13.0795C18.0133 12.7041 18.2987 12.2377 18.7285 12.2857C18.8627 12.2751 18.9248 12.4068 18.997 12.4932C19.2666 12.4999 19.561 12.5613 19.7031 12.8156C19.4775 12.8407 19.2288 12.8502 19.0387 12.9936C18.8323 13.1235 18.7206 13.3556 18.5164 13.4867C18.266 13.5765 17.9636 13.3455 18.0088 13.0795H18.0065ZM18.2586 13.2741C18.4278 13.3857 18.5875 13.2379 18.7048 13.1263C18.605 13.085 18.4899 13.0661 18.4098 12.9908C18.3444 12.8926 18.3252 12.7426 18.4047 12.6466C18.5051 12.5233 18.7206 12.573 18.7996 12.4235C18.359 12.3432 18.0212 12.93 18.2614 13.273L18.2586 13.2741ZM18.5474 12.7247C18.4797 12.8692 18.6602 12.9897 18.7866 12.9991C19.006 12.9149 19.2074 12.7905 19.4166 12.6851C19.2647 12.6515 19.1083 12.6429 18.9535 12.6594C18.9016 12.771 18.8514 12.9082 18.7037 12.9099C18.6997 12.8112 18.6991 12.7119 18.6975 12.6131C18.6484 12.65 18.5717 12.6628 18.5474 12.7247ZM16.9348 13.471C17.1255 13.1972 17.4425 13.0382 17.7589 12.9534C17.6055 13.7343 17.7312 14.5827 18.1757 15.2532C18.3449 15.5154 18.5942 15.7084 18.8148 15.9226C18.7392 16.026 18.642 16.112 18.5296 16.1747C18.4172 16.2374 18.2925 16.2752 18.1639 16.2857L18.0764 16.2176C18.1193 16.086 18.178 15.9605 18.2293 15.8322C17.9839 15.8718 17.7414 15.9337 17.4921 15.9437C17.6156 15.7513 17.8068 15.5773 17.7905 15.3302C17.5778 15.4116 17.3443 15.4546 17.1204 15.386C17.2896 15.2186 17.535 15.0898 17.562 14.8337C17.3635 14.8125 17.1672 14.7858 16.9709 14.7456C17.1429 14.5225 17.3787 14.3077 17.3657 14.0021C17.1856 14.0164 17.0043 14.0045 16.8276 13.9669C16.8372 13.7996 16.8276 13.6127 16.9331 13.4688L16.9348 13.471ZM19.2592 13.046C19.4493 12.9506 19.6699 12.9791 19.8752 12.9902C19.6496 13.0599 19.38 13.0259 19.1944 13.196C18.9298 13.4192 19.0252 13.8303 18.7821 14.0729C18.6489 14.2363 18.4205 14.2229 18.2327 14.1911C18.24 14.0651 18.1938 13.9123 18.2936 13.8113C18.4374 13.654 18.632 13.5514 18.7905 13.4125C18.9456 13.2898 19.0782 13.1336 19.2592 13.0454V13.046ZM19.6084 13.1503C20.0004 12.9958 20.3738 13.2764 20.7619 13.3093C20.7474 13.4856 20.7081 13.6591 20.6451 13.8247C20.4573 13.7014 20.3862 13.4733 20.2108 13.3383C20.0354 13.2033 19.812 13.1983 19.6084 13.1503ZM19.4646 13.524C19.6614 13.3673 19.9953 13.3466 20.1679 13.5502C20.305 13.6942 20.3546 13.8916 20.3935 14.0801C20.1459 14.1359 19.9011 14.2012 19.6603 14.2759C19.3816 14.3596 19.0872 14.3362 18.8007 14.354C19.0584 14.1058 19.1718 13.7405 19.4634 13.524H19.4646ZM19.7229 14.455C19.9925 14.4204 20.2243 14.2726 20.4798 14.1911C20.3879 14.4537 20.2397 14.6937 20.0455 14.8945C19.9451 14.7919 19.8622 14.6301 19.6941 14.6474C19.3557 14.634 18.9721 14.6084 18.6788 14.8075C18.4566 14.9849 18.5722 15.3553 18.8351 15.4211C19.0428 15.4655 19.2579 15.4643 19.4651 15.4177C19.649 15.3062 19.772 15.1149 19.9649 15.0111C19.8633 15.2298 19.6828 15.4105 19.6321 15.6515C19.592 15.7703 19.5898 15.9114 19.4967 16.0062C19.3743 16.1552 19.147 16.1301 18.9846 16.0698C18.905 15.9583 18.8971 15.8182 18.8385 15.6989C18.6884 15.5706 18.4967 15.4758 18.4036 15.2961C18.2818 15.0959 18.3128 14.7897 18.5344 14.6703C18.8966 14.4634 19.3303 14.5448 19.7235 14.4555L19.7229 14.455ZM18.821 14.9152C19.0669 14.7752 19.3687 14.7952 19.6338 14.8644C19.7466 14.88 19.6778 15.0223 19.6862 15.0931C19.4149 14.9609 19.1188 14.9297 18.821 14.9152ZM13.4941 21.0046C13.9905 20.7486 14.5765 20.8808 15.0836 21.0359C15.3826 21.1474 15.7069 21.105 16.0171 21.1525C16.4683 21.2411 16.932 21.2149 17.3827 21.307C17.8269 21.319 18.267 21.3942 18.6896 21.5301C19.0105 21.6494 19.3551 21.6656 19.6947 21.6545C19.9626 21.6634 20.1589 21.4313 20.4234 21.418C20.5926 21.3929 20.7359 21.5357 20.9063 21.52C21.0191 21.5234 21.1505 21.491 21.2368 21.582C21.3287 21.7041 21.3772 21.8525 21.4669 21.9763C21.6192 22.0879 21.8403 22.1091 21.9503 22.277C22.0791 22.4654 22.182 22.6698 22.2566 22.885L22.0609 22.8956C21.7958 22.5988 21.5239 22.3082 21.2751 21.9975C21.2056 21.9124 21.1269 21.8349 21.0405 21.7666C21.0594 21.9042 21.0974 22.0386 21.1533 22.166C20.9982 22.0243 20.8583 21.8681 20.7021 21.7253C20.6271 21.6366 20.5001 21.6695 20.3986 21.6567C20.3659 21.9356 20.6806 22.0756 20.6705 22.3439C20.3935 22.33 20.1826 22.1342 19.9288 22.0494C19.6137 21.9524 19.2846 21.9074 18.9547 21.9161C18.7166 21.9239 18.5141 21.7828 18.2919 21.7231C17.8183 21.6039 17.333 21.5358 16.8446 21.52C16.3104 21.4364 15.7684 21.4832 15.2303 21.4553C14.8473 21.4453 14.4925 21.2635 14.1101 21.2551C13.9025 21.2852 13.6752 21.3282 13.5195 21.4782C13.3063 21.7125 13.3616 22.089 13.5601 22.3149C13.7446 22.5213 14.0277 22.5999 14.2934 22.6462C14.8315 22.6964 15.3713 22.6462 15.9099 22.6557C16.4486 22.6652 16.9974 22.5693 17.5457 22.581C17.9332 22.5614 18.3207 22.581 18.7082 22.5955L18.6456 22.4767C18.3534 22.3495 18.0285 22.3339 17.7143 22.3244C16.8322 22.3073 15.9498 22.3043 15.0673 22.3155C14.7683 22.3188 14.4062 22.3963 14.1761 22.1548C14.0441 22.0477 14.0068 21.8201 14.1417 21.7002C14.5088 21.5797 14.902 21.6751 15.276 21.7119C15.84 21.8268 16.4272 21.7515 16.994 21.8614C17.4868 21.9122 17.9756 21.9953 18.4572 22.1102C19.0895 22.2452 19.8109 22.1498 20.3462 22.5782C20.4199 22.6499 20.5085 22.7049 20.606 22.7393C20.7034 22.7737 20.8072 22.7867 20.9102 22.7773C20.9153 22.6284 20.926 22.4806 20.9429 22.3311C21.1257 22.3793 21.3058 22.4374 21.4822 22.5051C21.6993 22.5804 21.8206 22.7935 21.908 22.9915C19.4008 23.0255 16.8919 22.9915 14.3848 22.987C13.977 22.9452 13.5387 22.8755 13.2206 22.5966C12.9261 22.3489 12.8207 21.9211 12.9278 21.5602C13.0096 21.2941 13.2476 21.114 13.4919 21.0024L13.4941 21.0046ZM2.00169 23.9548C2.0282 23.807 2.20419 23.8433 2.31587 23.8282C8.70839 23.8282 15.1009 23.8282 21.4934 23.8282C21.9937 23.841 22.4963 23.797 22.9938 23.86C22.9938 23.8935 22.9983 23.9604 23 23.9939C16.0859 24.0039 9.17185 23.9939 2.25833 24C2.17316 23.9883 2.06712 24.0195 2 23.9543" fill="#F0C239"/>
</svg>
