<svg width="24" height="24" viewBox="0 0 24 24" fill="none" xmlns="http://www.w3.org/2000/svg">
<g clip-path="url(#clip0)">
<path d="M11.9995 24.001C18.6266 24.001 23.999 18.6282 23.999 12.0005C23.999 5.37281 18.6266 0 11.9995 0C5.37236 0 0 5.37281 0 12.0005C0 18.6282 5.37236 24.001 11.9995 24.001Z" fill="#007F31"/>
<path fill-rule="evenodd" clip-rule="evenodd" d="M13.511 0.094164C12.4703 -0.0362827 11.4169 -0.0311762 10.3775 0.109353L11.3532 1.36489L11.6581 1.75876C12.0647 2.24883 12.4214 2.88672 13.4459 3.34337C14.6798 3.89217 15.6109 3.76357 16.4555 3.98127C16.6204 4.02473 16.7818 4.08058 16.9383 4.14834C17.1756 4.26263 17.3841 4.42875 17.5481 4.63435C17.8266 4.94925 18.0715 5.25604 18.1274 5.32895L19.1743 6.63308L20.9164 4.88748C20.9164 4.88748 20.5099 4.37312 20.1948 3.96912C19.9915 3.72003 19.9112 3.62992 19.7455 3.52867C19.5854 3.43044 19.4103 3.35864 19.2272 3.31604C18.8332 3.2368 18.4327 3.19443 18.0309 3.18947C16.4585 3.12669 15.8771 3.00114 14.8801 1.80332L14.1371 0.902164L13.51 0.09214L13.511 0.094164ZM8.78681 0.435388L10.0522 2.06556L10.5259 2.67308C10.7291 2.93735 10.8999 3.17934 11.2038 3.5074C11.8411 4.20402 12.2791 4.43792 13.6269 4.63638C14.9746 4.83483 15.5001 4.94013 16.0266 5.28338C16.2858 5.44313 16.5183 5.64231 16.7157 5.87369C17.111 6.37287 18.1264 7.6851 18.1264 7.6851L16.362 9.45298C16.362 9.45298 15.2185 7.96456 14.687 7.28211C14.3363 6.8285 14.0771 6.43868 13.5923 6.06708C12.7477 5.4302 11.772 5.49601 10.7352 5.3735C10.0817 5.29655 9.44747 5.28237 8.46666 4.02987L7.78669 3.14492L6.41253 1.37805L6.24076 1.47019C7.04477 1.02862 7.89745 0.681365 8.78173 0.435388H8.78681ZM5.17457 2.13239L6.53246 3.88103C6.53246 3.88103 6.71338 4.12201 7.35879 4.95127C8.0042 5.78053 8.31318 5.84837 8.31318 5.84837C9.03482 6.19263 9.58976 6.20478 10.1915 6.26857C10.8928 6.34249 11.5799 6.26047 12.3523 6.81433C12.7274 7.08265 13.2356 7.74181 13.5557 8.16403C14.2113 9.02569 15.3405 10.4797 15.3405 10.4797L13.5771 12.2466C13.5771 12.2466 11.8614 10.0028 11.6459 9.72029C11.0523 8.95482 10.9151 8.7675 10.2057 7.94431C9.61314 7.25883 8.59371 7.17074 6.7266 6.83053C6.7266 6.83053 5.83116 6.74446 5.20201 6.11163C4.97565 5.87802 4.76545 5.62938 4.57287 5.36742L3.30441 3.73421C3.87143 3.13823 4.49807 2.60151 5.17457 2.13239ZM2.35206 4.86622L3.50159 6.34654C3.60347 6.47561 3.71203 6.59931 3.82684 6.71712C4.63995 7.55246 6.00801 7.71953 6.00801 7.71953C6.37798 7.78332 7.99607 7.85622 8.72787 8.47285C9.06226 8.75636 9.61111 9.45703 10.3693 10.4331C11.0462 11.3069 12.5739 13.254 12.5739 13.254L10.7545 15.0766C10.7545 15.0766 7.09555 10.2012 6.72152 9.7618C6.31496 9.28085 5.71427 8.5741 4.14598 8.64802C4.14598 8.64802 3.97523 8.66118 3.73943 8.67232C3.36358 8.69562 2.98629 8.6749 2.6153 8.61056C2.52331 8.59183 2.43342 8.56402 2.34697 8.52753C2.19989 8.46187 2.06299 8.37561 1.94042 8.27136C1.84604 8.18901 1.75773 8.10001 1.67616 8.00506L1.64058 7.96051L1.01855 7.16061C1.37686 6.34921 1.82407 5.57975 2.35206 4.86622Z" fill="white"/>
</g>
<defs>
<clipPath id="clip0">
<rect width="23.999" height="24.001" fill="white"/>
</clipPath>
</defs>
</svg>
