<svg width="24" height="24" viewBox="0 0 24 24" fill="none" xmlns="http://www.w3.org/2000/svg">
<path d="M12.9615 1.13945C13.4614 0.551858 14.144 0.150439 14.8992 0C14.6549 0.234249 14.3556 0.460132 14.3156 0.824054C14.2155 1.39545 14.6441 1.86395 15.0235 2.22871C16.4551 3.66432 17.8783 5.1083 19.3133 6.54056C19.7502 6.97057 20.1646 7.44158 20.4172 8.00712C20.7099 8.63541 20.8341 9.37497 20.6157 10.0468C20.4147 10.7813 19.7819 11.3937 19.0181 11.5058C18.472 11.6221 17.92 11.4765 17.4006 11.3117C16.947 11.1628 16.4309 11.1494 16.0015 11.377C15.4812 11.6363 15.0843 12.0755 14.6674 12.4645C12.8515 14.2961 11.0357 16.1272 9.22032 17.9577C8.32734 18.862 7.37349 19.7564 6.19368 20.2684C5.45346 20.5943 4.65644 20.7706 3.84824 20.7871C4.08921 21.2229 4.3852 21.6772 4.8788 21.8487C5.56167 22.0738 6.29623 21.8797 6.93408 21.5977C8.19309 20.9904 9.28535 20.0785 10.2559 19.0796C11.8679 17.4666 13.4824 15.8545 15.0993 14.2432C15.8231 13.4844 16.7386 12.7917 17.8208 12.7289C19.2282 12.5884 20.6173 13.6165 20.9742 14.9743C20.7099 14.7158 20.3905 14.4724 20.0003 14.4891C19.3508 14.4891 18.8455 14.9593 18.4286 15.4094C16.39 17.439 14.3798 19.497 12.3287 21.5166C12.5788 21.7483 12.8881 21.9441 13.2392 21.9458C13.8011 21.9976 14.3147 21.6755 14.6941 21.289C15.927 20.0408 17.1624 18.7957 18.4003 17.5536C18.8731 17.0792 19.3291 16.5706 19.9145 16.2326C20.4581 15.908 21.1084 15.6963 21.7488 15.8143C22.9278 16.0435 23.8574 17.1361 24 18.3141C23.7999 18.0974 23.604 17.8247 23.2863 17.7929C22.786 17.7092 22.3691 18.0438 22.0356 18.371C20.4631 19.9404 18.8933 21.513 17.3264 23.0886C16.2058 24.1611 14.3248 24.2598 13.0916 23.3203C12.5941 22.9387 12.2344 22.4047 12.0669 21.7994C11.1013 22.7673 9.90569 23.5412 8.56496 23.8432C7.42017 24.136 6.15616 24.0264 5.11476 23.45C4.07336 22.8736 3.3438 21.8353 3.0403 20.7026C2.1173 20.4867 1.25433 19.9697 0.710705 19.1791C0.0578511 18.2271 -0.139756 16.9981 0.0953711 15.8745C0.312155 14.7142 0.883299 13.6534 1.58118 12.7155C1.72459 12.5298 1.85216 12.319 2.05977 12.1977C2.38078 11.7375 2.78933 11.269 3.36381 11.1486C3.61423 11.081 3.87555 11.0642 4.13252 11.0991C4.38949 11.134 4.63695 11.2199 4.86045 11.3519C4.58864 10.8675 4.49109 10.2718 4.6937 9.74391C4.79968 9.43157 4.98321 9.15146 5.22697 8.93C5.47074 8.70854 5.7667 8.55303 6.08695 8.47813C6.51885 8.41706 6.98911 8.41204 7.37765 8.64043C8.21144 9.03698 8.65334 10.1011 8.34151 10.9754C8.21789 11.3356 7.99299 11.6521 7.69397 11.8868C7.39495 12.1216 7.03459 12.2644 6.65643 12.2981C6.27122 12.3441 5.90185 12.2027 5.55667 12.0471C5.79656 12.526 5.84777 13.078 5.70008 13.5931C5.60474 13.8863 5.44178 14.1527 5.22446 14.3708C5.00714 14.5889 4.74158 14.7524 4.4494 14.848C3.89159 15.0153 3.25208 14.9384 2.77682 14.5912C2.5253 14.4171 2.31926 14.1849 2.17616 13.914C2.03305 13.6431 1.9571 13.3417 1.95471 13.0351C1.93553 12.7841 2.03809 12.549 2.0506 12.3031L1.98139 12.3123C1.15845 13.4752 0.417214 14.7727 0.273802 16.2192C0.198762 16.9496 0.488084 17.7761 1.16845 18.1283C1.83548 18.5408 2.66926 18.4412 3.37465 18.181C4.43189 17.7753 5.3699 17.106 6.19868 16.3405C8.15752 14.3728 10.1158 12.4043 12.0735 10.4349C12.884 9.6477 14.0304 9.1265 15.1744 9.31808C16.0082 9.41596 16.6143 10.0593 17.3205 10.4475C17.5857 10.568 17.925 10.7562 18.196 10.5496C18.3269 10.4768 18.2902 10.3095 18.2794 10.1865C18.1552 9.76817 17.8458 9.44273 17.5473 9.13988C16.2133 7.80132 14.8764 6.46443 13.5368 5.12921C12.9907 4.58793 12.5363 3.92032 12.3754 3.1565C12.237 2.43535 12.4921 1.68157 12.959 1.13192L12.9615 1.13945Z" fill="#009AAE"/>
</svg>
