<svg width="24" height="24" viewBox="0 0 24 24" fill="none" xmlns="http://www.w3.org/2000/svg">
<path d="M0 0.00128882C2.61614 0.00128882 5.23202 0.00128882 7.84766 0.00128882C7.84766 3.71599 7.84766 7.43081 7.84766 11.1458C7.97731 10.6495 8.17255 10.1677 8.4603 9.74088C8.92516 9.04657 9.58093 8.50202 10.3483 8.17311C11.6327 7.6161 13.1916 7.75545 14.3517 8.54142C15.2639 9.14096 15.9372 10.1024 16.1662 11.1723C16.1783 9.05629 16.1662 6.93948 16.1715 4.82305C16.165 4.53145 16.184 4.2387 16.1628 3.94975C15.9895 3.28756 15.6798 2.64815 15.2059 2.14847C14.6497 1.55273 13.8551 1.22429 13.0548 1.1362C12.4861 1.0652 11.9155 1.10848 11.3488 1.16923C12.6992 0.505905 14.1861 0.144054 15.6832 0.0343222C16.3239 -0.0214932 16.9676 0.00964214 17.6098 0.00128882C19.2654 -0.0249102 20.9142 0.652468 22.0894 1.81814C23.1401 2.83982 23.8035 4.19549 23.9661 5.65307C24.0131 6.00809 23.9968 6.3669 23.999 6.72381C23.999 12.4823 23.999 18.241 23.999 24C21.3892 24 18.7795 24 16.17 24V17.5414C16.165 16.0412 16.1798 14.5418 16.1624 13.0408C15.8591 14.4878 14.7274 15.7162 13.3236 16.1638C12.1639 16.5435 10.8415 16.3981 9.80161 15.7545C9.31283 15.4566 8.88828 15.0641 8.55278 14.5999C8.21728 14.1357 7.97756 13.6092 7.84766 13.0511C7.84766 15.1936 7.84766 17.3363 7.84766 19.4793C7.85296 19.6737 7.8359 19.8697 7.85486 20.0637C8.01067 20.6332 8.25975 21.1811 8.62863 21.6425C9.05437 22.1839 9.6693 22.5621 10.3309 22.7405C11.0292 22.9304 11.7666 22.9346 12.4804 22.8408C12.5039 22.8571 12.5274 22.8738 12.5509 22.8913C12.0046 23.1313 11.4515 23.3625 10.8734 23.5163C9.99161 23.7673 9.08505 23.9209 8.1699 23.9742C7.60123 24.0171 7.03256 23.9901 6.46389 23.9977C4.99592 24.0229 3.56504 23.5352 2.41723 22.6183C1.46945 21.8589 0.727899 20.8337 0.344615 19.6768C0.184764 19.2077 0.0817895 18.7211 0.0379114 18.2275C-0.0128899 17.544 0.00492839 16.8606 0.00227459 16.1771C0.00227459 10.7854 0.00227459 5.39374 0.00227459 0.00204808L0 0.00128882Z" fill="#29166F"/>
</svg>
