<svg width="24" height="24" viewBox="0 0 24 24" fill="none" xmlns="http://www.w3.org/2000/svg">
<path d="M11.6912 0.163312C11.7676 0.0908618 11.8742 -0.067097 11.9867 0.0314693C12.855 1.08453 13.4963 2.34146 13.7578 3.69316C14.0068 3.59123 14.2206 3.42653 14.4634 3.3187C16.0548 2.50489 17.7607 1.95183 19.4857 1.50744C19.5413 1.49438 19.5982 1.48848 19.6559 1.4809C19.6254 2.29961 19.5345 3.11485 19.384 3.91978C19.2047 4.91597 18.9424 5.89953 18.5568 6.83507C18.5062 6.96143 18.441 7.08527 18.4203 7.22259C20.3457 7.26471 22.2231 7.83126 23.9821 8.5962L24 8.63074C22.7909 10.1893 21.4843 11.6888 19.951 12.9293C19.7622 13.0902 19.5526 13.2242 19.3699 13.3927C20.5479 14.4011 21.3759 15.7722 21.9404 17.2144C20.1864 17.9688 18.3655 18.6045 16.4753 18.8917C16.5416 19.4323 16.5555 19.9781 16.5168 20.5215C16.4608 21.0837 16.3549 21.6398 16.2005 22.1828C16.159 22.3091 16.1424 22.4464 16.0697 22.5619C15.0441 22.4688 14.0193 22.3331 13.0198 22.0766C12.7064 22.0017 12.3981 21.9064 12.0967 21.7914C12.0297 21.7669 11.96 21.7505 11.8892 21.7426C11.5892 22.3553 11.1936 22.9149 10.7179 23.3997C10.5165 23.6027 10.3219 23.815 10.0928 23.9864C10.0338 24.0193 9.96825 23.9864 9.91761 23.9519C9.16675 23.4553 8.42337 22.9275 7.80658 22.2641C7.72405 22.1721 7.63691 22.0845 7.5455 22.0016C6.9449 22.4229 6.25091 22.6861 5.54571 22.8635C5.46359 22.8806 5.38036 22.8917 5.29667 22.8967C4.93141 22.2956 4.59479 21.671 4.3665 21.0012C4.29719 20.8395 4.281 20.6541 4.18595 20.5046C3.48033 20.5787 2.76351 20.4772 2.0853 20.2742C1.97779 19.6462 1.97696 19.0042 2.00436 18.3694C2.02636 18.211 2.02636 18.0472 2.07326 17.8943C2.44682 18.0148 2.832 18.1024 3.22507 18.083C3.55712 18.0977 3.88171 18.0442 4.20753 17.9987C4.06475 18.821 3.99128 19.6811 4.21625 20.4958C5.00487 20.4178 5.67396 19.9427 6.30321 19.4949C6.54145 20.3231 6.88015 21.1377 7.40687 21.8197C7.45917 21.8871 7.53761 21.9823 7.63183 21.9258C8.022 21.6596 8.30673 21.2674 8.55743 20.8702C8.78572 20.5345 8.93929 20.1596 9.11404 19.7974C9.85659 20.5602 10.7154 21.2295 11.6978 21.6411C11.766 21.6662 11.8372 21.6819 11.9095 21.6878C12.1163 21.2096 12.2319 20.6959 12.2503 20.1739C12.2698 19.6297 12.2548 19.0821 12.1619 18.5447C13.5594 18.8875 15.0188 19.1078 16.4516 18.8816C16.3242 18.0417 15.9016 17.286 15.4094 16.6125C15.1528 16.2465 14.8478 15.92 14.5547 15.5847C15.3351 15.3749 16.1006 15.1121 16.8463 14.7983C17.7295 14.4369 18.5659 13.9673 19.3367 13.3998C18.8918 12.9655 18.3327 12.6703 17.7711 12.4213C16.9119 12.0772 16.0195 11.8021 15.103 11.6716C15.103 11.6551 15.1084 11.6227 15.1101 11.6063C15.619 11.1101 16.1204 10.6038 16.5686 10.0477C17.1323 9.36957 17.6669 8.6577 18.072 7.86959C18.1803 7.65898 18.3044 7.453 18.3729 7.22386C17.9288 7.19605 17.4851 7.23607 17.0447 7.28156C16.3682 7.35612 15.7094 7.53682 15.0524 7.715C14.4236 7.89655 13.8072 8.12317 13.2016 8.36663C13.4766 7.52011 13.6735 6.64949 13.7898 5.766C13.8408 5.29634 13.8819 4.8212 13.8313 4.34901C13.8122 4.1384 13.8031 3.92147 13.7325 3.71717C13.063 4.11102 12.42 4.55667 11.8473 5.08615C11.1304 5.70924 10.4641 6.38989 9.85493 7.1215C9.71256 6.6729 9.60589 6.21039 9.40085 5.78411C9.12151 5.14006 8.78448 4.47158 8.20006 4.06173C7.79759 4.66002 7.45708 5.29889 7.18398 5.96819C6.90165 6.63504 6.67128 7.32332 6.49497 8.02671C5.78935 7.45595 4.96254 6.93574 4.03154 6.92479C3.91865 7.41341 3.88793 7.91887 3.90453 8.42097C3.91284 9.04017 3.99294 9.65516 4.09422 10.2651C3.32966 10.2352 2.5207 10.2853 1.83916 10.6728C1.75615 10.7032 1.77815 10.8043 1.78977 10.8729C1.97281 11.589 2.36837 12.2255 2.79921 12.8131C2.84362 12.8885 2.96731 12.9656 2.90754 13.0633C2.25879 13.4398 1.5951 13.8695 1.19622 14.5312C1.43987 14.8063 1.70759 15.0653 2.03134 15.2414C2.35135 15.4478 2.7025 15.594 3.05074 15.7418C2.59417 16.3796 2.19321 17.0944 2.07367 17.8838C1.59095 17.6938 1.15388 17.3981 0.745459 17.0792C0.588148 16.9613 0.456988 16.8113 0.295527 16.7001C0.469957 15.9321 0.768408 15.1987 1.17879 14.5296C1.04057 14.3114 0.865414 14.1197 0.739234 13.8931C0.444355 13.4142 0.196745 12.907 0 12.3788C0.113576 12.2071 0.241918 12.046 0.383521 11.8973C0.674068 11.5903 0.964616 11.2764 1.30539 11.0258C1.44277 10.9239 1.58638 10.8308 1.72377 10.731C1.7217 10.5477 1.66898 10.3717 1.64076 10.1922C1.4876 9.33208 1.47722 8.45383 1.5042 7.58063C1.60705 7.54466 1.70767 7.50246 1.80554 7.45426C2.4998 7.12298 3.25389 6.94044 4.02075 6.91805C4.28058 5.53517 4.79983 4.22222 5.34648 2.93496C6.0413 2.99056 6.71993 3.19991 7.35291 3.49182C7.65674 3.64524 7.94494 3.82866 8.21334 4.03941C8.56408 3.56216 8.90858 3.07691 9.3004 2.6321C9.77441 2.04829 10.3082 1.51881 10.8332 0.983013C11.1167 0.708375 11.3936 0.426155 11.6899 0.165418L11.6912 0.163312Z" fill="#7CD0F5"/>
<path d="M11.8517 5.08742C12.4245 4.55794 13.0674 4.11229 13.7369 3.71844C13.8075 3.92105 13.8166 4.13672 13.8357 4.35028C13.8847 4.82247 13.8436 5.29761 13.7942 5.76727C13.6779 6.65076 13.481 7.52138 13.206 8.36791C13.8137 8.12444 14.428 7.89782 15.0568 7.71627C15.7122 7.5381 16.3709 7.35739 17.0491 7.28284C17.4903 7.23734 17.9341 7.19859 18.3773 7.22513C18.3089 7.45427 18.1848 7.65983 18.0764 7.87086C17.6713 8.66024 17.1367 9.37084 16.5731 10.049C16.1248 10.6033 15.6234 11.1096 15.1145 11.6075C15.1145 11.624 15.1091 11.6564 15.1075 11.6728C16.0239 11.8034 16.9163 12.0785 17.7755 12.4226C18.3371 12.6715 18.8962 12.9668 19.3411 13.4011C18.5703 13.9686 17.734 14.4382 16.8507 14.7996C16.1036 15.1124 15.3366 15.374 14.555 15.5826C14.848 15.9196 15.1531 16.2444 15.4096 16.6104C15.9019 17.2844 16.3228 18.0396 16.4519 18.8795C15.019 19.107 13.5597 18.8867 12.1621 18.5426C12.2551 19.08 12.2701 19.6276 12.2505 20.1718C12.2322 20.6938 12.1165 21.2075 11.9098 21.6857C11.8375 21.6798 11.7663 21.6641 11.6981 21.639C10.7152 21.2295 9.85644 20.5594 9.11388 19.7974C8.93914 20.1605 8.78391 20.5354 8.55645 20.869C8.30741 21.2662 8.02101 21.6583 7.63085 21.9246C7.53663 21.981 7.45818 21.8858 7.40589 21.8184C6.87917 21.1348 6.54047 20.3218 6.30222 19.4937C5.67298 19.9414 5.00265 20.4166 4.21527 20.4945C3.9903 19.6799 4.06377 18.8197 4.20655 17.9975C3.88072 18.0438 3.55448 18.0973 3.22409 18.0817C2.83102 18.1011 2.44418 18.0135 2.07228 17.893V17.8838C2.19182 17.0944 2.59194 16.3796 3.04934 15.7418C2.7011 15.594 2.34996 15.447 2.02994 15.2414C1.70619 15.0654 1.43847 14.8063 1.19482 14.5312C1.5937 13.8695 2.25739 13.4399 2.90614 13.0633C2.96591 12.9656 2.84222 12.8885 2.79781 12.8131C2.36697 12.2255 1.97141 11.589 1.78837 10.8729C1.77675 10.8043 1.75475 10.7044 1.83776 10.6728C2.5193 10.2853 3.32827 10.2352 4.09282 10.2651C3.99155 9.65517 3.91144 9.04018 3.90314 8.42098C3.88778 7.91973 3.91725 7.41426 4.03471 6.92606C4.96571 6.93701 5.79252 7.45722 6.49813 8.02798C6.67445 7.32459 6.90482 6.63631 7.18714 5.96946C7.46065 5.30011 7.80157 4.66124 8.20447 4.06301C8.78889 4.47286 9.12592 5.14134 9.40526 5.78539C9.60906 6.21167 9.71698 6.67417 9.85935 7.12277C10.4686 6.39116 11.1348 5.71051 11.8517 5.08742ZM9.0674 8.16235C8.85266 8.47003 8.65438 8.78922 8.47344 9.11853C8.28707 9.40664 8.16006 9.72762 7.99611 10.0279C7.82178 9.73773 7.69228 9.42012 7.48931 9.14717C7.20541 8.73858 6.88788 8.34937 6.49564 8.04272C6.24951 8.977 6.11918 9.94707 6.15944 10.915C6.09004 10.8945 6.02309 10.8662 5.95979 10.8308C5.44568 10.5453 4.88181 10.3639 4.29952 10.2967C4.23369 10.2857 4.16654 10.2857 4.10071 10.2967C4.18123 10.5494 4.22855 10.8114 4.31654 11.0616C4.47515 11.5655 4.69076 12.0491 4.95907 12.5026C4.42011 12.5379 3.88942 12.655 3.38472 12.8501C3.24816 12.9121 3.09708 12.9512 2.98169 13.0523C3.30336 13.3998 3.63874 13.7423 4.04052 13.995C4.20655 14.1117 4.38876 14.1985 4.55396 14.3147C3.98525 14.6972 3.48157 15.1709 3.06263 15.7174C3.11335 15.7485 3.16774 15.773 3.2245 15.7903C3.59142 15.8863 3.96374 15.9773 4.34518 15.9895C4.54732 15.9933 4.74987 15.9895 4.95201 15.9857C4.83496 16.2574 4.67807 16.5097 4.57638 16.7886C4.43442 17.1757 4.26839 17.5662 4.23187 17.9806C4.7526 17.8863 5.25379 17.703 5.71407 17.4385C5.82773 17.363 5.94646 17.2955 6.06937 17.2368C6.05111 17.7844 6.05401 18.3357 6.16774 18.8728C6.20925 19.0678 6.22834 19.2717 6.31094 19.4553C6.47435 19.3199 6.62933 19.1743 6.77498 19.0194C7.14854 18.6626 7.43369 18.2228 7.69062 17.7755C7.79563 17.8817 7.83797 18.0303 7.91102 18.158C8.21692 18.7337 8.60132 19.2628 9.05287 19.7296C9.11347 19.7949 9.15332 19.6845 9.17034 19.639C9.41232 18.9292 9.5854 18.1824 9.56091 17.4272L9.60574 17.3817C10.3757 17.9095 11.2448 18.2738 12.1376 18.5278C12.1484 18.3366 12.0858 18.1538 12.0443 17.9705C11.9339 17.4962 11.7537 17.0438 11.5512 16.6011C11.4486 16.3796 11.3063 16.1799 11.2071 15.9571C12.3174 16.03 13.4314 15.8669 14.5077 15.5948C14.4963 15.5534 14.4728 15.5164 14.4404 15.4887C13.744 14.8042 12.9267 14.236 12.0231 13.8741C12.0492 13.7975 12.1281 13.7718 12.1891 13.7347C13.0778 13.2752 13.8963 12.6846 14.6455 12.0191C14.7854 11.9045 14.9389 11.8021 15.046 11.653C14.2375 11.5203 13.4162 11.4858 12.5996 11.5502C12.2572 11.562 11.9218 11.6429 11.5806 11.6665C11.6491 11.5348 11.7285 11.4092 11.818 11.2912C12.0313 10.9753 12.2209 10.6438 12.3854 10.2992C12.6113 9.8849 12.8091 9.45554 12.9777 9.01406C13.0437 8.80345 13.1529 8.60716 13.1782 8.38644C12.703 8.59032 12.2384 8.81864 11.7861 9.07051C11.1764 9.42476 10.5745 9.80133 10.0428 10.271C10.0254 10.1025 10.0528 9.93823 10.0706 9.77311C10.1241 8.98305 10.0699 8.18928 9.90957 7.41426C9.90029 7.32391 9.87319 7.23638 9.82987 7.15689C9.55469 7.47618 9.32432 7.83085 9.06532 8.16361L9.0674 8.16235Z" fill="#02AAE8"/>
<path d="M9.06777 8.16192C9.32677 7.82915 9.55713 7.47448 9.83232 7.1552C9.87563 7.23469 9.90273 7.32222 9.91201 7.41256C10.0723 8.18759 10.1265 8.98136 10.0731 9.77141C10.0552 9.93653 10.0278 10.1025 10.0453 10.2693C10.5761 9.79964 11.178 9.42306 11.7885 9.06881C12.2408 8.81695 12.7055 8.58863 13.1807 8.38475C13.1553 8.60547 13.0462 8.80302 12.9802 9.01237C12.812 9.45454 12.6143 9.88461 12.3887 10.2996C12.2242 10.6442 12.0345 10.9758 11.8213 11.2916C11.7318 11.4096 11.6524 11.5352 11.5839 11.6669C11.9251 11.6433 12.2605 11.5625 12.6029 11.5507C13.4195 11.4862 14.2407 11.5207 15.0493 11.6534C14.9422 11.8026 14.7886 11.9062 14.6488 12.0195C13.9016 12.685 13.081 13.2756 12.1924 13.7351C12.1293 13.7722 12.0504 13.7979 12.0264 13.8746C12.93 14.2364 13.7472 14.8046 14.4437 15.4891C14.4761 15.5168 14.4995 15.5538 14.511 15.5952C13.4347 15.8674 12.3206 16.0304 11.2103 15.9575C11.3095 16.1799 11.4519 16.3787 11.5544 16.6015C11.7557 17.043 11.9371 17.4966 12.0475 17.9709C12.089 18.1542 12.1517 18.337 12.1409 18.5282C11.2485 18.2755 10.3794 17.9099 9.60902 17.3821L9.56419 17.4276C9.58992 18.1828 9.41559 18.9296 9.17361 19.6394C9.15659 19.6849 9.11675 19.7953 9.05615 19.73C8.60459 19.2632 8.22019 18.7341 7.9143 18.1584C7.84124 18.032 7.79891 17.8821 7.6939 17.7759C7.43697 18.2233 7.15182 18.663 6.77826 19.0198C6.6326 19.1747 6.47762 19.3203 6.31421 19.4558C6.2312 19.2721 6.21335 19.0682 6.17102 18.8732C6.05729 18.3361 6.05438 17.7835 6.07264 17.2372C5.94875 17.2957 5.82905 17.363 5.71444 17.4385C5.25346 17.703 4.75156 17.886 4.23016 17.9798C4.26669 17.5653 4.43271 17.1748 4.57467 16.7877C4.67636 16.5089 4.83326 16.2566 4.9503 15.9849C4.74817 15.987 4.54561 15.9925 4.34347 15.9887C3.96327 15.9765 3.59096 15.8855 3.22279 15.7894C3.16603 15.7721 3.11165 15.7477 3.06092 15.7166C3.4799 15.1702 3.98358 14.6967 4.55225 14.3143C4.38623 14.198 4.20401 14.1113 4.03882 13.9946C3.63703 13.7419 3.30166 13.3994 2.97998 13.0519C3.09537 12.9508 3.24645 12.9116 3.38301 12.8497C3.88771 12.6546 4.4184 12.5375 4.95736 12.5022C4.68906 12.0487 4.47344 11.5651 4.31484 11.0612C4.22684 10.811 4.17952 10.549 4.099 10.2963C4.16484 10.2853 4.23198 10.2853 4.29782 10.2963C4.8801 10.3635 5.44397 10.5449 5.95809 10.8304C6.02138 10.8658 6.08833 10.8941 6.15773 10.9146C6.11623 9.9458 6.2478 8.97699 6.49394 8.04229C6.88618 8.34894 7.2037 8.73815 7.48761 9.14674C7.69057 9.41969 7.81966 9.73645 7.9944 10.0275C8.15836 9.72719 8.28495 9.40621 8.47173 9.1181C8.65268 8.78879 8.85095 8.46961 9.06569 8.16192H9.06777ZM7.9915 10.1067C7.68847 10.7787 7.4977 11.4971 7.42701 12.2326C7.17216 11.8443 6.87123 11.4837 6.50099 11.2036C6.39598 11.1299 6.30384 11.0292 6.17807 10.993C6.1999 11.5384 6.31056 12.0764 6.50556 12.5852C6.53302 12.6721 6.57348 12.7542 6.62551 12.8287L6.52631 12.8114C6.04376 12.5988 5.51987 12.5004 4.9943 12.5237C5.27945 12.982 5.6472 13.3998 6.10377 13.6871C6.10834 13.7018 6.11747 13.7292 6.12245 13.7448C5.57747 13.8131 5.05739 14.0253 4.59169 14.3156C5.07648 14.5342 5.59905 14.6862 6.13325 14.6808C6.11294 14.7068 6.09059 14.7312 6.06642 14.7536C5.6425 15.0887 5.28085 15.4978 4.99845 15.9617C5.55215 15.9242 6.08842 15.7368 6.57571 15.4697C6.30213 15.9999 6.14015 16.582 6.10004 17.179C6.58762 16.8517 7.00138 16.4234 7.31411 15.9221C7.33206 16.529 7.46216 17.1272 7.69763 17.6854L7.74744 17.6559C8.00727 17.1083 8.20401 16.5232 8.24552 15.9141C8.57781 16.4691 9.02299 16.9457 9.55132 17.3122C9.54707 16.6612 9.40361 16.0189 9.13086 15.4297C9.76525 15.732 10.4518 15.9053 11.1518 15.9398C10.7805 15.3589 10.2837 14.8714 9.69908 14.5144C10.4628 14.4487 11.2045 14.2044 11.8931 13.8699L11.8998 13.8337C11.2214 13.5623 10.4961 13.4322 9.76716 13.4512C10.4553 12.9921 11.0186 12.3699 11.5233 11.7166C10.8881 11.8277 10.2731 12.0354 9.69908 12.3329C9.55921 12.3977 9.43593 12.4955 9.28983 12.5435C9.65992 11.8549 9.89795 11.1014 9.99129 10.3228C9.37611 10.829 8.84705 11.4344 8.42524 12.1147C8.40408 11.426 8.27914 10.7335 7.9944 10.1046L7.9915 10.1067Z" fill="#006FB8"/>
</svg>
