<svg width="25" height="24" viewBox="0 0 25 24" fill="none" xmlns="http://www.w3.org/2000/svg">
<g clip-path="url(#clip0)">
<path d="M0.00371056 0.00519659C2.21947 0.000858742 4.43507 0.000858742 6.6505 0.00519659C6.85078 -0.0153248 6.96444 0.170869 7.09011 0.289993C8.7284 1.92803 10.3665 3.56624 12.0045 5.20461C13.6962 3.50484 15.3915 1.80874 17.0906 0.116312C17.1216 0.0758802 17.1624 0.0440988 17.2093 0.024025C17.2561 0.00395115 17.3073 -0.00373927 17.358 0.00169334C19.5716 0.00619803 21.7846 -0.00231074 23.9982 0.0056976C24.0042 5.70564 24.0042 11.4054 23.9982 17.105C23.9942 19.3974 24.0062 21.6903 23.9922 23.9827C22.748 24.0142 21.5027 23.9882 20.258 23.9967H2.74204C1.83026 23.9882 0.917487 24.0142 0.00621345 23.9812C-0.00113015 15.9888 -0.00196404 7.99719 0.00371056 0.00619785V0.00519659ZM2.53274 2.53183C2.53007 8.8434 2.53007 15.1553 2.53274 21.4676C8.84556 21.4676 15.1585 21.4676 21.4717 21.4676C21.4677 15.1887 21.4677 8.90964 21.4717 2.63043C21.4967 2.53033 21.3816 2.52482 21.3165 2.53033C20.3306 2.53333 19.3442 2.53033 18.3584 2.53033C18.3191 2.52856 18.2799 2.53607 18.2441 2.55224C18.2082 2.56842 18.1767 2.5928 18.1521 2.62342C16.7 4.08094 15.242 5.53095 13.791 6.98897C14.6378 7.83285 15.4833 8.6779 16.3275 9.52411C16.3494 9.54868 16.3769 9.56757 16.4077 9.57916C16.4385 9.59076 16.4716 9.59471 16.5043 9.59068C18.076 9.6032 19.6487 9.57416 21.2199 9.6042C20.4743 10.6052 19.6992 11.5833 18.9387 12.5723C17.9147 12.5828 16.8903 12.5673 15.8664 12.5798C16.4457 13.1519 17.0245 13.7255 17.5938 14.3076C17.4736 14.4933 17.3049 14.6379 17.1512 14.7936C15.4735 16.476 13.7943 18.1558 12.1136 19.8329L12.0045 19.8499C10.5555 18.3949 9.10042 16.9468 7.64839 15.4913C6.04615 15.4818 4.44391 15.5008 2.83817 15.4813C2.96885 15.216 3.17915 15.0038 3.35289 14.7676C3.88814 14.0668 4.4314 13.3721 4.96815 12.6729C5.03825 12.5898 5.10834 12.4727 5.23652 12.4947C6.2229 12.4917 7.20978 12.4947 8.19616 12.4947C7.62035 11.9111 7.03353 11.338 6.46023 10.7524C7.69646 9.48657 8.96623 8.25329 10.2055 6.99047C8.78248 5.54347 7.33295 4.12199 5.90446 2.67998C5.83135 2.61241 5.75825 2.51631 5.64609 2.52983C4.60764 2.52983 3.56969 2.52983 2.53124 2.52983L2.53274 2.53183ZM8.35939 12.4151C8.28028 12.4682 8.30631 12.5708 8.37441 12.6193C9.59611 13.8486 10.8212 15.0744 12.0495 16.2967C13.2512 15.0844 14.4629 13.8812 15.6696 12.6744C15.7132 12.6208 15.8073 12.5473 15.7157 12.4907C14.4789 11.2504 13.2405 10.0118 12.0005 8.77483C10.7884 9.9901 9.57475 11.2035 8.35939 12.4151Z" fill="#A88B53"/>
</g>
<defs>
<clipPath id="clip0">
<rect width="24.0027" height="23.9988" fill="white"/>
</clipPath>
</defs>
</svg>
