<svg width="24" height="24" viewBox="0 0 24 24" fill="none" xmlns="http://www.w3.org/2000/svg">
<path fill-rule="evenodd" clip-rule="evenodd" d="M7.16016 15.1228V8.14192C12.2728 7.98205 16.8013 4.86961 20.98 0L21 7.98802C16.3867 13.3268 11.7734 15.0377 7.16016 15.1228Z" fill="#1C1561"/>
<path d="M14.5851 23.3101C16.2504 22.9291 17.2818 21.3115 16.8887 19.6972C16.4957 18.0828 14.8271 17.083 13.1618 17.464C11.4965 17.845 10.4651 19.4626 10.8582 21.077C11.2512 22.6913 12.9198 23.6911 14.5851 23.3101Z" fill="#1C1561"/>
<path fill-rule="evenodd" clip-rule="evenodd" d="M16.8398 8.66489V15.6443C11.7272 15.8057 7.19866 18.9181 3.02003 23.7877L3 15.7997C7.61328 10.4609 12.2266 8.75006 16.8398 8.66489Z" fill="#B5B8B8"/>
</svg>
