<svg width="24" height="24" viewBox="0 0 24 24" fill="none" xmlns="http://www.w3.org/2000/svg">
<path d="M9.75442 0.252431C10.5344 0.0854693 11.3306 0.000838012 12.1291 0C12.7868 0.028496 13.4454 0.0849504 14.0904 0.220172C14.6232 0.334425 15.1563 0.453516 15.6726 0.627987C16.1463 0.780682 16.5989 0.986069 17.0481 1.19549C17.7584 1.56461 18.4296 2.00096 19.0522 2.49824C19.735 3.0419 20.3422 3.66998 20.8585 4.36661C21.1511 4.76071 21.4396 5.161 21.6723 5.5922C22.1353 6.41488 22.4748 7.29801 22.6806 8.21464C22.8961 9.06337 23.0034 9.93478 22.9999 10.8091C22.9646 11.5336 22.8766 12.2581 22.6966 12.963C22.5176 13.7774 22.2337 14.5665 21.8516 15.3115C21.4655 16.0658 20.9691 16.7632 20.4233 17.4129C20.5673 17.5172 20.7267 17.6062 20.8411 17.7449C21.0229 17.9742 21.2082 18.2162 21.2667 18.5068C21.2851 18.6286 21.3541 18.7509 21.3166 18.8751C21.2791 18.9993 21.2697 19.1348 21.2041 19.2515C20.6988 20.1612 20.2813 21.1128 19.8213 22.0441C19.6484 22.4197 19.4259 22.7717 19.1595 23.0912C19.0467 23.2167 18.8994 23.3062 18.7593 23.4C18.2629 23.6498 17.7163 23.7764 17.1736 23.8839C16.8887 23.928 16.5945 23.9818 16.3088 23.9092C15.9798 23.8286 15.6276 23.7858 15.3436 23.5914C15.1963 23.4863 15.0344 23.3928 14.9238 23.2479C14.8251 23.1159 14.7176 22.9877 14.6522 22.8358C14.3503 22.7206 14.0414 22.6238 13.7272 22.5457C12.7656 22.3476 11.772 22.3476 10.8104 22.5457C10.4293 22.6411 10.0556 22.7626 9.69209 22.9092C9.60888 23.0431 9.51772 23.1722 9.41907 23.2957C9.2958 23.457 9.11875 23.5646 8.95384 23.6799C8.80583 23.7764 8.63932 23.8427 8.46434 23.8748C8.16098 23.9401 7.85377 24.0361 7.54104 23.9861C7.11579 23.9281 6.69599 23.837 6.28571 23.7135C6.08302 23.6412 5.8624 23.5955 5.69004 23.4619C5.53284 23.3565 5.38522 23.2381 5.2488 23.1081C5.01521 22.8454 4.86988 22.525 4.69118 22.2274C4.17014 21.3186 3.64893 20.4096 3.12753 19.5004C3.07044 19.3835 3.05776 19.252 3.02218 19.1283C2.99102 19.0286 3.02218 18.927 3.047 18.8299C3.08644 18.6759 3.11429 18.5176 3.18075 18.3729C3.25273 18.2049 3.3738 18.0638 3.48135 17.9175C3.56408 17.8076 3.67825 17.7293 3.79077 17.6519C3.49925 17.3305 3.22716 16.9928 2.97585 16.6406C2.18605 15.57 1.62649 14.3549 1.33085 13.0681C1.16583 12.4421 1.06423 11.8018 1.0275 11.1564C0.963793 10.6094 1.02364 10.0585 1.07714 9.51309C1.13808 8.94666 1.27211 8.39126 1.41331 7.83962C1.66099 6.90765 2.04909 6.01664 2.56495 5.19568C3.02853 4.47494 3.55498 3.78835 4.17244 3.18537C4.71379 2.64771 5.3307 2.1872 5.96829 1.76594C6.79621 1.22799 7.70027 0.810753 8.65187 0.527445C9.01423 0.417762 9.38488 0.336844 9.75497 0.253238L9.75442 0.252431ZM11.1391 0.472334C10.381 0.530939 9.6328 0.684441 8.90337 0.891709C7.95136 1.16903 7.04606 1.58057 6.21622 2.11327C5.52402 2.56061 4.87402 3.07326 4.30482 3.66388C3.73696 4.25417 3.2396 4.90531 2.82225 5.60484C2.08307 6.88227 1.6288 8.29741 1.48915 9.75772C1.45054 10.2147 1.40641 10.6779 1.46322 11.136C1.50128 11.925 1.65627 12.7049 1.87689 13.4635C2.35756 15.1034 3.30292 16.5968 4.53509 17.7998C4.35115 17.8334 4.16775 17.889 4.02077 18.0065C3.68239 18.2423 3.4888 18.6385 3.4444 19.0353C3.45242 19.1582 3.49125 19.2773 3.55746 19.3821C4.15093 20.4162 4.74413 21.4507 5.33704 22.4855C5.41757 22.6323 5.50858 22.7788 5.6404 22.8868C5.77222 22.9949 5.89632 23.1084 6.04882 23.1826C6.55607 23.3814 7.08868 23.5122 7.63205 23.5713C7.9012 23.5896 8.16512 23.5189 8.42352 23.4552C8.83388 23.3288 9.16398 23.0108 9.34075 22.6328C9.3584 22.5675 9.43176 22.5562 9.48554 22.5317C10.0012 22.3301 10.5335 22.1554 11.0823 22.0693C12.0171 21.9135 12.9745 21.9434 13.8971 22.1572C14.2742 22.2516 14.6441 22.3718 15.0038 22.5169C15.097 22.8933 15.412 23.1818 15.7666 23.3331C15.9541 23.4116 16.1557 23.4492 16.354 23.4923C16.5981 23.5476 16.8504 23.5052 17.0925 23.4707C17.5801 23.3885 18.0608 23.2557 18.5086 23.0476C18.6722 22.9639 18.8141 22.845 18.9237 22.7C19.1214 22.45 19.2742 22.1701 19.4137 21.8865C19.842 21.0214 20.2328 20.1391 20.6889 19.2869C20.77 19.1281 20.8836 18.9767 20.893 18.7934C20.8747 18.6638 20.836 18.5378 20.7783 18.4197C20.6343 18.1272 20.4071 17.8603 20.0966 17.7288C19.947 17.6781 19.7915 17.6454 19.6338 17.6315C20.5794 16.6712 21.3263 15.5422 21.8334 14.3063C22.1282 13.5692 22.3262 12.7968 22.4497 12.0156C22.5104 11.6422 22.5294 11.2629 22.5631 10.8882C22.5734 10.0302 22.4764 9.17421 22.2744 8.33911C22.0684 7.44531 21.7342 6.58429 21.2816 5.78146C21.1988 5.60914 21.0871 5.45429 20.9868 5.29246C20.4628 4.49 19.8431 3.74534 19.1159 3.11036C18.5009 2.57211 17.8256 2.10317 17.1027 1.71245C16.9497 1.61137 16.777 1.54631 16.6124 1.46701C15.7123 1.03177 14.7393 0.755412 13.7523 0.58363C13.2353 0.491421 12.7102 0.457549 12.1865 0.427171C11.8368 0.418568 11.4877 0.446527 11.1385 0.472334H11.1391Z" fill="#E8651D"/>
<path d="M9.96557 1.00594C10.6048 0.876367 11.2573 0.822332 11.9087 0.7976C12.212 0.789535 12.5154 0.820719 12.8187 0.840344C14.4638 0.968088 16.0524 1.48303 17.4484 2.34099C18.8443 3.19894 20.0059 4.37427 20.8333 5.76611C21.2526 6.47143 21.5785 7.22567 21.8032 8.01084C22.068 8.92809 22.1824 9.88325 22.1805 10.8336C22.1485 11.3105 22.1143 11.7884 22.0266 12.2584C21.7351 13.9059 21.0125 15.4523 19.9288 16.7481C19.3393 17.4537 18.654 18.0778 17.8916 18.603C17.7692 18.6893 17.6365 18.7619 17.5238 18.8608C17.7959 18.8563 18.0585 18.7802 18.3213 18.7202C18.5455 18.6619 18.7667 18.5933 18.9862 18.5202C19.0527 18.3923 19.1136 18.2613 19.182 18.1344C19.1983 18.0955 19.2446 18.0874 19.2799 18.0721C19.5066 17.9895 19.7724 17.9761 19.9906 18.0898C20.2244 18.2081 20.3767 18.435 20.4732 18.667C20.4947 18.7256 20.5327 18.7928 20.4917 18.8525C20.0303 19.6859 19.6367 20.5502 19.225 21.4064C19.0871 21.6825 18.9592 21.9629 18.7965 22.2255C18.6757 22.4137 18.5441 22.6156 18.3329 22.7164C17.8476 22.9413 17.3264 23.0835 16.7918 23.1368C16.5026 23.1731 16.2105 23.1056 15.9425 23.0024C15.6744 22.8992 15.4359 22.6927 15.3655 22.4142C15.3418 22.3457 15.3479 22.2438 15.2607 22.2199C14.4775 21.8943 13.6425 21.6806 12.7928 21.6177C11.5176 21.5187 10.2353 21.7946 9.07261 22.2989C8.98988 22.5035 8.88839 22.7089 8.71879 22.8599C8.45515 23.1102 8.07403 23.1925 7.71773 23.2016C7.21333 23.1747 6.72025 23.0417 6.25115 22.8629C6.10582 22.8072 5.99689 22.6938 5.87996 22.5976C5.76965 22.5086 5.71229 22.3787 5.64334 22.2607C5.11018 21.3298 4.57701 20.3992 4.04385 19.4686C3.9738 19.3318 3.87507 19.2073 3.82543 19.0619C3.82874 18.8756 3.91423 18.6987 4.01268 18.5425C4.15664 18.3197 4.40952 18.1611 4.68226 18.1508C4.81409 18.1425 4.94232 18.1799 5.06532 18.2221C5.10255 18.3382 5.14198 18.4538 5.18445 18.5683C5.52614 18.6855 5.8681 18.8006 6.20951 18.9178C6.28873 18.9487 6.37011 18.974 6.45302 18.9936C6.50786 18.9795 6.56034 18.9578 6.60883 18.9291C5.21286 18.0769 4.02482 16.8997 3.1939 15.5123C2.42258 14.2331 1.96422 12.7977 1.85446 11.3177C1.84757 11.1895 1.83764 11.0615 1.82302 10.9341C1.80289 10.5559 1.83212 10.1779 1.86467 9.80125C2.00761 8.14522 2.58521 6.5529 3.54193 5.17738C5.04078 3.02115 7.34694 1.52356 9.96557 1.00594ZM10.6139 1.22101C9.18002 1.41877 7.80825 1.92141 6.59573 2.69332C5.38322 3.46523 4.3596 4.48755 3.59736 5.68789C2.7559 7.0142 2.26717 8.5242 2.17547 10.0811C2.17547 10.3588 2.13686 10.636 2.16499 10.9145C2.1991 12.0082 2.4308 13.0875 2.84946 14.1028C3.50933 15.6956 4.59689 17.0859 5.99799 18.1277C6.30134 18.3586 6.62731 18.5562 6.94831 18.7614C6.99078 18.7479 7.03325 18.7345 7.076 18.7218C7.07379 18.6987 7.07158 18.6759 7.06965 18.6533C6.77513 18.4974 6.50294 18.3057 6.2324 18.114C5.47317 17.5616 4.80041 16.9046 4.23523 16.1634C3.10676 14.6821 2.43883 12.8675 2.37457 11.0217C2.36299 10.815 2.35279 10.6072 2.37292 10.4007C2.40631 9.09078 2.72874 7.80319 3.31828 6.62556C4.07467 5.11491 5.23145 3.82876 6.66891 2.9002C8.10637 1.97164 9.77226 1.43442 11.4942 1.34413C11.7509 1.3401 12.008 1.31026 12.2647 1.3358C13.2039 1.35416 14.1351 1.50892 15.0274 1.79496C17.4032 2.54284 19.45 4.22868 20.5981 6.39007C21.6207 8.28398 21.9262 10.5317 21.453 12.621C21.2651 13.4681 20.9544 14.2847 20.5303 15.0464C19.7354 16.4737 18.5766 17.6774 17.1658 18.5412L17.2585 18.6291C17.8804 18.2484 18.4568 17.8012 18.9768 17.2957C20.1476 16.1608 21.0038 14.7549 21.4651 13.2095C21.7166 12.3494 21.844 11.4593 21.8435 10.565C21.8239 10.2424 21.8267 9.91766 21.7831 9.59721C21.6147 8.10779 21.0836 6.67917 20.2341 5.43035C19.202 3.91474 17.7507 2.71506 16.0482 1.97016C14.3457 1.22527 12.4615 0.965619 10.6139 1.22128V1.22101ZM9.29627 1.75383C7.68301 2.21628 6.22212 3.08251 5.05897 4.26631C3.81799 5.5239 2.94378 7.12801 2.59492 8.84153C2.14797 10.9965 2.51009 13.2363 3.61529 15.1529C4.44705 16.5905 5.65118 17.7903 7.10744 18.6323C7.15845 18.6638 7.22023 18.6646 7.27869 18.6724C7.28531 18.6119 7.32778 18.5406 7.28448 18.4858C7.22188 18.4052 7.12122 18.3681 7.02967 18.3283C6.846 18.2535 6.68826 18.1299 6.52886 18.0151C6.25805 17.8191 5.98117 17.6317 5.70732 17.4403C5.7247 17.3909 5.73904 17.3403 5.75117 17.2898C5.55931 17.1872 5.37502 17.0716 5.19962 16.9441C4.9983 16.7911 4.86042 16.5717 4.76803 16.3424C4.72501 16.2317 4.6329 16.1513 4.55017 16.069C4.36623 15.8881 4.16794 15.7195 3.99862 15.5244C4.0507 15.4896 4.10896 15.4645 4.17043 15.4504C4.23965 15.434 4.321 15.4421 4.37257 15.3846C4.14703 15.2093 3.95395 14.9976 3.80171 14.7587C3.51491 14.3171 3.35441 13.8141 3.12524 13.3447C3.07008 13.2278 2.99865 13.1178 2.94681 12.999C3.05271 12.9915 3.15888 12.9933 3.26506 12.9958C3.19639 12.8613 3.09297 12.7449 3.02513 12.6095C2.94088 12.4002 2.87699 12.1838 2.83429 11.9629C2.71819 11.4003 2.75156 10.8233 2.74935 10.2532C2.78658 10.2647 2.82381 10.2768 2.86132 10.2889C2.89993 9.98782 2.88062 9.68431 2.86684 9.38242C2.86325 9.27273 2.85194 9.15982 2.88779 9.05364C2.99011 8.72244 3.12303 8.40119 3.20576 8.06488C3.24934 7.92132 3.20576 7.75411 3.32076 7.63717L3.45699 7.66701C3.48457 7.34576 3.52925 7.01913 3.66438 6.72181C3.79427 6.43738 3.99834 6.19355 4.20545 5.9594C4.26667 5.89462 4.30225 5.81316 4.34692 5.73762C4.42977 5.73984 4.51268 5.73679 4.59512 5.72848C4.59209 5.69192 4.58878 5.65536 4.58574 5.61906C4.61718 5.59998 4.65772 5.58546 4.66075 5.54326C4.70443 5.37742 4.7755 5.21961 4.87117 5.07603C5.15164 4.6545 5.58047 4.35019 5.85211 3.92194L6.00819 3.92866C6.06142 4.08109 6.10802 4.2354 6.16153 4.38755C6.28618 4.28836 6.39097 4.16819 6.51728 4.0706C6.71032 3.91603 6.93811 3.78161 7.19596 3.78296C7.23457 3.9999 7.13639 4.21443 6.99299 4.37573C6.90033 4.49482 6.76244 4.59079 6.7299 4.74483C6.89316 4.74483 7.06386 4.74268 7.20809 4.83005C7.09337 4.93516 6.93232 4.98624 6.84269 5.11635C6.57318 5.48327 6.27046 5.82587 5.93815 6.14006C5.84163 6.21479 5.85541 6.34625 5.80826 6.4476C5.69409 6.72234 5.52972 6.97424 5.35709 7.21699C5.16405 7.47991 4.96659 7.74067 4.73411 7.9716C4.74624 8.01219 4.75976 8.05225 4.77493 8.09284C4.62242 8.50065 4.53804 8.92809 4.44234 9.35096C4.38719 9.62329 4.31907 9.894 4.27688 10.169L4.36761 10.1843C4.28487 10.5432 4.30335 10.9126 4.34278 11.2755C4.38691 11.6874 4.42552 12.1008 4.40153 12.5151C4.43903 12.5334 4.50604 12.5269 4.51184 12.5812C4.76003 13.4888 5.10834 14.3888 5.69215 15.1456C5.81874 15.3244 5.98393 15.4749 6.09396 15.665C6.22633 15.88 6.3554 16.1034 6.54761 16.2741C6.86861 16.5473 7.26463 16.7312 7.55419 17.039C7.88512 17.3575 8.15733 17.7291 8.3589 18.1377C8.69618 18.0769 9.00836 17.9264 9.34205 17.8495C10.2466 17.6484 11.1715 17.5194 12.0998 17.5151C13.1329 17.5 14.1629 17.6301 15.1725 17.8377C15.3931 17.4882 15.7381 17.2435 15.9918 16.9212C16.1162 16.9032 16.2475 16.8825 16.3503 16.8062C16.4648 16.7255 16.5326 16.6005 16.5969 16.4811C16.6686 16.4932 16.7397 16.5185 16.8136 16.5139C16.999 16.4034 17.0701 16.1849 17.2273 16.0462C17.3059 15.969 17.4115 15.9287 17.5171 15.8999C17.556 15.5929 17.8395 15.3835 17.8756 15.0757L17.9995 15.0805C18.0017 15.0996 18.0064 15.1378 18.0086 15.1572C18.0215 15.1674 18.0475 15.1881 18.0601 15.1986C18.2085 15.0419 18.3109 14.8492 18.3566 14.6407C18.3991 14.6224 18.4688 14.6316 18.4793 14.5749C18.5723 14.3154 18.7115 14.0689 18.7499 13.7934C18.8179 13.742 18.8742 13.6773 18.9153 13.6036C19.0256 13.3928 19.0965 13.1651 19.1654 12.9388C19.3069 12.4441 19.4222 11.9409 19.4798 11.4301L19.5736 11.4196C19.5805 11.2097 19.5306 11.0051 19.4953 10.7997C19.5385 10.7902 19.5821 10.7812 19.626 10.7728C19.613 10.4698 19.5215 10.1695 19.5733 9.86658C19.5379 9.47315 19.4437 9.08687 19.2937 8.72002L19.4001 8.68346C19.4001 8.49151 19.265 8.345 19.1456 8.20817L19.3017 8.16838C19.107 7.68449 18.8025 7.25436 18.5317 6.81079C18.5516 6.77181 18.5717 6.73337 18.5921 6.69492C18.3916 6.54142 18.2264 6.35055 18.0731 6.15323C18.0921 6.1285 18.1114 6.10377 18.1307 6.0793C17.9352 5.83037 17.66 5.65778 17.3999 5.47954C17.3845 5.40346 17.3768 5.31824 17.3205 5.2591C17.2303 5.1599 17.1026 5.10587 16.9948 5.02845C16.9921 4.96903 17.0125 4.90075 16.9686 4.85102C16.8271 4.65612 16.6029 4.54509 16.3942 4.43191L16.4355 4.37331C16.301 4.21712 16.1046 4.13566 15.9116 4.06953C15.9116 4.04426 15.9116 4.01899 15.913 3.99399C15.9957 3.9421 16.0784 3.88888 16.1587 3.83269C16.0969 3.60526 15.8537 3.47945 15.8054 3.24556C16.0172 3.23481 16.2191 3.30363 16.4234 3.34745C16.3975 3.22111 16.3785 3.0935 16.3666 2.96518C16.6005 3.00631 16.777 3.16949 16.9733 3.28562C17.0122 3.2246 17.0475 3.16115 17.0814 3.09744C17.1512 3.13424 17.2161 3.17939 17.2745 3.23185C17.5635 3.49827 17.8158 3.79882 18.0742 4.09211C18.1233 4.16443 18.2182 4.14238 18.2948 4.14588C18.4029 4.38621 18.562 4.63595 18.8348 4.71714C18.9269 4.95909 19.0659 5.17738 19.1974 5.39916C19.2493 5.40965 19.3011 5.41932 19.3535 5.429C19.4294 5.67606 19.4969 5.98387 19.7694 6.09328C19.8148 6.34319 19.9038 6.58368 20.0325 6.80434L20.1872 6.81348C20.2699 7.03042 20.3573 7.24737 20.4053 7.47507L20.5512 7.48421C20.5474 7.75279 20.5718 8.02104 20.624 8.28478L20.7426 8.29473C20.7749 8.56759 20.7978 8.84126 20.8182 9.1152L20.9459 9.12192C20.9459 9.40365 20.9459 9.68646 20.9459 9.96739L21.0912 9.99132C21.0658 10.3029 21.012 10.6115 20.985 10.9228L21.0926 10.9467C21.041 11.2099 20.9676 11.4688 20.9334 11.7349L21.0074 11.7618C20.982 11.8651 20.9453 11.9648 20.9097 12.0648C20.8391 12.2645 20.7925 12.471 20.741 12.6759L20.8449 12.7092C20.7898 12.9686 20.6715 13.2124 20.5314 13.4383C20.455 13.5418 20.5076 13.6775 20.4632 13.792C20.3444 14.1343 20.1323 14.4351 19.9393 14.7397C19.7956 14.9582 19.6414 15.1754 19.5631 15.4265L19.6299 15.4714C19.2713 15.9306 18.9073 16.3879 18.4801 16.7887C18.4344 16.8247 18.4771 16.8793 18.4801 16.9231C18.3103 17.1443 18.0679 17.2995 17.8095 17.4051C17.8296 17.454 17.8541 17.5016 17.8734 17.5514C17.6889 17.6796 17.4727 17.7578 17.2885 17.8858C17.2535 17.9447 17.2687 18.0237 17.2587 18.0912C17.0972 18.2045 16.9257 18.3038 16.7463 18.388C16.7758 18.4226 16.8092 18.4539 16.8459 18.4812C16.9435 18.4885 17.0469 18.4487 17.1357 18.5081C18.2001 17.8608 19.1238 17.0162 19.8546 16.0222C20.6938 14.8843 21.2551 13.5744 21.4954 12.1926C21.7358 10.8109 21.6489 9.39385 21.2415 8.04983C20.7412 6.39141 19.7446 4.8822 18.4167 3.73806C17.1939 2.68041 15.7152 1.94336 14.1197 1.59624C12.5242 1.24913 10.8643 1.30336 9.29627 1.75383ZM16.5141 3.0797C16.521 3.23562 16.5483 3.4195 16.7108 3.4945C16.7383 3.45579 16.7226 3.35767 16.7855 3.36009C16.8619 3.43402 16.9165 3.52864 17.0061 3.59047C16.9934 3.32998 16.7579 3.13965 16.5144 3.0797H16.5141ZM15.9499 3.33509C16.0263 3.55606 16.2113 3.72274 16.4204 3.82624C16.4615 3.85312 16.5108 3.83645 16.5563 3.83538C16.4336 3.705 16.2728 3.61709 16.1468 3.4902C16.3219 3.50499 16.4758 3.59128 16.638 3.64854C16.6861 3.66606 16.7381 3.67115 16.7888 3.66333C16.5903 3.42138 16.2571 3.32998 15.9499 3.33509ZM17.1283 3.32648C17.1301 3.48653 17.1658 3.64448 17.2331 3.79048C17.2469 3.83215 17.2902 3.84963 17.3238 3.87436C17.3031 3.77247 17.272 3.67247 17.2587 3.56924C17.358 3.66118 17.4145 3.80177 17.548 3.85339C17.5444 3.79183 17.5546 3.72489 17.5232 3.66843C17.4377 3.51278 17.2836 3.40875 17.1283 3.32648ZM16.7386 3.78887C16.7284 4.0862 16.9992 4.29427 17.2405 4.426C17.1757 4.25556 17.0751 4.1034 16.9868 3.94345C17.1101 4.00662 17.2372 4.08835 17.3839 4.07302C17.3135 3.95213 17.1992 3.86138 17.0635 3.81871C16.9573 3.79183 16.847 3.79183 16.7386 3.78887ZM17.6934 3.87866C17.6876 4.03324 17.6809 4.18808 17.6848 4.34293L17.805 4.35798C17.8017 4.27196 17.7993 4.18593 17.7998 4.09991C17.9247 4.18271 17.9705 4.34427 18.1089 4.40799C18.0731 4.19292 17.9074 4.03566 17.7717 3.87463C17.7441 3.87463 17.7193 3.87705 17.6934 3.87866ZM16.1231 3.97409C16.1231 4.01254 16.1231 4.05125 16.1231 4.09023C16.2232 4.14399 16.3065 4.25825 16.432 4.23862C16.4861 4.23272 16.5395 4.22155 16.5914 4.20529C16.5111 4.15152 16.4157 4.12921 16.3296 4.08754C16.4223 4.0534 16.5174 4.02652 16.6109 3.99426C16.4667 3.89264 16.2734 3.87248 16.1234 3.97409H16.1231ZM6.4988 4.28701C6.61848 4.23647 6.73321 4.17545 6.85731 4.1327C6.80215 4.27868 6.70205 4.40153 6.64165 4.54643C6.90171 4.45207 7.02029 4.18432 7.07958 3.93968C6.86668 4.01254 6.60414 4.06711 6.50045 4.28701H6.4988ZM5.72166 4.28916C5.4514 4.58111 5.15219 4.85236 4.93653 5.18786C4.85282 5.31538 4.79244 5.4561 4.7581 5.60374L4.80967 5.60831C4.82263 5.55132 4.83532 5.4946 4.84856 5.43787L4.99389 5.45078C5.11211 5.3117 5.23308 5.17442 5.35681 5.03893C5.54397 4.83445 5.76838 4.66555 6.01867 4.54079C6.01426 4.39132 6.03026 4.21604 5.92463 4.0948C5.83721 4.13674 5.78675 4.22196 5.72028 4.28916H5.72166ZM16.6322 4.35368C16.6253 4.37707 16.6112 4.42358 16.6046 4.44697C16.7855 4.59778 16.9554 4.77816 17.1879 4.85209C17.2318 4.86658 17.2783 4.87195 17.3245 4.86788C17.3706 4.8638 17.4154 4.85037 17.4559 4.82844C17.318 4.70397 17.139 4.64267 16.9799 4.55047C17.0627 4.53837 17.1484 4.52815 17.2312 4.50853C17.1396 4.43783 17.0406 4.37062 16.9259 4.34185C16.8291 4.31631 16.7292 4.3389 16.6327 4.35368H16.6322ZM17.4236 4.35825C17.4568 4.45508 17.4981 4.54905 17.5472 4.63918C17.5946 4.73031 17.6575 4.82924 17.7761 4.83462C17.7378 4.73246 17.6622 4.65128 17.5996 4.56337C17.7287 4.63891 17.8379 4.74134 17.9609 4.82575C18.011 4.865 18.077 4.86742 18.1379 4.87763C18.1352 4.82843 18.1222 4.78029 18.0996 4.73618C18.0771 4.69207 18.0456 4.65293 18.0069 4.62117C17.8377 4.48804 17.6373 4.39772 17.4236 4.35825ZM18.2306 4.85989C18.2493 4.91366 18.3116 4.92468 18.3544 4.95237C18.3455 4.85962 18.3297 4.76762 18.3072 4.67709L18.4046 4.68219C18.4887 4.81849 18.5259 4.98893 18.6547 5.09404C18.6622 4.87898 18.5623 4.67278 18.4316 4.50261C18.3833 4.44417 18.3206 4.39858 18.2493 4.37008C18.2234 4.5295 18.1597 4.70182 18.2306 4.85881V4.85989ZM5.76772 4.82118C5.52393 5.03113 5.28952 5.2583 5.11661 5.52874C5.05699 5.61985 5.0152 5.72093 4.99334 5.82687C5.08608 5.7944 5.17356 5.74913 5.25312 5.69246C5.51952 5.49191 5.66099 5.17523 5.92794 4.97575C5.96876 4.94108 6.02695 4.9564 6.07604 4.95022C5.95911 5.1142 5.80026 5.24163 5.66541 5.39163C5.46188 5.61315 5.24512 5.85349 5.1999 6.15888C5.35516 6.1035 5.49139 6.00941 5.6199 5.90967C5.76606 5.79972 5.84383 5.62928 5.97565 5.50642C6.1618 5.34244 6.26384 5.11151 6.35347 4.88812C6.40614 4.74886 6.4555 4.60584 6.45881 4.45584C6.19048 4.48998 5.96931 4.65692 5.76772 4.82037V4.82118ZM6.50873 4.86634C6.41662 5.03382 6.31072 5.19378 6.20537 5.35373C6.08927 5.53627 5.96407 5.72068 5.91691 5.93387C5.96711 5.90364 6.01429 5.8689 6.05783 5.8301C6.33168 5.58412 6.55202 5.29002 6.79167 5.01393C6.83003 4.96889 6.86093 4.91827 6.88323 4.86392C6.75839 4.85384 6.63287 4.85465 6.50818 4.86634H6.50873ZM17.168 4.98463C17.2449 5.17093 17.4283 5.29217 17.6175 5.35346C17.6787 5.38034 17.7342 5.34029 17.783 5.30695C17.6754 5.21985 17.5464 5.16528 17.4212 5.10721C17.5477 5.10049 17.6746 5.10721 17.8015 5.11044C17.7561 5.04537 17.7047 4.98454 17.6479 4.92871C17.4876 4.94081 17.3291 4.96742 17.1694 4.98463H17.168ZM17.9967 4.98839C18.0259 5.22792 18.1771 5.429 18.3395 5.60186C18.3947 5.43841 18.238 5.31959 18.1762 5.18437C18.3188 5.22738 18.4145 5.34136 18.5072 5.44863H18.6018C18.5499 5.34109 18.4939 5.23061 18.3988 5.15291C18.2852 5.05963 18.1365 5.0271 17.9973 4.98893L17.9967 4.98839ZM18.797 5.00721C18.7872 5.14443 18.7909 5.28225 18.808 5.41879L18.8908 5.39755C19.0011 5.46395 19.024 5.60132 19.107 5.69192C19.1202 5.64057 19.1381 5.58734 19.1219 5.53465C19.0849 5.36448 18.9947 5.21044 18.9013 5.06474C18.8825 5.02468 18.8334 5.02226 18.7978 5.00721H18.797ZM17.6729 5.48411C17.7739 5.75429 18.0361 5.9086 18.2653 6.06559C18.3241 6.11291 18.4032 6.09624 18.4727 6.09489C18.34 5.95914 18.1591 5.88279 18.0168 5.75778C18.1677 5.76638 18.2995 5.84058 18.4305 5.90376C18.4335 5.85187 18.4735 5.78655 18.425 5.74515C18.2173 5.57229 17.9487 5.46314 17.6718 5.48411H17.6729ZM18.5747 5.63977C18.599 5.79569 18.6462 5.95295 18.7476 6.0785C18.7711 6.10995 18.8105 6.12151 18.8447 6.13871C18.8141 6.02742 18.7501 5.92956 18.7032 5.82499C18.8276 5.88843 18.8963 6.02688 19.0391 6.05968C19.0295 5.81934 18.7909 5.68143 18.5747 5.63977ZM19.2537 5.69138C19.1985 5.89005 19.1624 6.11748 19.2771 6.30404C19.3013 6.23499 19.3192 6.16402 19.3306 6.09194L19.3985 6.09328C19.4134 6.17259 19.4357 6.25458 19.5022 6.30835C19.5209 6.08387 19.4619 5.81961 19.254 5.69165L19.2537 5.69138ZM3.96966 6.40028C3.79041 6.74331 3.64921 7.11053 3.59461 7.49335L3.778 7.48098C3.91423 7.08016 4.20297 6.75514 4.3847 6.37475C4.45978 6.21241 4.49174 6.03426 4.47764 5.85671C4.22944 5.95107 4.09155 6.18549 3.97104 6.40028H3.96966ZM4.85214 6.13145C4.54366 6.411 4.27919 6.7334 4.06729 7.08822C3.96304 7.28043 3.84832 7.49335 3.88941 7.71782C3.90265 7.75922 3.90485 7.82535 3.96304 7.82723C4.25261 7.41915 4.37891 6.9237 4.66103 6.50997C4.68442 6.47929 4.71229 6.45212 4.74376 6.42932C4.78265 6.60648 4.7228 6.78471 4.6318 6.93687C4.47323 7.20731 4.29122 7.47023 4.20379 7.77293C4.19647 7.8711 4.20428 7.96978 4.22696 8.06569C4.38857 7.97267 4.47516 7.80438 4.56065 7.64927C4.77355 7.24602 4.92412 6.81348 5.04905 6.37717C5.09222 6.2345 5.1184 6.08747 5.12709 5.93897C5.02587 5.98876 4.9329 6.0531 4.85132 6.12984L4.85214 6.13145ZM18.2711 6.18603C18.3447 6.38389 18.5077 6.53228 18.6743 6.65863C18.7237 6.70272 18.7918 6.70191 18.8549 6.70326C18.7391 6.56884 18.5791 6.47825 18.4622 6.34276C18.6299 6.382 18.7432 6.53766 18.9236 6.54545C18.928 6.46077 18.9048 6.36964 18.8307 6.31829C18.6713 6.20081 18.4611 6.20162 18.2711 6.18603ZM19.0361 6.23146C19.0289 6.45247 19.0897 6.67052 19.2107 6.85756C19.2364 6.89338 19.2686 6.92427 19.3058 6.9487C19.3226 6.78928 19.2418 6.64815 19.1773 6.50835C19.3353 6.5382 19.3601 6.746 19.5055 6.78471C19.4181 6.55809 19.2625 6.34302 19.0367 6.23146H19.0361ZM19.6668 6.35969C19.6323 6.59734 19.6489 6.83902 19.6638 7.07774L19.7589 7.1151C19.7558 7.02693 19.7528 6.93875 19.7501 6.85057H19.8513C19.8623 6.94144 19.872 7.0323 19.8916 7.12183C19.9042 7.08688 19.9271 7.05327 19.9252 7.01429C19.9205 6.83364 19.837 6.66804 19.7683 6.50352C19.7445 6.44919 19.7101 6.39995 19.6668 6.35862V6.35969ZM5.19135 6.49034C5.0587 6.62153 5.09538 6.82638 5.00713 6.97988C4.89406 7.17855 4.76858 7.37963 4.74707 7.61163L4.87779 7.65249C5.18942 7.27049 5.40921 6.82692 5.61384 6.38416C5.47181 6.40674 5.31186 6.40297 5.19135 6.49034ZM18.7074 6.84601C18.7485 7.03419 18.8742 7.19387 19.0325 7.30544C19.1373 7.37587 19.2429 7.46485 19.3775 7.46539C19.3163 7.29415 19.1426 7.20597 19.0242 7.07747C19.1164 7.08661 19.2079 7.10274 19.3 7.11188C19.2324 7.01961 19.1447 6.94297 19.0433 6.88741C18.9421 6.8288 18.8191 6.84036 18.7068 6.84601H18.7074ZM19.5011 7.06107C19.4964 7.28151 19.5397 7.51028 19.6613 7.699C19.6993 7.55141 19.6274 7.40678 19.613 7.26108C19.6406 7.23877 19.6701 7.21672 19.6991 7.19441C19.6401 7.14043 19.5734 7.09515 19.5011 7.05999V7.06107ZM20.0763 7.05139C20.0377 7.2342 20.009 7.42211 20.0369 7.60868C20.0876 7.5705 20.1392 7.53313 20.1916 7.49711C20.1941 7.58744 20.1952 7.67776 20.2007 7.76809L20.2788 7.72427C20.3232 7.49872 20.247 7.27156 20.1646 7.06268L20.0763 7.05139ZM19.7043 7.28205C19.712 7.32936 19.7209 7.37694 19.7319 7.42426L19.8485 7.39549C19.8022 7.35598 19.7548 7.3178 19.7057 7.28205H19.7043ZM19.1266 7.5076C19.1994 7.80008 19.3748 8.11004 19.6754 8.22322C19.6861 7.99875 19.4572 7.88557 19.3268 7.73529C19.4025 7.75782 19.4763 7.78623 19.5474 7.82024L19.6025 7.79471C19.5388 7.70196 19.4856 7.58771 19.3753 7.53986C19.2933 7.52429 19.2104 7.51352 19.1271 7.5076H19.1266ZM3.38033 7.79766C3.31635 8.3278 3.07697 8.81707 2.98266 9.34102C2.93164 9.662 2.93357 10.0131 3.10759 10.3002C3.14233 9.9854 3.11283 9.66845 3.12441 9.35284C3.12441 9.25526 3.17956 9.17085 3.22176 9.08401C3.37564 8.77755 3.5389 8.46329 3.57282 8.11865C3.59019 7.98289 3.51766 7.84148 3.37978 7.79605L3.38033 7.79766ZM20.255 8.32591L20.3607 8.28693C20.393 8.33207 20.4286 8.37484 20.4674 8.4149C20.495 8.21462 20.458 8.01165 20.3949 7.82051C20.2727 7.96057 20.2459 8.14822 20.255 8.32591ZM19.827 7.86487C19.8146 8.08881 19.8124 8.31677 19.8731 8.53506L19.9704 8.53184C19.9613 8.39312 19.9407 8.25548 19.9324 8.11676L20.0474 8.07106C20.0324 8.02086 20.0041 7.97539 19.9654 7.9392C19.9266 7.90302 19.8788 7.87738 19.8268 7.86487H19.827ZM3.65031 8.34419C3.47078 8.6262 3.37123 8.94987 3.31607 9.27461C3.26092 9.63297 3.22976 10.0005 3.30311 10.3591C3.33814 10.3454 3.37316 10.3322 3.40818 10.319C3.41646 9.7405 3.59185 9.18321 3.74601 8.62969C3.74877 8.57458 3.80916 8.56786 3.84915 8.54662C3.87424 8.80712 3.80475 9.06224 3.75318 9.31548C3.68396 9.64103 3.61226 9.97062 3.62715 10.305C3.80778 10.2411 3.87672 10.0475 3.93326 9.88567C4.05322 9.4679 4.07694 9.03079 4.09018 8.59931C4.10589 8.38425 4.107 8.16919 4.1092 7.95412C3.91037 8.01999 3.75869 8.17268 3.64976 8.34285L3.65031 8.34419ZM19.3414 8.24285C19.3637 8.29661 19.3739 8.3614 19.4241 8.39742C19.5132 8.46033 19.6194 8.49366 19.7222 8.52888C19.7076 8.43613 19.7002 8.32376 19.6136 8.26516C19.5281 8.22833 19.4307 8.24526 19.3403 8.24285H19.3414ZM20.0452 8.26355C20.0661 8.34419 20.0727 8.43936 20.1467 8.49501C20.142 8.41803 20.1328 8.34137 20.1191 8.26543L20.0446 8.26355H20.0452ZM4.35299 8.33479C4.30418 8.36597 4.23689 8.39715 4.2413 8.46463C4.20407 8.81707 4.15857 9.16843 4.1172 9.52059C4.099 9.6948 4.06922 9.86873 4.07776 10.0445C4.12161 10.0112 4.16932 9.97707 4.18808 9.92384C4.28074 9.70582 4.329 9.47328 4.38112 9.2437C4.45208 8.91555 4.51367 8.5856 4.56589 8.25387C4.49114 8.27147 4.4191 8.29858 4.35161 8.33452L4.35299 8.33479ZM19.5102 8.59394C19.5223 8.62974 19.5368 8.66475 19.5535 8.69878C19.5772 8.75523 19.6508 8.73615 19.7002 8.74636C19.6643 8.69878 19.6271 8.65254 19.5899 8.60657L19.5102 8.59394ZM20.4439 9.1402C20.4776 9.09772 20.5101 9.05417 20.5429 9.01062L20.6257 9.02514C20.6238 9.09785 20.627 9.17061 20.6353 9.24289C20.656 9.21278 20.6814 9.18187 20.6775 9.14289C20.6795 8.95014 20.6866 8.75228 20.6298 8.56544C20.5007 8.72378 20.38 8.93239 20.4428 9.1402H20.4439ZM19.49 8.83562C19.5008 9.03214 19.5596 9.2233 19.6616 9.39317L19.7628 9.38457C19.7207 9.27627 19.6675 9.17242 19.6039 9.0746H19.712C19.7455 9.12879 19.7824 9.18095 19.8223 9.23079C19.8855 9.2109 19.8982 9.14692 19.9153 9.09289C19.805 8.96385 19.6503 8.88857 19.4911 8.83615L19.49 8.83562ZM20.0281 9.59103C20.0534 9.56683 20.0904 9.54801 20.0937 9.51038C20.1301 9.35526 20.1213 9.19477 20.1257 9.03697L20.1982 9.06896C20.2559 9.1859 20.2873 9.31359 20.3342 9.43484L20.4015 9.42462C20.4053 9.3843 20.4205 9.34397 20.4078 9.30338C20.3601 9.11197 20.2352 8.94826 20.086 8.81949C20.0124 9.06896 19.9525 9.33591 20.0281 9.5921V9.59103ZM20.5087 9.96658L20.6025 10.0026C20.6116 9.97572 20.621 9.94884 20.6301 9.92411L20.7189 9.95099C20.7172 10.0214 20.7164 10.0921 20.7189 10.1628C20.8753 9.94373 20.8405 9.66603 20.8292 9.41494C20.6069 9.50312 20.5355 9.75528 20.509 9.96631L20.5087 9.96658ZM20.1276 10.2757C20.2236 10.1798 20.2655 10.0505 20.2757 9.91954C20.3121 9.90798 20.348 9.89642 20.386 9.88567C20.3631 9.75824 20.3386 9.60931 20.2043 9.54721C20.1723 9.78916 20.1444 10.0311 20.1287 10.2757H20.1276ZM19.6811 9.59721C19.6861 9.67006 19.6767 9.74722 19.7065 9.81631C19.8053 9.84192 19.8992 9.88305 19.9845 9.93809C19.9845 9.89104 19.9845 9.84373 19.9845 9.79695C19.8931 9.71738 19.791 9.65019 19.6811 9.59721ZM19.7192 9.85529C19.7468 9.96282 19.7653 10.094 19.8742 10.1526C19.8836 10.0362 19.8466 9.894 19.7192 9.85529ZM19.706 10.1975C19.7185 10.3665 19.7398 10.5347 19.7697 10.7016C19.7777 10.7479 19.7959 10.7919 19.8232 10.8306C19.8507 10.7196 19.8403 10.6056 19.8306 10.4935C19.9387 10.5123 19.9566 10.6311 20.0154 10.7037L20.0876 10.6279C20.0579 10.4252 19.902 10.2618 19.706 10.1978V10.1975ZM20.597 10.5405C20.5418 10.6172 20.5225 10.7215 20.5791 10.8024C20.6174 10.7459 20.6516 10.6868 20.6852 10.6274C20.7219 10.6231 20.7592 10.619 20.7956 10.6153C20.7764 10.7344 20.7659 10.8547 20.7641 10.9752C20.8936 10.7613 20.9331 10.5069 20.8744 10.2653C20.755 10.3263 20.6715 10.4341 20.5986 10.5405H20.597ZM2.84725 10.4037C2.83788 10.7357 2.85884 11.0674 2.87235 11.3984C2.90268 11.8554 3.00141 12.3143 3.21486 12.7259L3.27995 12.7328C3.24106 12.5672 3.20107 12.4016 3.17625 12.2336C3.10455 11.8035 3.14647 11.3642 3.21762 10.9365C3.22562 10.8766 3.24079 10.8129 3.21597 10.7551C3.15061 10.5967 3.0425 10.4179 2.84725 10.4037ZM3.49478 10.4196C3.39164 10.8766 3.23775 11.3293 3.25044 11.8016C3.24437 12.1699 3.36682 12.5275 3.52042 12.8584C3.53035 12.9019 3.57999 12.9014 3.61419 12.9167C3.73663 12.3124 3.48623 11.7159 3.49946 11.1105H3.5822C3.62935 11.5188 3.60977 11.932 3.66493 12.3404C3.68079 12.4616 3.72159 12.5784 3.78489 12.6839C3.877 12.5936 3.88803 12.4586 3.90927 12.3393C3.94429 11.9898 3.89741 11.6403 3.83536 11.2954C3.78296 10.9981 3.71209 10.7024 3.59268 10.4236L3.49367 10.4198L3.49478 10.4196ZM4.08824 10.4723C4.01253 10.6009 3.96063 10.7414 3.93491 10.8876C3.87125 11.2275 3.88909 11.5771 3.98704 11.9091C4.0273 12.0167 4.05598 12.1484 4.1696 12.2078C4.14202 12.396 4.1172 12.5861 4.10231 12.7767L4.17511 12.767C4.24637 12.5415 4.28562 12.3076 4.29177 12.0718C4.31217 11.5312 4.18808 10.9986 4.17318 10.4588L4.08797 10.4714L4.08824 10.4723ZM20.268 10.4462C20.2357 10.5219 20.2145 10.6018 20.2051 10.6833L20.3496 10.7559C20.37 10.9099 20.3929 11.0639 20.4263 11.2164C20.5118 11.165 20.525 11.0709 20.5366 10.9822L20.4878 10.9462C20.4503 10.7682 20.4271 10.5658 20.2672 10.4462H20.268ZM20.1786 10.7957C20.1483 10.8919 20.1491 10.9943 20.1472 11.0943L20.2054 11.0567C20.2214 10.9581 20.2299 10.8584 20.2308 10.7586C20.2175 10.7677 20.1916 10.7854 20.1786 10.7957ZM19.658 10.9061C19.674 11.125 19.7051 11.3425 19.7509 11.5572C19.757 11.6046 19.7917 11.6379 19.8268 11.6699C19.8268 11.5511 19.8066 11.4336 19.7956 11.3156L19.8932 11.3212C19.9285 11.4054 19.9635 11.4895 20.0035 11.5723C20.049 11.5161 20.1072 11.4494 20.0755 11.3728C20.0044 11.1744 19.8433 11.011 19.6591 10.9061H19.658ZM20.4773 11.6357C20.605 11.5801 20.6704 11.4564 20.7255 11.34L20.8193 11.3486C20.7705 11.5288 20.6508 11.6831 20.6215 11.8691C20.6968 11.8215 20.7563 11.7537 20.7931 11.6739C20.859 11.5109 20.9004 11.3394 20.9161 11.1648C20.6869 11.2121 20.479 11.3962 20.4748 11.636L20.4773 11.6357ZM20.1673 11.6871L20.2677 11.7253C20.2785 11.8503 20.2677 11.9761 20.2815 12.1016C20.3248 12.0508 20.3791 12.0024 20.3918 11.9347C20.4271 11.7403 20.3789 11.5449 20.3527 11.3527C20.3204 11.3435 20.2887 11.3347 20.257 11.3258C20.1822 11.432 20.1668 11.561 20.1668 11.6868L20.1673 11.6871ZM19.674 11.7051C19.5777 11.943 19.4671 12.2054 19.5581 12.4621L19.6166 12.4559C19.6231 12.3277 19.6146 12.1992 19.5912 12.0729C19.6345 12.0648 19.6778 12.057 19.7214 12.0495C19.749 12.1648 19.7517 12.2895 19.8163 12.3928C19.8469 12.3597 19.8888 12.3334 19.907 12.2909C19.9061 12.0743 19.8231 11.8657 19.674 11.7051ZM20.3634 12.3014C20.3226 12.3447 20.338 12.4035 20.3425 12.4559C20.4073 12.3599 20.505 12.2895 20.6182 12.2573C20.5907 12.4059 20.5308 12.5476 20.5079 12.6974C20.6534 12.4862 20.7477 12.2455 20.7837 11.9936C20.5835 11.9844 20.4641 12.1594 20.3648 12.3014H20.3634ZM20.1149 12.2046C19.9597 12.4269 19.8223 12.6694 19.7766 12.938C19.9131 12.8371 19.9972 12.6904 20.0799 12.5473L20.2355 12.5439C20.215 12.474 20.1847 12.4073 20.1676 12.3369C20.1836 12.3041 20.202 12.2726 20.2228 12.2425C20.1872 12.2293 20.1519 12.2156 20.1166 12.2046H20.1149ZM19.3475 12.5094C19.343 12.7729 19.3475 13.045 19.4423 13.2952C19.5182 13.1519 19.4776 12.9877 19.4343 12.8415L19.5234 12.8401C19.5532 12.9003 19.5828 12.9606 19.6122 13.021C19.6398 13.0011 19.6657 12.9812 19.6927 12.9616C19.6651 12.8382 19.6417 12.7041 19.5485 12.6092C19.4975 12.5511 19.4197 12.5285 19.3475 12.5094ZM20.1069 12.6363C20.0989 12.7259 20.0887 12.8156 20.0832 12.9052C20.2073 12.8573 20.1853 12.7073 20.2302 12.607C20.1888 12.6164 20.1475 12.6258 20.1069 12.6358V12.6363ZM4.25371 12.8565C4.22365 12.9506 4.23634 13.053 4.25895 13.1476C4.37367 13.5372 4.64504 13.8595 4.77824 14.2418C4.81044 14.2377 4.84284 14.2352 4.87531 14.2343C4.96245 14.3028 4.97266 14.4198 5.02781 14.509C4.94949 13.8802 4.53417 13.3506 4.41835 12.7307C4.35547 12.7597 4.2777 12.7845 4.25288 12.8565H4.25371ZM20.212 13.0815C20.0369 13.0735 19.8618 13.0772 19.6867 13.0743C19.6246 13.0743 19.5617 13.0638 19.5013 13.0815C19.7355 13.0829 19.9702 13.071 20.2048 13.0847C20.1329 13.1839 20.0744 13.2947 20.067 13.4186C20.1335 13.3633 20.196 13.3035 20.2539 13.2396C20.2887 13.2014 20.3491 13.2186 20.3949 13.2073C20.3496 13.295 20.2992 13.3799 20.252 13.4662C20.2647 13.4829 20.2906 13.5157 20.3033 13.5321C20.3582 13.4867 20.4027 13.4306 20.4337 13.3673C20.5166 13.1939 20.5786 13.0116 20.6182 12.8242C20.4643 12.879 20.325 12.9669 20.2109 13.0815H20.212ZM3.77469 12.9546C3.7614 13.1702 3.76592 13.3865 3.7882 13.6014C3.82488 14.0316 3.95532 14.4719 4.24737 14.8066C4.34637 14.9141 4.44951 15.03 4.58823 15.0918C4.58823 15.0362 4.59926 14.9765 4.56837 14.9262C4.36816 14.5512 4.16215 14.1735 4.04633 13.7641C4.00895 13.6269 3.99958 13.4838 4.01875 13.3431C4.08245 13.4885 4.13265 13.6388 4.19221 13.7859C4.34692 14.1791 4.53831 14.5571 4.71426 14.9418L4.80057 14.9553C4.82236 14.5692 4.68006 14.1974 4.49943 13.8609C4.30257 13.5066 4.07875 13.1672 3.82984 12.8455C3.79647 12.874 3.76862 12.9089 3.77469 12.9549V12.9546ZM3.15061 13.0958C3.17527 13.1942 3.20679 13.2908 3.24492 13.385C3.43797 13.8646 3.67651 14.3243 3.92361 14.7789L3.99724 14.7899C3.83177 14.3867 3.82323 13.9455 3.67541 13.5391C3.63569 13.4268 3.56635 13.3268 3.47437 13.249C3.38239 13.1711 3.27101 13.1183 3.15144 13.0958H3.15061ZM19.8339 13.1764C19.6326 13.4133 19.4175 13.6807 19.4274 14.0058C19.4958 13.9541 19.5572 13.8941 19.61 13.8272C19.605 13.7299 19.65 13.6428 19.6971 13.5603C19.7319 13.5553 19.7669 13.5504 19.8022 13.5458C19.7893 13.6553 19.7836 13.7654 19.7851 13.8756C19.9743 13.6915 19.9442 13.4114 19.9445 13.1732C19.9073 13.1732 19.8703 13.1751 19.8342 13.1764H19.8339ZM19.2145 13.2571C19.1522 13.5471 19.0458 13.8348 19.0474 14.134C19.0959 14.0216 19.1133 13.9004 19.1423 13.7829C19.1969 13.795 19.2521 13.804 19.3077 13.8098C19.4878 13.6754 19.396 13.4305 19.3133 13.2665L19.2145 13.2571ZM19.7358 14.2472C19.8185 14.2275 19.8985 14.2047 19.979 14.1797C19.9335 14.3074 19.8645 14.4259 19.8317 14.5579C20.0799 14.3472 20.1966 14.0369 20.2958 13.7404C20.0339 13.8017 19.827 14.0036 19.7358 14.2472ZM18.5976 14.688C18.6754 14.6133 18.7818 14.5878 18.8847 14.5638C18.907 14.3996 18.9134 14.2336 18.904 14.0681L18.8284 14.0439C18.7391 14.2539 18.6136 14.4558 18.5976 14.6891V14.688ZM19.2107 14.4047C19.1409 14.5042 19.0356 14.5929 19.0328 14.7222C19.1017 14.6938 19.1633 14.6507 19.2129 14.5961C19.2747 14.5294 19.3157 14.4332 19.4156 14.4133C19.4156 14.4939 19.4112 14.5746 19.4156 14.6552C19.4432 14.6284 19.4826 14.6077 19.4964 14.5695C19.554 14.4186 19.5889 14.2603 19.5998 14.0996C19.4371 14.1533 19.3097 14.2708 19.2115 14.4044L19.2107 14.4047ZM19.4757 14.8208C19.4128 14.8609 19.3591 14.9132 19.318 14.9744C19.2769 15.0357 19.2493 15.1046 19.2369 15.1768C19.3328 15.1074 19.4247 15.0265 19.5449 15.0002C19.4823 15.133 19.3817 15.2486 19.3499 15.3943C19.4184 15.358 19.4809 15.3121 19.5355 15.258C19.7098 15.0813 19.8448 14.8715 19.9318 14.6415C19.7663 14.6612 19.6089 14.723 19.4757 14.8208ZM5.2818 14.8569C5.27574 15.0133 5.27215 15.1736 5.32041 15.3249C5.36757 15.483 5.47236 15.616 5.58184 15.7386C5.73325 15.9083 5.88713 16.0768 6.01316 16.2661L6.08431 16.2677C6.05514 16.2033 6.03439 16.1355 6.02253 16.0661C6.08179 16.1271 6.13353 16.1947 6.17669 16.2674C5.9933 15.8513 5.79557 15.437 5.52669 15.066C5.46587 14.9761 5.38126 14.9038 5.2818 14.8569ZM18.6434 15.4308C18.7372 15.3029 18.8218 15.152 18.9865 15.1015C18.9106 15.2647 18.8141 15.4241 18.8039 15.6085C19.0099 15.4185 19.1323 15.158 19.1456 14.8819C18.8974 14.9674 18.6599 15.159 18.6423 15.4316L18.6434 15.4308ZM18.0935 15.5061C18.1334 15.505 18.1737 15.5042 18.2143 15.5037C18.2278 15.4281 18.2419 15.3529 18.2562 15.2779C18.2926 15.2727 18.3293 15.2676 18.3665 15.2631C18.3358 15.3687 18.3142 15.4766 18.302 15.5857C18.4095 15.5722 18.4399 15.4601 18.4675 15.3754C18.4901 15.3033 18.4946 15.2268 18.4805 15.1526C18.4665 15.0784 18.4343 15.0086 18.3867 14.9491C18.291 15.1373 18.1842 15.3176 18.0927 15.5066L18.0935 15.5061ZM4.22834 15.0227C4.29508 15.0859 4.36623 15.1434 4.43931 15.2004C4.4644 15.1805 4.48922 15.1612 4.51377 15.1413C4.42134 15.0958 4.326 15.0562 4.22834 15.0227ZM4.75424 15.2131C4.81326 15.5625 4.91557 15.9147 5.12599 16.2077C5.33641 16.5008 5.62238 16.7298 5.9114 16.9457C5.96214 16.9919 6.03357 16.989 6.09782 16.9954C5.80081 16.6263 5.47981 16.276 5.18583 15.9045C5.16063 15.8657 5.1393 15.8247 5.12213 15.7819C5.18251 15.8095 5.23829 15.8457 5.28759 15.8894C5.62321 16.2083 5.86865 16.6059 6.21282 16.9169C6.23019 16.8731 6.25529 16.8271 6.2404 16.7795C6.20262 16.6325 6.10444 16.5107 6.01592 16.3887C5.75692 16.063 5.4675 15.7614 5.15136 15.4878C5.02836 15.3854 4.91088 15.269 4.75645 15.212L4.75424 15.2131ZM17.853 15.5276C17.7951 15.6082 17.7775 15.708 17.7703 15.8045C17.8037 15.8526 17.8245 15.908 17.831 15.9658C17.8776 15.9032 17.9349 15.8478 17.9724 15.7795C18.0199 15.6768 18.0116 15.5609 18.0127 15.4513C17.9576 15.4738 17.8839 15.472 17.8525 15.5279L17.853 15.5276ZM4.15553 15.5448C4.31604 15.7787 4.58519 15.9131 4.76059 16.1343C4.87834 16.3112 4.95776 16.5107 5.07911 16.6852C5.18651 16.8466 5.32941 16.9827 5.49746 17.0836C5.59839 17.1427 5.70374 17.207 5.82535 17.2099C5.67671 17.0688 5.49443 16.9645 5.35929 16.8086C5.51483 16.865 5.60584 17.015 5.75807 17.0774C5.8316 17.1054 5.90997 17.1192 5.98889 17.1183C5.92132 16.9946 5.78537 16.936 5.67506 16.8562C5.54848 16.7661 5.40369 16.6949 5.30331 16.5744C5.05346 16.2698 4.87614 15.908 4.57968 15.6405C4.46937 15.5416 4.29866 15.4539 4.15553 15.5453V15.5448ZM18.6158 15.9806C18.7289 15.9335 18.845 15.8889 18.9691 15.88C18.8651 15.9677 18.7316 16.0413 18.6994 16.1827C19.0193 16.0706 19.1988 15.7722 19.4222 15.5432C19.1004 15.4961 18.6928 15.6397 18.6158 15.9806ZM18.0444 15.9868C17.9865 16.0303 17.9617 16.0986 17.9413 16.1645C18.021 16.1585 18.1043 16.1518 18.1743 16.1107C18.35 16.0118 18.5052 15.8569 18.5516 15.6593C18.3687 15.7468 18.1982 15.857 18.0444 15.9873V15.9868ZM18.3624 15.9956C18.3019 16.0808 18.2594 16.1768 18.2375 16.2782C18.3385 16.213 18.4146 16.1172 18.4542 16.0056L18.3624 15.9956ZM17.2888 16.161C17.0922 16.3432 16.8964 16.5682 16.8947 16.8478C17.005 16.7435 17.0825 16.6115 17.1468 16.4763C17.1762 16.4657 17.206 16.4555 17.2361 16.4457C17.2062 16.5572 17.1833 16.6704 17.1677 16.7846C17.2014 16.7712 17.2356 16.7578 17.27 16.7465C17.3925 16.5618 17.441 16.3403 17.4355 16.1225C17.3864 16.1335 17.3252 16.1225 17.2882 16.161H17.2888ZM18.1691 16.4586C18.1691 16.4795 18.1655 16.5217 18.1644 16.543C18.2692 16.502 18.3795 16.476 18.492 16.4658C18.3778 16.5887 18.2176 16.6768 18.1575 16.8406C18.4313 16.7349 18.6164 16.5002 18.813 16.2981C18.5836 16.2634 18.3632 16.3483 18.1691 16.4594V16.4586ZM17.4832 16.625L17.5588 16.6771C17.6206 16.6021 17.6867 16.518 17.7982 16.5268C17.7405 16.6664 17.6465 16.7898 17.6026 16.9352C17.8558 16.8293 18.0193 16.5857 18.069 16.3271C17.8414 16.3516 17.6597 16.4967 17.4832 16.625ZM6.60359 16.4524C6.624 16.6809 6.67226 16.9395 6.87358 17.0855C7.07021 17.2247 7.31068 17.2847 7.52551 17.3911C7.60107 17.439 7.68077 17.3911 7.75247 17.3613C7.55336 17.1586 7.33881 16.9707 7.12095 16.7881C6.9621 16.658 6.79884 16.5268 6.60359 16.4524ZM16.2557 17.2564C16.3068 17.2008 16.3519 17.1401 16.3903 17.0755C16.4234 17.0707 16.4565 17.0661 16.4899 17.0618C16.4924 17.1099 16.4954 17.1583 16.499 17.2067C16.5762 17.1731 16.6442 17.1224 16.6978 17.0586C16.7199 16.9556 16.6766 16.8519 16.6468 16.754C16.3936 16.7769 16.267 17.0357 16.2557 17.2564ZM17.8919 16.9406C17.746 16.9806 17.6051 17.0387 17.4543 17.0591C17.4543 17.0761 17.4543 17.1099 17.4543 17.1269C17.6032 17.115 17.7504 17.0871 17.8996 17.0763C17.7659 17.1642 17.6167 17.225 17.473 17.2949C17.4821 17.3255 17.4918 17.3562 17.5006 17.3874C17.6856 17.3409 17.8803 17.3011 18.0356 17.1849C18.128 17.1134 18.2438 17.0408 18.2562 16.9161C18.134 16.9102 18.008 16.9078 17.8903 16.9411L17.8919 16.9406ZM16.7747 17.1664C16.7273 17.2161 16.6553 17.261 16.6506 17.3349C16.7417 17.3659 16.8092 17.2847 16.8751 17.2384C16.9398 17.1834 17.0172 17.1445 17.1007 17.125C17.024 17.2685 16.9209 17.3968 16.8464 17.5417C16.8897 17.5295 16.9297 17.5081 16.9634 17.479C16.9971 17.4499 17.0238 17.4138 17.0414 17.3734C17.1142 17.328 17.1945 17.29 17.2529 17.2266C17.2767 17.1825 17.2714 17.1293 17.2885 17.0833C17.3163 17.0494 17.3463 17.0172 17.3781 16.9868C17.3067 16.9513 17.2273 16.9158 17.1457 16.939C17.0009 16.9736 16.8853 17.0734 16.7747 17.1664ZM6.2768 17.0169C6.35953 17.3245 6.58015 17.5675 6.80712 17.7866C6.53134 17.6231 6.24205 17.4696 5.91939 17.4247C5.91939 17.4484 5.91939 17.4957 5.91939 17.5196C6.32313 17.7745 6.69763 18.075 7.12757 18.2896C7.22437 18.3358 7.32392 18.3998 7.43726 18.3734C7.38871 18.287 7.32913 18.2069 7.25994 18.135C7.37935 18.2073 7.49683 18.2839 7.62176 18.3468C7.74337 18.4038 7.88236 18.3638 8.00426 18.328C7.98826 18.2898 7.9844 18.2414 7.94221 18.2205C7.55998 17.9826 7.17693 17.7428 6.82559 17.4608C6.89408 17.4744 6.95948 17.5 7.01864 17.5363C7.24339 17.6823 7.44581 17.8589 7.67057 18.0041C7.81039 18.0922 7.96868 18.1968 8.14408 18.153C7.79191 17.771 7.4221 17.3685 6.91908 17.1779C6.71197 17.104 6.50018 17.0296 6.27818 17.0166L6.2768 17.0169ZM15.7047 17.6766C15.7471 17.6263 15.7818 17.5704 15.8079 17.5105C15.8685 17.5105 15.9182 17.5296 15.935 17.5928C15.9902 17.5645 16.0453 17.5347 16.1005 17.5027C16.1198 17.3835 16.1225 17.2623 16.1085 17.1425C15.8526 17.1793 15.726 17.4511 15.7045 17.6766H15.7047ZM17.0147 17.5586C16.9419 17.6049 16.8522 17.6393 16.8186 17.7245C16.917 17.7159 17.024 17.6777 17.1164 17.7315C17.0405 17.7623 16.9627 17.7883 16.8834 17.8094C16.8817 17.8285 16.8784 17.8667 16.8765 17.8858C17.1829 17.8589 17.4507 17.6874 17.6622 17.479C17.5403 17.4495 17.414 17.4142 17.2885 17.4328C17.1873 17.4495 17.1013 17.5086 17.0147 17.5586ZM16.0188 17.6592C15.8776 17.7274 15.7913 17.8664 15.7445 18.0086C15.9295 17.9635 16.0478 17.7957 16.2353 17.7565C16.1829 17.8909 16.0668 17.9922 16.0351 18.1353C16.16 18.1162 16.2952 18.0852 16.3818 17.9879C16.486 17.8662 16.5277 17.7075 16.5569 17.5548C16.3746 17.5664 16.1854 17.5796 16.0188 17.6594V17.6592ZM15.445 17.6731C15.4257 17.7111 15.4067 17.7493 15.3881 17.7877L15.3054 17.782C15.3024 17.8089 15.2996 17.8358 15.2971 17.8645C15.3261 17.8538 15.3553 17.843 15.3848 17.8328C15.44 17.7686 15.5346 17.7522 15.5779 17.6785C15.5338 17.6756 15.4899 17.6742 15.4463 17.6731H15.445ZM9.79046 18.0764C8.88674 18.2839 8.00288 18.5893 7.18658 19.0229C6.90805 19.1778 6.62483 19.3332 6.37801 19.5337C6.39676 19.7528 6.5159 19.9472 6.60194 20.1458C6.99795 20.9464 7.46622 21.7104 7.9207 22.4801C8.05031 22.4398 8.154 22.3513 8.27204 22.2892C9.11977 21.8158 10.0676 21.5298 11.0298 21.3833C12.0615 21.2316 13.1235 21.2351 14.1447 21.4542C14.8451 21.6058 15.5291 21.8647 16.1162 22.2717C16.1953 22.3239 16.2643 22.3911 16.3506 22.433C16.4333 22.4389 16.5059 22.3852 16.5563 22.3255C16.5905 22.2613 16.5919 22.1863 16.6162 22.1185C16.6824 21.9206 16.804 21.7467 16.9215 21.5749C16.9683 21.5107 16.9868 21.433 17.0166 21.3599C17.0205 21.3123 17.0213 21.2617 17.053 21.2225C17.1288 21.115 17.2113 21.0074 17.2665 20.887L17.2361 20.8233C17.4129 20.6803 17.4545 20.4469 17.5695 20.2633C17.5695 20.2453 17.5717 20.2095 17.5726 20.1915L17.6302 20.1835C17.7245 20.0033 17.7728 19.8023 17.8955 19.6364C17.355 19.0339 16.6443 18.5941 15.8854 18.3C15.1102 18.0006 14.2826 17.843 13.4533 17.7791C12.2261 17.689 10.9868 17.7992 9.79046 18.0748V18.0764ZM16.4215 18.0288C16.4215 18.053 16.4231 18.1011 16.4234 18.1253C16.5146 18.1088 16.6067 18.0974 16.6992 18.0912C16.6385 18.1336 16.5759 18.1742 16.5144 18.2154C16.5144 18.239 16.5108 18.2863 16.5097 18.31C16.7648 18.2831 17.058 18.2046 17.1826 17.9632C16.9275 17.9541 16.6733 17.9861 16.4223 18.0288H16.4215ZM18.0792 21.8921C18.2587 21.919 18.4015 22.0397 18.5756 22.079C19.0868 20.9932 19.6028 19.9095 20.1152 18.8245C20.1797 18.6931 20.1638 18.5105 20.0344 18.4213C19.8632 18.3049 19.6483 18.2909 19.4484 18.2584C18.9953 19.4708 18.5262 20.6778 18.0786 21.8916L18.0792 21.8921ZM4.10755 18.9826C4.15333 19.1065 4.23248 19.2159 4.29177 19.334C4.80499 20.2612 5.31214 21.1918 5.82894 22.1172C5.99192 22.0252 6.15711 21.929 6.34519 21.8954C6.30272 21.7741 6.24371 21.6596 6.18993 21.5432C5.71532 20.5276 5.23575 19.5133 4.76445 18.4955C4.46109 18.4955 4.22724 18.7323 4.10755 18.9823V18.9826ZM18.6655 18.9525C18.5673 19.0732 18.5127 19.2213 18.4448 19.3557C17.8977 20.5147 17.3395 21.6677 16.7996 22.8306C16.9143 22.8984 17.0519 22.8742 17.1782 22.861C17.473 22.8218 17.7524 22.7167 18.0331 22.6242C18.0386 22.6059 18.0499 22.5688 18.0554 22.5502C17.89 22.4637 17.7014 22.3677 17.6363 22.1838C17.5963 22.0349 17.6947 21.8994 17.7466 21.7663C17.9655 21.2397 18.1674 20.7066 18.3809 20.1781C18.5085 19.9273 18.5794 19.6549 18.6768 19.3926C18.7292 19.2272 18.8031 19.067 18.8301 18.895C18.773 18.906 18.6999 18.895 18.6646 18.9512L18.6655 18.9525ZM5.35681 18.9256C5.39956 19.0689 5.46712 19.2036 5.52531 19.341C5.92188 20.248 6.35512 21.1394 6.75169 22.0465C6.81622 22.1602 6.75169 22.2884 6.68991 22.3895C6.60056 22.5266 6.44171 22.5933 6.29031 22.6422C6.32147 22.6787 6.35346 22.718 6.40062 22.7333C6.64697 22.8335 6.90245 22.9108 7.16369 22.9642C7.31096 22.9938 7.46015 22.94 7.57543 22.8519C6.97479 21.6634 6.37939 20.4725 5.7793 19.2837C5.69657 19.1135 5.55068 18.9638 5.35543 18.9256H5.35681ZM5.98503 22.3459C5.98696 22.3997 5.98889 22.4535 5.9911 22.5072C6.13478 22.4919 6.287 22.4707 6.40476 22.3838C6.49439 22.3126 6.48749 22.1884 6.49273 22.0881C6.29252 22.0989 6.11409 22.2045 5.98365 22.3484L5.98503 22.3459ZM17.933 22.1083C17.933 22.1548 17.933 22.2013 17.933 22.2486C17.9978 22.3024 18.0637 22.3605 18.1481 22.383C18.252 22.4037 18.36 22.3916 18.4564 22.3486C18.4203 22.2604 18.3759 22.1656 18.2852 22.1198C18.1749 22.0661 18.048 22.093 17.9327 22.1094L17.933 22.1083ZM10.3621 5.0228C10.3922 4.95801 10.4724 4.97764 10.5276 4.99027C10.543 5.12307 10.5916 5.25615 10.695 5.34835C10.9286 5.57471 11.3469 5.58143 11.5871 5.36153C11.6514 5.30776 11.6974 5.22711 11.7854 5.20668C11.9137 5.35938 12.0777 5.5204 12.2951 5.52148C12.4605 5.53385 12.6152 5.45293 12.7341 5.34647C12.8626 5.23894 12.9588 5.10291 13.065 4.97468L13.169 4.97629C13.233 5.27684 13.2004 5.64165 12.9448 5.85214C12.7112 6.03199 12.3814 5.9922 12.1213 5.89354C12.0019 5.85133 11.9327 5.70294 11.7951 5.7145C11.6864 5.77956 11.6219 5.89757 11.5066 5.95483C11.2954 6.06237 11.0284 6.03763 10.826 5.92204C10.6238 5.81612 10.4242 5.66046 10.3605 5.43599C10.3245 5.3004 10.3253 5.15802 10.3627 5.0228H10.3621ZM11.6997 6.03172C11.7432 6.00484 11.797 5.95107 11.8447 6.00053C12.0394 6.13495 12.2308 6.2734 12.4216 6.40969C12.4853 6.44599 12.4964 6.5218 12.4964 6.58739C12.4942 8.77325 12.4873 10.9591 12.4944 13.145C13.1913 12.5301 13.808 11.8108 14.2065 10.9755C14.6345 10.0859 14.7936 9.04826 14.523 8.09149C14.4497 7.79229 14.2768 7.53125 14.1444 7.25543C13.9304 6.83122 13.7032 6.41265 13.4991 5.9844C14.2387 6.59841 14.841 7.38716 15.1601 8.2864C15.5003 9.23335 15.5054 10.2641 15.1747 11.2142C14.8758 12.0764 14.3132 12.8393 13.6119 13.4348C13.3984 13.6138 13.1742 13.7805 12.9406 13.934C13.051 14.0684 13.2363 14.0953 13.399 14.1273C13.7354 14.181 14.0771 14.1953 14.4174 14.2079C14.6471 14.2179 14.8782 14.1993 15.1069 14.2308C14.6419 14.47 14.1113 14.5563 13.5901 14.5695C13.1974 14.5964 12.8044 14.5526 12.412 14.541C12.2989 14.7311 12.1825 14.919 12.0711 15.1101C12.0504 15.1698 11.9503 15.1832 11.9175 15.1295C11.7747 14.9335 11.6613 14.7182 11.5141 14.5257C11.3798 14.5168 11.2457 14.5526 11.1111 14.556C10.609 14.605 10.096 14.5948 9.60458 14.4754C9.36898 14.4186 9.13872 14.3425 8.91625 14.248C9.44822 14.2867 9.98901 14.2888 10.5138 14.1834C10.6669 14.1539 10.8216 14.1066 10.9413 14.0044C10.5515 13.79 10.1933 13.5254 9.87622 13.2175C9.83541 13.1772 9.79818 13.1334 9.76178 13.0896C10.1914 13.0659 10.6219 13.0896 11.0519 13.078C10.617 13.0807 10.1815 13.0673 9.74688 13.0855C9.08291 12.3792 8.63148 11.5081 8.44219 10.568C8.2577 9.64345 8.35587 8.65926 8.77119 7.80411C9.09578 7.12371 9.61424 6.54061 10.2276 6.09247C9.75516 6.86025 9.40272 7.71244 9.3084 8.60845C9.19809 9.61173 9.42809 10.6422 9.93524 11.5202C10.2962 12.1532 10.7819 12.7124 11.3265 13.2022C11.3309 12.7619 11.2989 12.3226 11.2945 11.8825C11.2683 11.5513 11.2857 11.2188 11.2579 10.8879C11.2496 10.1518 11.2049 9.41629 11.198 8.67996C11.1572 7.93315 11.1575 7.185 11.1183 6.43792C11.305 6.29329 11.5077 6.16909 11.6991 6.03118L11.6997 6.03172ZM13.9329 6.04274C14.8695 6.20173 15.7204 6.67285 16.3401 7.3756C16.8845 8.0021 17.2142 8.77891 17.283 9.59721C17.3349 10.2147 17.2486 10.8357 17.0301 11.4175C16.9554 11.6282 16.8646 11.8355 16.732 12.0188C16.4885 12.3799 16.21 12.721 15.8807 13.0116C15.651 13.2089 15.3997 13.388 15.1149 13.5014L15.1071 13.4127C15.6835 12.7025 16.0743 11.8446 16.1948 10.9446C16.3429 9.90045 16.13 8.81518 15.6184 7.88853C15.2097 7.15519 14.6324 6.52401 13.9318 6.04435L13.9329 6.04274ZM9.27117 6.19544C9.41292 6.14785 9.55825 6.07661 9.71241 6.1121C9.67732 6.15848 9.63699 6.20086 9.59217 6.23845C8.95954 6.77046 8.41213 7.41162 8.05086 8.14956C7.78587 8.68763 7.62961 9.27039 7.59059 9.86604C7.51503 10.9873 7.87547 12.0973 8.43226 13.0673C8.52354 13.2431 8.68404 13.3748 8.76319 13.5576C8.38124 13.4146 8.04397 13.1726 7.75771 12.8906C7.39562 12.5379 7.10826 12.1175 6.88626 11.6691C6.79112 11.4782 6.69901 11.2838 6.64662 11.0777C6.52421 10.5756 6.48538 10.0576 6.53162 9.54344C6.59792 8.81983 6.87299 8.12929 7.32502 7.55168C7.81949 6.92585 8.51527 6.46776 9.27172 6.19544H9.27117ZM11.8135 18.9705C12.1671 18.7286 12.4773 18.4361 12.787 18.1452C12.8295 18.1473 12.8722 18.1495 12.915 18.1525C12.8968 18.26 12.8951 18.4003 12.784 18.4621C12.5876 18.5791 12.4283 18.7428 12.2586 18.8923C11.949 19.1783 11.6244 19.4549 11.2568 19.6673C10.8345 19.9109 10.3563 20.0722 9.86464 20.0974C9.52351 20.1079 9.18265 20.0974 8.84151 20.0974C8.79187 20.2195 8.74582 20.3609 8.61951 20.4284C8.50451 20.4967 8.36497 20.4749 8.23729 20.4821C8.16255 20.4821 8.10354 20.5335 8.04425 20.5698L7.98357 20.516C8.03321 20.3501 8.10105 20.1665 8.26597 20.0789C8.38069 20.0077 8.52216 20.0491 8.64709 20.0192C8.78939 19.9571 8.87405 19.8203 8.94245 19.6904C9.46421 19.7009 10.0003 19.7361 10.5064 19.5845C10.9691 19.4418 11.4184 19.2463 11.8146 18.9708L11.8135 18.9705ZM15.2834 19.2313C15.5829 19.0163 15.939 18.8889 16.3101 18.8638C16.0092 19.0874 15.6237 19.1608 15.3189 19.3764C15.0779 19.5528 14.9921 19.8512 14.9532 20.1292C15.036 20.1353 15.1187 20.1383 15.2014 20.141C15.1915 20.2515 15.1463 20.3633 15.0492 20.4284C14.9665 20.4961 14.8578 20.5047 14.7555 20.509C14.6973 20.4598 14.614 20.4109 14.6265 20.3235C14.6372 20.1864 14.7321 20.0749 14.7688 19.9447C14.5606 20.0184 14.3422 20.0612 14.121 20.0716C13.7032 20.091 13.2763 20.0695 12.8753 19.945C12.6822 19.8821 12.471 19.7851 12.3861 19.592C12.3166 19.4307 12.4203 19.2668 12.5063 19.1329C12.5515 19.1329 12.5973 19.1329 12.6442 19.1313C12.6671 19.3372 12.84 19.4837 13.0256 19.5598C13.4718 19.7461 13.9674 19.7748 14.4472 19.7622C14.5815 19.7512 14.7373 19.7566 14.8416 19.659C14.9941 19.5203 15.1173 19.3506 15.2861 19.2289L15.2834 19.2313ZM13.7001 19.0805C13.7591 19.0073 13.862 19.0514 13.9395 19.0619C13.9031 19.1463 13.8598 19.2278 13.8176 19.3095C13.7202 19.3236 13.622 19.3319 13.5236 19.3345C13.5512 19.2318 13.6339 19.159 13.7001 19.0805ZM15.4003 19.516C15.4974 19.438 15.6046 19.3278 15.7436 19.3563C15.8059 19.3996 15.8134 19.4805 15.8357 19.5463C15.75 19.6028 15.6636 19.6842 15.552 19.6748C15.4877 19.6361 15.4439 19.574 15.4003 19.516ZM15.9243 19.9345C16.0514 19.7684 16.1942 19.6004 16.3964 19.5195C16.2982 19.7496 16.1159 19.9353 16.0268 20.1703C15.9857 20.275 15.9652 20.3864 15.9664 20.4985C16.047 20.4985 16.1272 20.4985 16.208 20.4985C16.1303 20.6668 16.0029 20.823 15.8236 20.8937C15.756 20.9206 15.6882 20.8668 15.6532 20.8149C15.5939 20.7295 15.6002 20.6198 15.6231 20.5241C15.6755 20.309 15.7919 20.1128 15.9243 19.9345ZM8.92783 20.7268C8.97113 20.6582 9.01056 20.5851 9.06848 20.5278C9.17244 20.5139 9.29434 20.5695 9.32605 20.6722C9.30344 20.7585 9.25269 20.8335 9.21078 20.9123C9.11228 20.9168 9.0137 20.9055 8.919 20.8787C8.91514 20.9055 8.91128 20.9324 8.90742 20.9615C9.00008 20.9883 9.09467 21.0093 9.18926 21.0289C9.18237 21.1303 9.17713 21.2359 9.12942 21.329C9.12837 21.3357 9.12582 21.3421 9.12198 21.3477C9.11813 21.3534 9.11306 21.3581 9.10713 21.3617C9.1012 21.3653 9.09455 21.3675 9.08764 21.3683C9.08072 21.3691 9.07371 21.3684 9.0671 21.3663C9.00076 21.3533 8.93605 21.3334 8.87405 21.3069C8.88784 21.2424 8.90255 21.1782 8.91818 21.1144C8.80235 21.0961 8.68865 21.0667 8.5787 21.0268C8.59249 20.9074 8.64709 20.7996 8.70859 20.6977C8.78213 20.7063 8.85493 20.716 8.927 20.7268H8.92783ZM15.4758 21.0763C15.5252 21.0806 15.5751 21.0851 15.625 21.0902C15.6529 21.1702 15.6687 21.2537 15.6722 21.3381C15.5826 21.3794 15.4905 21.4153 15.3964 21.4456C15.3274 21.3897 15.2739 21.3178 15.2409 21.2365C15.3248 21.1913 15.4034 21.1372 15.475 21.0752L15.4758 21.0763Z" fill="#4F4F4F"/>
</svg>
