<svg width="24" height="24" viewBox="0 0 24 24" fill="none" xmlns="http://www.w3.org/2000/svg">
<path fill-rule="evenodd" clip-rule="evenodd" d="M11.9705 17.7554L12.0054 14.2193C12.1515 14.2125 13.6274 14.1542 14.5349 14.6122C14.6542 14.6587 14.7548 14.744 14.821 14.8545C14.8873 14.9651 14.9153 15.0948 14.9008 15.2232C14.9008 16.2854 12.0335 17.7974 11.752 17.9451C8.12065 19.7972 3 20.1129 3 20.1129L3.04826 24C5.23861 23.6952 9.19169 23.2494 13.9611 20.6643C16.3204 19.3867 18.874 17.2772 18.3981 14.2707C17.937 11.3646 14.8941 10.5462 12.0282 10.6709L11.9946 14.2071C11.8499 14.2138 10.3727 14.2721 9.46515 13.8155C9.34598 13.7688 9.24546 13.6835 9.17926 13.573C9.11307 13.4624 9.08491 13.3329 9.0992 13.2045C9.0992 12.1423 11.9665 10.6302 12.248 10.4839C15.8794 8.63046 21 8.31614 21 8.31614L20.9517 4.42904C18.7601 4.73388 14.8083 5.17963 10.0389 7.76471C7.67829 9.04234 5.12601 11.1519 5.60322 14.1583C6.06301 17.0645 9.1059 17.8828 11.9705 17.7568V17.7554ZM7.29357 3.75838C7.73155 3.75838 8.1597 3.88965 8.52387 4.13559C8.88804 4.38153 9.17187 4.7311 9.33948 5.14008C9.50709 5.54906 9.55094 5.99909 9.4655 6.43327C9.38005 6.86744 9.16914 7.26626 8.85944 7.57928C8.54974 7.8923 8.15516 8.10547 7.72559 8.19183C7.29603 8.2782 6.85076 8.23387 6.44612 8.06447C6.04148 7.89506 5.69563 7.60818 5.4523 7.24011C5.20897 6.87203 5.07909 6.43929 5.07909 5.99661C5.07909 5.403 5.3124 4.83369 5.7277 4.41394C6.14299 3.99419 6.70625 3.75838 7.29357 3.75838ZM17.1689 4.10009e-07C17.607 -0.000267545 18.0353 0.130808 18.3997 0.376645C18.7641 0.622482 19.0481 0.97203 19.2159 1.38107C19.3837 1.79011 19.4276 2.24025 19.3422 2.67455C19.2568 3.10885 19.0459 3.50779 18.7361 3.8209C18.4263 4.134 18.0316 4.3472 17.6019 4.43352C17.1722 4.51984 16.7269 4.4754 16.3222 4.30582C15.9175 4.13625 15.5716 3.84916 15.3284 3.48088C15.0852 3.11259 14.9555 2.67967 14.9558 2.23687C14.9558 1.64362 15.1889 1.07466 15.604 0.655165C16.019 0.23567 16.5819 4.10009e-07 17.1689 4.10009e-07ZM12.0161 1.46867C12.454 1.46813 12.8822 1.59881 13.2466 1.84419C13.611 2.08956 13.8952 2.43862 14.0634 2.84724C14.2316 3.25586 14.2761 3.7057 14.1914 4.1399C14.1067 4.57411 13.8965 4.97318 13.5875 5.28669C13.2784 5.6002 12.8843 5.81406 12.4551 5.90126C12.0258 5.98845 11.5806 5.94506 11.1757 5.77656C10.7708 5.60807 10.4244 5.32203 10.1803 4.95461C9.9362 4.58719 9.80535 4.15488 9.80429 3.71232C9.80429 3.41845 9.86159 3.12747 9.97289 2.85599C10.0842 2.58451 10.2473 2.33786 10.453 2.13013C10.6586 1.9224 10.9028 1.75766 11.1714 1.64533C11.4401 1.53299 11.728 1.47527 12.0188 1.47544L12.0161 1.46867Z" fill="#ED1C24"/>
</svg>
