<svg width="24" height="24" viewBox="0 0 24 24" fill="none" xmlns="http://www.w3.org/2000/svg">
<g clip-path="url(#clip0)">
<path fill-rule="evenodd" clip-rule="evenodd" d="M5.54053 20.6164L6.21996 21.0145L11.4802 24L16.7405 21.0145L22.0001 18.0298V12.0595V6.08929L18.1842 3.87256L12.2698 7.34091L16.0323 9.47626V14.6428L5.54053 20.6164Z" fill="#008AD1"/>
<path fill-rule="evenodd" clip-rule="evenodd" d="M17.4595 3.38293L16.7801 2.98478L11.5198 0L6.26027 2.98478L1 5.97024V11.9405V17.9107L4.81588 20.1268L10.7303 16.6591L6.96775 14.5237V9.35721L17.4595 3.38293Z" fill="#008AD1"/>
<path d="M11.9898 15.2748C13.8393 14.9043 15.033 13.1301 14.6561 11.3122C14.2791 9.49422 12.4742 8.32084 10.6247 8.69137C8.77519 9.0619 7.58146 10.836 7.95842 12.654C8.33538 14.472 10.1403 15.6453 11.9898 15.2748Z" fill="#E6B500"/>
</g>
<defs>
<clipPath id="clip0">
<rect width="24" height="24" fill="white"/>
</clipPath>
</defs>
</svg>
