<svg width="24" height="24" viewBox="0 0 24 24" fill="none" xmlns="http://www.w3.org/2000/svg">
<g clip-path="url(#clip0)">
<path d="M11.26 0.00260829H11.5032C11.5806 2.34679 11.6607 4.69098 11.7437 7.03517C11.8813 7.05708 11.9422 6.86825 12.0331 6.78844C12.1329 6.62673 12.3629 6.52762 12.3566 6.31897C12.3566 4.21404 12.3566 2.11015 12.3566 0.00730273H12.5787C12.9185 0.0495544 13.2615 0.0683328 13.6002 0.10902C13.5293 1.71041 13.4427 3.31128 13.3702 4.91267C13.3319 5.37118 13.3476 5.83386 13.2883 6.29081C13.5352 6.17234 13.8135 6.13437 14.0834 6.18231C14.2885 4.21752 14.4906 2.25273 14.6894 0.287938C15.0649 0.386525 15.4357 0.501283 15.8107 0.603521C15.5113 2.66186 15.1904 4.71758 14.8843 6.77487C15.1322 6.74775 15.3853 6.71854 15.6305 6.78531C16.0118 4.84747 16.3936 2.90963 16.7859 0.974397C17.1641 1.1674 17.539 1.36718 17.9135 1.56749C17.4776 3.32432 17.0399 5.08046 16.6005 6.83591C16.5591 7.01117 16.4992 7.18279 16.4824 7.36275L16.5244 7.42899C16.7003 7.51454 16.892 7.56514 17.0606 7.66946C17.6257 5.79422 18.1829 3.91637 18.7595 2.04425C19.0746 2.27585 19.3808 2.51371 19.697 2.74323C18.7517 5.51254 17.7801 8.27246 16.8295 11.0371C16.7949 11.1659 16.84 11.2979 16.8511 11.4273C16.8936 11.6641 16.8925 11.9072 16.9393 12.1434L17.0002 12.1909C17.1173 11.9823 17.1898 11.7574 17.2806 11.5394C18.3636 8.85338 19.4465 6.1677 20.5294 3.48237C20.8093 3.76562 21.0766 4.06138 21.3571 4.3441C20.1213 7.01952 18.8688 9.68816 17.6283 12.3604C17.7428 12.5081 17.9035 12.6953 17.8074 12.893C17.6546 13.1356 17.3547 13.2582 17.2297 13.519C17.1609 13.7099 17.226 13.9133 17.2822 14.0995C17.3316 14.0229 17.3804 13.9457 17.4245 13.8659C18.9374 10.9601 20.4511 8.05425 21.9657 5.14845C22.1968 5.49533 22.3917 5.86464 22.6164 6.21569C20.9709 9.03699 19.3206 11.8553 17.6656 14.6707C17.7575 14.7432 17.8358 14.8481 17.9539 14.8794C18.0343 14.8971 18.0784 14.821 18.1188 14.7677C19.771 12.2441 21.4266 9.72293 23.0854 7.20417C23.2167 7.56357 23.3785 7.91828 23.4662 8.2902C23.3396 8.50563 23.1752 8.69654 23.0339 8.90259C21.5635 10.9359 20.0919 12.9702 18.6193 15.0056C18.4686 15.2143 18.2517 15.4266 18.3252 15.7088C18.3352 15.8684 18.5426 15.8308 18.602 15.7228C20.3225 13.5649 22.0193 11.3871 23.7487 9.23747C23.8238 9.6579 23.9063 10.0783 23.9803 10.4988C21.8891 12.8829 19.7966 15.265 17.7029 17.645C17.6504 17.7222 17.5343 17.8349 17.6435 17.9184C17.7223 17.9314 17.8111 17.9319 17.8641 17.861C19.9085 15.7807 21.9524 13.6995 23.9961 11.6171C23.9961 11.9364 23.9961 12.2551 23.9961 12.5743C23.9866 12.6458 24.0113 12.7365 23.9504 12.7908C22.0153 14.6067 20.079 16.422 18.1414 18.2366C17.9839 18.4807 17.7213 18.6173 17.5317 18.8296C16.7964 19.5418 16.0659 20.2575 15.3401 20.9767C15.4184 20.9767 15.4977 20.973 15.577 20.9725C17.6427 19.1583 19.712 17.3488 21.7851 15.5439C22.4783 14.9477 23.1505 14.328 23.859 13.7474C23.7939 14.1204 23.7219 14.4928 23.6515 14.8653C23.6242 15.0312 23.4494 15.1032 23.3364 15.2064C20.8954 17.1338 18.4413 19.0456 16.0081 20.9824C16.1022 20.9667 16.2103 20.9913 16.2965 20.9407C18.6298 19.2809 20.9437 17.5913 23.2845 15.9419C23.1852 16.2194 23.0649 16.4891 22.9599 16.7651C22.9074 16.8819 22.8748 17.0212 22.7556 17.0905C21.5673 17.8716 20.3769 18.6509 19.1844 19.4285C18.4029 19.9501 17.6047 20.4456 16.8321 20.9798C16.9245 20.9713 17.0139 20.9436 17.0947 20.8984C18.0595 20.3246 19.0379 19.7717 20.0032 19.2021C20.7983 18.7545 21.5724 18.2689 22.3764 17.837C21.9789 18.5782 21.4484 19.2454 20.866 19.8499C20.6906 20.0409 20.4711 20.189 20.3088 20.3919C20.4138 20.5844 20.6192 20.6929 20.7374 20.8702C20.7584 21.9135 20.7374 22.9567 20.7463 24C14.9988 24 9.25106 24 3.50319 24C3.50319 23.0089 3.49741 22.021 3.50319 21.0309C3.64184 20.9047 3.77786 20.7748 3.9144 20.6459C3.30019 20.0852 2.72995 19.4787 2.20864 18.8317C2.01194 18.5881 1.83626 18.3285 1.68346 18.0556C3.55256 19.0023 5.4122 19.9741 7.27448 20.9297C7.34253 20.9559 7.41284 20.9758 7.48455 20.9892C7.25294 20.8134 6.99246 20.6804 6.7493 20.5255C4.95495 19.4394 3.15955 18.3538 1.3631 17.2684C1.28249 17.2278 1.21794 17.1615 1.17981 17.0801C1.04117 16.7781 0.905673 16.474 0.775955 16.1678C1.77011 16.7937 2.74326 17.4562 3.73112 18.0936C5.15277 19.0326 6.58177 19.9579 8.00185 20.8974C8.08408 20.9479 8.17744 20.9778 8.27389 20.9845C8.05804 20.7962 7.81698 20.6402 7.58801 20.4686L0.439319 15.2722C0.326406 14.8387 0.205616 14.4057 0.134192 13.9629C2.98134 16.2768 5.82342 18.5972 8.66042 20.924C8.74339 20.9907 8.85946 20.9647 8.95767 20.9814C7.02292 19.201 5.07137 17.4395 3.12822 15.6665C2.08574 14.7218 1.0522 13.7647 0.0018465 12.8289C0.0018465 12.4705 -0.00498155 12.1122 0.00762267 11.7543C0.459799 12.1654 0.874164 12.615 1.31531 13.0375C3.9762 15.6849 6.63709 18.3308 9.29798 20.9751L9.44503 20.9688C6.87027 18.1757 4.29481 15.3826 1.71865 12.5894C1.17194 11.987 0.60685 11.3996 0.0690705 10.7904C0.113185 10.3506 0.205615 9.91402 0.287542 9.4795C3.43054 13.3103 6.57389 17.1411 9.71759 20.972H9.8972C6.76296 16.8163 3.62451 12.6633 0.481858 8.51293C0.625756 8.14779 0.763352 7.78266 0.901998 7.41752C1.96075 8.93649 2.98694 10.4784 4.03309 12.0078C6.06552 14.9985 8.09795 17.9879 10.1304 20.9761L10.2879 20.9725C7.29478 16.1384 4.30058 11.3045 1.30533 6.47077C1.53483 6.08998 1.76329 5.70815 1.99489 5.32841C3.666 8.35766 5.3329 11.3894 6.99561 14.4235C7.10693 14.3293 7.23285 14.2535 7.36848 14.1992C6.93942 13.3734 6.54028 12.53 6.12067 11.7011C5.96679 11.6422 5.80031 11.5884 5.68897 11.4601C5.56923 11.3396 5.53825 11.168 5.50306 11.01C5.4621 10.8107 5.29299 10.673 5.22839 10.4836C5.20371 10.2317 5.33343 9.95262 5.17062 9.72519C4.29463 8.00748 3.44595 6.27568 2.58466 4.55066C2.8525 4.24499 3.10143 3.92471 3.37872 3.6253C3.6042 4.14484 3.8288 4.66455 4.05253 5.18444C4.12395 5.04047 4.19222 4.86416 4.3566 4.80365C4.47056 4.78435 4.61919 4.7734 4.69692 4.87772C4.88756 5.10672 5.04878 5.35814 5.2368 5.58922C4.8802 4.68211 4.53149 3.7724 4.17647 2.86529C4.49157 2.61961 4.803 2.36818 5.12178 2.12615C5.50569 3.23877 5.89327 4.34984 6.26929 5.46455C6.31722 5.3404 6.37701 5.2211 6.44785 5.10828C6.54448 4.98257 6.71044 4.94449 6.84803 4.88711C6.54921 3.7917 6.25354 2.69628 5.95261 1.60504C6.34334 1.40422 6.73302 1.20026 7.12953 1.00987C7.39317 2.32332 7.65418 3.6373 7.91257 4.95179C7.94828 5.20374 8.22032 5.36909 8.19616 5.63669C8.19616 5.77023 8.06644 5.84534 7.98609 5.93141L7.81698 5.86307C7.85427 6.20057 7.8548 6.54119 7.88998 6.87764C7.97821 7.08942 8.2513 7.10663 8.44982 7.13845C8.73865 7.1652 9.01116 7.28352 9.22708 7.47594C9.37308 7.5907 9.48967 7.74771 9.66665 7.82178C9.77169 7.79413 9.87305 7.74353 9.98176 7.7211C10.1136 7.7451 10.2265 7.82543 10.3452 7.8802C10.6078 7.81291 10.852 7.69294 11.1004 7.58548C11.2548 7.50359 11.3005 7.71954 11.3719 7.80769C11.4165 7.75136 11.4895 7.70076 11.4717 7.61834C11.4628 7.28242 11.3367 6.96005 11.3498 6.62204C11.342 6.30854 11.3862 5.9959 11.4806 5.69668C11.3514 5.74362 11.1902 5.94236 11.0573 5.81561C10.8618 5.5781 10.7564 5.27996 10.7595 4.97318C10.6634 4.96066 10.5673 4.94814 10.4712 4.93667C10.7265 4.55118 10.5763 4.07964 10.5379 3.65712C10.4523 2.46677 10.3746 1.2759 10.2895 0.0860687C10.6146 0.0615523 10.9392 0.0339057 11.2632 0L11.26 0.00260829ZM4.31721 5.2632C4.25314 5.64399 4.36238 6.02217 4.42855 6.39513C4.47109 6.67681 4.67171 6.89798 4.75101 7.16818C4.8739 7.45508 4.84659 7.78892 5.02095 8.05494C5.16012 8.29124 5.36126 8.48007 5.54192 8.6809C5.65116 8.80139 5.65589 8.97561 5.65484 9.12897C5.65484 9.54262 5.4726 9.92445 5.41588 10.3287C5.36652 10.6208 5.72364 10.7424 5.73414 11.0157C5.75357 11.1148 5.77143 11.2243 5.85808 11.2916C6.02561 11.433 6.26036 11.4205 6.45783 11.4925C6.73775 11.5864 7.03552 11.7434 7.15841 12.0235C7.18993 12.2196 7.14161 12.422 7.1831 12.6166C7.24664 12.7412 7.33225 12.8555 7.37583 12.9906C7.45409 13.2243 7.41838 13.4752 7.47037 13.7135C7.4982 13.81 7.54652 13.9337 7.66416 13.9436C7.89471 13.8716 7.92675 13.519 8.18933 13.5117C8.35161 13.4908 8.32536 13.7235 8.45875 13.7621C8.66304 13.8168 8.90987 13.7709 9.0711 13.9342C9.17614 14.0223 9.20135 14.1642 9.23706 14.2899C9.37352 14.8048 9.64183 15.2758 10.0159 15.6571C10.1335 15.787 10.3173 15.8089 10.466 15.8903C10.6613 15.979 10.801 16.1678 11.0232 16.2033C11.4885 16.3243 11.8246 16.8167 12.3414 16.7484C12.7773 16.62 13.1192 16.2325 13.595 16.2267C13.6993 16.2213 13.8035 16.241 13.8985 16.2842C13.9936 16.3275 14.0766 16.3929 14.1406 16.475C14.367 16.7233 14.4331 17.0723 14.6542 17.3227C14.7283 17.416 14.8496 17.427 14.9609 17.4239C15.5087 17.4176 16.0486 17.524 16.5864 17.6174C16.849 17.6565 17.0795 17.7927 17.3384 17.8427C17.476 17.3863 17.4618 16.8626 17.7911 16.4829C17.9797 16.234 18.2969 16.1469 18.5962 16.1308C18.446 16.0687 18.2569 16.0619 18.1503 15.9273C18.0274 15.6827 18.2029 15.329 17.9602 15.1381C17.7333 14.9847 17.4876 14.8507 17.3085 14.6389C16.9797 14.2998 16.8883 13.7881 16.9934 13.3421C17.1362 13.1152 17.4345 13.049 17.5868 12.8299C17.643 12.7412 17.6315 12.5868 17.5196 12.5477C17.2754 12.4496 16.9613 12.5561 16.756 12.3636C16.5554 12.1127 16.6814 11.7726 16.6084 11.4846C16.5559 11.276 16.5848 11.0632 16.5916 10.8524C16.5827 10.5958 16.2424 10.4956 16.2686 10.2265C16.2686 9.7278 16.7875 9.44143 16.8831 8.97457C16.8868 8.83582 16.8264 8.70437 16.818 8.56614C16.7891 8.37053 16.8453 8.17909 16.8946 7.99235C16.9361 7.89272 16.8521 7.79883 16.7649 7.76283C16.568 7.66685 16.3495 7.58861 16.224 7.3977C16.1442 7.39352 16.0617 7.40761 15.9845 7.38518C15.8312 7.27355 15.7088 7.11915 15.5355 7.03465C15.2997 7.00909 15.0581 7.10141 14.8249 7.02786C14.4767 6.92615 14.222 6.65281 13.9846 6.39409C13.8407 6.39826 13.6974 6.39826 13.554 6.40087C13.4239 6.50435 13.266 6.56741 13.1 6.58216C12.934 6.59691 12.7673 6.5627 12.6208 6.48381C12.3945 6.74995 12.1541 7.00398 11.9007 7.24486C11.8335 7.32415 11.7259 7.29702 11.635 7.30224C11.6875 7.43317 11.7285 7.57766 11.6875 7.71954C11.5908 7.88483 11.447 8.01803 11.2742 8.10241C11.2138 8.03022 11.1589 7.95368 11.1098 7.87342C10.8373 7.85464 10.5973 8.00278 10.3357 8.04816C10.2102 8.08676 10.0947 8.008 9.97441 7.98557C9.7927 8.02208 9.57895 8.09928 9.42087 7.9574C9.19504 7.74875 8.97237 7.49733 8.64939 7.44986C8.3306 7.39404 7.96666 7.3398 7.74819 7.07846C7.56227 6.8599 7.7319 6.55684 7.61637 6.31063C7.43045 6.29289 7.17312 6.38157 7.05023 6.19483C6.95832 5.89489 7.06493 5.57618 7.01819 5.26999C7.01136 5.20583 6.96567 5.08377 6.87692 5.14584C6.63796 5.198 6.57862 5.45881 6.40426 5.59548C6.17548 5.78629 5.90444 5.92054 5.61335 5.98722C5.44739 6.02165 5.23049 6.01017 5.13439 5.84847C4.94007 5.54645 4.77779 5.1907 4.44378 5.01387C4.37569 5.08379 4.33 5.17219 4.31249 5.2679L4.31721 5.2632ZM8.14207 13.809C8.05174 13.9785 7.93515 14.159 7.72193 14.1773C7.70775 14.2519 7.72875 14.3859 7.61689 14.3901C7.45934 14.4031 7.25715 14.4396 7.20726 14.618C7.22564 14.8241 7.43833 14.9347 7.48455 15.1292C7.5087 15.2419 7.52971 15.3624 7.62057 15.4422C7.99344 15.8381 8.48868 16.0885 8.96344 16.3425C8.98287 16.6466 9.20712 16.8772 9.27382 17.1662C9.31688 17.2992 9.18034 17.4004 9.18717 17.5313C9.2192 17.6278 9.31793 17.6805 9.38883 17.7478C9.41005 17.8881 9.45535 18.0238 9.52275 18.1489C9.5091 17.9883 9.51593 17.7885 9.67348 17.6962C9.82263 17.6649 9.93607 17.7958 10.0353 17.8845C10.1514 18.0102 10.2979 18.1312 10.3394 18.3018C10.2869 18.4155 10.2102 18.5161 10.1461 18.6241C10.7553 18.5626 11.3677 18.5803 11.9785 18.5897C12.2152 18.4217 12.4208 18.2141 12.5861 17.9763C12.6602 17.8406 12.8277 17.8756 12.9569 17.85C12.9674 17.596 13.2153 17.4546 13.2641 17.2152C13.2808 17.1385 13.315 17.0667 13.3642 17.0054C13.4134 16.9441 13.4762 16.8948 13.5477 16.8616C13.6527 16.823 13.7431 16.8949 13.8292 16.9419C13.8292 17.2246 13.8292 17.5078 13.8292 17.7911C13.836 17.8892 13.7898 17.9784 13.7541 18.0665C13.9059 18.2037 14.1144 18.2486 14.2735 18.3758C14.3712 18.4426 14.4626 18.5464 14.5944 18.5219C15.6101 18.4895 16.6263 18.513 17.6404 18.4807C17.6878 18.4902 17.7369 18.4876 17.783 18.4731C17.8291 18.4585 17.8707 18.4326 17.904 18.3977C17.9372 18.3628 17.961 18.3201 17.973 18.2736C17.9851 18.227 17.985 18.1782 17.9728 18.1317C17.7738 18.126 17.5632 18.1599 17.3799 18.0634C17.2108 17.9773 17.0123 18.0143 16.8384 17.9591C16.2334 17.692 15.5554 17.7462 14.9121 17.692C14.5797 17.6722 14.3691 17.379 14.2331 17.1083C14.1086 16.8709 14.0078 16.5475 13.7042 16.4912C13.345 16.4912 13.0278 16.6884 12.7395 16.8803C12.4191 17.0311 12.0336 17.0175 11.708 16.8897C11.5137 16.7567 11.364 16.5481 11.1303 16.4792C11.0059 16.4479 10.8462 16.5022 10.7627 16.3806C10.5416 16.1417 10.2312 16.028 9.9471 15.8856C9.72484 15.6872 9.53492 15.4558 9.38411 15.1997C9.16879 14.8533 9.0606 14.4574 8.91985 14.0782C8.76755 14.0432 8.61 14.0489 8.45665 14.0229C8.32483 13.9989 8.23187 13.8966 8.14154 13.8069L8.14207 13.809ZM7.82644 15.9508C8.67092 17.5334 9.51383 19.1167 10.3552 20.7007C10.4276 20.8139 10.4602 21.0048 10.6351 20.9829C9.8951 19.4128 9.13938 17.8495 8.38943 16.2836C8.24238 16.1229 8.0134 16.0598 7.82644 15.9508ZM13.2578 17.79C13.1092 18.8604 12.9479 19.9287 12.8035 21.0001L12.8912 20.9448C13.1318 19.6705 13.3592 18.3925 13.5918 17.1161C13.4008 17.2923 13.2819 17.5322 13.2578 17.79ZM9.75541 17.9163C9.69293 18.123 9.70709 18.345 9.79532 18.5422C10.1304 19.3247 10.457 20.1071 10.7895 20.8895C10.799 20.9187 10.8177 20.9441 10.8429 20.9619C10.868 20.9796 10.8983 20.9888 10.9292 20.9881C10.6808 20.2792 10.4303 19.5704 10.1692 18.8656C10.114 18.8472 10.0634 18.8171 10.0209 18.7774C9.97852 18.7377 9.94526 18.6893 9.92346 18.6356C9.9597 18.5125 9.99909 18.3842 9.98123 18.2543C9.95392 18.1161 9.84889 18.0128 9.75541 17.9142V17.9163ZM12.6087 18.2522C12.5625 19.1604 12.5189 20.0685 12.4627 20.9756L12.6019 20.9683C12.6654 19.9991 12.7809 19.0336 12.8392 18.0639C12.7442 18.0952 12.5956 18.1218 12.6087 18.2522ZM13.7641 18.3529C13.5435 19.2349 13.2972 20.1108 13.0939 20.9965L13.2032 20.9412C13.4526 20.117 13.6806 19.285 13.93 18.4603L13.7614 18.3534L13.7641 18.3529ZM14.2042 18.6664C13.9416 19.4389 13.6617 20.2057 13.3912 20.9756L13.5262 20.9688C13.7919 20.2386 14.0608 19.513 14.3407 18.79C14.295 18.7483 14.2499 18.7071 14.2042 18.6664ZM12.0231 18.8296C12.0263 19.5422 12.0436 20.2558 12.0357 20.9683L12.2521 20.9761C12.2552 20.2099 12.2458 19.4436 12.2568 18.6773C12.1791 18.7295 12.0993 18.7733 12.0231 18.8291V18.8296ZM15.2829 18.7358C14.8438 19.4827 14.4022 20.2292 13.9773 20.985L14.1159 20.9615C14.5996 20.2313 15.046 19.4759 15.5182 18.7378H15.2829V18.7358ZM15.8606 18.7378C15.3464 19.4796 14.8465 20.2307 14.3328 20.973C14.399 20.973 14.4652 20.973 14.5319 20.9767C15.0975 20.2271 15.6747 19.4864 16.2418 18.7373C16.1142 18.7373 15.9877 18.7373 15.8606 18.7373V18.7378ZM14.8239 20.972H15.0082L17.1378 18.7138C17.0076 18.7092 16.8752 18.7092 16.7471 18.7055C16.1011 19.4573 15.46 20.2132 14.8239 20.973V20.972ZM14.6637 18.7822C14.3328 19.5125 13.9946 20.2427 13.6601 20.973H13.7987C14.1711 20.2391 14.5424 19.5046 14.9242 18.7754C14.837 18.7754 14.7504 18.7801 14.6616 18.7832L14.6637 18.7822ZM10.9686 18.8276C11.1219 19.4885 11.2564 20.1541 11.3961 20.8186C11.4181 20.889 11.416 20.9965 11.5247 20.9965C11.4265 20.2709 11.2894 19.5511 11.1771 18.8281H10.967L10.9686 18.8276ZM11.4853 18.8281C11.5625 19.5432 11.6282 20.2589 11.7064 20.974H11.8277C11.7989 20.2594 11.7322 19.5469 11.6996 18.8354L11.4853 18.8302V18.8281ZM10.4822 18.8823C10.6871 19.5771 10.9024 20.2693 11.0946 20.9688L11.2343 20.9829C11.0421 20.2834 10.853 19.5829 10.6598 18.8839H10.4822V18.8823ZM3.89655 21.3517C3.90022 22.1138 3.9018 22.8754 3.89655 23.6375C9.40144 23.6469 14.9063 23.6479 20.4112 23.6406C20.407 22.8775 20.4086 22.1138 20.4112 21.3507C14.9067 21.3507 9.40249 21.3507 3.89865 21.3507L3.89655 21.3517ZM8.11423 0.675505C8.47083 0.562834 8.8227 0.435557 9.18087 0.327581C9.36993 1.80848 9.56424 3.28833 9.7428 4.77027C9.42087 4.77027 9.09946 4.77444 8.77805 4.76505C8.55485 3.40204 8.33008 2.03956 8.11423 0.675505ZM10.0952 9.24477C10.5679 8.76957 11.259 8.54997 11.9239 8.56144C12.8855 8.55727 13.8145 9.04916 14.4016 9.79717C14.6154 10.0622 14.7929 10.3642 14.8643 10.6996C15.0056 11.3313 14.9735 11.9844 14.9489 12.6265C14.9452 12.7517 14.941 12.8873 15.0213 12.9942C15.2314 13.3025 15.5838 13.4715 15.9141 13.6285C15.775 13.8726 15.6237 14.11 15.4803 14.352C15.1983 14.2373 14.9184 14.0985 14.6978 13.8862C14.3824 13.5533 14.1803 13.1303 14.1201 12.6771C14.0382 12.6181 13.9568 12.5597 13.8759 12.5002C13.9594 12.3121 14.0171 12.1136 14.0477 11.9103C14.1469 11.8946 14.2451 11.8717 14.3444 11.8581C14.3634 11.5107 14.3249 11.1625 14.2304 10.8274L13.9621 10.9213C13.8866 10.7078 13.7739 10.5092 13.6291 10.3344L13.7867 10.1717C13.568 9.88581 13.2921 9.64799 12.9763 9.47325C12.9164 9.55149 12.8576 9.62973 12.7972 9.7085C12.6286 9.63234 12.4448 9.60939 12.2678 9.56297C12.2516 9.46997 12.2411 9.37608 12.2363 9.28181C11.886 9.27294 11.5321 9.26251 11.186 9.33397C11.196 9.44456 11.2091 9.55462 11.2222 9.6652C11.0258 9.76953 10.8247 9.86812 10.6235 9.96566C10.4476 9.72415 10.2596 9.4915 10.0915 9.24425L10.0952 9.24477ZM7.932 9.63338C8.06487 9.38353 8.20456 9.13784 8.34899 8.89476C8.66409 8.99544 8.93456 9.19731 9.19294 9.39865C9.54849 9.69859 9.6656 10.1868 9.65457 10.6333L9.90298 10.7538C9.85046 10.9547 9.81108 11.1591 9.77169 11.3636H9.49755C9.4659 11.737 9.50491 12.113 9.61256 12.4721C9.69869 12.4481 9.78499 12.4246 9.87147 12.4017C9.95873 12.5762 10.067 12.7397 10.1939 12.8883C10.112 12.9551 10.0309 13.0227 9.95077 13.0912C10.1604 13.3967 10.4513 13.6383 10.7911 13.7892L10.9617 13.5805C11.1392 13.6463 11.3183 13.7083 11.4964 13.7725C11.5058 13.8664 11.5163 13.9597 11.5279 14.0531C11.8927 14.103 12.264 14.0789 12.6192 13.9822C12.5956 13.8836 12.5782 13.7834 12.5541 13.6849C12.7594 13.5988 12.9616 13.5059 13.1669 13.4188C13.3245 13.6499 13.4821 13.8825 13.6517 14.1053C13.3066 14.3494 12.9127 14.517 12.4968 14.5968C12.0808 14.6767 11.6524 14.6668 11.2406 14.568C10.6227 14.422 10.0555 14.114 9.59838 13.676C9.01281 13.05 8.84738 12.1492 8.86943 11.3198C8.85946 10.9682 8.94033 10.5895 8.78436 10.2614C8.57954 9.96514 8.23975 9.80239 7.93147 9.63547L7.932 9.63338ZM11.3451 9.5687C11.5751 9.56071 11.8053 9.55618 12.0357 9.55514C12.0357 9.64799 12.0399 9.74084 12.0415 9.83369C12.2813 9.86921 12.5168 9.92934 12.7442 10.0131C12.8025 9.94062 12.8608 9.86759 12.9196 9.79561C13.1134 9.91347 13.2961 10.0486 13.4652 10.1993C13.3924 10.2672 13.3192 10.3348 13.2457 10.4023C13.4685 10.6016 13.6286 10.8606 13.7068 11.1482C13.8063 11.1374 13.9059 11.128 14.0057 11.12C14.0198 11.3396 14.0225 11.5597 14.0198 11.7799L13.7714 11.8054C13.7512 12.0696 13.6864 12.3284 13.5797 12.5712C13.648 12.6233 13.7163 12.6724 13.784 12.724C13.6217 12.8868 13.4689 13.0605 13.303 13.2175L13.1417 13.0568C12.9323 13.2584 12.6762 13.4058 12.396 13.4861L12.4485 13.688C12.2211 13.7626 11.9795 13.7542 11.7453 13.7224C11.7453 13.6822 11.7453 13.6024 11.749 13.5623C11.4614 13.5146 11.1857 13.4128 10.9365 13.2623C10.8956 13.3244 10.8546 13.387 10.8131 13.4491C10.6391 13.3321 10.4769 13.1986 10.3289 13.0506C10.3772 12.9854 10.4245 12.9191 10.4728 12.8539C10.2885 12.6619 10.1887 12.4157 10.0999 12.1706C10.0164 12.1184 9.8972 12.157 9.80162 12.1429C9.79952 11.9343 9.79952 11.7256 9.80162 11.517C9.88985 11.5138 9.97808 11.5123 10.0642 11.5102C10.0819 11.2667 10.1537 11.0302 10.2743 10.8175C10.2018 10.7429 10.1314 10.6662 10.0595 10.5921C10.189 10.4195 10.3344 10.2592 10.4938 10.1133C10.5794 10.1534 10.6666 10.1915 10.7532 10.2312C10.9318 10.0622 11.1592 9.96253 11.3834 9.86342C11.3656 9.76536 11.353 9.66677 11.342 9.5687H11.3451ZM11.9055 10.4007C11.8897 10.4847 11.8729 10.5687 11.8561 10.6526C11.7668 10.6031 11.6765 10.5561 11.5856 10.5102C11.6041 10.5747 11.6353 10.6349 11.6774 10.6873C11.7195 10.7396 11.7717 10.7832 11.8309 10.8154C11.8309 10.9547 11.8267 11.0939 11.8178 11.2327C11.6418 11.168 11.5027 11.0381 11.3477 10.9421C11.3509 11.2108 11.5751 11.3819 11.7899 11.5003C11.7899 11.6187 11.7899 11.7376 11.7899 11.856C11.562 11.794 11.3698 11.6552 11.1828 11.5175C11.1991 11.674 11.2128 11.8451 11.3152 11.9744C11.4202 12.121 11.5856 12.206 11.7448 12.2838C11.7484 12.3985 11.7495 12.5143 11.7479 12.6296C11.4276 12.5493 11.1944 12.3052 10.9565 12.0949C11.009 12.4079 11.1597 12.7167 11.4239 12.905C11.634 13.0495 11.917 13.1241 12.1639 13.0245C12.5688 12.8982 12.8093 12.4914 12.8734 12.0944C12.636 12.3031 12.4007 12.5446 12.0856 12.6306C12.0814 12.5148 12.0814 12.399 12.0856 12.2838C12.2432 12.205 12.4133 12.1215 12.5189 11.9708C12.6192 11.8399 12.6355 11.6698 12.6538 11.5123C12.4643 11.6505 12.2699 11.7908 12.0399 11.8539C12.0399 11.7345 12.0462 11.615 12.0494 11.4961C12.2621 11.3761 12.4837 11.2066 12.4895 10.9401C12.3319 11.0334 12.1927 11.1654 12.0168 11.2296C12.0074 11.0903 12.0032 10.9505 12.0068 10.8123C12.0663 10.78 12.1186 10.736 12.1606 10.6831C12.2025 10.6303 12.2333 10.5695 12.251 10.5045C12.1597 10.5525 12.0683 10.6 11.9779 10.6506C11.9622 10.5671 11.9475 10.4836 11.9338 10.4002H11.9071L11.9055 10.4007ZM18.9575 21.7544C18.9575 21.6803 19.0389 21.6454 19.0788 21.5927L19.218 21.7335C19.1744 21.782 19.1303 21.8295 19.0878 21.8791C19.0431 21.8384 18.9974 21.7987 18.9575 21.7544ZM16.7208 21.6412C16.7844 21.6814 16.8479 21.7236 16.9109 21.7659L17.0202 21.6162C17.0664 21.6767 17.1635 21.7168 17.1693 21.8003C17.1226 21.8522 17.0732 21.9017 17.0212 21.9484L16.9104 21.7967L16.7329 21.9302C16.6804 21.8812 16.6331 21.8316 16.5837 21.7826L16.7208 21.6412ZM18.5127 21.9062C18.5684 21.854 18.6246 21.8019 18.6823 21.7497C18.7001 22.0328 18.7019 22.3167 18.6876 22.6C18.8451 22.6787 19.0248 22.6719 19.196 22.6464C19.1399 22.5731 19.0792 22.5034 19.0143 22.4377C19.062 22.3454 19.114 22.2557 19.1666 22.1665C19.2942 22.3449 19.3677 22.59 19.2606 22.7956C19.2315 22.8651 19.1813 22.9239 19.1168 22.9634C19.0523 23.003 18.9769 23.0215 18.9013 23.0162C18.7538 23.0454 18.6913 22.8915 18.6162 22.7971C18.5111 23.0658 18.196 23.0136 17.9602 23.0152C17.7979 23.011 17.5585 23.0459 17.4981 22.8472C17.476 22.6907 17.4308 22.4821 17.5669 22.3673C17.5984 22.4628 17.5732 22.6166 17.6997 22.6495C17.9623 22.6813 18.2281 22.6636 18.4917 22.6495C18.5243 22.4033 18.5626 22.1524 18.5127 21.9062ZM17.8657 22.1195C17.8757 21.9631 18.0427 21.8958 18.1682 21.8431C18.1703 21.8838 18.1627 21.9244 18.1459 21.9616C18.1291 21.9988 18.1036 22.0315 18.0716 22.0569C18.1104 22.1091 18.2139 22.1414 18.1876 22.2239C18.1924 22.3611 18.049 22.4216 17.9366 22.444C17.9623 22.3772 17.9891 22.3115 18.0175 22.2458C17.963 22.2086 17.9121 22.1663 17.8657 22.1195ZM7.44989 21.9166C7.63527 21.9218 7.82801 21.8895 8.00867 21.9406C8.23292 22.0486 8.22767 22.3579 8.08955 22.5337C8.18933 22.7074 8.1531 22.9108 8.18723 23.1002C8.11476 23.1002 8.04281 23.1002 7.97086 23.1002C7.94355 22.9541 7.96561 22.7987 7.90942 22.6594C7.82539 22.6464 7.74031 22.6459 7.65575 22.6412C7.65575 22.7924 7.65575 22.9442 7.6526 23.096C7.58538 23.096 7.51816 23.096 7.45146 23.1002C7.44726 22.7053 7.45146 22.311 7.45146 21.9161L7.44989 21.9166ZM7.65523 22.1451C7.65523 22.24 7.65523 22.336 7.65523 22.4315C7.77812 22.4226 7.99922 22.4602 7.98399 22.2719C7.96771 22.1013 7.77077 22.1613 7.65313 22.1451H7.65523ZM8.64571 21.9427C8.71313 21.9336 8.78096 21.9278 8.84896 21.9255C8.95399 22.3084 9.04117 22.6959 9.14095 23.0804H8.93088C8.91198 23.0021 8.89412 22.9239 8.87521 22.8477H8.61263C8.59477 22.9244 8.57639 23.0016 8.56011 23.0788L8.35844 23.0877C8.44877 22.7053 8.53753 22.3219 8.64466 21.9443L8.64571 21.9427ZM8.74077 22.2703C8.71451 22.3944 8.68825 22.5191 8.66042 22.6427L8.83005 22.6365C8.80116 22.5139 8.7728 22.3918 8.74077 22.2713V22.2703ZM9.1462 21.9354C9.37781 21.9318 9.60888 21.9291 9.84049 21.9391C9.83576 22.0126 9.83103 22.0862 9.82578 22.1602C9.74648 22.1602 9.66823 22.1602 9.58788 22.1602C9.58788 22.4732 9.59785 22.7836 9.58052 23.095L9.39094 23.0825C9.39094 22.7757 9.38621 22.4696 9.39461 22.1628L9.14725 22.1581C9.14725 22.0846 9.14725 22.011 9.14725 21.938L9.1462 21.9354ZM12.7121 21.9229C12.7757 21.926 12.8392 21.9276 12.9033 21.9286C12.9033 22.0658 12.9033 22.203 12.9086 22.3402C13.0052 22.2035 13.0945 22.0616 13.1864 21.9229L13.4154 21.9281C13.3161 22.0987 13.199 22.2588 13.0955 22.4273C13.2132 22.6511 13.324 22.8785 13.4374 23.1054L13.1953 23.108C13.1081 22.9442 13.0561 22.7564 12.9217 22.6224C12.9055 22.7825 12.8995 22.9435 12.9038 23.1044C12.8392 23.1044 12.7752 23.107 12.7111 23.1101C12.7079 22.7147 12.7069 22.3198 12.7111 21.9245L12.7121 21.9229ZM15.3932 22.0809C15.4578 22.021 15.5229 21.9625 15.5901 21.9057C15.6137 22.1472 15.5901 22.3913 15.6221 22.6318C15.8222 22.709 16.0701 22.6751 16.2786 22.6229C16.1594 22.5149 16.0092 22.5321 15.8916 22.6365C15.9136 22.5008 15.9084 22.311 16.0659 22.2541C16.2574 22.2893 16.4465 22.3363 16.6321 22.395C16.6126 22.4742 16.5932 22.5514 16.5743 22.6323C16.5528 22.6443 16.5092 22.6672 16.4871 22.6787C16.6326 22.6699 16.7786 22.6667 16.9235 22.65C16.8668 22.577 16.8064 22.5076 16.7444 22.4414C16.7891 22.3537 16.8353 22.2677 16.8826 22.1806C17.0748 22.372 17.101 22.7095 16.9141 22.9108C16.7271 23.1122 16.3275 23.0256 16.3106 22.733C16.1977 22.8488 16.0927 23.0193 15.9089 23.0136C15.7561 23.0136 15.5413 23.0496 15.462 22.8806C15.3921 22.6198 15.4094 22.3459 15.3932 22.0789V22.0809ZM19.4286 22.0742C19.4932 22.0147 19.5578 21.9563 19.6256 21.9005C19.6481 22.1326 19.6161 22.3699 19.6518 22.5979C19.6665 22.6938 19.78 22.6558 19.8477 22.6672C19.9429 22.6664 20.0379 22.6603 20.1324 22.649C20.0761 22.5756 20.015 22.5059 19.9496 22.4403C19.999 22.3485 20.0515 22.2585 20.1071 22.1701C20.2925 22.408 20.3209 22.8164 20.0289 22.9828C19.8561 23.0392 19.5657 23.0679 19.488 22.8571C19.4234 22.6026 19.4549 22.3355 19.4291 22.0747L19.4286 22.0742ZM4.14653 21.9792C4.37131 21.9792 4.59608 21.9792 4.82086 21.9792L4.83504 22.2066L4.58295 22.215C4.58505 22.5189 4.58505 22.8234 4.58295 23.1284H4.38129C4.37656 22.8227 4.38129 22.517 4.37814 22.2113L4.15178 22.2171C4.15178 22.1383 4.14863 22.0606 4.14653 21.9808V21.9792ZM5.00992 21.9839C5.22629 21.9782 5.44266 21.9787 5.65904 21.9839L5.66849 22.2103C5.51619 22.2176 5.36336 22.2181 5.21106 22.216C5.21106 22.2849 5.21106 22.3537 5.21106 22.4247C5.34866 22.4247 5.48625 22.4247 5.62385 22.4247C5.62385 22.4769 5.62385 22.5874 5.62385 22.6412C5.48888 22.6412 5.35286 22.638 5.21789 22.6495C5.21159 22.7324 5.21159 22.8164 5.21054 22.9004C5.36809 22.9004 5.52564 22.9004 5.6832 22.9004C5.6832 22.9755 5.6832 23.0512 5.6832 23.1273C5.45789 23.1273 5.23312 23.1331 5.00835 23.1195C5.01255 22.7408 5.00835 22.3626 5.00835 21.9844L5.00992 21.9839ZM6.13275 22.8978C6.18789 22.5848 6.13275 22.2651 6.16321 21.95L6.36592 21.9599C6.36015 22.2776 6.39008 22.5984 6.35069 22.915C6.32128 23.1237 6.02929 23.2035 5.87804 23.0658C5.773 22.9568 5.78403 22.795 5.76775 22.6568L5.96837 22.6521C5.97257 22.7455 5.97519 22.9912 6.13065 22.8978H6.13275ZM6.81337 21.9803H7.01504C7.11745 22.3611 7.21198 22.7444 7.30126 23.1278C7.23351 23.1278 7.16577 23.1252 7.09854 23.1252C7.08016 23.0517 7.06126 22.9781 7.04235 22.9051H6.77976C6.76138 22.9787 6.743 23.0522 6.72409 23.1258H6.52453C6.62221 22.7424 6.71201 22.3569 6.81495 21.9756L6.81337 21.9803ZM6.90948 22.3282C6.88217 22.4419 6.85696 22.5572 6.83175 22.6719L6.98931 22.6787C6.97039 22.5604 6.94426 22.4434 6.91106 22.3282H6.90948ZM10.1939 21.9631C10.363 21.9631 10.5363 21.9401 10.7023 21.9829C10.8966 22.082 10.8646 22.3292 10.8 22.4993C10.9013 22.6886 10.9234 22.9891 10.6986 23.1002C10.5316 23.1273 10.3609 23.1106 10.1929 23.1106C10.1929 22.7278 10.1929 22.3454 10.1929 21.9631H10.1939ZM10.3877 22.3955C10.4811 22.4074 10.5757 22.406 10.6687 22.3913C10.6461 22.3287 10.6829 22.2254 10.6083 22.1936C10.536 22.1821 10.4626 22.18 10.3898 22.1874C10.3832 22.2567 10.3832 22.3266 10.3898 22.396L10.3877 22.3955ZM10.3898 22.6292C10.3898 22.7199 10.3898 22.8112 10.3898 22.9025C10.4791 22.8947 10.5731 22.9077 10.6577 22.8717C10.7007 22.7987 10.6823 22.7152 10.6692 22.638C10.5757 22.6344 10.4823 22.6318 10.3888 22.6292H10.3898ZM11.2558 21.9631L11.4759 21.9724C11.5562 22.3538 11.6628 22.7283 11.7484 23.108H11.5415C11.5252 23.034 11.5084 22.9594 11.4922 22.8863H11.2264C11.2075 22.9599 11.1891 23.0329 11.1713 23.107C11.1041 23.107 11.0374 23.107 10.9707 23.107C11.0636 22.7251 11.1603 22.3444 11.2558 21.9631ZM11.3656 22.3099C11.332 22.4236 11.3031 22.5384 11.2732 22.6537C11.3294 22.6568 11.3856 22.6626 11.4412 22.6704C11.415 22.5504 11.3919 22.4299 11.3656 22.3099ZM11.8298 21.9719C11.8981 21.9683 11.9664 21.9636 12.0347 21.9584C12.1397 22.1863 12.2285 22.4195 12.324 22.6511C12.3524 22.4221 12.3382 22.191 12.3435 21.9615C12.4049 21.9657 12.4669 21.9693 12.5289 21.9724C12.5247 22.348 12.5289 22.7241 12.5289 23.1002C12.4674 23.1002 12.406 23.1002 12.345 23.0971C12.2153 22.8691 12.1429 22.6146 12.0268 22.3798C12.0179 22.6208 12.0268 22.8623 12.0189 23.1033C11.9569 23.0992 11.895 23.0965 11.833 23.0955C11.833 22.721 11.833 22.3464 11.833 21.9719H11.8298ZM13.8665 22.1227C13.919 22.0731 13.9715 22.0241 14.024 21.9756C14.0718 22.0183 14.1196 22.0606 14.1679 22.1044C14.2173 22.0622 14.2672 22.0215 14.3176 21.9808C14.3554 22.0361 14.441 22.0757 14.4389 22.1498C14.3953 22.1978 14.3475 22.2416 14.3003 22.2859L14.1664 22.1404C14.118 22.1868 14.0702 22.2343 14.0225 22.2812C13.9699 22.2291 13.92 22.1769 13.8691 22.1248L13.8665 22.1227ZM14.5765 22.2854C14.826 22.4289 14.7404 22.8446 14.4862 22.9458C14.2499 23.0418 13.9752 23.0266 13.7289 22.9818C13.5015 22.8623 13.5466 22.553 13.6149 22.3501C13.7305 22.4148 13.6606 22.6067 13.8103 22.6333C14.0645 22.6892 14.3265 22.6433 14.5839 22.6365C14.5403 22.5874 14.4983 22.5379 14.4568 22.4878C14.4951 22.419 14.5324 22.3501 14.5765 22.2854ZM15.1017 22.4419C15.1799 22.4419 15.1878 22.5342 15.2167 22.589C15.295 22.8222 15.3338 23.1075 15.1878 23.3224C15.067 23.4695 14.8554 23.3949 14.7068 23.3407C14.8643 23.203 15.0324 23.0799 15.1658 22.9166C15.1012 22.842 15.0392 22.7658 14.973 22.6933C15.0145 22.6083 15.0523 22.5222 15.1017 22.4419ZM16.0691 23.337L16.2308 23.1842L16.3931 23.3469L16.2303 23.4992L16.0691 23.337ZM19.8656 23.2202L20.0231 23.3574C19.9706 23.4064 19.9181 23.4554 19.8656 23.5055C19.8251 23.4601 19.7857 23.4142 19.749 23.3673C19.7854 23.316 19.8249 23.2668 19.8671 23.2202" fill="#2E428D"/>
</g>
<defs>
<clipPath id="clip0">
<rect width="23.9961" height="24" fill="white"/>
</clipPath>
</defs>
</svg>
