<svg width="24" height="24" viewBox="0 0 24 24" fill="none" xmlns="http://www.w3.org/2000/svg">
<path fill-rule="evenodd" clip-rule="evenodd" d="M0 22H21.5463V9.01531H18.0374V18.5486H3.50722V9.01531H0V21.9932V22ZM17.9949 8.9239V5.46064L10.7731 0L3.5497 5.46064V8.92898L10.7731 3.46834L17.9949 8.92898V8.9239ZM18.034 13.0676C16.8536 13.068 15.6996 12.7196 14.718 12.0666C13.7364 11.4136 12.9713 10.4852 12.5193 9.39901C12.0674 8.31278 11.949 7.11743 12.179 5.96415C12.4091 4.81086 12.9773 3.75145 13.8119 2.91989C14.6464 2.08834 15.7097 1.52198 16.8674 1.29247C18.0251 1.06295 19.2251 1.18058 20.3156 1.63047C21.4062 2.08037 22.3383 2.84232 22.9941 3.81997C23.65 4.79761 24 5.94704 24 7.12288C23.9969 8.69827 23.3673 10.2083 22.2492 11.3224C21.1311 12.4365 19.6155 13.0641 18.034 13.0676Z" fill="#A31B06"/>
</svg>
