<svg width="24" height="24" viewBox="0 0 24 24" fill="none" xmlns="http://www.w3.org/2000/svg">
<path d="M6.95782 0.0967959C8.81419 0.0535095 10.6752 0.0848241 12.5334 0.0719303C13.7891 -0.0588497 15.0559 0.0350917 16.3163 0.00377823C16.5322 0.0249609 16.7951 -0.0560865 16.9686 0.112454C17.7067 0.76267 18.3525 1.49393 19.0676 2.16901C20.4968 3.59654 21.9481 5.00197 23.3819 6.42489C23.583 6.62843 23.8155 6.80526 23.9752 7.04563C23.993 7.19382 23.9998 7.34312 23.9955 7.49231C23.9862 10.6237 24.0093 13.755 23.9955 16.8864C23.8451 17.1627 23.583 17.3515 23.3717 17.578C21.2509 19.6963 19.1362 21.821 17.0276 23.9522C14.8825 23.9816 12.7364 23.9282 10.5931 23.9991C9.48588 23.9991 8.3787 23.9991 7.27152 23.9991C7.01779 24.0157 6.86463 23.7892 6.69486 23.6418C4.52848 21.507 2.38055 19.3509 0.199412 17.2299C0.148097 17.1889 0.10687 17.1367 0.0788831 17.0773C0.0508966 17.0179 0.0368926 16.9529 0.0379485 16.8873C0.00288782 13.8186 0.0213433 10.7489 0.000122347 7.67743C0.00658089 7.47665 -0.0174084 7.27035 0.0342599 7.07326C0.574932 6.45068 1.20049 5.90914 1.76238 5.30589C3.17588 3.8931 4.57462 2.46373 5.99181 1.05462C6.31566 0.735962 6.6109 0.386906 6.95966 0.0967959H6.95782ZM8.41191 3.75311C7.19771 4.99368 5.96136 6.21398 4.74438 7.45271C4.37532 7.83031 3.97766 8.1895 3.65105 8.60855C3.58646 8.78077 3.62244 8.97141 3.61321 9.15101C3.63536 11.2693 3.59477 13.3875 3.63536 15.5003C3.88817 15.8153 4.20094 16.0731 4.48604 16.3577C5.75653 17.6379 7.05931 18.8849 8.33718 20.1577C8.66195 20.562 9.23215 20.3714 9.67502 20.3695C11.6292 20.3539 13.5834 20.3695 15.5375 20.3447C17.1143 18.6943 18.7419 17.0927 20.3547 15.4782C20.3824 14.0451 20.3224 12.6093 20.3879 11.1781C20.3196 10.2995 20.3833 9.41717 20.3399 8.53763C18.8314 6.98301 17.2518 5.48456 15.7322 3.9327C15.6067 3.81574 15.4979 3.6297 15.3004 3.6472C13.147 3.64075 10.9926 3.6472 8.84187 3.6472C8.69609 3.65825 8.51802 3.62325 8.41561 3.75495L8.41191 3.75311ZM9.62427 6.22596C10.4131 5.36299 11.2703 4.56818 12.073 3.71443C13.7854 5.41365 15.4766 7.13405 17.1817 8.84063C18.204 9.90345 19.2789 10.9165 20.279 12.0015C19.5123 12.9492 18.5915 13.7587 17.7676 14.6548C17.6015 14.8887 17.3062 14.8123 17.0571 14.8224C15.5523 14.816 14.0484 14.8224 12.5435 14.8224C13.4348 13.8609 14.3796 12.9482 15.2921 12.0051C14.3021 10.9727 13.2752 9.97437 12.276 8.95023C11.3921 8.04306 10.4556 7.18378 9.62427 6.22872V6.22596ZM6.31196 9.30205C6.4522 9.11785 6.70317 9.18785 6.90061 9.17127C8.44513 9.186 9.98964 9.14917 11.5332 9.19061C10.6493 10.154 9.68794 11.0464 8.8105 12.018C9.07438 12.3717 9.42037 12.6508 9.71746 12.9749C11.2592 14.5084 12.7788 16.063 14.315 17.601C14.3575 17.6683 14.5097 17.7724 14.4073 17.8516C13.5889 18.6482 12.8074 19.4845 11.9807 20.2728C9.34471 17.6618 6.75022 15.0103 4.12805 12.3864C4.00626 12.2658 3.89186 12.1378 3.77837 12.0097C4.56631 11.0547 5.48158 10.2166 6.31289 9.30205" fill="#046B10"/>
</svg>
