<svg width="24" height="24" viewBox="0 0 24 24" fill="none" xmlns="http://www.w3.org/2000/svg">
<g clip-path="url(#clip0)">
<path d="M11.838 0H12.0964C12.3687 0.0219737 12.6578 0.0640899 12.8847 0.23109C13.7704 0.899577 14.6574 1.56623 15.5458 2.23106C15.0711 3.89324 14.5957 5.55445 14.1194 7.21469C13.6066 6.95833 13.0412 6.82539 12.4737 6.78657C11.6811 6.73346 10.8667 6.85981 10.1486 7.21542C9.49795 5.6255 8.8481 4.03534 8.19909 2.44494C9.1068 1.70076 10.0155 0.956953 10.9251 0.213511C11.0053 0.148322 11.1075 0.125982 11.2046 0.0999801C11.4125 0.0480319 11.6245 0.0145803 11.838 0ZM2.94347 3.96991C4.03129 3.66411 5.12161 3.36636 6.21014 3.0624C7.18688 4.47701 8.16302 5.89236 9.13857 7.30844C8.57567 7.58018 8.08838 7.99622 7.68385 8.47597C7.20193 9.05315 6.82893 9.73873 6.66447 10.4833C5.04207 10.0116 3.41954 9.54011 1.7969 9.0689C1.79523 7.87719 1.792 6.68549 1.78722 5.49378C1.79439 5.33887 1.88074 5.20336 1.94165 5.06566C2.16738 4.6196 2.48305 4.18086 2.94276 3.96991H2.94347ZM15.114 7.63548C16.0153 6.17789 16.9192 4.72214 17.8257 3.26822C18.9448 3.60539 20.0638 3.94208 21.1826 4.27827C21.2758 4.30427 21.3467 4.37459 21.4184 4.43685C21.7506 4.73239 22.0444 5.08983 22.2038 5.51392C22.2468 5.63624 22.2873 5.76333 22.2834 5.89517C22.2566 7.03047 22.2298 8.16578 22.2031 9.30108C20.5986 9.85702 18.993 10.4099 17.3864 10.9597C17.2789 10.2569 16.9812 9.59553 16.5827 9.01872C16.1954 8.46023 15.7024 7.96985 15.1137 7.63658L15.114 7.63548ZM17.6218 11.6794L22.652 11.1253C23.0918 12.2254 23.5313 13.3268 23.9706 14.4294C24.0154 14.5334 23.9978 14.6491 23.9964 14.759C23.9703 15.2548 23.8588 15.7665 23.5664 16.173C23.4776 16.303 23.3411 16.3843 23.2214 16.4806C22.4041 17.1157 21.5839 17.7474 20.7681 18.385C19.3413 17.4497 17.9167 16.5113 16.4942 15.5698C16.9242 15.09 17.2309 14.5023 17.4294 13.8852C17.6551 13.178 17.7429 12.4162 17.6229 11.679L17.6218 11.6794ZM0.137586 14.1327C0.541993 13.1481 0.94616 12.1632 1.35009 11.178C3.04248 11.2605 4.73464 11.3433 6.42656 11.4263C6.23486 12.3184 6.34988 13.26 6.65695 14.1111C6.82106 14.5677 7.05813 14.9933 7.35851 15.3706C5.99695 16.3889 4.63623 17.4078 3.27634 18.4271C2.35717 17.6988 1.43752 16.9712 0.517389 16.2444C0.426021 16.1752 0.380873 16.0646 0.328202 15.9657C0.10892 15.5218 -0.0433592 15.0234 0.0111031 14.5217C0.0240021 14.3836 0.0856313 14.2587 0.137227 14.1327H0.137586ZM7.96405 16.1506C8.34887 16.696 8.87306 17.1263 9.44564 17.4508C10.0662 17.7994 10.7603 18.0272 11.4711 18.0517C11.3189 19.7682 11.1598 21.484 11.0078 23.2005C9.86438 23.4229 8.72114 23.6451 7.57815 23.8671C7.46457 23.8898 7.3517 23.8506 7.24206 23.8246C6.84792 23.7184 6.45737 23.5506 6.14385 23.2752C6.03421 23.1745 5.9235 23.0672 5.86044 22.9284C5.38102 21.9088 4.90018 20.89 4.4179 19.8719C5.59959 18.6309 6.782 17.3901 7.96512 16.1495L7.96405 16.1506ZM14.2605 17.7536C14.9148 17.4606 15.52 17.0333 15.975 16.4663C17.2148 17.6339 18.4543 18.8018 19.6935 19.97C19.3814 20.6168 19.0608 21.2588 18.7462 21.9041C18.5197 22.3465 18.3191 22.8035 18.0804 23.239C17.7615 23.5508 17.3778 23.785 16.9579 23.9238C16.7579 23.9802 16.5451 24.0278 16.3387 23.9813C15.2609 23.7528 14.183 23.5255 13.105 23.2994C12.8573 21.5855 12.6108 19.8726 12.3655 18.1609C13.0169 18.177 13.6636 18.0177 14.2588 17.7536H14.2605Z" fill="#0A8992"/>
<path d="M11.6285 8.3782C12.5688 8.26173 13.518 8.50518 14.2932 9.06161C15.0683 9.61804 15.6145 10.4481 15.8264 11.3917C16.0383 12.3353 15.901 13.3257 15.4409 14.1719C14.9807 15.0182 14.2304 15.6604 13.3345 15.9747C12.4386 16.2891 11.4606 16.2533 10.589 15.8743C9.71736 15.4954 9.01386 14.8 8.61407 13.9223C8.21429 13.0446 8.14654 12.0467 8.42389 11.121C8.70123 10.1953 9.30404 9.40726 10.1161 8.90887C10.5782 8.62547 11.0935 8.44467 11.6285 8.3782Z" fill="#706F6E"/>
</g>
<defs>
<clipPath id="clip0">
<rect width="24.001" height="24.0001" fill="white"/>
</clipPath>
</defs>
</svg>
