<svg width="28" height="28" viewBox="0 0 28 28" fill="none" xmlns="http://www.w3.org/2000/svg">
<g clip-path="url(#clip0_1246_18526)">
<path d="M27.8035 10.8454L24.2192 7.24822C24.0839 7.11865 23.9118 7.05078 23.7396 7.05078C23.5675 7.05078 23.3892 7.11865 23.2601 7.24822L19.6757 10.8454C19.5405 10.9812 19.479 11.1539 19.479 11.3267C19.479 11.4995 19.5466 11.6784 19.6757 11.808L23.2601 15.4052C23.3953 15.5347 23.5675 15.6026 23.7396 15.6026C23.9118 15.6026 24.0901 15.5347 24.2192 15.4052L27.8035 11.808C27.9388 11.6722 28.0003 11.4995 28.0003 11.3267C28.0003 11.1539 27.9388 10.975 27.8035 10.8454Z" fill="#CF8C06"/>
<path d="M13.8163 7.19899C13.552 6.93367 13.1216 6.93367 12.8572 7.19899L9.27288 10.7962C9.00851 11.0615 8.57815 11.0615 8.31378 10.7962L4.74173 7.21133C4.47736 6.94601 4.04699 6.94601 3.78262 7.21133L0.198276 10.8085C-0.0660921 11.0738 -0.0660921 11.5057 0.198276 11.7711L8.99621 20.6005C9.26058 20.8659 9.69095 20.8659 9.95532 20.6005L11.4493 19.1012L13.5458 17.0033C13.8102 16.738 14.2406 16.738 14.5049 17.0033L18.0893 20.6005C18.3536 20.8659 18.784 20.8659 19.0484 20.6005L22.6327 17.0033C22.8971 16.738 22.8971 16.3061 22.6327 16.0408L13.8163 7.19899Z" fill="#2D2D2D"/>
</g>
<defs>
<clipPath id="clip0_1246_18526">
<rect width="28" height="28" fill="white"/>
</clipPath>
</defs>
</svg>
