<svg width="24" height="24" viewBox="0 0 24 24" fill="none" xmlns="http://www.w3.org/2000/svg">
<g id="vuesax/bulk/bill">
<g id="bill">
<path id="Vector" opacity="0.4" d="M3.66809 14.47C3.66781 11.5985 3.66809 2.5 3.66809 2.5H20.3381C20.3381 2.5 20.5926 11.8612 20.498 14.5C20.4035 17.1388 20.3381 18.4076 18.9982 19.5C17.3581 20.8371 14.7939 21 11.9982 21C9.75304 21 6.37855 20.8803 4.99817 19.5C3.9981 18.5 3.66837 17.3415 3.66809 14.47Z" fill="#359A95"/>
<g id="Group">
<path id="Vector_2" d="M22 3.25H2C1.59 3.25 1.25 2.91 1.25 2.5C1.25 2.09 1.59 1.75 2 1.75H22C22.41 1.75 22.75 2.09 22.75 2.5C22.75 2.91 22.41 3.25 22 3.25Z" fill="#03817A"/>
</g>
<g id="Group_2">
<path id="Vector_3" d="M16 8.75H8C7.59 8.75 7.25 8.41 7.25 8C7.25 7.59 7.59 7.25 8 7.25H16C16.41 7.25 16.75 7.59 16.75 8C16.75 8.41 16.41 8.75 16 8.75Z" fill="#03817A"/>
</g>
<g id="Group_3">
<path id="Vector_4" d="M16 13.75H8C7.59 13.75 7.25 13.41 7.25 13C7.25 12.59 7.59 12.25 8 12.25H16C16.41 12.25 16.75 12.59 16.75 13C16.75 13.41 16.41 13.75 16 13.75Z" fill="#03817A"/>
</g>
</g>
</g>
</svg>
