<svg width="14" height="15" viewBox="0 0 14 15" fill="none" xmlns="http://www.w3.org/2000/svg">
<path d="M13.4938 9.39737L12.9287 6.86928C12.9153 6.80826 12.8828 6.73028 12.809 6.69348C12.8026 6.69029 12.7953 6.68863 12.7883 6.68619C12.7701 6.67968 12.7505 6.67581 12.7297 6.67458C12.7204 6.67405 12.7109 6.67375 12.7011 6.67431C12.6808 6.67536 12.6593 6.67928 12.6374 6.68481C12.6277 6.68727 12.6183 6.68873 12.6084 6.692C12.576 6.70281 12.5426 6.71706 12.5083 6.73699L10.7556 7.7488L9.40996 8.52619L9.40956 8.52639C9.3792 8.54373 9.34904 8.56444 9.31939 8.58787C9.31285 8.59304 9.30662 8.59948 9.30019 8.60493C9.27716 8.62418 9.25434 8.64409 9.23223 8.66658C9.226 8.67289 9.22027 8.68005 9.21413 8.68658C9.19192 8.71044 9.1699 8.73506 9.14889 8.76188C9.14477 8.76721 9.14095 8.77289 9.13683 8.77832C9.11471 8.80765 9.0932 8.83821 9.07309 8.87048C9.06917 8.87663 9.06565 8.88297 9.06193 8.8892C9.04585 8.91597 9.03057 8.94293 9.01659 8.97018C9.01247 8.97834 9.00885 8.98666 9.00493 8.99488C8.99297 9.01969 8.98151 9.04457 8.97146 9.06955C8.96362 9.0891 8.95708 9.10891 8.95045 9.12866C8.94572 9.14268 8.94029 9.15671 8.93607 9.17068C8.92572 9.20659 8.91707 9.24261 8.91094 9.27835L8.36346 12.4488C8.35673 12.4873 8.35482 12.523 8.35361 12.558C8.35331 12.5669 8.3512 12.577 8.3512 12.5857C8.3513 12.6021 8.35482 12.6156 8.35612 12.6311C8.35853 12.657 8.35994 12.6837 8.36567 12.7065C8.36839 12.7172 8.37351 12.7252 8.37693 12.7352C8.38497 12.7582 8.39302 12.7812 8.40478 12.7996C8.41131 12.8098 8.42046 12.8165 8.4281 12.8251C8.44037 12.839 8.45223 12.8534 8.46721 12.863C8.54622 12.9131 8.65801 12.9016 8.78387 12.829L12.9932 10.3986C13.3165 10.2121 13.5644 9.71605 13.4938 9.39737Z" fill="#F3AD19"/>
<path d="M9.05263 8.61935C9.05574 8.61561 9.05916 8.61234 9.06238 8.60865C9.08681 8.58062 9.11174 8.55348 9.13788 8.52835C9.14773 8.51887 9.15808 8.51091 9.16813 8.50194C9.18874 8.48349 9.20915 8.46471 9.23066 8.44833C9.24293 8.43895 9.25559 8.43172 9.26806 8.42315C9.28786 8.40942 9.30737 8.39455 9.32777 8.38278L10.9941 7.42078L12.4257 6.59378C12.4661 6.57066 12.5065 6.55196 12.5465 6.53809L4.96403 2.13253C4.88723 2.08709 4.77403 2.10156 4.65139 2.17173L1.5537 3.95933C1.44875 4.02005 1.34601 4.11816 1.25916 4.2398L8.97341 8.72209C8.99844 8.68633 9.02478 8.652 9.05263 8.61935Z" fill="#F3AD19"/>
<path d="M8.74792 9.25038C8.74892 9.24465 8.75144 9.23877 8.75254 9.23304C8.76259 9.17976 8.77747 9.12668 8.79517 9.0739C8.79899 9.06269 8.8028 9.05173 8.80703 9.04052C8.82934 8.97968 8.85488 8.91964 8.88604 8.86194L6.69442 7.58852L1.17209 4.37982C1.11258 4.49018 1.07216 4.60355 1.05387 4.71152L0.506188 7.88218C0.471405 8.08445 0.51222 8.24127 0.615362 8.30159L8.19682 12.7076C8.1927 12.685 8.1928 12.6596 8.19109 12.6355C8.19008 12.6211 8.18777 12.6077 8.18767 12.5927C8.18677 12.5382 8.18978 12.4814 8.20024 12.4208L8.74792 9.25038Z" fill="#F3AD19"/>
<path d="M6.18211 3.64941L6.14506 3.97454C6.14443 3.98027 6.14181 3.98571 6.13734 3.99057C6.13287 3.99542 6.12665 3.99958 6.11903 4.00282C6.11141 4.00605 6.10254 4.00829 6.09294 4.00941C6.08333 4.01053 6.07318 4.01051 6.06306 4.00935L5.48845 3.94385C5.47832 3.94271 5.46842 3.94044 5.45932 3.93719C5.45021 3.93394 5.44208 3.92976 5.43538 3.92489C5.42868 3.92003 5.42356 3.91457 5.4203 3.90884C5.41703 3.90311 5.4157 3.89721 5.41637 3.89148L5.45336 3.56637C5.45399 3.56065 5.45662 3.5552 5.46109 3.55035C5.46555 3.54549 5.47178 3.54133 5.47939 3.5381C5.48701 3.53486 5.49588 3.53262 5.50548 3.5315C5.51509 3.53038 5.52524 3.5304 5.53537 3.53157L6.10998 3.59707C6.1201 3.59821 6.13 3.60047 6.13911 3.60372C6.14821 3.60697 6.15635 3.61115 6.16305 3.61602C6.16974 3.62088 6.17487 3.62634 6.17813 3.63207C6.18139 3.63781 6.18272 3.64371 6.18205 3.64943L6.18211 3.64941ZM4.644 3.90612C4.63388 3.90496 4.62373 3.90493 4.61412 3.90605C4.60452 3.90717 4.59565 3.90942 4.58803 3.91265C4.58041 3.91588 4.57419 3.92005 4.56972 3.9249C4.56526 3.92975 4.56263 3.9352 4.562 3.94093L4.52502 4.26598C4.52439 4.27171 4.52176 4.27715 4.51729 4.28201C4.51282 4.28686 4.5066 4.29102 4.49898 4.29426C4.49136 4.29749 4.4825 4.29973 4.47289 4.30085C4.46329 4.30197 4.45313 4.30195 4.44301 4.30079L3.86981 4.23551C3.85969 4.23434 3.84953 4.23432 3.83993 4.23544C3.83032 4.23656 3.82145 4.2388 3.81384 4.24204C3.80622 4.24527 3.79999 4.24944 3.79553 4.25429C3.79106 4.25914 3.78843 4.26459 3.7878 4.27032L3.75076 4.59539C3.75009 4.60111 3.75142 4.60701 3.75469 4.61275C3.75795 4.61848 3.76307 4.62394 3.76977 4.6288C3.77647 4.63367 3.7846 4.63784 3.79371 4.6411C3.80281 4.64435 3.81271 4.64661 3.82284 4.64775L5.23363 4.80852C5.24375 4.80969 5.25391 4.80971 5.26351 4.80859C5.27312 4.80747 5.28198 4.80523 5.2896 4.802C5.29722 4.79876 5.30344 4.7946 5.30791 4.78975C5.31238 4.78489 5.315 4.77944 5.31564 4.77372L5.33106 4.63831L5.3534 4.44851C5.35479 4.43698 5.36419 4.42685 5.37954 4.42034C5.39489 4.41382 5.41495 4.41144 5.43535 4.41372L6.01002 4.4792C6.02014 4.48036 6.0303 4.48039 6.0399 4.47927C6.04951 4.47815 6.05837 4.4759 6.06599 4.47267C6.07361 4.46944 6.07983 4.46527 6.0843 4.46042C6.08877 4.45557 6.09139 4.45012 6.09203 4.44439L6.12906 4.11932C6.12974 4.11359 6.1284 4.1077 6.12514 4.10196C6.12188 4.09623 6.11676 4.09077 6.11006 4.08591C6.10336 4.08104 6.09523 4.07686 6.08612 4.07361C6.07701 4.07036 6.06712 4.0681 6.05699 4.06696L4.64395 3.90608L4.644 3.90612Z" fill="white"/>
</svg>
