<svg width="18" height="18" viewBox="0 0 18 18" fill="none" xmlns="http://www.w3.org/2000/svg">
<path opacity="0.2" fill-rule="evenodd" clip-rule="evenodd" d="M9 1.875C5.0715 1.875 1.875 5.07075 1.875 9C1.875 12.9285 5.0715 16.125 9 16.125C12.9285 16.125 16.125 12.9285 16.125 9C16.125 5.07075 12.9285 1.875 9 1.875Z" fill="#03817A"/>
<path d="M9.56036 6.21826C9.56036 5.9076 9.30851 5.65576 8.99786 5.65576C8.68721 5.65576 8.43536 5.9076 8.43536 6.21826V6.26569C8.43536 6.57635 8.68721 6.82819 8.99786 6.82819C9.30851 6.82819 9.56036 6.57635 9.56036 6.26569V6.21826Z" fill="#03817A"/>
<path d="M9.56464 8.5452C9.56464 8.23455 9.31279 7.9827 9.00214 7.9827C8.69149 7.9827 8.43964 8.23455 8.43964 8.5452V11.7699C8.43964 12.0805 8.69149 12.3324 9.00214 12.3324C9.31279 12.3324 9.56464 12.0805 9.56464 11.7699V8.5452Z" fill="#03817A"/>
</svg>
