<svg width="24" height="24" viewBox="0 0 24 24" fill="none" xmlns="http://www.w3.org/2000/svg">
<g id="vuesax/bulk/menu-board">
<g id="menu-board">
<path id="Vector" opacity="0.4" d="M21.9897 6.01996C22.0097 6.25996 21.9897 6.50995 21.9297 6.75995L18.5597 20.2899C18.3197 21.2999 17.4198 21.9999 16.3798 21.9999H3.23974C1.72974 21.9999 0.659755 20.5199 1.09976 19.0699L5.30975 5.53992C5.59975 4.59992 6.46976 3.95996 7.44976 3.95996H19.7498C20.7097 3.95996 21.4898 4.52996 21.8198 5.32996C21.9198 5.53996 21.9697 5.77996 21.9897 6.01996Z" fill="#03817A"/>
<path id="Vector_2" d="M22.9889 19.62C23.0889 20.91 22.0689 22 20.7789 22H16.3789C17.4189 22 18.3189 21.3 18.5589 20.29L21.9289 6.76001C21.9889 6.51001 22.0089 6.26002 21.9889 6.02002L21.9989 6L22.9889 19.62Z" fill="#03817A"/>
<g id="Group">
<path id="Vector_3" d="M9.68172 7.13001C9.62172 7.13001 9.56173 7.11999 9.50173 7.10999C9.10173 7.00999 8.85174 6.61002 8.95174 6.20002L9.99172 1.88001C10.0917 1.48001 10.4917 1.24002 10.9017 1.33002C11.3017 1.43002 11.5517 1.83 11.4517 2.24L10.4117 6.56C10.3317 6.9 10.0217 7.13001 9.68172 7.13001Z" fill="#03817A"/>
</g>
<g id="Group_2">
<path id="Vector_4" d="M16.3795 7.14005C16.3295 7.14005 16.2694 7.14003 16.2194 7.12003C15.8194 7.03003 15.5595 6.63001 15.6395 6.23001L16.5794 1.89005C16.6694 1.48005 17.0694 1.23003 17.4694 1.31003C17.8694 1.40003 18.1294 1.80004 18.0494 2.20004L17.1094 6.54001C17.0394 6.90001 16.7295 7.14005 16.3795 7.14005Z" fill="#03817A"/>
</g>
<g id="Group_3">
<path id="Vector_5" d="M15.6992 12.75H7.69922C7.28922 12.75 6.94922 12.41 6.94922 12C6.94922 11.59 7.28922 11.25 7.69922 11.25H15.6992C16.1092 11.25 16.4492 11.59 16.4492 12C16.4492 12.41 16.1092 12.75 15.6992 12.75Z" fill="#03817A"/>
</g>
<g id="Group_4">
<path id="Vector_6" d="M14.6992 16.75H6.69922C6.28922 16.75 5.94922 16.41 5.94922 16C5.94922 15.59 6.28922 15.25 6.69922 15.25H14.6992C15.1092 15.25 15.4492 15.59 15.4492 16C15.4492 16.41 15.1092 16.75 14.6992 16.75Z" fill="#03817A"/>
</g>
</g>
</g>
</svg>
