<svg width="32" height="32" viewBox="0 0 32 32" fill="none" xmlns="http://www.w3.org/2000/svg">
<path d="M21.3327 2.66675H10.666C5.33268 2.66675 2.66602 5.33341 2.66602 10.6667V28.0001C2.66602 28.7334 3.26602 29.3334 3.99935 29.3334H21.3327C26.666 29.3334 29.3327 26.6667 29.3327 21.3334V10.6667C29.3327 5.33341 26.666 2.66675 21.3327 2.66675ZM18.666 20.3334H9.33268C8.78602 20.3334 8.33268 19.8801 8.33268 19.3334C8.33268 18.7867 8.78602 18.3334 9.33268 18.3334H18.666C19.2127 18.3334 19.666 18.7867 19.666 19.3334C19.666 19.8801 19.2127 20.3334 18.666 20.3334ZM22.666 13.6667H9.33268C8.78602 13.6667 8.33268 13.2134 8.33268 12.6667C8.33268 12.1201 8.78602 11.6667 9.33268 11.6667H22.666C23.2127 11.6667 23.666 12.1201 23.666 12.6667C23.666 13.2134 23.2127 13.6667 22.666 13.6667Z" fill="#000"/>
</svg>
