<svg width="32" height="32" viewBox="0 0 32 32" fill="none" xmlns="http://www.w3.org/2000/svg">
<g id="vuesax/bulk/profile-2user">
<g id="profile-2user">
<path id="Vector" d="M12.0013 2.66675C8.50797 2.66675 5.66797 5.50675 5.66797 9.00008C5.66797 12.4267 8.34797 15.2001 11.8413 15.3201C11.948 15.3067 12.0546 15.3067 12.1346 15.3201C12.1613 15.3201 12.1746 15.3201 12.2013 15.3201C12.2146 15.3201 12.2146 15.3201 12.228 15.3201C15.6413 15.2001 18.3213 12.4267 18.3346 9.00008C18.3346 5.50675 15.4946 2.66675 12.0013 2.66675Z" fill="#03817A"/>
<path id="Vector_2" d="M18.7733 18.8666C15.0533 16.3866 8.98661 16.3866 5.23995 18.8666C3.54661 19.9999 2.61328 21.5333 2.61328 23.1733C2.61328 24.8133 3.54661 26.3333 5.22661 27.4533C7.09328 28.7066 9.54661 29.3333 11.9999 29.3333C14.4533 29.3333 16.9066 28.7066 18.7733 27.4533C20.4533 26.3199 21.3866 24.7999 21.3866 23.1466C21.3733 21.5066 20.4533 19.9866 18.7733 18.8666Z" fill="#03817A"/>
<path id="Vector_3" opacity="0.4" d="M26.6525 9.78664C26.8658 12.3733 25.0258 14.64 22.4792 14.9466C22.4658 14.9466 22.4658 14.9466 22.4525 14.9466H22.4125C22.3325 14.9466 22.2525 14.9466 22.1858 14.9733C20.8925 15.04 19.7058 14.6266 18.8125 13.8666C20.1858 12.64 20.9725 10.8 20.8125 8.79997C20.7192 7.71997 20.3458 6.7333 19.7858 5.8933C20.2925 5.63997 20.8792 5.47997 21.4792 5.42664C24.0925 5.19997 26.4258 7.14664 26.6525 9.78664Z" fill="#03817A"/>
<path id="Vector_4" opacity="0.4" d="M29.319 22.1201C29.2123 23.4135 28.3857 24.5335 26.999 25.2935C25.6657 26.0268 23.9857 26.3735 22.319 26.3335C23.279 25.4668 23.839 24.3868 23.9457 23.2401C24.079 21.5868 23.2923 20.0001 21.719 18.7335C20.8257 18.0268 19.7857 17.4668 18.6523 17.0535C21.599 16.2001 25.3057 16.7735 27.5857 18.6135C28.8123 19.6001 29.439 20.8401 29.319 22.1201Z" fill="#03817A"/>
</g>
</g>
</svg>
