<svg width="24" height="24" viewBox="0 0 24 24" fill="none" xmlns="http://www.w3.org/2000/svg">
<g id="vuesax/bulk/share">
<g id="share">
<path id="Vector" opacity="0.4" d="M20.3611 12.7301C19.9911 12.7301 19.6811 12.4501 19.6411 12.0801C19.4011 9.88007 18.2211 7.90007 16.4011 6.64007C16.0711 6.41007 15.9911 5.96007 16.2211 5.63007C16.4511 5.30007 16.9011 5.22007 17.2311 5.45007C19.4011 6.96007 20.8011 9.32007 21.0911 11.9301C21.1311 12.3301 20.8411 12.6901 20.4411 12.7301C20.4111 12.7301 20.3911 12.7301 20.3611 12.7301Z" fill="#03817A"/>
<path id="Vector_2" opacity="0.4" d="M3.73931 12.78C3.71931 12.78 3.68931 12.78 3.66931 12.78C3.26931 12.74 2.97931 12.38 3.01931 11.98C3.28931 9.36996 4.66931 7.00996 6.81931 5.48996C7.13931 5.25996 7.59931 5.33996 7.82931 5.65996C8.05931 5.98996 7.97931 6.43996 7.65931 6.66996C5.85931 7.94996 4.68931 9.92996 4.46931 12.12C4.42931 12.5 4.10931 12.78 3.73931 12.78Z" fill="#03817A"/>
<path id="Vector_3" opacity="0.4" d="M15.9886 21.1001C14.7586 21.6901 13.4386 21.9901 12.0586 21.9901C10.6186 21.9901 9.24864 21.6701 7.96864 21.0201C7.60864 20.8501 7.46864 20.4101 7.64864 20.0501C7.81864 19.6901 8.25864 19.5501 8.61864 19.7201C9.24864 20.0401 9.91864 20.2601 10.5986 20.3901C11.5186 20.5701 12.4586 20.5801 13.3786 20.4201C14.0586 20.3001 14.7286 20.0901 15.3486 19.7901C15.7186 19.6201 16.1586 19.7601 16.3186 20.1301C16.4986 20.4901 16.3586 20.9301 15.9886 21.1001Z" fill="#03817A"/>
<path id="Vector_4" d="M12.0505 2.01001C10.5005 2.01001 9.23047 3.27001 9.23047 4.83001C9.23047 6.39001 10.4905 7.65001 12.0505 7.65001C13.6105 7.65001 14.8705 6.39001 14.8705 4.83001C14.8705 3.27001 13.6105 2.01001 12.0505 2.01001Z" fill="#03817A"/>
<path id="Vector_5" d="M5.05047 13.8701C3.50047 13.8701 2.23047 15.1301 2.23047 16.6901C2.23047 18.2501 3.49047 19.5101 5.05047 19.5101C6.61047 19.5101 7.87047 18.2501 7.87047 16.6901C7.87047 15.1301 6.60047 13.8701 5.05047 13.8701Z" fill="#03817A"/>
<path id="Vector_6" d="M18.9489 13.8701C17.3989 13.8701 16.1289 15.1301 16.1289 16.6901C16.1289 18.2501 17.3889 19.5101 18.9489 19.5101C20.5089 19.5101 21.7689 18.2501 21.7689 16.6901C21.7689 15.1301 20.5089 13.8701 18.9489 13.8701Z" fill="#03817A"/>
</g>
</g>
</svg>
