<svg width="24" height="24" viewBox="0 0 24 24" fill="none" xmlns="http://www.w3.org/2000/svg">
<path d="M5.73937 16C5.84937 15.51 5.64937 14.81 5.29937 14.46L2.86937 12.03C2.10937 11.27 1.80937 10.46 2.02937 9.76C2.25937 9.06 2.96937 8.58 4.02937 8.4L7.14937 7.88C7.59937 7.8 8.14937 7.4 8.35937 6.99L10.0794 3.54C10.5794 2.55 11.2594 2 11.9994 2C12.7394 2 13.4194 2.55 13.9194 3.54L15.6394 6.99C15.7694 7.25 16.0394 7.5 16.3294 7.67L5.55937 18.44C5.41937 18.58 5.17937 18.45 5.21937 18.25L5.73937 16Z" fill="#2D333A"/>
<path d="M18.4634 19.1217L18.4637 19.123C18.742 20.3224 18.5107 20.9808 18.1478 21.2448C17.9944 21.3551 17.8003 21.42 17.5408 21.42C17.1502 21.42 16.6389 21.2722 16.0256 20.9098C16.0254 20.9097 16.0253 20.9096 16.0251 20.9096L13.0961 19.1701L13.0939 19.1688C12.7683 18.9777 12.37 18.8975 12.0008 18.8975C11.6316 18.8975 11.2333 18.9777 10.9077 19.1688L10.9055 19.1701L7.97812 20.9086C7.97771 20.9088 7.9773 20.909 7.97689 20.9093C6.91018 21.5336 6.21318 21.5096 5.85798 21.2479C5.78364 21.193 5.71755 21.1276 5.66013 21.0478L17.5643 9.14357C17.9121 8.79583 18.3992 8.64127 18.8648 8.72258L18.8678 8.72308L19.8771 8.89296C19.8772 8.89299 19.8774 8.89301 19.8775 8.89304C20.848 9.05793 21.3365 9.46677 21.4847 9.91298C21.6231 10.3584 21.4626 10.9811 20.7672 11.6765L20.7665 11.6772L18.3472 14.1065C18.3471 14.1066 18.347 14.1067 18.3469 14.1067C18.0932 14.3606 17.9174 14.7046 17.8202 15.0433C17.7234 15.3804 17.6894 15.7651 17.7742 16.115L18.4634 19.1217Z" fill="#2D333A" stroke="#2D333A"/>
</svg>
