<svg width="24" height="24" viewBox="0 0 24 24" fill="none" xmlns="http://www.w3.org/2000/svg">
<path d="M21 22.25H3C2.86614 22.25 2.75 22.1339 2.75 22C2.75 21.8661 2.86614 21.75 3 21.75H21C21.1339 21.75 21.25 21.8661 21.25 22C21.25 22.1339 21.1339 22.25 21 22.25Z" fill="#03817A" stroke="#03817A"/>
<path d="M5.6 8.38H4C3.45 8.38 3 8.83 3 9.38V18C3 18.55 3.45 19 4 19H5.6C6.15 19 6.6 18.55 6.6 18V9.38C6.6 8.82 6.15 8.38 5.6 8.38Z" fill="#68B3AF"/>
<path d="M12.7992 5.18994H11.1992C10.6492 5.18994 10.1992 5.63994 10.1992 6.18994V17.9999C10.1992 18.5499 10.6492 18.9999 11.1992 18.9999H12.7992C13.3492 18.9999 13.7992 18.5499 13.7992 17.9999V6.18994C13.7992 5.63994 13.3492 5.18994 12.7992 5.18994Z" fill="#359A95"/>
<path d="M20.0004 2H18.4004C17.8504 2 17.4004 2.45 17.4004 3V18C17.4004 18.55 17.8504 19 18.4004 19H20.0004C20.5504 19 21.0004 18.55 21.0004 18V3C21.0004 2.45 20.5504 2 20.0004 2Z" fill="#03817A"/>
</svg>
