<svg width="32" height="32" viewBox="0 0 32 32" fill="none" xmlns="http://www.w3.org/2000/svg">
<g id="data-2">
<g id="vuesax/bold/data-2">
<g id="data-2_2">
<path id="Vector" d="M27.732 9.33333H22.932C22.052 9.33333 21.332 8.61333 21.332 7.73333V5.6C21.332 4.72 22.052 4 22.932 4H27.732C28.612 4 29.332 4.72 29.332 5.6V7.73333C29.332 8.61333 28.612 9.33333 27.732 9.33333Z" fill="#03817A"/>
<path id="Vector_2" d="M27.732 19.3333H22.932C22.052 19.3333 21.332 18.6133 21.332 17.7333V15.6C21.332 14.72 22.052 14 22.932 14H27.732C28.612 14 29.332 14.72 29.332 15.6V17.7333C29.332 18.6133 28.612 19.3333 27.732 19.3333Z" fill="#03817A"/>
<path id="Vector_3" opacity="0.96" d="M21.3333 17.6666C21.88 17.6666 22.3333 17.2133 22.3333 16.6666C22.3333 16.12 21.88 15.6666 21.3333 15.6666H17.6667V7.66663H21.3333C21.88 7.66663 22.3333 7.21329 22.3333 6.66663C22.3333 6.11996 21.88 5.66663 21.3333 5.66663H12C11.4533 5.66663 11 6.11996 11 6.66663C11 7.21329 11.4533 7.66663 12 7.66663H15.6667V24C15.6667 26.0266 17.3067 27.6666 19.3333 27.6666H21.3333C21.88 27.6666 22.3333 27.2133 22.3333 26.6666C22.3333 26.12 21.88 25.6666 21.3333 25.6666H19.3333C18.4133 25.6666 17.6667 24.92 17.6667 24V17.6666H21.3333Z" fill="#03817A"/>
<path id="Vector_4" d="M27.732 29.3333H22.932C22.052 29.3333 21.332 28.6133 21.332 27.7333V25.6C21.332 24.72 22.052 24 22.932 24H27.732C28.612 24 29.332 24.72 29.332 25.6V27.7333C29.332 28.6133 28.612 29.3333 27.732 29.3333Z" fill="#03817A"/>
<path id="Vector_5" d="M10.287 11.4998H5.71559C4.32521 11.4998 3.16797 10.3335 3.16797 8.88873V5.77761C3.16797 4.33288 4.32521 3.1665 5.71559 3.1665H10.287C11.6774 3.1665 12.8346 4.33288 12.8346 5.77761V8.88873C12.8346 10.3335 11.6774 11.4998 10.287 11.4998Z" fill="#68B3AF" stroke="#68B3AF"/>
</g>
</g>
</g>
</svg>
