<svg width="24" height="24" viewBox="0 0 24 24" fill="none" xmlns="http://www.w3.org/2000/svg">
<path d="M17.9999 14.5024C18.123 14.5024 18.3956 14.6053 18.6717 15.1615C18.6718 15.1617 18.6719 15.1619 18.672 15.1621L18.9913 15.8108L18.9913 15.8108L18.9927 15.8135C19.1169 16.0619 19.3201 16.2735 19.5294 16.4289C19.7384 16.5841 19.9968 16.7154 20.263 16.7623L20.263 16.7624L20.2696 16.7634L20.6971 16.833C20.6975 16.8331 20.6979 16.8332 20.6983 16.8332C21.2629 16.9283 21.4421 17.1517 21.4834 17.2815C21.5253 17.4132 21.5065 17.7016 21.1053 18.1074C21.105 18.1077 21.1048 18.108 21.1045 18.1083L20.7064 18.5064C20.4946 18.7181 20.3569 19.0001 20.2819 19.2697C20.2066 19.5405 20.1808 19.8481 20.2405 20.1325C20.2406 20.1327 20.2406 20.1328 20.2406 20.1329L20.2904 20.3719L20.2903 20.3719L20.2924 20.381C20.4627 21.1286 20.2872 21.3925 20.2082 21.4503C20.1324 21.5059 19.8361 21.5938 19.1912 21.2036L18.9036 21.0251L18.9036 21.0251L18.8972 21.0212C18.6255 20.8582 18.2981 20.7924 17.9999 20.7924C17.7018 20.7924 17.3743 20.8582 17.1027 21.0212L17.1026 21.0211L17.0962 21.0251L16.8093 21.2032C16.1578 21.5943 15.8627 21.5053 15.7885 21.4508C15.7111 21.3939 15.5366 21.1308 15.7074 20.381L15.7075 20.381L15.7094 20.3719L15.7591 20.1335C15.8195 19.8517 15.7926 19.5436 15.7181 19.2742C15.6437 19.0051 15.5066 18.7195 15.2935 18.5064L14.8954 18.1084C14.4928 17.6962 14.4748 17.408 14.5162 17.2782C14.5569 17.1508 14.7348 16.9287 15.3016 16.8332L15.7302 16.7634L15.7303 16.7635L15.7344 16.7628C16.0063 16.7161 16.266 16.5846 16.4757 16.4278C16.6856 16.2708 16.8843 16.0592 17.0071 15.8135L17.0071 15.8136L17.0085 15.8108L17.3278 15.1621C17.3279 15.1619 17.3281 15.1617 17.3282 15.1615C17.6042 14.6053 17.8768 14.5024 17.9999 14.5024Z" fill="#03817A" stroke="#03817A"/>
<path d="M16.19 2H7.81C4.17 2 2 4.17 2 7.81V16.19C2 19.83 4.17 22 7.81 22H13.09C13.44 22 13.69 21.64 13.65 21.29C13.61 20.91 13.63 20.46 13.75 19.94C13.77 19.87 13.75 19.79 13.69 19.73L13.47 19.51C12.62 18.65 12.31 17.61 12.61 16.66C12.92 15.72 13.78 15.06 14.97 14.86L15.27 14.81L15.54 14.27C16.09 13.15 16.99 12.5 18 12.5C19.01 12.5 19.91 13.15 20.46 14.27L20.61 14.58C20.68 14.73 20.82 14.83 20.98 14.86C21.07 14.88 21.16 14.9 21.25 14.92C21.6 15.01 22 14.73 22 14.36V7.81C22 4.17 19.83 2 16.19 2ZM16.26 8.96L13.95 11.94C13.66 12.31 13.25 12.55 12.78 12.6C12.32 12.66 11.85 12.53 11.49 12.24L9.66 10.82C9.59 10.76 9.51 10.76 9.47 10.77C9.43 10.77 9.36 10.79 9.3 10.87L6.92 13.96C6.77 14.15 6.55 14.25 6.32 14.25C6.16 14.25 6 14.2 5.86 14.09C5.53 13.84 5.47 13.37 5.72 13.04L8.1 9.95C8.39 9.58 8.8 9.34 9.27 9.28C9.74 9.22 10.2 9.35 10.57 9.64L12.4 11.08C12.47 11.14 12.54 11.13 12.59 11.13C12.63 11.13 12.7 11.11 12.76 11.03L15.07 8.05C15.32 7.72 15.79 7.66 16.12 7.92C16.46 8.17 16.51 8.64 16.26 8.96Z" fill="#68B3AF"/>
</svg>
