<svg width="24" height="24" viewBox="0 0 24 24" fill="none" xmlns="http://www.w3.org/2000/svg">
<path d="M21.6702 6.95003C21.0302 4.78003 19.2202 2.97003 17.0502 2.33003C15.4002 1.85003 14.2602 1.89003 13.4702 2.48003C12.5202 3.19003 12.4102 4.47003 12.4102 5.38003V7.87003C12.4102 10.33 13.5302 11.58 15.7302 11.58H18.6002C19.5002 11.58 20.7902 11.47 21.5002 10.52C22.1102 9.74003 22.1602 8.60003 21.6702 6.95003Z" fill="#68B3AF"/>
<path d="M18.5316 13.6875L18.5315 13.6875L18.5371 13.6938C18.6988 13.8741 18.7752 14.1186 18.7435 14.3664L18.7434 14.3667C18.4612 16.5777 17.2459 18.6152 15.4154 19.9456L15.4142 19.9465C14.0107 20.9732 12.3644 21.5 10.6594 21.5C10.1399 21.5 9.6229 21.4528 9.10747 21.3497L9.10748 21.3497L9.10198 21.3487C5.85405 20.7367 3.26246 18.1447 2.65072 14.9072L2.65071 14.9071C2.22584 12.6601 2.71637 10.4207 4.0536 8.58436L4.05387 8.58399C5.38423 6.75356 7.42174 5.53826 9.63273 5.25601L9.63464 5.25576C9.87217 5.2245 10.1259 5.30115 10.3056 5.46231L10.3056 5.46237L10.3119 5.46787C10.5011 5.63182 10.6094 5.87338 10.6094 6.12003V9.70003C10.6094 11.7362 12.2633 13.39 14.2994 13.39H17.8794C18.1261 13.39 18.3676 13.4983 18.5316 13.6875Z" fill="#03817A" stroke="#03817A"/>
</svg>
