<svg width="60" height="56" viewBox="0 0 60 56" fill="none" xmlns="http://www.w3.org/2000/svg">
<path d="M11.8338 35.0069C12.7609 38.3936 14.4466 41.48 16.7412 43.9919C20.1147 47.8503 24.6328 50.3044 29.5072 50.9261C34.9407 51.6423 40.4207 50.0708 44.8136 46.5366C49.2065 43.0023 52.1762 37.7758 53.1084 31.9382C54.0902 26.085 52.9194 20.0483 49.8459 15.1164C46.7724 10.1845 42.0397 6.74803 36.6577 5.54029C28.6416 3.69609 21.7481 6.22928 16.1462 12.7607C15.2417 13.8156 14.5887 15.0682 13.7368 16.154C13.454 16.506 13.0846 16.7638 12.6717 16.8975C12.2587 17.0311 11.8192 17.035 11.4043 16.9088C10.9894 16.7826 10.6162 16.5314 10.328 16.1845C10.0399 15.8376 9.84872 15.4093 9.77676 14.9494C9.72695 14.6381 9.7348 14.3192 9.79986 14.0112C9.86492 13.7032 9.98588 13.4123 10.1557 13.1554C13.1115 8.01443 17.5397 4.06087 22.765 1.89762C27.9264 -0.271708 33.595 -0.590184 38.9361 0.989076C44.2773 2.56834 49.0089 5.96188 52.4343 10.6701C54.974 14.0947 56.6971 18.1423 57.4521 22.4568C58.1808 26.1882 58.1826 30.0431 57.4574 33.7754C56.7321 37.5076 55.2957 41.0352 53.2399 44.1328C49.2954 50.1963 43.2874 54.3162 36.5369 55.5865C29.7865 56.8568 22.8462 55.1736 17.2421 50.9069C12.3719 47.2624 8.82863 41.8936 7.22287 35.7254C7.15472 35.4805 7.07497 35.2378 7 34.9951L11.8338 35.0069Z" fill="#20D688"/>
<path d="M4.75679 35.3354C3.65535 35.3457 2.55324 35.3737 1.45319 35.3597C0.777403 35.3509 0.601198 35.0551 0.930108 34.445C2.97128 30.6401 5.02328 26.842 7.0861 23.0508C7.41018 22.4555 7.76189 22.4769 8.10531 23.0921C8.64014 24.0511 9.14179 25.0344 9.65243 26.0067C8.93173 27.3751 8.19445 28.7361 7.49448 30.1126C6.60311 31.8793 5.53276 33.5207 4.75679 35.3354Z" fill="#20D688"/>
<path d="M4.7572 35.3294C5.53318 33.5066 6.60559 31.8705 7.49834 30.1059C8.19969 28.722 8.93559 27.3684 9.65629 26C11.0431 28.2484 12.195 30.6371 13.483 32.9438C13.7594 33.4351 14.0358 33.9264 14.2804 34.4346C14.583 35.0661 14.4421 35.353 13.7684 35.3634C12.508 35.384 11.2463 35.3634 9.98382 35.3516H5.07022L4.7572 35.3294Z" fill="#79F3AA"/>
<path d="M41.9089 13.8864H26.2152C24.7262 13.8864 24.0428 13.2727 23.7463 11.683L37.6607 11.6469C38.3849 11.6469 39.1118 11.6328 39.8332 11.6469C40.3825 11.6638 40.9046 11.9059 41.2911 12.323C41.6776 12.74 41.8988 13.2999 41.9089 13.8864Z" fill="#5595FA"/>
<path d="M34.8786 27.5469C34.8331 27.8539 34.8845 28.1683 35.0248 28.4408C35.165 28.7132 35.386 28.9281 35.6532 29.0517C36.8668 29.802 37.8611 30.8978 38.5248 32.2167C39.1885 33.5355 39.4955 35.0255 39.4115 36.52C39.3838 37.6664 39.4115 38.8135 39.4115 39.962H38.2983C37.0828 38.4763 35.622 37.2416 33.9886 36.3194C33.2639 35.8767 32.4397 35.6537 31.605 35.6744C30.7702 35.6951 29.9566 35.9586 29.2519 36.4367C28.4276 36.953 27.6412 37.5543 26.8397 38.1178C26.8173 37.2098 26.8624 36.3014 26.9744 35.401C27.0566 34.1063 27.4405 32.8541 28.0911 31.758C28.7418 30.662 29.6386 29.7568 30.7002 29.1248C30.7113 29.6972 30.7085 30.2697 30.7341 30.8421C30.7596 31.4145 30.9994 31.8276 31.5439 31.8173C32.0884 31.807 32.3185 31.385 32.3102 30.8155C32.3102 30.3574 32.3185 29.8986 32.3102 29.4405C32.2895 29.3008 32.312 29.1576 32.3743 29.0327C32.4367 28.9079 32.5355 28.8081 32.6557 28.7486C33.4075 28.3598 34.1399 27.9482 34.8786 27.5469Z" fill="#E9EAEF"/>
<path d="M39.4046 16.2741V20.5616C39.4046 20.8625 39.5131 21.1997 39.243 21.4468L27.1507 21.4689L27.0014 21.3995C26.8432 19.6629 26.7917 17.917 26.8474 16.1731C30.9514 16.1593 35.0512 16.1485 39.1469 16.1406C39.2243 16.1406 39.3134 16.2269 39.4046 16.2741Z" fill="#E9EAEF"/>
<path d="M27.137 21.4362L39.2292 21.4141C39.0561 22.5544 38.6547 23.6414 38.0522 24.6011C37.4498 25.5607 36.6606 26.3703 35.7384 26.9747C35.4516 27.179 35.16 27.3775 34.8719 27.5781C34.1332 27.9794 33.4007 28.3896 32.6538 28.7768C32.5329 28.8355 32.4335 28.9351 32.371 29.0602C32.3086 29.1853 32.2865 29.3289 32.3083 29.4688C32.3193 29.9269 32.3083 30.3857 32.3083 30.8438C32.3166 31.4126 32.0844 31.8345 31.542 31.8449C30.9996 31.8552 30.7529 31.4177 30.7322 30.8696C30.7114 30.3216 30.7094 29.7248 30.6983 29.1523C30.7128 29.0933 30.7259 29.035 30.7405 28.9797C31.7417 28.4176 31.8115 27.7994 30.8786 27.2019C30.0966 26.6992 29.3949 26.0661 28.8002 25.3267C27.8332 24.28 27.244 22.9019 27.137 21.4362Z" fill="#36E198"/>
<path d="M41.6791 41.3125C41.826 41.6148 41.904 41.9498 41.9068 42.2904C41.9095 42.6309 41.8369 42.9674 41.6948 43.2723C41.5527 43.5772 41.3451 43.842 41.089 44.0451C40.8329 44.2482 40.5356 44.3838 40.2211 44.441C39.9342 44.5094 39.6416 44.547 39.3477 44.5531C34.3795 44.56 29.4145 44.56 24.4528 44.5531C24.2138 44.5978 23.9677 44.5585 23.7514 44.441C23.5898 42.2811 24.913 41.4505 26.5057 41.4763C31.2576 41.55 36.0102 41.5058 40.7621 41.4969C41.0786 41.4991 41.4276 41.6356 41.6791 41.3125Z" fill="#5998FA"/>
<path d="M39.4056 16.2947C39.3151 16.2482 39.2259 16.1612 39.1347 16.1612C35.0307 16.1612 30.9308 16.1722 26.8351 16.1944C25.8037 16.1226 24.7689 16.1226 23.7374 16.1944C23.3102 16.192 22.8862 16.1155 22.4819 15.9679C22.041 15.7519 21.6829 15.3809 21.4676 14.9168C21.2522 14.4527 21.1927 13.9238 21.299 13.4185C21.5754 12.2824 22.4591 11.6576 23.7451 11.6886C24.0415 13.2783 24.7173 13.8921 26.214 13.8921H41.9076C41.7183 15.4087 41.0584 16.0453 39.4056 16.2947Z" fill="#2576EC"/>
<path d="M41.6832 41.3055C41.4303 41.6286 41.082 41.4921 40.7773 41.4943C36.024 41.5032 31.2707 41.5481 26.5208 41.4736C24.9219 41.4478 23.5966 42.2777 23.7666 44.4384C23.4675 44.4907 23.1615 44.476 22.8681 44.3952C22.5746 44.3145 22.3001 44.1695 22.062 43.9694C21.8238 43.7693 21.6272 43.5186 21.4847 43.2331C21.3422 42.9476 21.2568 42.6335 21.2341 42.3109C21.165 40.9875 22.1593 40.0625 23.7631 39.9297H39.4181C40.3744 39.9998 41.2623 40.2129 41.6832 41.3055Z" fill="#2678EB"/>
<path d="M25.2596 39.9622H23.7719C23.8576 38.1689 23.595 36.3631 23.9336 34.5771C24.1379 33.4528 24.5605 32.3867 25.1744 31.4475C25.7883 30.5083 26.5797 29.7169 27.4977 29.1242C27.7656 28.9967 27.9989 28.7988 28.1757 28.5489C28.3525 28.299 28.467 28.0053 28.5086 27.6953C29.2924 28.0427 30.0478 28.4592 30.7668 28.9405C30.7522 28.9995 30.7391 29.0578 30.7246 29.1131C29.6611 29.7426 28.7626 30.6472 28.1116 31.7438C27.4607 32.8403 27.078 34.0938 26.9988 35.3893C26.8868 36.2897 26.8418 37.1982 26.8641 38.1062C26.8637 38.1533 26.8593 38.2002 26.8509 38.2464C26.2399 38.7262 25.7029 39.3051 25.2596 39.9622Z" fill="#D1D2D6"/>
<path d="M30.7684 28.9879C30.0509 28.5073 29.2972 28.0913 28.515 27.7441H28.5005L28.3091 27.6025C27.1834 26.9866 26.1972 26.1157 25.4193 25.0508C24.6414 23.9859 24.0906 22.7526 23.8053 21.437L27.0163 21.375L27.1655 21.4444C27.2743 22.9106 27.8655 24.2884 28.8343 25.3341C29.4273 26.0731 30.1271 26.7061 30.9072 27.2093C31.8325 27.8061 31.7627 28.4258 30.7684 28.9879Z" fill="#20D688"/>
<path d="M27.015 21.3985L23.804 21.4605C23.7911 19.694 23.7775 17.9282 23.7632 16.1632C24.7947 16.0914 25.8294 16.0914 26.8609 16.1632C26.8049 17.91 26.8564 19.6589 27.015 21.3985Z" fill="#CCD0D9"/>
<path d="M26.8257 38.2406C26.8341 38.1944 26.8385 38.1474 26.8388 38.1004C27.6411 37.5368 28.4281 36.9415 29.2511 36.4192C29.9559 35.9416 30.7695 35.6782 31.6041 35.6576C32.4388 35.6369 33.2629 35.8597 33.9878 36.3019C35.6222 37.2238 37.0839 38.4586 38.3002 39.9446H26.9846C26.9155 39.3832 27.1511 38.785 26.8257 38.2406Z" fill="#36E198"/>
<path d="M26.8489 38.2422C27.173 38.7822 26.9367 39.3819 27.0106 39.9477H25.2693C25.7099 39.2953 26.2428 38.7199 26.8489 38.2422Z" fill="#20D688"/>
</svg>
