<svg width="24" height="24" viewBox="0 0 24 24" fill="none" xmlns="http://www.w3.org/2000/svg">
<g id="wallex-logo-sq">
<path id="Vector" d="M22.179 10.9603L19.5365 13.6028C19.4901 13.6495 19.4349 13.6865 19.3741 13.7117C19.3133 13.737 19.2481 13.75 19.1823 13.75C19.1164 13.75 19.0513 13.737 18.9905 13.7117C18.9297 13.6865 18.8745 13.6495 18.828 13.6028L16.186 10.9603C16.1394 10.9139 16.1024 10.8587 16.0771 10.7979C16.0519 10.7371 16.0389 10.6719 16.0389 10.6061C16.0389 10.5403 16.0519 10.4751 16.0771 10.4143C16.1024 10.3535 16.1394 10.2983 16.186 10.2518L18.828 7.60933C18.8745 7.56269 18.9297 7.52569 18.9905 7.50044C19.0513 7.47519 19.1164 7.46219 19.1823 7.46219C19.2481 7.46219 19.3133 7.47519 19.3741 7.50044C19.4349 7.52569 19.4901 7.56269 19.5365 7.60933L22.1785 10.2518C22.2252 10.2983 22.2622 10.3535 22.2874 10.4143C22.3127 10.4751 22.3257 10.5403 22.3257 10.6061C22.3257 10.6719 22.3127 10.7371 22.2874 10.7979C22.2622 10.8587 22.2252 10.9139 22.1785 10.9603H22.179ZM11.864 7.57683C11.8176 7.53019 11.7624 7.49319 11.7016 7.46794C11.6408 7.44269 11.5756 7.42969 11.5098 7.42969C11.4439 7.42969 11.3788 7.44269 11.318 7.46794C11.2572 7.49319 11.202 7.53019 11.1555 7.57683L8.51402 10.2188C8.46757 10.2655 8.41236 10.3025 8.35157 10.3277C8.29078 10.353 8.2256 10.366 8.15977 10.366C8.09394 10.366 8.02876 10.353 7.96797 10.3277C7.90718 10.3025 7.85197 10.2655 7.80552 10.2188L5.16952 7.58333C5.12306 7.53669 5.06786 7.49969 5.00707 7.47444C4.94628 7.44919 4.8811 7.43619 4.81527 7.43619C4.74944 7.43619 4.68426 7.44919 4.62347 7.47444C4.56268 7.49969 4.50747 7.53669 4.46102 7.58333L1.81902 10.2253C1.77238 10.2718 1.73537 10.327 1.71012 10.3878C1.68487 10.4486 1.67188 10.5138 1.67188 10.5796C1.67188 10.6454 1.68487 10.7106 1.71012 10.7714C1.73537 10.8322 1.77238 10.8874 1.81902 10.9338L8.30602 17.4213C8.35247 17.468 8.40768 17.505 8.46847 17.5302C8.52926 17.5555 8.59444 17.5685 8.66027 17.5685C8.7261 17.5685 8.79128 17.5555 8.85207 17.5302C8.91286 17.505 8.96806 17.468 9.01452 17.4213L10.115 16.3208L11.6615 14.7808C11.7556 14.6874 11.8829 14.635 12.0155 14.635C12.1481 14.635 12.2754 14.6874 12.3695 14.7808L15.012 17.4233C15.0585 17.47 15.1137 17.507 15.1745 17.5322C15.2353 17.5575 15.3004 17.5705 15.3663 17.5705C15.4321 17.5705 15.4973 17.5575 15.5581 17.5322C15.6189 17.507 15.6741 17.47 15.7205 17.4233L18.3625 14.7813C18.4092 14.7349 18.4462 14.6797 18.4714 14.6189C18.4967 14.5581 18.5097 14.4929 18.5097 14.4271C18.5097 14.3613 18.4967 14.2961 18.4714 14.2353C18.4462 14.1745 18.4092 14.1193 18.3625 14.0728L11.864 7.57633V7.57683Z" fill="url(#paint0_linear_5507_26775)"/>
</g>
<defs>
<linearGradient id="paint0_linear_5507_26775" x1="22.3255" y1="12.4998" x2="1.67302" y2="12.4998" gradientUnits="userSpaceOnUse">
<stop offset="0.078" stop-color="#109AFA"/>
<stop offset="0.369" stop-color="#0A67B4"/>
<stop offset="0.659" stop-color="#043973"/>
<stop offset="0.796" stop-color="#02275A"/>
</linearGradient>
</defs>
</svg>
