<svg width="180" height="180" viewBox="0 0 180 180" fill="none" xmlns="http://www.w3.org/2000/svg">
<ellipse opacity="0.1" cx="90" cy="174.6" rx="90" ry="5.4" fill="#03817A"/>
<path fill-rule="evenodd" clip-rule="evenodd" d="M118.649 33.2248C118.825 30.6116 121.085 28.6353 123.698 28.8106C126.312 28.986 128.288 31.2465 128.113 33.8597L127.459 43.5935C127.284 46.2067 125.024 48.183 122.41 48.0077C119.797 47.8323 117.821 45.5718 117.996 42.9586L118.649 33.2248ZM123.457 32.4025C122.828 32.3603 122.284 32.8363 122.241 33.4658L121.588 43.1996C121.546 43.829 122.022 44.3735 122.651 44.4157C123.281 44.458 123.825 43.9819 123.868 43.3525L124.521 33.6187C124.563 32.9893 124.087 32.4448 123.457 32.4025ZM127.639 53.4203C127.814 50.8071 130.075 48.8308 132.688 49.0061L142.422 49.6592C145.035 49.8346 147.011 52.0951 146.836 54.7083C146.66 57.3215 144.4 59.2978 141.787 59.1225L132.053 58.4694C129.44 58.294 127.463 56.0335 127.639 53.4203ZM132.447 52.5981C131.817 52.5558 131.273 53.0319 131.231 53.6613C131.188 54.2907 131.665 54.8352 132.294 54.8775L142.028 55.5306C142.657 55.5728 143.202 55.0968 143.244 54.4673C143.286 53.8379 142.81 53.2934 142.181 53.2512L132.447 52.5981ZM134.077 83.4899L120.165 56.486L120.067 56.5364C118.762 53.345 116.161 50.7125 112.697 49.457L94.0725 42.7067C90.735 41.497 87.042 41.7514 83.9019 43.4073L30.1238 71.7656C23.9684 75.0115 21.6098 82.6327 24.8556 88.7882L38.5301 114.72C41.7544 120.835 49.2962 123.203 55.4298 120.052C52.9622 126.027 55.4338 133.001 61.2794 136.033L87.5089 149.641C93.591 152.796 101.08 150.513 104.367 144.501L114.246 126.431C118.807 130.991 125.106 133.811 132.064 133.811C145.982 133.811 157.264 122.528 157.264 108.611C157.264 95.3705 147.053 84.5152 134.077 83.4899ZM130.028 83.4918L120.475 64.9489L115.654 83.6329C114.767 87.0703 112.471 89.974 109.331 91.6299L60.4685 117.396L60.737 117.535L59.0929 120.704C56.8039 125.116 58.5251 130.549 62.9373 132.838L89.1667 146.445C93.511 148.699 98.8601 147.068 101.208 142.774L111.74 123.511C108.675 119.338 106.864 114.186 106.864 108.611C106.864 95.3787 117.063 84.5286 130.028 83.4918ZM111.47 52.8415C115.832 54.4224 118.277 59.0597 117.118 63.5518L112.168 82.7334C111.534 85.1886 109.894 87.2627 107.651 88.4455L53.8734 116.804C49.4767 119.122 44.0329 117.438 41.7144 113.041L28.04 87.109C25.7215 82.7122 27.4063 77.2685 31.803 74.95L85.581 46.5917C87.824 45.4089 90.4619 45.2272 92.8458 46.0912L111.47 52.8415ZM54.0219 111.222L59.6119 108.275C62.2499 106.883 63.2608 103.617 61.8697 100.979L49.6702 77.8444C48.2791 75.2063 45.0129 74.1955 42.3749 75.5866L36.7849 78.5343C34.1469 79.9254 33.136 83.1916 34.5271 85.8297L46.7266 108.964C48.1177 111.602 51.3839 112.613 54.0219 111.222ZM57.5799 69.2324C57.1084 68.3573 56.0167 68.03 55.1415 68.5016C54.2664 68.9731 53.9392 70.0648 54.4107 70.94L69.1723 98.3378C69.6438 99.213 70.7356 99.5402 71.6107 99.0686C72.4859 98.5971 72.8131 97.5054 72.3416 96.6302L57.5799 69.2324ZM96.9705 77.7972C92.448 80.182 86.8485 78.4491 84.4637 73.9265C82.0788 69.404 83.8118 63.8045 88.3343 61.4197C92.8569 59.0348 98.4564 60.7678 100.841 65.2903C103.226 69.8129 101.493 75.4124 96.9705 77.7972ZM110.464 108.611C110.464 96.6814 120.135 87.0107 132.064 87.0107C143.994 87.0107 153.664 96.6814 153.664 108.611C153.664 120.54 143.994 130.211 132.064 130.211C120.135 130.211 110.464 120.54 110.464 108.611Z" fill="#03817A"/>
<path d="M132.064 87.0107C120.135 87.0107 110.464 96.6814 110.464 108.611C110.464 120.54 120.135 130.211 132.064 130.211C143.994 130.211 153.664 120.54 153.664 108.611C153.664 96.6814 143.994 87.0107 132.064 87.0107Z" fill="#03817A"/>
<path fill-rule="evenodd" clip-rule="evenodd" d="M118.653 33.2248C118.828 30.6116 121.089 28.6353 123.702 28.8106C126.315 28.986 128.292 31.2465 128.116 33.8597L127.463 43.5935C127.288 46.2067 125.027 48.183 122.414 48.0077C119.801 47.8323 117.825 45.5718 118 42.9586L118.653 33.2248ZM123.461 32.4025C122.832 32.3603 122.287 32.8363 122.245 33.4658L121.592 43.1996C121.55 43.829 122.026 44.3735 122.655 44.4157C123.284 44.458 123.829 43.9819 123.871 43.3525L124.524 33.6187C124.567 32.9893 124.091 32.4448 123.461 32.4025ZM127.642 53.4203C127.818 50.8071 130.078 48.8308 132.692 49.0061L142.425 49.6592C145.039 49.8346 147.015 52.0951 146.839 54.7083C146.664 57.3215 144.404 59.2978 141.79 59.1225L132.057 58.4694C129.443 58.294 127.467 56.0335 127.642 53.4203ZM132.451 52.5981C131.821 52.5558 131.277 53.0319 131.234 53.6613C131.192 54.2907 131.668 54.8352 132.298 54.8775L142.031 55.5306C142.661 55.5728 143.205 55.0968 143.248 54.4673C143.29 53.8379 142.814 53.2934 142.184 53.2512L132.451 52.5981ZM54.0256 111.222L59.6156 108.275C62.2536 106.883 63.2644 103.617 61.8734 100.979L49.6739 77.8444C48.2828 75.2063 45.0165 74.1955 42.3785 75.5866L36.7885 78.5343C34.1505 79.9254 33.1397 83.1916 34.5308 85.8297L46.7302 108.964C48.1213 111.602 51.3876 112.613 54.0256 111.222ZM96.9742 77.7972C92.4517 80.182 86.8522 78.4491 84.4673 73.9265C82.0825 69.404 83.8155 63.8045 88.338 61.4197C92.8605 59.0348 98.46 60.7678 100.845 65.2903C103.23 69.8129 101.497 75.4124 96.9742 77.7972Z" fill="#68B3AF"/>
<path d="M148.968 106.267L144.563 110.671C144.486 110.749 144.394 110.811 144.293 110.853C144.191 110.895 144.083 110.916 143.973 110.916C143.863 110.916 143.755 110.895 143.653 110.853C143.552 110.811 143.46 110.749 143.383 110.671L138.979 106.267C138.902 106.19 138.84 106.098 138.798 105.996C138.756 105.895 138.734 105.786 138.734 105.677C138.734 105.567 138.756 105.458 138.798 105.357C138.84 105.256 138.902 105.164 138.979 105.086L143.383 100.682C143.46 100.604 143.552 100.543 143.653 100.5C143.755 100.458 143.863 100.437 143.973 100.437C144.083 100.437 144.191 100.458 144.293 100.5C144.394 100.543 144.486 100.604 144.563 100.682L148.967 105.086C149.045 105.164 149.106 105.256 149.148 105.357C149.19 105.458 149.212 105.567 149.212 105.677C149.212 105.786 149.19 105.895 149.148 105.996C149.106 106.098 149.045 106.19 148.967 106.267H148.968ZM131.776 100.628C131.699 100.55 131.607 100.488 131.505 100.446C131.404 100.404 131.295 100.383 131.186 100.383C131.076 100.383 130.967 100.404 130.866 100.446C130.765 100.488 130.673 100.55 130.595 100.628L126.193 105.031C126.115 105.109 126.023 105.171 125.922 105.213C125.821 105.255 125.712 105.276 125.602 105.276C125.493 105.276 125.384 105.255 125.283 105.213C125.181 105.171 125.089 105.109 125.012 105.031L120.618 100.639C120.541 100.561 120.449 100.499 120.348 100.457C120.246 100.415 120.138 100.393 120.028 100.393C119.918 100.393 119.81 100.415 119.708 100.457C119.607 100.499 119.515 100.561 119.438 100.639L115.034 105.042C114.957 105.119 114.895 105.211 114.853 105.313C114.811 105.414 114.789 105.523 114.789 105.632C114.789 105.742 114.811 105.851 114.853 105.952C114.895 106.053 114.957 106.145 115.034 106.223L125.846 117.035C125.923 117.113 126.015 117.175 126.117 117.217C126.218 117.259 126.327 117.281 126.436 117.281C126.546 117.281 126.655 117.259 126.756 117.217C126.857 117.175 126.949 117.113 127.027 117.035L128.861 115.201L131.438 112.634C131.595 112.479 131.807 112.391 132.028 112.391C132.25 112.391 132.462 112.479 132.618 112.634L137.023 117.039C137.1 117.116 137.192 117.178 137.293 117.22C137.395 117.262 137.503 117.284 137.613 117.284C137.723 117.284 137.831 117.262 137.933 117.22C138.034 117.178 138.126 117.116 138.203 117.039L142.607 112.635C142.685 112.558 142.746 112.466 142.788 112.365C142.83 112.263 142.852 112.155 142.852 112.045C142.852 111.935 142.83 111.827 142.788 111.725C142.746 111.624 142.685 111.532 142.607 111.454L131.776 100.627V100.628Z" fill="white"/>
</svg>
