<svg width="276" height="48" viewBox="0 0 276 48" fill="none" xmlns="http://www.w3.org/2000/svg">
<path d="M87.3601 19.0796L76.7901 29.6496C76.6043 29.8362 76.3835 29.9842 76.1403 30.0852C75.8971 30.1862 75.6364 30.2382 75.3731 30.2382C75.1098 30.2382 74.8491 30.1862 74.6059 30.0852C74.3628 29.9842 74.1419 29.8362 73.9561 29.6496L63.3881 19.0796C63.2016 18.8938 63.0535 18.673 62.9525 18.4298C62.8515 18.1866 62.7995 17.9259 62.7995 17.6626C62.7995 17.3993 62.8515 17.1386 62.9525 16.8954C63.0535 16.6523 63.2016 16.4314 63.3881 16.2456L73.9561 5.67561C74.1419 5.48906 74.3628 5.34103 74.6059 5.24003C74.8491 5.13902 75.1098 5.08703 75.3731 5.08703C75.6364 5.08703 75.8971 5.13902 76.1403 5.24003C76.3835 5.34103 76.6043 5.48906 76.7901 5.67561L87.3581 16.2456C87.5447 16.4314 87.6927 16.6523 87.7937 16.8954C87.8947 17.1386 87.9467 17.3993 87.9467 17.6626C87.9467 17.9259 87.8947 18.1866 87.7937 18.4298C87.6927 18.673 87.5447 18.8938 87.3581 19.0796H87.3601ZM46.1001 5.54561C45.9143 5.35906 45.6935 5.21103 45.4503 5.11003C45.2071 5.00902 44.9464 4.95703 44.6831 4.95703C44.4198 4.95703 44.1591 5.00902 43.9159 5.11003C43.6728 5.21103 43.4519 5.35906 43.2661 5.54561L32.7001 16.1136C32.5143 16.3002 32.2935 16.4482 32.0503 16.5492C31.8071 16.6502 31.5464 16.7022 31.2831 16.7022C31.0198 16.7022 30.7591 16.6502 30.5159 16.5492C30.2728 16.4482 30.0519 16.3002 29.8661 16.1136L19.3221 5.57161C19.1363 5.38506 18.9155 5.23703 18.6723 5.13603C18.4291 5.03502 18.1684 4.98303 17.9051 4.98303C17.6418 4.98303 17.3811 5.03502 17.1379 5.13603C16.8948 5.23703 16.6739 5.38506 16.4881 5.57161L5.92012 16.1396C5.73357 16.3254 5.58554 16.5463 5.48454 16.7894C5.38354 17.0326 5.33154 17.2933 5.33154 17.5566C5.33154 17.8199 5.38354 18.0806 5.48454 18.3238C5.58554 18.567 5.73357 18.7878 5.92012 18.9736L31.8681 44.9236C32.0539 45.1102 32.2748 45.2582 32.5179 45.3592C32.7611 45.4602 33.0218 45.5122 33.2851 45.5122C33.5484 45.5122 33.8091 45.4602 34.0523 45.3592C34.2955 45.2582 34.5163 45.1102 34.7021 44.9236L39.1041 40.5216L45.2901 34.3616C45.6666 33.9879 46.1756 33.7782 46.7061 33.7782C47.2366 33.7782 47.7456 33.9879 48.1221 34.3616L58.6921 44.9316C58.8779 45.1182 59.0988 45.2662 59.3419 45.3672C59.5851 45.4682 59.8458 45.5202 60.1091 45.5202C60.3724 45.5202 60.6331 45.4682 60.8763 45.3672C61.1195 45.2662 61.3403 45.1182 61.5261 44.9316L72.0941 34.3636C72.2807 34.1778 72.4287 33.957 72.5297 33.7138C72.6307 33.4706 72.6827 33.2099 72.6827 32.9466C72.6827 32.6833 72.6307 32.4226 72.5297 32.1794C72.4287 31.9363 72.2807 31.7154 72.0941 31.5296L46.1001 5.54361V5.54561Z" fill="#03817A"/>
<path d="M147.812 28.3298H151.2C151.267 28.3297 151.332 28.3131 151.39 28.2815C151.449 28.2498 151.498 28.2042 151.535 28.1486C151.571 28.0931 151.593 28.0294 151.598 27.9632C151.604 27.8971 151.593 27.8306 151.566 27.7698L148.376 20.7098C148.344 20.6401 148.293 20.581 148.228 20.5396C148.163 20.4983 148.088 20.4763 148.011 20.4763C147.935 20.4763 147.859 20.4983 147.795 20.5396C147.73 20.581 147.679 20.6401 147.646 20.7098L140.088 37.4558C140.009 37.6306 139.882 37.7789 139.721 37.8832C139.56 37.9874 139.372 38.0432 139.18 38.0438H135.26C135.093 38.0439 134.928 38.0019 134.781 37.9216C134.634 37.8414 134.509 37.7254 134.419 37.5844C134.328 37.4435 134.274 37.282 134.262 37.1148C134.25 36.9477 134.281 36.7802 134.35 36.6278L145.008 13.0118C145.087 12.837 145.215 12.6887 145.376 12.5844C145.537 12.4802 145.725 12.4244 145.916 12.4238H150.096C150.288 12.4244 150.476 12.4802 150.637 12.5844C150.798 12.6887 150.925 12.837 151.004 13.0118L161.664 36.6278C161.733 36.7803 161.763 36.9475 161.75 37.1142C161.738 37.2809 161.684 37.442 161.593 37.5826C161.503 37.7233 161.379 37.8391 161.232 37.9197C161.086 38.0002 160.922 38.0429 160.754 38.0438H156.834C156.643 38.0455 156.455 37.9916 156.293 37.8887C156.132 37.7857 156.004 37.6381 155.924 37.4638C155.558 36.6718 154.908 35.2638 154.534 34.4698C154.454 34.2967 154.326 34.1506 154.164 34.0494C154.003 33.9482 153.815 33.8962 153.624 33.8998H146.2C146.033 33.9004 145.867 33.8587 145.72 33.7786C145.573 33.6985 145.448 33.5825 145.357 33.4414C145.266 33.3002 145.213 33.1385 145.201 32.9711C145.189 32.8037 145.22 32.6361 145.29 32.4838L146.894 28.9278C146.973 28.7496 147.102 28.5982 147.266 28.492C147.429 28.3858 147.618 28.3295 147.812 28.3298ZM133.884 13.0198L127.164 27.9398C127.014 28.2678 126.532 28.2498 126.416 27.9018L121.524 13.1198C121.458 12.9192 121.331 12.7448 121.159 12.6215C120.988 12.4982 120.782 12.4325 120.57 12.4338H116.624C116.411 12.4331 116.203 12.5012 116.031 12.628C115.859 12.7548 115.733 12.9335 115.67 13.1378L111.07 27.8938C111.047 27.9716 111.001 28.0404 110.938 28.0912C110.874 28.142 110.797 28.1723 110.716 28.1782C110.635 28.1841 110.554 28.1652 110.484 28.124C110.414 28.0828 110.359 28.0214 110.324 27.9478L103.238 13.0038C103.156 12.8328 103.027 12.6886 102.867 12.5878C102.706 12.4869 102.52 12.4335 102.33 12.4338H98.4985C98.3295 12.4329 98.1632 12.4748 98.0148 12.5556C97.8665 12.6364 97.7411 12.7534 97.6502 12.8958C97.5593 13.0382 97.506 13.2013 97.4952 13.3699C97.4844 13.5384 97.5165 13.707 97.5885 13.8598L108.568 37.4738C108.728 37.8298 109.084 38.0538 109.476 38.0538H113.46C113.677 38.0538 113.888 37.9834 114.062 37.8532C114.235 37.723 114.362 37.54 114.422 37.3318L118.316 23.9998C118.424 23.6158 118.966 23.6158 119.082 23.9898L123.28 37.3498C123.344 37.5532 123.471 37.731 123.642 37.8572C123.814 37.9835 124.021 38.0517 124.234 38.0518H128.216C128.411 38.0523 128.602 37.9962 128.765 37.8904C128.928 37.7846 129.057 37.6336 129.136 37.4558L139.656 13.8398C139.725 13.6871 139.754 13.5198 139.74 13.3531C139.727 13.1864 139.672 13.0257 139.581 12.8856C139.49 12.7456 139.365 12.6306 139.218 12.5513C139.07 12.4721 138.906 12.431 138.738 12.4318H134.774C134.585 12.4345 134.401 12.4913 134.243 12.5955C134.084 12.6996 133.962 12.8469 133.884 13.0198ZM170.438 12.4678H166.88C166.749 12.4675 166.619 12.4932 166.498 12.5434C166.376 12.5936 166.266 12.6673 166.173 12.7602C166.081 12.8532 166.007 12.9635 165.957 13.0849C165.907 13.2064 165.882 13.3365 165.882 13.4678V37.0458C165.882 37.5978 166.328 38.0438 166.882 38.0438H179.944C180.076 38.0441 180.205 38.0184 180.327 37.9684C180.448 37.9183 180.558 37.8448 180.651 37.7521C180.743 37.6593 180.817 37.5492 180.867 37.428C180.917 37.3068 180.943 37.1769 180.942 37.0458V33.4898C180.943 33.3587 180.917 33.2288 180.867 33.1076C180.817 32.9864 180.743 32.8762 180.651 32.7835C180.558 32.6908 180.448 32.6173 180.327 32.5672C180.205 32.5172 180.076 32.4915 179.944 32.4918H171.834C171.728 32.4918 171.627 32.4497 171.552 32.3746C171.477 32.2996 171.434 32.1979 171.434 32.0918V13.4658C171.435 13.3345 171.409 13.2044 171.359 13.0831C171.309 12.9618 171.235 12.8516 171.142 12.7588C171.049 12.6661 170.939 12.5926 170.817 12.5426C170.696 12.4927 170.566 12.4673 170.434 12.4678H170.438ZM185.658 12.4678H189.214C189.766 12.4678 190.212 12.9138 190.212 13.4678V32.0918C190.212 32.1979 190.255 32.2996 190.33 32.3746C190.405 32.4497 190.506 32.4918 190.612 32.4918H198.722C199.274 32.4918 199.72 32.9378 199.72 33.4918V37.0458C199.721 37.1771 199.695 37.3072 199.645 37.4285C199.595 37.5498 199.521 37.66 199.428 37.7528C199.335 37.8455 199.225 37.919 199.103 37.9689C198.982 38.0189 198.852 38.0443 198.72 38.0438H185.66C185.529 38.0441 185.399 38.0184 185.278 37.9684C185.157 37.9183 185.047 37.8448 184.954 37.7521C184.861 37.6593 184.788 37.5492 184.738 37.428C184.688 37.3068 184.662 37.1769 184.662 37.0458V13.4658C184.662 12.9138 185.106 12.4678 185.658 12.4678Z" fill="#03817A"/>
<path d="M222.546 21.4364C222.554 20.1498 222.295 18.8757 221.787 17.6959C221.298 16.5669 220.605 15.5393 219.745 14.6654C218.874 13.7923 217.848 13.0931 216.72 12.6046C215.545 12.0908 214.277 11.8284 212.996 11.834H204.142C204.009 11.834 203.878 11.8603 203.756 11.9114C203.633 11.9626 203.522 12.0375 203.429 12.132C203.335 12.2264 203.261 12.3386 203.21 12.462C203.159 12.5855 203.133 12.7178 203.133 12.8514V37.0262C203.133 37.2961 203.24 37.5548 203.429 37.7456C203.618 37.9364 203.874 38.0436 204.142 38.0436H207.762C207.895 38.0436 208.026 38.0173 208.148 37.9662C208.271 37.9151 208.382 37.8401 208.475 37.7456C208.569 37.6512 208.643 37.539 208.694 37.4156C208.745 37.2921 208.771 37.1598 208.771 37.0262V32.0952C208.771 31.8249 208.877 31.5657 209.066 31.3742C209.255 31.1827 209.511 31.0746 209.779 31.0734H212.996C214.275 31.0813 215.542 30.8203 216.716 30.3072C218.998 29.3297 220.816 27.4968 221.787 25.1942C222.295 24.0082 222.554 22.7285 222.546 21.4364ZM208.771 17.54H212.996C213.514 17.5325 214.027 17.6337 214.503 17.8372C214.98 18.0407 215.409 18.342 215.763 18.7219C216.137 19.067 216.433 19.4892 216.63 19.9598C216.828 20.4304 216.923 20.9384 216.909 21.4494C216.898 22.493 216.482 23.4908 215.751 24.2288C215.019 24.9669 214.031 25.3865 212.996 25.3977H208.771" fill="#03817A"/>
<path d="M234.729 28.1165H238.161C238.229 28.1168 238.296 28.1 238.355 28.0675C238.415 28.035 238.465 27.9878 238.502 27.9305C238.539 27.8731 238.561 27.8074 238.566 27.7392C238.57 27.6711 238.558 27.6028 238.53 27.5407L235.295 20.3237C235.264 20.2515 235.212 20.1902 235.147 20.1471C235.081 20.104 235.005 20.081 234.927 20.081C234.848 20.081 234.772 20.104 234.706 20.1471C234.641 20.1902 234.589 20.2515 234.558 20.3237L226.904 37.4418C226.823 37.6214 226.693 37.7736 226.529 37.8804C226.364 37.9871 226.173 38.0437 225.977 38.0436H222.009C221.84 38.0435 221.674 38.0006 221.525 37.919C221.377 37.8373 221.251 37.7194 221.159 37.576C221.067 37.4327 221.013 37.2684 221 37.0983C220.987 36.9281 221.017 36.7575 221.087 36.6019L231.881 12.466C231.961 12.286 232.091 12.1331 232.256 12.0256C232.42 11.9182 232.611 11.8606 232.807 11.8599H237.042C237.237 11.8601 237.429 11.9174 237.594 12.0249C237.758 12.1325 237.888 12.2856 237.968 12.466L248.766 36.6019C248.836 36.7578 248.866 36.9288 248.853 37.0994C248.84 37.2699 248.785 37.4344 248.693 37.5779C248.601 37.7213 248.474 37.8392 248.325 37.9205C248.176 38.0019 248.009 38.0442 247.84 38.0436H243.867C243.673 38.0447 243.483 37.9894 243.319 37.8842C243.156 37.779 243.026 37.6284 242.945 37.4505C242.576 36.6365 241.911 35.1992 241.538 34.3896C241.456 34.214 241.326 34.0656 241.163 33.9621C241 33.8585 240.812 33.8041 240.62 33.8052H233.099C232.929 33.8054 232.762 33.7626 232.613 33.6807C232.464 33.5988 232.338 33.4804 232.246 33.3365C232.154 33.1925 232.1 33.0276 232.088 32.8568C232.076 32.6861 232.106 32.5149 232.177 32.3592L233.798 28.7226C233.879 28.5415 234.009 28.3879 234.175 28.2803C234.34 28.1727 234.533 28.1158 234.729 28.1165Z" fill="#03817A"/>
<path d="M255.876 21.5838L249.839 11.8818C249.728 11.7012 249.572 11.5523 249.387 11.4492C249.203 11.3462 248.995 11.2925 248.784 11.2931H244.571C244.391 11.2914 244.213 11.3388 244.057 11.4303C243.901 11.5218 243.773 11.654 243.685 11.813C243.597 11.9721 243.553 12.1521 243.558 12.3341C243.563 12.5161 243.617 12.6934 243.713 12.8473L253.25 28.1644V36.6845C253.251 36.9535 253.358 37.2112 253.547 37.4011C253.736 37.5909 253.992 37.6975 254.258 37.6975H257.931C258.197 37.6975 258.452 37.5908 258.64 37.4008C258.829 37.2108 258.934 36.9531 258.934 36.6845L258.892 26.9478L255.876 21.5838Z" fill="#03817A"/>
<path d="M267.632 11.293H263.419C263.208 11.2927 263.001 11.3466 262.818 11.4497C262.634 11.5527 262.479 11.7014 262.368 11.8818L257.975 18.9429C257.913 19.0467 257.88 19.1657 257.88 19.287C257.88 19.4083 257.913 19.5273 257.975 19.6312L260.381 23.9995C260.438 24.1026 260.52 24.1889 260.62 24.2501C260.719 24.3112 260.833 24.345 260.95 24.3481C261.066 24.3512 261.182 24.3234 261.285 24.2676C261.387 24.2117 261.474 24.1298 261.535 24.0298L268.485 12.8342C268.578 12.6808 268.629 12.5053 268.632 12.3256C268.636 12.146 268.592 11.9686 268.505 11.8117C268.418 11.6548 268.291 11.5241 268.138 11.433C267.985 11.3418 267.81 11.2935 267.632 11.293Z" fill="#03817A"/>
</svg>
