<svg width="32" height="32" viewBox="0 0 32 32" fill="none" xmlns="http://www.w3.org/2000/svg">
<circle cx="16" cy="16" r="16" fill="#CDE6E4"/>
<path d="M24.4836 15.1335L22.2815 17.3356C22.2428 17.3745 22.1968 17.4053 22.1461 17.4264C22.0955 17.4474 22.0411 17.4583 21.9863 17.4583C21.9314 17.4583 21.8771 17.4474 21.8265 17.4264C21.7758 17.4053 21.7298 17.3745 21.6911 17.3356L19.4894 15.1335C19.4505 15.0948 19.4197 15.0488 19.3987 14.9982C19.3776 14.9475 19.3668 14.8932 19.3668 14.8383C19.3668 14.7835 19.3776 14.7292 19.3987 14.6785C19.4197 14.6279 19.4505 14.5818 19.4894 14.5431L21.6911 12.341C21.7298 12.3022 21.7758 12.2713 21.8265 12.2503C21.8771 12.2293 21.9314 12.2184 21.9863 12.2184C22.0411 12.2184 22.0955 12.2293 22.1461 12.2503C22.1968 12.2713 22.2428 12.3022 22.2815 12.341L24.4832 14.5431C24.522 14.5818 24.5529 14.6279 24.5739 14.6785C24.5949 14.7292 24.6058 14.7835 24.6058 14.8383C24.6058 14.8932 24.5949 14.9475 24.5739 14.9982C24.5529 15.0488 24.5224 15.0948 24.4836 15.1335ZM15.8877 12.314C15.849 12.2751 15.803 12.2443 15.7524 12.2232C15.7017 12.2022 15.6474 12.1913 15.5925 12.1913C15.5377 12.1913 15.4834 12.2022 15.4327 12.2232C15.382 12.2443 15.336 12.2751 15.2973 12.314L13.0961 14.5156C13.0574 14.5545 13.0114 14.5853 12.9607 14.6064C12.91 14.6274 12.8557 14.6383 12.8009 14.6383C12.746 14.6383 12.6917 14.6274 12.641 14.6064C12.5904 14.5853 12.5444 14.5545 12.5057 14.5156L10.309 12.3194C10.2703 12.2805 10.2243 12.2497 10.1736 12.2286C10.123 12.2076 10.0686 12.1968 10.0138 12.1968C9.95893 12.1968 9.90461 12.2076 9.85395 12.2286C9.80329 12.2497 9.75729 12.2805 9.71857 12.3194L7.51691 14.521C7.47804 14.5598 7.4472 14.6058 7.42616 14.6564C7.40512 14.7071 7.39429 14.7614 7.39429 14.8163C7.39429 14.8711 7.40512 14.9254 7.42616 14.9761C7.4472 15.0267 7.47804 15.0728 7.51691 15.1115L12.9227 20.5177C12.9615 20.5566 13.0075 20.5874 13.0581 20.6085C13.1088 20.6295 13.1631 20.6403 13.2179 20.6403C13.2728 20.6403 13.3271 20.6295 13.3778 20.6085C13.4284 20.5874 13.4744 20.5566 13.5132 20.5177L14.4302 19.6006L15.719 18.3173C15.7974 18.2394 15.9035 18.1957 16.014 18.1957C16.1245 18.1957 16.2306 18.2394 16.309 18.3173L18.5111 20.5194C18.5498 20.5582 18.5958 20.5891 18.6465 20.6101C18.6971 20.6312 18.7514 20.642 18.8063 20.642C18.8611 20.642 18.9155 20.6312 18.9661 20.6101C19.0168 20.5891 19.0628 20.5582 19.1015 20.5194L21.3032 18.3177C21.342 18.279 21.3729 18.233 21.3939 18.1823C21.4149 18.1317 21.4258 18.0774 21.4258 18.0225C21.4258 17.9677 21.4149 17.9133 21.3939 17.8627C21.3729 17.812 21.342 17.766 21.3032 17.7273L15.8877 12.314Z" fill="#03817A"/>
</svg>
