<svg width="32" height="32" viewBox="0 0 32 32" fill="none" xmlns="http://www.w3.org/2000/svg">
<g id="wallex-logo-sq">
<path id="Vector" d="M29.5737 14.6137L26.0503 18.1371C25.9884 18.1993 25.9148 18.2486 25.8337 18.2823C25.7527 18.3159 25.6658 18.3333 25.578 18.3333C25.4902 18.3333 25.4033 18.3159 25.3223 18.2823C25.2412 18.2486 25.1676 18.1993 25.1057 18.1371L21.583 14.6137C21.5208 14.5518 21.4715 14.4782 21.4378 14.3971C21.4041 14.3161 21.3868 14.2292 21.3868 14.1414C21.3868 14.0536 21.4041 13.9667 21.4378 13.8857C21.4715 13.8046 21.5208 13.731 21.583 13.6691L25.1057 10.1457C25.1676 10.0836 25.2412 10.0342 25.3223 10.0006C25.4033 9.96688 25.4902 9.94955 25.578 9.94955C25.6658 9.94955 25.7527 9.96688 25.8337 10.0006C25.9148 10.0342 25.9884 10.0836 26.0503 10.1457L29.573 13.6691C29.6352 13.731 29.6845 13.8046 29.7182 13.8857C29.7519 13.9667 29.7692 14.0536 29.7692 14.1414C29.7692 14.2292 29.7519 14.3161 29.7182 14.3971C29.6845 14.4782 29.6352 14.5518 29.573 14.6137H29.5737ZM15.8203 10.1024C15.7584 10.0402 15.6848 9.99089 15.6037 9.95722C15.5227 9.92355 15.4358 9.90622 15.348 9.90622C15.2602 9.90622 15.1733 9.92355 15.0923 9.95722C15.0112 9.99089 14.9376 10.0402 14.8757 10.1024L11.3537 13.6251C11.2917 13.6873 11.2181 13.7366 11.1371 13.7703C11.056 13.8039 10.9691 13.8213 10.8813 13.8213C10.7936 13.8213 10.7067 13.8039 10.6256 13.7703C10.5445 13.7366 10.4709 13.6873 10.409 13.6251L6.89433 10.1111C6.83239 10.0489 6.75878 9.99955 6.67773 9.96589C6.59667 9.93222 6.50977 9.91489 6.422 9.91489C6.33423 9.91489 6.24732 9.93222 6.16627 9.96589C6.08521 9.99955 6.0116 10.0489 5.94966 10.1111L2.427 13.6337C2.36481 13.6957 2.31547 13.7693 2.2818 13.8503C2.24814 13.9314 2.2308 14.0183 2.2308 14.1061C2.2308 14.1938 2.24814 14.2808 2.2818 14.3618C2.31547 14.4429 2.36481 14.5165 2.427 14.5784L11.0763 23.2284C11.1383 23.2906 11.2119 23.3399 11.2929 23.3736C11.374 23.4073 11.4609 23.4246 11.5487 23.4246C11.6364 23.4246 11.7233 23.4073 11.8044 23.3736C11.8854 23.3399 11.9591 23.2906 12.021 23.2284L13.4883 21.7611L15.5503 19.7077C15.6758 19.5832 15.8455 19.5133 16.0223 19.5133C16.1992 19.5133 16.3688 19.5832 16.4943 19.7077L20.0177 23.2311C20.0796 23.2933 20.1532 23.3426 20.2343 23.3763C20.3153 23.4099 20.4022 23.4273 20.49 23.4273C20.5778 23.4273 20.6647 23.4099 20.7457 23.3763C20.8268 23.3426 20.9004 23.2933 20.9623 23.2311L24.485 19.7084C24.5472 19.6465 24.5965 19.5729 24.6302 19.4918C24.6639 19.4108 24.6812 19.3238 24.6812 19.2361C24.6812 19.1483 24.6639 19.0614 24.6302 18.9803C24.5965 18.8993 24.5472 18.8257 24.485 18.7637L15.8203 10.1017V10.1024Z" fill="#052B61"/>
</g>
</svg>
