<svg xmlns="http://www.w3.org/2000/svg" width="24" height="24" fill="none" viewBox="0 0 24 24">
  <g clip-path="url(#a)">
    <path fill="#F5AC37" d="M0 12C0 5.373 5.373 0 12 0s12 5.373 12 12-5.373 12-12 12S0 18.627 0 12Z"/>
    <path fill="#FEFEFD" d="M13.187 12.85h4.56c.097 0 .143 0 .15-.128a8.55 8.55 0 0 0 0-1.395c0-.09-.045-.127-.142-.127H8.68c-.112 0-.143.037-.143.142v1.335c0 .172 0 .172.18.172h4.47Zm4.201-3.21a.146.146 0 0 0 0-.105 2.96 2.96 0 0 0-.271-.473 3.822 3.822 0 0 0-.555-.697 1.84 1.84 0 0 0-.345-.338 5.39 5.39 0 0 0-2.25-1.14 5.593 5.593 0 0 0-1.275-.135H8.664c-.112 0-.127.045-.127.143v2.662c0 .112 0 .142.142.142h8.655s.075-.015.09-.06h-.037.001Zm0 4.77a1.755 1.755 0 0 0-.383 0H8.687c-.112 0-.15 0-.15.15v2.602c0 .12 0 .15.15.15h3.84c.184.014.368.002.548-.037a5.718 5.718 0 0 0 1.628-.36 3.02 3.02 0 0 0 .547-.255h.052a4.872 4.872 0 0 0 2.093-2.106s.052-.114-.007-.143v-.002ZM7.03 18.661v-4.147c0-.098 0-.113-.12-.113H5.283c-.09 0-.128 0-.128-.12v-1.425h1.74c.097 0 .135 0 .135-.127v-1.41c0-.09 0-.112-.12-.112H5.283c-.09 0-.128 0-.128-.12v-1.32c0-.083 0-.105.12-.105h1.613c.112 0 .142 0 .142-.142V5.478c0-.12 0-.15.15-.15h5.625c.408.016.814.061 1.215.135a7.33 7.33 0 0 1 2.347.87 6.64 6.64 0 0 1 1.32 1.02c.297.308.565.642.803.998.236.36.432.745.586 1.147a.194.194 0 0 0 .224.158h1.342c.172 0 .172 0 .18.165v1.23c0 .12-.045.15-.165.15h-1.035c-.105 0-.136 0-.128.135.041.457.041.915 0 1.372 0 .128 0 .143.143.143h1.184c.053.067 0 .135 0 .203.008.087.008.175 0 .262v.908c0 .127-.037.165-.15.165h-1.417a.188.188 0 0 0-.218.142 5.998 5.998 0 0 1-1.575 2.295c-.255.23-.523.446-.802.645-.3.173-.593.353-.9.495a8.112 8.112 0 0 1-1.77.563 9.234 9.234 0 0 1-1.756.142H7.028v-.007l.002-.002Z"/>
  </g>
  <defs>
    <clipPath id="a">
      <path fill="#fff" d="M0 0h24v24H0z"/>
    </clipPath>
  </defs>
</svg>
