<svg xmlns="http://www.w3.org/2000/svg" width="24" height="24" fill="none" viewBox="0 0 24 24">
  <g clip-path="url(#a)">
    <path fill="#fff" d="M12 24c6.627 0 12-5.373 12-12S18.627 0 12 0 0 5.373 0 12s5.373 12 12 12Z"/>
    <path fill="#052B61" d="M12 24c1.64 0 3.18-.314 4.623-.941a12.246 12.246 0 0 0 3.836-2.6 12.285 12.285 0 0 0 2.6-3.824C23.686 15.185 24 13.64 24 12c0-1.64-.314-3.18-.941-4.624a12.246 12.246 0 0 0-2.6-3.835 12.247 12.247 0 0 0-3.835-2.6A11.552 11.552 0 0 0 11.988 0C10.35 0 8.804.314 7.353.941a12.286 12.286 0 0 0-3.824 2.6A12.347 12.347 0 0 0 .941 7.376 11.47 11.47 0 0 0 0 12c0 1.64.314 3.184.941 4.635a12.287 12.287 0 0 0 2.6 3.824 12.285 12.285 0 0 0 3.824 2.6C8.815 23.686 10.36 24 12 24Zm0-2c-1.388 0-2.686-.259-3.894-.776a10.179 10.179 0 0 1-3.188-2.142 10.18 10.18 0 0 1-2.142-3.188c-.51-1.208-.764-2.506-.764-3.894 0-1.388.255-2.686.764-3.894a10.18 10.18 0 0 1 2.142-3.188 9.785 9.785 0 0 1 3.176-2.142A9.81 9.81 0 0 1 11.988 2c1.389 0 2.687.259 3.894.776a9.753 9.753 0 0 1 3.189 2.142 10.08 10.08 0 0 1 2.152 3.188C21.742 9.314 22 10.612 22 12c0 1.388-.259 2.686-.776 3.894a9.92 9.92 0 0 1-2.142 3.188c-.917.91-1.98 1.624-3.188 2.142A9.81 9.81 0 0 1 12 22Zm.235-4.318c.667 0 1.279-.094 1.836-.282a3.872 3.872 0 0 0 1.435-.847 3.59 3.59 0 0 0 .918-1.435 1.26 1.26 0 0 0 .082-.295c.023-.101.035-.203.035-.305a.7.7 0 0 0-.2-.518c-.125-.133-.298-.2-.518-.2a.706.706 0 0 0-.482.165 1.045 1.045 0 0 0-.282.459 2.234 2.234 0 0 1-1.024 1.376 3.315 3.315 0 0 1-1.753.47c-.682 0-1.258-.192-1.73-.576-.462-.392-.815-.91-1.058-1.553a6.185 6.185 0 0 1-.353-2.117c0-.761.122-1.46.365-2.095.243-.643.596-1.156 1.059-1.54.47-.393 1.043-.589 1.717-.589a2.96 2.96 0 0 1 1.66.494 2.39 2.39 0 0 1 1.034 1.388c.134.408.389.612.765.612.22 0 .396-.063.53-.188.133-.133.196-.31.188-.53 0-.101-.012-.2-.035-.294a1.261 1.261 0 0 0-.083-.294c-.282-.792-.8-1.423-1.553-1.894-.745-.47-1.596-.706-2.553-.706-.949 0-1.772.236-2.47.706-.698.47-1.24 1.13-1.624 1.977-.384.847-.576 1.831-.576 2.953 0 1.082.18 2.05.54 2.905.362.855.891 1.53 1.59 2.024.697.486 1.544.73 2.54.73Zm-5.6-6.305h5.87a.52.52 0 0 0 .4-.165.585.585 0 0 0 .166-.412.573.573 0 0 0-.165-.424.52.52 0 0 0-.4-.164h-5.87a.573.573 0 0 0-.424.165.598.598 0 0 0-.153.423.61.61 0 0 0 .153.412c.11.11.25.165.423.165Zm0 2.388h5.87a.52.52 0 0 0 .4-.165.599.599 0 0 0 .166-.423.535.535 0 0 0-.165-.412.52.52 0 0 0-.4-.165h-5.87a.573.573 0 0 0-.424.165.556.556 0 0 0-.153.412c0 .164.05.305.153.423.11.11.25.165.423.165Z"/>
  </g>
  <defs>
    <clipPath id="a">
      <path fill="#fff" d="M0 0h24v24H0z"/>
    </clipPath>
  </defs>
</svg>
