<svg xmlns="http://www.w3.org/2000/svg" width="24" height="24" fill="none" viewBox="0 0 24 24">
  <g clip-path="url(#a)">
    <path fill="#0C68F4" d="M12 24c6.627 0 12-5.373 12-12S18.627 0 12 0 0 5.373 0 12s5.373 12 12 12Z"/>
    <path fill="#fff" d="m7.449 5 .658.659-.658.655-.655-.655L7.449 5Zm.008 5.84c-.76 0-1.359-.19-1.798-.573C5.219 9.887 5 9.352 5 8.66c0-.62.14-1.245.42-1.875l.507.166c-.148.48-.221.896-.221 1.25 0 .963.59 1.445 1.772 1.445.227 0 .45-.025.668-.076.22-.048.423-.12.608-.213a1.2 1.2 0 0 0 .45-.365.837.837 0 0 0 .17-.51c0-.122-.057-.318-.17-.587a6.387 6.387 0 0 0-.382-.778l.595-.888c.054-.086.12-.067.2.055.345.547.518 1.173.518 1.879 0 .847-.234 1.504-.701 1.972-.465.47-1.124.706-1.977.706Zm.006 3.144c.005.496.01.774.017.833.025.267.103.442.233.527.105.068.261.102.468.102h.115c.07 0 .106.138.106.413v.31c0 .351-.035.527-.106.527H8.16c-.213 0-.4-.023-.561-.068a1.303 1.303 0 0 1-.4-.183 1 1 0 0 1-.272-.31 1.888 1.888 0 0 1-.166-.4 3.03 3.03 0 0 1-.09-.501 10.19 10.19 0 0 1-.033-.574l-.009-.65v-.206c-.008-.847-.084-.914-.228-1.81l.756-.475c.117-.071.185-.1.204-.085.023.014.037.092.043.233.017.369.037.409.059 2.316Z"/>
    <path fill="#fff" d="M8.258 16.696c-.156 0-.234-.204-.234-.612v-.14c0-.332.078-.498.234-.498h.11c.184 0 .371-.048.561-.144.19-.097.35-.238.48-.425.097-.136.17-.24.217-.31.051-.072.118-.16.2-.268a3.32 3.32 0 0 1 .208-.251c.054-.057.12-.12.196-.192.08-.07.152-.123.217-.157s.137-.062.217-.085a.828.828 0 0 1 .246-.038c.255 0 .488.095.697.285.21.187.369.423.476.71.11.286.166.58.166.884 0 .326-.109.637-.327.935-.216.295-.442.442-.68.442-.457 0-1.002-.282-1.637-.846-.187.23-.392.405-.616.527a1.32 1.32 0 0 1-.638.183h-.093Zm2.988-.999c.207 0 .31-.086.31-.26a1.12 1.12 0 0 0-.191-.603c-.128-.201-.27-.302-.43-.302a.533.533 0 0 0-.225.051.711.711 0 0 0-.204.153 1.922 1.922 0 0 0-.289.362c.442.4.785.6 1.029.6Zm3.175-.221h.587c-.139-.57-.401-.854-.786-.854-.15 0-.275.05-.375.148a.528.528 0 0 0-.144.391c0 .136.05.223.153.26.105.037.293.055.565.055Zm-1.479 2.716c1.11-.425 1.763-.924 1.955-1.496-.246 0-.46-.009-.642-.026a2.997 2.997 0 0 1-.518-.102 1.146 1.146 0 0 1-.395-.195.891.891 0 0 1-.243-.327 1.243 1.243 0 0 1-.085-.48c0-.23.03-.461.09-.694.062-.232.148-.444.259-.637a1.44 1.44 0 0 1 .425-.476 1.021 1.021 0 0 1 1.135-.021 1.2 1.2 0 0 1 .412.429c.105.181.189.38.251.595.062.215.102.443.12.684h.433c.07 0 .106.138.106.413v.31c0 .351-.036.527-.106.527h-.502a3.39 3.39 0 0 1-.293.91 2.662 2.662 0 0 1-.438.663 2.69 2.69 0 0 1-.493.42 1.99 1.99 0 0 1-.45.243 1 1 0 0 1-.324.068.716.716 0 0 1-.382-.123l-.404-.255c-.12-.077-.192-.136-.217-.179-.028-.042-.021-.08.021-.115a1.44 1.44 0 0 1 .285-.136Z"/>
    <path fill="#fff" d="M18.498 14.694c0 .635-.169 1.128-.506 1.48-.337.348-.813.522-1.428.522h-.468c-.156 0-.234-.204-.234-.612v-.14c0-.332.078-.498.234-.498h.485c.385 0 .662-.02.829-.06.17-.039.255-.131.255-.276 0-.23-.118-.62-.353-1.173l.578-.748.077-.098a.077.077 0 0 1 .046-.03c.02-.002.036.006.047.026.014.02.036.054.064.102.25.43.374.932.374 1.505Zm-.455-3.371.625.62-.625.625-.62-.624.62-.621Zm-1.335 0 .62.62-.62.625-.625-.624.625-.621Z"/>
  </g>
  <defs>
    <clipPath id="a">
      <path fill="#fff" d="M0 0h24v24H0z"/>
    </clipPath>
  </defs>
</svg>
