<svg xmlns="http://www.w3.org/2000/svg" width="24" height="24" fill="none" viewBox="0 0 24 24">
  <g clip-path="url(#a)">
    <path fill="#1BA27A" d="M24 12c0 6.628-5.372 12-12 12-6.627 0-12-5.372-12-12C0 5.373 5.373 0 12 0c6.628 0 12 5.373 12 12Z"/>
    <path fill="#fff" fill-rule="evenodd" d="M6.534 6H17.84v2.73h-4.288v1.805c3.343.14 5.873.798 5.873 1.589 0 .79-2.53 1.448-5.874 1.59v5.756h-2.729v-5.76C7.504 13.567 5 12.91 5 12.125c0-.787 2.504-1.442 5.822-1.587V8.73H6.534V6Zm4.288 4.69c-2.879.124-5.033.625-5.033 1.225 0 .692 2.876 1.254 6.424 1.254 3.547 0 6.423-.562 6.423-1.254 0-.603-2.18-1.107-5.084-1.227v2.053h-2.73v-2.05Z" clip-rule="evenodd"/>
  </g>
  <defs>
    <clipPath id="a">
      <path fill="#fff" d="M0 0h24v24H0z"/>
    </clipPath>
  </defs>
</svg>
