<svg width="32" height="32" viewBox="0 0 32 32" fill="none" xmlns="http://www.w3.org/2000/svg">
<path d="M29.3337 13C28.787 13 28.3337 12.5466 28.3337 12V9.33329C28.3337 5.89329 26.107 3.66663 22.667 3.66663H9.33366C5.89366 3.66663 3.66699 5.89329 3.66699 9.33329V12C3.66699 12.5466 3.21366 13 2.66699 13C2.12033 13 1.66699 12.5466 1.66699 12V9.33329C1.66699 4.74663 4.74699 1.66663 9.33366 1.66663H22.667C27.2537 1.66663 30.3337 4.74663 30.3337 9.33329V12C30.3337 12.5466 29.8803 13 29.3337 13Z" fill="#2D333A"/>
<path d="M22.667 30.3333H9.33366C4.74699 30.3333 1.66699 27.2533 1.66699 22.6667V20C1.66699 19.4533 2.12033 19 2.66699 19C3.21366 19 3.66699 19.4533 3.66699 20V22.6667C3.66699 26.1067 5.89366 28.3333 9.33366 28.3333H22.667C26.107 28.3333 28.3337 26.1067 28.3337 22.6667V20C28.3337 19.4533 28.787 19 29.3337 19C29.8803 19 30.3337 19.4533 30.3337 20V22.6667C30.3337 27.2533 27.2537 30.3333 22.667 30.3333Z" fill="#2D333A"/>
<path d="M15.9998 17.4399C15.8265 17.4399 15.6531 17.3999 15.4931 17.3066L8.42649 13.2266C7.94649 12.9466 7.78649 12.3333 8.06649 11.8533C8.34649 11.3733 8.95983 11.2132 9.42649 11.4932L15.9865 15.2932L22.5065 11.5199C22.9865 11.2399 23.5998 11.4132 23.8665 11.8799C24.1465 12.3599 23.9732 12.9732 23.5065 13.2532L16.4931 17.3066C16.3465 17.3866 16.1731 17.4399 15.9998 17.4399Z" fill="#2D333A"/>
<path d="M16 24.6933C15.4533 24.6933 15 24.2399 15 23.6933V16.4399C15 15.8933 15.4533 15.4399 16 15.4399C16.5467 15.4399 17 15.8933 17 16.4399V23.6933C17 24.2399 16.5467 24.6933 16 24.6933Z" fill="#2D333A"/>
<path d="M16.0003 25.0001C15.227 25.0001 14.467 24.8267 13.8536 24.4934L9.58698 22.1201C8.30698 21.4134 7.32031 19.7201 7.32031 18.2534V13.7334C7.32031 12.2801 8.32031 10.5868 9.58698 9.86677L13.8536 7.4934C15.0803 6.8134 16.9203 6.8134 18.147 7.4934L22.4136 9.86677C23.6936 10.5734 24.6803 12.2667 24.6803 13.7334V18.2534C24.6803 19.7067 23.6803 21.4001 22.4136 22.1201L18.147 24.4934C17.5336 24.8267 16.7736 25.0001 16.0003 25.0001ZM14.827 9.25341L10.5603 11.6267C9.90697 11.9867 9.32031 13.0001 9.32031 13.7334V18.2534C9.32031 19.0001 9.90697 20.0001 10.5603 20.3601L14.827 22.7334C15.4403 23.0667 16.5603 23.0667 17.1736 22.7334L21.4403 20.3601C22.0936 20.0001 22.6803 18.9867 22.6803 18.2534V13.7334C22.6803 12.9867 22.0936 11.9867 21.4403 11.6267L17.1736 9.25341C16.5603 8.92007 15.4403 8.92007 14.827 9.25341Z" fill="#2D333A"/>
</svg>
