<svg width="21" height="20" viewBox="0 0 21 20" fill="none" xmlns="http://www.w3.org/2000/svg">
<g id="ChatsCircle">
<path id="Vector" d="M18.6304 14.5905C19.0622 13.6948 19.2741 12.709 19.2485 11.7149C19.2228 10.7208 18.9603 9.74725 18.4828 8.87501C18.0053 8.00276 17.3266 7.25704 16.503 6.69978C15.6795 6.14253 14.7348 5.78982 13.7476 5.67097C13.4191 4.9072 12.9415 4.21664 12.3428 3.63974C11.744 3.06284 11.0362 2.6112 10.2608 2.31126C9.48537 2.01131 8.65788 1.8691 7.8268 1.89295C6.99572 1.9168 6.17774 2.10623 5.42078 2.45015C4.66382 2.79407 3.98309 3.28556 3.41845 3.89584C2.8538 4.50612 2.4166 5.22293 2.13244 6.00429C1.84828 6.78565 1.72288 7.61585 1.76357 8.44628C1.80426 9.27671 2.01024 10.0907 2.36943 10.8405L1.80146 12.771C1.73796 12.9865 1.73371 13.2151 1.78917 13.4328C1.84463 13.6506 1.95774 13.8493 2.1166 14.0082C2.27547 14.167 2.47422 14.2801 2.69194 14.3356C2.90965 14.3911 3.1383 14.3868 3.3538 14.3233L5.28427 13.7553C5.90414 14.0532 6.56872 14.2472 7.25146 14.3296C7.58316 15.1068 8.06902 15.8086 8.67967 16.3927C9.29031 16.9768 10.0131 17.431 10.8042 17.7279C11.5954 18.0247 12.4385 18.158 13.2827 18.1198C14.1268 18.0815 14.9544 17.8725 15.7155 17.5053L17.646 18.0733C17.8614 18.1367 18.09 18.141 18.3076 18.0855C18.5252 18.0301 18.7239 17.9171 18.8827 17.7583C19.0416 17.5996 19.1547 17.4009 19.2102 17.1834C19.2658 16.9658 19.2617 16.7372 19.1983 16.5218L18.6304 14.5905ZM5.34365 12.4608C5.28392 12.461 5.2245 12.4694 5.16709 12.4858L2.9999 13.1249L3.63818 10.9561C3.68357 10.7994 3.66591 10.6312 3.58896 10.4874C3.02358 9.43002 2.85699 8.2047 3.11956 7.03477C3.38213 5.86485 4.05637 4.82824 5.01939 4.1139C5.9824 3.39957 7.17004 3.05508 8.36583 3.14324C9.56161 3.2314 10.6859 3.74633 11.5337 4.59417C12.3816 5.44201 12.8965 6.5663 12.9847 7.76208C13.0728 8.95786 12.7283 10.1455 12.014 11.1085C11.2997 12.0715 10.2631 12.7458 9.09313 13.0083C7.92321 13.2709 6.69788 13.1043 5.64052 12.5389C5.5496 12.4886 5.44756 12.4618 5.34365 12.4608ZM17.3585 14.7053L17.9999 16.8749L15.8311 16.2366C15.6745 16.1912 15.5062 16.2089 15.3624 16.2858C14.2115 16.9004 12.8661 17.0411 11.6129 16.678C10.3597 16.3149 9.29791 15.4767 8.6538 14.3421C9.50957 14.2527 10.3376 13.9875 11.0861 13.5631C11.8345 13.1386 12.4871 12.5641 13.0031 11.8755C13.519 11.1869 13.887 10.3992 14.0841 9.56163C14.2812 8.72409 14.303 7.85486 14.1483 7.00847C14.894 7.18423 15.5892 7.52896 16.1805 8.01605C16.7717 8.50315 17.2431 9.11959 17.5583 9.81779C17.8735 10.516 18.0241 11.2773 17.9984 12.0429C17.9727 12.8085 17.7714 13.558 17.4101 14.2335C17.3323 14.3782 17.3146 14.5477 17.3608 14.7053H17.3585Z" fill="white"/>
</g>
</svg>
