<svg xmlns="http://www.w3.org/2000/svg" width="24" height="24" fill="none" viewBox="0 0 24 24">
  <path fill="#000" fill-rule="evenodd" d="M9.85 7.75H7.6c-1.926 0-3.08.39-3.77 1.08-.69.69-1.08 1.844-1.08 3.77v3.8c0 1.926.39 3.08 1.08 3.77.69.69 1.844 1.08 3.77 1.08h3.8c1.926 0 3.08-.39 3.77-1.08.69-.69 1.08-1.844 1.08-3.77v-2.25H13.8c-1.242 0-2.308-.197-3.03-.92-.723-.722-.92-1.788-.92-3.03V7.75Zm7.677 5.116a.748.748 0 0 1 .223.534v3c0 2.074-.41 3.72-1.52 4.83-1.11 1.11-2.756 1.52-4.83 1.52H7.6c-2.074 0-3.72-.41-4.83-1.52-1.11-1.11-1.52-2.756-1.52-4.83v-3.8c0-2.074.41-3.72 1.52-4.83C3.88 6.66 5.526 6.25 7.6 6.25h3.033m.717 3.95V8.81l3.84 3.84H13.8c-1.159 0-1.692-.203-1.97-.48-.277-.278-.48-.812-.48-1.97Zm3.9-7.45H10A2.246 2.246 0 0 0 7.75 5a.75.75 0 1 1-1.5 0A3.746 3.746 0 0 1 10 1.25h5.6c.07 0 .136.01.2.027a.75.75 0 0 1 .73.193l6 6a.747.747 0 0 1 .22.541v6.179a3.562 3.562 0 0 1-3.56 3.56.75.75 0 0 1 0-1.5c1.136 0 2.06-.924 2.06-2.06V8.75H19c-1.166 0-2.183-.185-2.874-.876-.691-.691-.876-1.707-.876-2.874V2.75ZM16.75 5V3.81l3.44 3.44H19c-1.084 0-1.567-.19-1.813-.437-.247-.246-.437-.73-.437-1.813Z" clip-rule="evenodd"/>
</svg>
