<svg xmlns="http://www.w3.org/2000/svg" width="24" height="24" fill="none" viewBox="0 0 24 24">
  <path fill="#000" d="M12 8.25a.75.75 0 0 1 .75.75v5a.75.75 0 0 1-1.5 0V9a.75.75 0 0 1 .75-.75ZM11.994 16a1 1 0 1 0 0 2h.01a1 1 0 1 0 0-2h-.01Z"/>
  <path fill="#000" fill-rule="evenodd" d="M11.877 22.16H5.94c-1.9 0-3.433-.685-4.198-1.99-.765-1.302-.618-2.975.302-4.634l3.12-5.62 2.94-5.28C9.068 2.9 10.45 1.843 12 1.843c1.55 0 2.932 1.055 3.895 2.793l6.06 10.91c.92 1.66 1.065 3.333.299 4.636-.767 1.302-2.299 1.988-4.194 1.988H12a.752.752 0 0 1-.123-.01ZM12 3.343c-.8 0-1.768.548-2.584 2.02l-2.94 5.281-3.12 5.62c-.76 1.371-.728 2.453-.32 3.148.407.693 1.334 1.248 2.904 1.248H12c.042 0 .083.003.123.01h5.937c1.564 0 2.492-.554 2.9-1.249.41-.695.444-1.777-.316-3.147l-6.06-10.91C13.768 3.892 12.8 3.343 12 3.343Z" clip-rule="evenodd"/>
</svg>
