<svg xmlns="http://www.w3.org/2000/svg" width="21" height="20" viewBox="0 0 21 20" fill="none">
<g clip-path="url(#clip0_4166_6085)">
<path d="M3.60938 8.125C3.52235 8.125 3.43889 8.09208 3.37736 8.03347C3.31582 7.97487 3.28125 7.89538 3.28125 7.8125C3.28125 7.29562 2.83959 6.875 2.29688 6.875C2.20985 6.875 2.12639 6.84208 2.06486 6.78347C2.00332 6.72487 1.96875 6.64538 1.96875 6.5625C1.96875 6.47962 2.00332 6.40013 2.06486 6.34153C2.12639 6.28292 2.20985 6.25 2.29688 6.25C2.83959 6.25 3.28125 5.82938 3.28125 5.3125C3.28125 5.22962 3.31582 5.15013 3.37736 5.09153C3.43889 5.03292 3.52235 5 3.60938 5C3.6964 5 3.77986 5.03292 3.84139 5.09153C3.90293 5.15013 3.9375 5.22962 3.9375 5.3125C3.9375 5.82938 4.37916 6.25 4.92188 6.25C5.0089 6.25 5.09236 6.28292 5.15389 6.34153C5.21543 6.40013 5.25 6.47962 5.25 6.5625C5.25 6.64538 5.21543 6.72487 5.15389 6.78347C5.09236 6.84208 5.0089 6.875 4.92188 6.875C4.37916 6.875 3.9375 7.29562 3.9375 7.8125C3.9375 7.89538 3.90293 7.97487 3.84139 8.03347C3.77986 8.09208 3.6964 8.125 3.60938 8.125ZM3.28027 6.5625C3.40495 6.65156 3.51586 6.75719 3.60938 6.87594C3.70289 6.75719 3.8138 6.65156 3.93848 6.5625C3.81375 6.47339 3.70294 6.36786 3.60938 6.24906C3.51586 6.36781 3.40495 6.47344 3.28027 6.5625ZM7.54688 5.3125C7.45985 5.3125 7.37639 5.27958 7.31486 5.22097C7.25332 5.16237 7.21875 5.08288 7.21875 5C7.21875 4.48312 6.77709 4.0625 6.23438 4.0625C6.14735 4.0625 6.06389 4.02958 6.00236 3.97097C5.94082 3.91237 5.90625 3.83288 5.90625 3.75C5.90625 3.66712 5.94082 3.58763 6.00236 3.52903C6.06389 3.47042 6.14735 3.4375 6.23438 3.4375C6.77709 3.4375 7.21875 3.01688 7.21875 2.5C7.21875 2.41712 7.25332 2.33763 7.31486 2.27903C7.37639 2.22042 7.45985 2.1875 7.54688 2.1875C7.6339 2.1875 7.71736 2.22042 7.77889 2.27903C7.84043 2.33763 7.875 2.41712 7.875 2.5C7.875 3.01688 8.31666 3.4375 8.85938 3.4375C8.9464 3.4375 9.02986 3.47042 9.09139 3.52903C9.15293 3.58763 9.1875 3.66712 9.1875 3.75C9.1875 3.83288 9.15293 3.91237 9.09139 3.97097C9.02986 4.02958 8.9464 4.0625 8.85938 4.0625C8.31666 4.0625 7.875 4.48312 7.875 5C7.875 5.08288 7.84043 5.16237 7.77889 5.22097C7.71736 5.27958 7.6339 5.3125 7.54688 5.3125ZM7.21777 3.75C7.34245 3.83906 7.45336 3.94469 7.54688 4.06344C7.64039 3.94469 7.7513 3.83906 7.87598 3.75C7.75125 3.66089 7.64044 3.55536 7.54688 3.43656C7.45336 3.55531 7.34245 3.66094 7.21777 3.75ZM11.4844 13.4375H4.26562C4.21427 13.4375 4.16364 13.426 4.11779 13.404C4.07194 13.382 4.03216 13.35 4.00165 13.3107C3.97114 13.2714 3.95074 13.2258 3.94211 13.1775C3.93347 13.1293 3.93684 13.0799 3.95194 13.0331L5.26444 8.97062C5.28507 8.90673 5.32668 8.85083 5.38314 8.81112C5.4396 8.77141 5.50794 8.74999 5.57812 8.75H10.1719C10.2421 8.74999 10.3104 8.77141 10.3669 8.81112C10.4233 8.85083 10.4649 8.90673 10.4856 8.97062L11.7981 13.0331C11.813 13.0799 11.8163 13.1293 11.8076 13.1774C11.7989 13.2256 11.7785 13.2711 11.748 13.3104C11.7175 13.3497 11.6778 13.3817 11.632 13.4038C11.5862 13.4258 11.5357 13.4374 11.4844 13.4375ZM4.70991 12.8125H11.0404L9.92972 9.375H5.82061L4.70991 12.8125ZM17.3906 9.375C17.2502 9.375 17.1206 9.28875 17.0769 9.15438L15.836 5.3125H11.4844C11.3974 5.3125 11.3139 5.27958 11.2524 5.22097C11.1908 5.16237 11.1562 5.08288 11.1562 5C11.1562 4.91712 11.1908 4.83763 11.2524 4.77903C11.3139 4.72042 11.3974 4.6875 11.4844 4.6875H16.0781C16.1483 4.68749 16.2167 4.70891 16.2731 4.74862C16.3296 4.78833 16.3712 4.84423 16.3918 4.90813L17.7043 8.97062C17.7193 9.01737 17.7226 9.06681 17.714 9.11499C17.7053 9.16317 17.6849 9.20875 17.6544 9.24807C17.6239 9.28738 17.5842 9.31934 17.5384 9.34139C17.4925 9.36343 17.442 9.37494 17.3906 9.375Z" fill="#EFBD3B" stroke="#EBB635" stroke-width="0.2"/>
<path d="M5.57843 9.37501C5.50908 9.37505 5.44149 9.35416 5.38538 9.31533C5.32927 9.27651 5.28752 9.22175 5.26613 9.15892C5.24473 9.09609 5.24479 9.02841 5.26629 8.96561C5.2878 8.90282 5.32965 8.84812 5.38582 8.80939L11.2921 4.74689C11.327 4.72286 11.3666 4.70562 11.4085 4.69615C11.4504 4.68668 11.4939 4.68517 11.5364 4.69169C11.5789 4.69822 11.6197 4.71267 11.6564 4.7342C11.693 4.75574 11.7249 4.78394 11.7501 4.8172C11.7754 4.85046 11.7935 4.88813 11.8034 4.92806C11.8134 4.96798 11.8149 5.00938 11.8081 5.04989C11.8012 5.0904 11.7861 5.12922 11.7635 5.16415C11.7408 5.19908 11.7112 5.22942 11.6763 5.25345L5.77006 9.31595C5.7142 9.3544 5.64735 9.37507 5.57843 9.37501ZM10.1722 9.37501C10.1028 9.37505 10.0352 9.35416 9.97913 9.31533C9.92302 9.27651 9.88127 9.22175 9.85988 9.15892C9.83848 9.09609 9.83854 9.02841 9.86004 8.96561C9.88155 8.90282 9.9234 8.84812 9.97957 8.80939L15.8858 4.74689C15.9208 4.72286 15.9603 4.70562 16.0022 4.69615C16.0441 4.68668 16.0876 4.68517 16.1301 4.69169C16.1727 4.69822 16.2135 4.71267 16.2501 4.7342C16.2868 4.75574 16.3187 4.78394 16.3439 4.8172C16.3691 4.85046 16.3872 4.88813 16.3972 4.92806C16.4071 4.96798 16.4087 5.00938 16.4018 5.04989C16.395 5.0904 16.3798 5.12922 16.3572 5.16415C16.3346 5.19908 16.305 5.22942 16.2701 5.25345L10.3638 9.31595C10.308 9.3544 10.2411 9.37507 10.1722 9.37501ZM11.4847 13.4375C11.4153 13.4376 11.3477 13.4167 11.2916 13.3778C11.2355 13.339 11.1938 13.2842 11.1724 13.2214C11.151 13.1586 11.151 13.0909 11.1725 13.0281C11.1941 12.9653 11.2359 12.9106 11.2921 12.8719L17.1983 8.80939C17.2689 8.76086 17.3567 8.74101 17.4426 8.75419C17.5286 8.76738 17.6054 8.81253 17.6564 8.8797C17.7073 8.94688 17.7282 9.03058 17.7143 9.11239C17.7005 9.1942 17.6531 9.26743 17.5826 9.31595L11.6763 13.3785C11.6205 13.4169 11.5536 13.4376 11.4847 13.4375Z" fill="#EFBD3B" stroke="#EBB635" stroke-width="0.2"/>
<path d="M14.7656 17.8125H7.54686C7.44416 17.8125 7.34704 17.7666 7.28469 17.6884C7.2542 17.6498 7.23351 17.6049 7.22424 17.5574C7.21496 17.5098 7.21734 17.4609 7.23121 17.4144L8.54371 13.0394C8.58407 12.905 8.71302 12.8125 8.85936 12.8125H13.4531C13.5995 12.8125 13.7284 12.905 13.7688 13.0394L15.0813 17.4144C15.095 17.4609 15.0973 17.5098 15.0879 17.5573C15.0786 17.6047 15.0578 17.6495 15.0272 17.6881C14.9966 17.7266 14.9571 17.7579 14.9117 17.7795C14.8664 17.8011 14.8163 17.8124 14.7656 17.8125ZM7.98196 17.1875H14.3305L13.2057 13.4375H9.10677L7.98196 17.1875ZM20.6715 13.75C20.6002 13.75 20.5309 13.7278 20.474 13.6868C20.4171 13.6459 20.3757 13.5884 20.3562 13.5231L19.112 9.375H17.3906C17.3036 9.375 17.2201 9.34208 17.1586 9.28347C17.0971 9.22487 17.0625 9.14538 17.0625 9.0625C17.0625 8.97962 17.0971 8.90013 17.1586 8.84153C17.2201 8.78292 17.3036 8.75 17.3906 8.75H19.3594C19.5057 8.75 19.6347 8.8425 19.675 8.97687L20.9875 13.3519C21.0014 13.3984 21.0038 13.4474 20.9945 13.4949C20.9851 13.5425 20.9643 13.5873 20.9337 13.6259C20.9031 13.6645 20.8635 13.6958 20.818 13.7174C20.7725 13.7389 20.7223 13.7501 20.6715 13.75Z" fill="#EFBD3B" stroke="#EBB635" stroke-width="0.2"/>
<path d="M13.4534 13.4375C13.3841 13.4376 13.3165 13.4167 13.2604 13.3778C13.2043 13.339 13.1625 13.2843 13.1411 13.2214C13.1197 13.1586 13.1198 13.0909 13.1413 13.0281C13.1628 12.9653 13.2047 12.9106 13.2608 12.8719L19.1671 8.80939C19.2376 8.76086 19.3255 8.74101 19.4114 8.7542C19.4973 8.76738 19.5742 8.81253 19.6251 8.8797C19.6761 8.94688 19.6969 9.03058 19.6831 9.11239C19.6693 9.1942 19.6218 9.26743 19.5513 9.31595L13.6451 13.3785C13.5892 13.4169 13.5224 13.4376 13.4534 13.4375ZM14.7659 17.8125C14.6966 17.8126 14.629 17.7917 14.5729 17.7528C14.5168 17.714 14.475 17.6593 14.4536 17.5964C14.4322 17.5336 14.4323 17.4659 14.4538 17.4031C14.4753 17.3403 14.5172 17.2856 14.5733 17.2469L20.4796 13.1844C20.5145 13.1604 20.5541 13.1431 20.596 13.1337C20.6379 13.1242 20.6814 13.1227 20.7239 13.1292C20.7664 13.1357 20.8072 13.1502 20.8439 13.1717C20.8806 13.1932 20.9124 13.2214 20.9376 13.2547C20.9629 13.288 20.981 13.3256 20.9909 13.3656C21.0009 13.4055 21.0025 13.4469 20.9956 13.4874C20.9887 13.5279 20.9736 13.5667 20.951 13.6017C20.9284 13.6366 20.8987 13.6669 20.8638 13.691L14.9576 17.7535C14.9017 17.7919 14.8349 17.8126 14.7659 17.8125ZM7.54686 17.8125H0.328113C0.22541 17.8125 0.128285 17.7666 0.0659413 17.6885C0.0354539 17.6498 0.0147636 17.6049 0.00548577 17.5574C-0.00379205 17.5098 -0.00140625 17.4609 0.0124569 17.4144L1.32496 13.0394C1.36532 12.905 1.49427 12.8125 1.64061 12.8125H6.23436C6.38071 12.8125 6.50966 12.905 6.55002 13.0394L7.86252 17.4144C7.87629 17.4609 7.87858 17.5098 7.8692 17.5573C7.85982 17.6048 7.83903 17.6495 7.80847 17.6881C7.7779 17.7266 7.73837 17.7579 7.69299 17.7795C7.64761 17.8011 7.59759 17.8124 7.54686 17.8125ZM0.763207 17.1875H7.11177L5.98696 13.4375H1.88802L0.763207 17.1875Z" fill="#EFBD3B" stroke="#EBB635" stroke-width="0.2"/>
<path d="M1.64093 13.4375C1.57158 13.4375 1.50399 13.4166 1.44788 13.3778C1.39177 13.339 1.35002 13.2842 1.32863 13.2214C1.30723 13.1586 1.30729 13.0909 1.32879 13.0281C1.3503 12.9653 1.39215 12.9106 1.44832 12.8719L4.75583 10.5969C4.79075 10.5728 4.8303 10.5556 4.87222 10.5461C4.91414 10.5367 4.95761 10.5351 5.00015 10.5417C5.04268 10.5482 5.08345 10.5626 5.12012 10.5842C5.1568 10.6057 5.18866 10.6339 5.21389 10.6672C5.23912 10.7004 5.25722 10.7381 5.26716 10.778C5.27711 10.818 5.2787 10.8594 5.27184 10.8999C5.26499 10.9404 5.24982 10.9792 5.22721 11.0141C5.2046 11.0491 5.17498 11.0794 5.14006 11.1034L1.83256 13.3784C1.7767 13.4169 1.70985 13.4375 1.64093 13.4375Z" fill="#EFBD3B" stroke="#EBB635" stroke-width="0.2"/>
</g>
<defs>
<clipPath id="clip0_4166_6085">
<rect width="21" height="20" fill="white"/>
</clipPath>
</defs>
</svg>