<svg xmlns="http://www.w3.org/2000/svg" width="25" height="24" viewBox="0 0 25 24" fill="none">
<path d="M16.56 20.18C16.3 20.18 16.03 20.17 15.74 20.14C15.22 20.1 14.63 20 14.02 19.85L12.34 19.45C7.73001 18.36 6.22001 15.92 7.30001 11.32L8.28001 7.13001C8.50001 6.18002 8.76001 5.41002 9.08001 4.77002C10.8 1.22002 14.09 1.54001 16.43 2.09001L18.1 2.48001C20.44 3.03001 21.92 3.90001 22.75 5.23002C23.57 6.56002 23.7 8.27001 23.15 10.61L22.17 14.79C21.31 18.45 19.52 20.18 16.56 20.18ZM13.87 3.25001C12.2 3.25001 11.14 3.94002 10.43 5.42002C10.17 5.96002 9.94001 6.63001 9.74001 7.47001L8.76001 11.66C7.87001 15.44 8.90001 17.09 12.68 17.99L14.36 18.39C14.9 18.52 15.41 18.6 15.87 18.64C18.58 18.91 19.94 17.72 20.7 14.45L21.68 10.27C22.13 8.34002 22.07 6.99002 21.47 6.02001C20.87 5.05001 19.69 4.39002 17.75 3.94002L16.08 3.55001C15.25 3.35001 14.51 3.25001 13.87 3.25001Z" fill="#78828A"/>
<path d="M9.07999 22.2499C6.50999 22.2499 4.86999 20.7099 3.81999 17.4599L2.53999 13.5099C1.11999 9.10993 2.38999 6.62993 6.76999 5.20993L8.34999 4.69993C8.86999 4.53993 9.25999 4.42993 9.60999 4.36993C9.88999 4.30993 10.18 4.41993 10.35 4.64993C10.52 4.87993 10.55 5.17993 10.43 5.43993C10.17 5.96993 9.93999 6.63993 9.74999 7.47993L8.76999 11.6699C7.87999 15.4499 8.90999 17.0999 12.69 17.9999L14.37 18.3999C14.91 18.5299 15.42 18.6099 15.88 18.6499C16.2 18.6799 16.46 18.8999 16.55 19.2099C16.63 19.5199 16.51 19.8399 16.25 20.0199C15.59 20.4699 14.76 20.8499 13.71 21.1899L12.13 21.7099C10.98 22.0699 9.97999 22.2499 9.07999 22.2499ZM8.52999 6.21993L7.23999 6.63993C3.66999 7.78993 2.81999 9.46993 3.96999 13.0499L5.24999 16.9999C6.40999 20.5699 8.08999 21.4299 11.66 20.2799L13.24 19.7599C13.3 19.7399 13.35 19.7199 13.41 19.6999L12.35 19.4499C7.73999 18.3599 6.22999 15.9199 7.30999 11.3199L8.28999 7.12993C8.35999 6.80993 8.43999 6.49993 8.52999 6.21993Z" fill="#78828A"/>
</svg>