<svg width="33" height="32" viewBox="0 0 33 32" fill="none" xmlns="http://www.w3.org/2000/svg">
<path d="M16.4999 30.3467C15.0465 30.3467 13.6066 29.92 12.4732 29.08L6.73987 24.8C5.21987 23.6667 4.0332 21.3067 4.0332 19.4133V9.50668C4.0332 7.45335 5.53989 5.26668 7.47323 4.54668L14.1265 2.05335C15.4465 1.56002 17.5266 1.56002 18.8466 2.05335L25.5132 4.54668C27.4466 5.26668 28.9532 7.45335 28.9532 9.50668V19.4133C28.9532 21.3067 27.7665 23.6667 26.2465 24.8L20.5132 29.08C19.3932 29.92 17.9532 30.3467 16.4999 30.3467ZM14.8332 3.92001L8.17989 6.41333C7.03322 6.84 6.0332 8.28001 6.0332 9.50668V19.4133C6.0332 20.68 6.92655 22.4533 7.92655 23.2L13.6599 27.48C15.1932 28.6267 17.7932 28.6267 19.3265 27.48L25.0599 23.2C26.0732 22.44 26.9532 20.6667 26.9532 19.4133V9.50668C26.9532 8.29334 25.9532 6.85333 24.8066 6.41333L18.1532 3.92001C17.2732 3.58667 15.7265 3.58667 14.8332 3.92001Z" fill="#292D32"/>
<path d="M16.4996 15.5601C16.4729 15.5601 16.4462 15.5601 16.4062 15.5601C14.4729 15.5068 13.0596 14.0268 13.0596 12.2268C13.0596 10.3868 14.5662 8.88013 16.4062 8.88013C18.2462 8.88013 19.7529 10.3868 19.7529 12.2268C19.7396 14.0401 18.3262 15.5068 16.5262 15.5734C16.5129 15.5601 16.5129 15.5601 16.4996 15.5601ZM16.4062 10.8801C15.6595 10.8801 15.0596 11.4801 15.0596 12.2268C15.0596 12.9601 15.6329 13.5468 16.3529 13.5734C16.3529 13.5734 16.4196 13.5734 16.4996 13.5734C17.2062 13.5334 17.7529 12.9468 17.7529 12.2268C17.7662 11.4801 17.1529 10.8801 16.4062 10.8801Z" fill="#292D32"/>
<path d="M16.4994 23.1333C15.3528 23.1333 14.1928 22.8267 13.2994 22.2267C12.4061 21.64 11.8994 20.7733 11.8994 19.8533C11.8994 18.9333 12.4061 18.0667 13.2994 17.4667C15.0994 16.2667 17.9128 16.28 19.6994 17.4667C20.5928 18.0533 21.0994 18.92 21.0994 19.84C21.0994 20.76 20.5928 21.6267 19.6994 22.2267C18.8061 22.8267 17.6461 23.1333 16.4994 23.1333ZM14.4061 19.12C14.0728 19.3333 13.8861 19.6 13.8994 19.84C13.8994 20.08 14.0861 20.3467 14.4061 20.56C15.5261 21.3067 17.4728 21.3067 18.5928 20.56C18.9261 20.3467 19.1128 20.08 19.1128 19.84C19.1128 19.6 18.9261 19.3333 18.6061 19.12C17.4861 18.3866 15.5261 18.3866 14.4061 19.12Z" fill="#292D32"/>
</svg>
