<svg xmlns="http://www.w3.org/2000/svg" width="24" height="24" fill="none" viewBox="0 0 24 24">
  <path fill="#000" d="M15.36 8.64a.75.75 0 0 1 0 1.06l-2.3 2.3 2.3 2.3a.75.75 0 1 1-1.06 1.06l-2.3-2.3-2.3 2.3a.75.75 0 0 1-1.06-1.06l2.3-2.3-2.3-2.3A.75.75 0 0 1 9.7 8.64l2.3 2.3 2.3-2.3a.75.75 0 0 1 1.06 0Z"/>
  <path fill="#000" fill-rule="evenodd" d="M1.25 12C1.25 6.086 6.086 1.25 12 1.25S22.75 6.086 22.75 12 17.914 22.75 12 22.75 1.25 17.914 1.25 12ZM12 2.75c-5.086 0-9.25 4.164-9.25 9.25s4.164 9.25 9.25 9.25 9.25-4.164 9.25-9.25S17.086 2.75 12 2.75Z" clip-rule="evenodd"/>
</svg>
